<svg height="512pt" viewBox="-50 0 511 512" width="512pt" xmlns="http://www.w3.org/2000/svg"><path d="m365.964844 0h-320.464844c-24.8125 0-45 20.1875-45 45v422c0 24.8125 20.1875 45 45 45h320.46875c24.8125 0 45-20.1875 45-45v-422c-.003906-24.8125-20.191406-45-45.003906-45zm15 467c0 8.269531-6.726563 15-15 15h-320.464844c-8.269531 0-15-6.730469-15-15v-422c0-8.269531 6.730469-15 15-15h320.46875c8.269531 0 15 6.730469 15 15v422zm0 0"/><path d="m205.730469 201.890625c4.136719 0 8.089843-1.710937 10.925781-4.722656l41.398438-44.015625c.125-.132813.246093-.265625.363281-.402344 6.386719-6.964844 13.566406-16.675781 13.449219-30.292969-.191407-21.164062-16.851563-38.796875-37.929688-40.148437-10.523438-.671875-20.535156 2.675781-28.296875 9.019531-7.105469-5.722656-16.078125-9.039063-25.472656-9.039063-22.371094 0-40.570313 18.199219-40.570313 40.570313 0 13.65625 7.949219 23.285156 13.210938 29.65625.207031.25.421875.492187.644531.730469l41.351563 43.925781c2.835937 3.011719 6.789062 4.71875 10.925781 4.71875zm-25.5625-89.601563c4.109375 0 7.765625 2.308594 9.542969 6.019532 2.941406 6.148437 9.226562 10.113281 16.023437 10.113281h.039063c6.890624-.015625 13.011718-3.902344 15.964843-10.140625 1.867188-3.941406 5.902344-6.304688 10.285157-6.03125 5.378906.34375 9.796874 5.042969 9.84375 10.472656.019531 2.285156-.9375 4.75-5.761719 9.972656-.054688.058594-.109375.117188-.160157.175782l-30.222656 32.132812-30.089844-31.964844c-2.769531-3.355468-6.035156-7.410156-6.035156-10.175781 0-5.832031 4.742188-10.574219 10.570313-10.574219zm0 0"/><path d="m313.265625 244h-137.847656c-8.285157 0-15 6.714844-15 15s6.714843 15 15 15h137.847656c8.285156 0 15-6.714844 15-15s-6.714844-15-15-15zm0 0"/><path d="m137.117188 259c0 13.507812-10.949219 24.460938-24.460938 24.460938-13.507812 0-24.457031-10.953126-24.457031-24.460938s10.949219-24.460938 24.457031-24.460938c13.511719 0 24.460938 10.953126 24.460938 24.460938zm0 0"/><path d="m313.265625 320h-137.847656c-8.285157 0-15 6.714844-15 15s6.714843 15 15 15h137.847656c8.285156 0 15-6.714844 15-15s-6.714844-15-15-15zm0 0"/><path d="m137.117188 335c0 13.507812-10.949219 24.460938-24.460938 24.460938-13.507812 0-24.457031-10.953126-24.457031-24.460938s10.949219-24.460938 24.457031-24.460938c13.511719 0 24.460938 10.953126 24.460938 24.460938zm0 0"/><path d="m313.265625 396h-137.847656c-8.285157 0-15 6.714844-15 15s6.714843 15 15 15h137.847656c8.285156 0 15-6.714844 15-15s-6.714844-15-15-15zm0 0"/><path d="m137.117188 411c0 13.507812-10.949219 24.460938-24.460938 24.460938-13.507812 0-24.457031-10.953126-24.457031-24.460938s10.949219-24.460938 24.457031-24.460938c13.511719 0 24.460938 10.953126 24.460938 24.460938zm0 0"/></svg>