<?xml version="1.0"?>
<svg xmlns="http://www.w3.org/2000/svg" xmlns:xlink="http://www.w3.org/1999/xlink" xmlns:svgjs="http://svgjs.com/svgjs" version="1.1" width="512" height="512" x="0" y="0" viewBox="0 0 512 512" style="enable-background:new 0 0 512 512" xml:space="preserve" class=""><g>
<g xmlns="http://www.w3.org/2000/svg">
	<g>
		<g>
			<path d="M392.684,350.989c10.864-0.363,19.316-9.643,19.316-20.513V120.048c0-44.209-35.839-80.048-80.047-80.047h-5.905     c-0.027,0-0.048-0.022-0.048-0.048v-5.62C326,15.371,310.629,0,291.667,0h-71.334C201.372,0,186,15.372,186.001,34.333v5.619     c0,0.027-0.022,0.048-0.048,0.048h-5.905C135.839,40,100,75.839,100,120.048v311.904C100,476.161,135.839,512,180.048,512H332     c43.755,0,79.418-35.309,79.993-78.93c0.156-11.873-9.185-21.656-21.043-21.043c-10.456,0.541-18.788,9.112-18.948,19.664     C371.665,453.909,354.173,472,331.952,472H180.048C157.93,472,140,454.07,140,431.953V120.048C140,97.93,157.93,80,180.047,80     h25.905c11.072,0,20.048-8.976,20.047-20.047V40.048c0-0.027,0.022-0.048,0.048-0.048h59.905c0.027,0,0.048,0.022,0.048,0.048     v19.904C286,71.024,294.976,80,306.047,80h25.905C354.07,80,372,97.93,372,120.048V331     C372,342.273,381.326,351.368,392.684,350.989z" fill="#ffc107" data-original="#000000" style="" class=""/>
			<path d="M216,380c-0.015,3.146,2.714,5.014,6.211,5c2.456-0.01,5.05-0.995,6.761-2.699l94.411-108.011     c8.197-9.476,1.579-24.29-11.001-24.29h-46.231c-0.037,0-0.06-0.041-0.04-0.073l36.506-58.854c0.02-0.032-0.003-0.073-0.04-0.073     h-70.873c-0.017,0-0.033,0.009-0.042,0.024l-46.07,82.143C178.063,286.591,187.837,303,203.311,303h40.109     c0.033,0,0.056,0.033,0.045,0.064l-26.852,74.427C216.194,378.405,216.004,379.243,216,380z" fill="#ffc107" data-original="#000000" style="" class=""/>
		</g>
	</g>
</g>
<g xmlns="http://www.w3.org/2000/svg">
</g>
<g xmlns="http://www.w3.org/2000/svg">
</g>
<g xmlns="http://www.w3.org/2000/svg">
</g>
<g xmlns="http://www.w3.org/2000/svg">
</g>
<g xmlns="http://www.w3.org/2000/svg">
</g>
<g xmlns="http://www.w3.org/2000/svg">
</g>
<g xmlns="http://www.w3.org/2000/svg">
</g>
<g xmlns="http://www.w3.org/2000/svg">
</g>
<g xmlns="http://www.w3.org/2000/svg">
</g>
<g xmlns="http://www.w3.org/2000/svg">
</g>
<g xmlns="http://www.w3.org/2000/svg">
</g>
<g xmlns="http://www.w3.org/2000/svg">
</g>
<g xmlns="http://www.w3.org/2000/svg">
</g>
<g xmlns="http://www.w3.org/2000/svg">
</g>
<g xmlns="http://www.w3.org/2000/svg">
</g>
</g></svg>
