<?xml version="1.0"?>
<svg xmlns="http://www.w3.org/2000/svg" xmlns:xlink="http://www.w3.org/1999/xlink" xmlns:svgjs="http://svgjs.com/svgjs" version="1.1" width="512" height="512" x="0" y="0" viewBox="0 0 282.922 282.922" style="enable-background:new 0 0 512 512" xml:space="preserve" class=""><g>
<g xmlns="http://www.w3.org/2000/svg">
	<g>
		<path d="M200.745,63.163c-0.549-12.699-3.779-30.054-15.565-44.224C174.726,6.379,163.535,0,151.896,0    c-13.464,0-26.805,8.647-39.646,25.697C97.841,44.833,93.833,65.04,93.123,79.208c-6.682,2.672-10.897,7.922-10.897,13.753v42.149    c-29.412,10.541-50.495,38.596-50.495,71.632c0,42.083,34.111,76.181,76.181,76.181c28.26,0,52.879-15.431,66.021-38.287    c3.749,0.663,7.602,1.046,11.548,1.046c36.288,0,65.71-29.422,65.71-65.71c0-27.264-16.58-50.624-40.203-60.587V75.51    C210.987,70.182,206.943,65.4,200.745,63.163z M103.606,241.145c-19.004,0-34.403-15.399-34.403-34.403    c0-18.993,15.399-34.388,34.403-34.388c18.993,0,34.391,15.395,34.391,34.388C137.997,225.746,122.6,241.145,103.606,241.145z     M136.529,136.177c-0.924-0.373-1.882-0.653-2.827-0.997V92.955c0-6.494-5.313-12.251-13.17-14.527    c0.122-24.772,4.554-64.043,31.151-66.053c16.622,3.239,21.935,32.584,23.639,51.253c-5.572,2.39-9.057,6.897-9.057,11.886v41.668    C154.671,120.746,144.418,127.364,136.529,136.177z M217.336,179.96c0,17.59-14.261,31.855-31.855,31.855    c-0.56,0-1.098-0.062-1.646-0.082c0.104-1.657,0.248-3.304,0.248-4.992c0-19.511-7.399-37.251-19.47-50.735    c5.603-4.878,12.853-7.901,20.868-7.901C203.075,148.105,217.336,162.366,217.336,179.96z" fill="#ffc107" data-original="#000000" style="" class=""/>
	</g>
</g>
<g xmlns="http://www.w3.org/2000/svg">
</g>
<g xmlns="http://www.w3.org/2000/svg">
</g>
<g xmlns="http://www.w3.org/2000/svg">
</g>
<g xmlns="http://www.w3.org/2000/svg">
</g>
<g xmlns="http://www.w3.org/2000/svg">
</g>
<g xmlns="http://www.w3.org/2000/svg">
</g>
<g xmlns="http://www.w3.org/2000/svg">
</g>
<g xmlns="http://www.w3.org/2000/svg">
</g>
<g xmlns="http://www.w3.org/2000/svg">
</g>
<g xmlns="http://www.w3.org/2000/svg">
</g>
<g xmlns="http://www.w3.org/2000/svg">
</g>
<g xmlns="http://www.w3.org/2000/svg">
</g>
<g xmlns="http://www.w3.org/2000/svg">
</g>
<g xmlns="http://www.w3.org/2000/svg">
</g>
<g xmlns="http://www.w3.org/2000/svg">
</g>
</g></svg>
