<?xml version="1.0"?>
<svg xmlns="http://www.w3.org/2000/svg" xmlns:xlink="http://www.w3.org/1999/xlink" xmlns:svgjs="http://svgjs.com/svgjs" version="1.1" width="512" height="512" x="0" y="0" viewBox="0 0 512 512" style="enable-background:new 0 0 512 512" xml:space="preserve" class=""><g><path xmlns="http://www.w3.org/2000/svg" d="m121 255c0 74.441406 60.558594 135 135 135s135-60.558594 135-135c0-69.308594-52.683594-125.910156-120-133.484375v103.484375c0 8.289062-6.710938 15-15 15s-15-6.710938-15-15v-103.484375c-67.316406 7.574219-120 64.175781-120 133.484375zm0 0" fill="#ffc107" data-original="#000000" style=""/><path xmlns="http://www.w3.org/2000/svg" d="m256 90c8.289062 0 15-6.710938 15-15v-60c0-8.289062-6.710938-15-15-15s-15 6.710938-15 15v60c0 8.289062 6.710938 15 15 15zm0 0" fill="#ffc107" data-original="#000000" style=""/><path xmlns="http://www.w3.org/2000/svg" d="m497 240h-61c-8.289062 0-15 6.710938-15 15s6.710938 15 15 15h61c8.289062 0 15-6.710938 15-15s-6.710938-15-15-15zm0 0" fill="#ffc107" data-original="#000000" style=""/><path xmlns="http://www.w3.org/2000/svg" d="m0 255c0 8.289062 6.710938 15 15 15h61c8.289062 0 15-6.710938 15-15s-6.710938-15-15-15h-61c-8.289062 0-15 6.710938-15 15zm0 0" fill="#ffc107" data-original="#000000" style=""/><path xmlns="http://www.w3.org/2000/svg" d="m436.308594 74.691406c-5.859375-5.859375-15.351563-5.859375-21.210938 0l-42.421875 42.421875c-5.859375 5.859375-5.859375 15.351563 0 21.210938s15.351563 5.859375 21.210938 0l42.421875-42.421875c5.859375-5.859375 5.859375-15.351563 0-21.210938zm0 0" fill="#ffc107" data-original="#000000" style=""/><path xmlns="http://www.w3.org/2000/svg" d="m118.113281 371.675781-42.421875 42.421875c-5.859375 5.859375-5.859375 15.351563 0 21.210938s15.351563 5.859375 21.210938 0l42.421875-42.421875c5.859375-5.859375 5.859375-15.351563 0-21.210938s-15.351563-5.859375-21.210938 0zm0 0" fill="#ffc107" data-original="#000000" style=""/><path xmlns="http://www.w3.org/2000/svg" d="m96.902344 74.691406c-5.859375-5.859375-15.351563-5.859375-21.210938 0s-5.859375 15.351563 0 21.210938l42.421875 42.421875c5.859375 5.859375 15.351563 5.859375 21.210938 0s5.859375-15.351563 0-21.210938zm0 0" fill="#ffc107" data-original="#000000" style=""/><path xmlns="http://www.w3.org/2000/svg" d="m372.675781 371.675781c-5.859375 5.859375-5.859375 15.351563 0 21.210938l42.421875 42.421875c5.859375 5.859375 15.351563 5.859375 21.210938 0s5.859375-15.351563 0-21.210938l-42.421875-42.421875c-5.859375-5.859375-15.351563-5.859375-21.210938 0zm0 0" fill="#ffc107" data-original="#000000" style=""/></g></svg>
