<?xml version="1.0"?>
<svg xmlns="http://www.w3.org/2000/svg" xmlns:xlink="http://www.w3.org/1999/xlink" xmlns:svgjs="http://svgjs.com/svgjs" version="1.1" width="512" height="512" x="0" y="0" viewBox="0 0 509 509.33334" style="enable-background:new 0 0 512 512" xml:space="preserve" class=""><g><path xmlns="http://www.w3.org/2000/svg" d="m195.683594 356.402344v102.347656c0 10.355469 8.394531 18.75 18.75 18.75 10.351562 0 18.75-8.394531 18.75-18.75v-102.347656c-12.160156 4.148437-25.347656 4.148437-37.5 0zm0 0" fill="#ffc107" data-original="#000000" style="" class=""/><path xmlns="http://www.w3.org/2000/svg" d="m214.433594 342.015625c22.515625 0 40.761718-18.25 40.761718-40.765625s-18.246093-40.765625-40.761718-40.765625-40.765625 18.25-40.765625 40.765625c.023437 22.503906 18.261719 40.738281 40.765625 40.765625zm0 0" fill="#ffc107" data-original="#000000" style="" class=""/><path xmlns="http://www.w3.org/2000/svg" d="m233.183594 246.097656v-227.347656c0-10.355469-8.398438-18.75-18.75-18.75-10.355469 0-18.75 8.394531-18.75 18.75v227.347656c12.152344-4.148437 25.339844-4.148437 37.5 0zm0 0" fill="#ffc107" data-original="#000000" style="" class=""/><path xmlns="http://www.w3.org/2000/svg" d="m58.183594 458.75v-227.347656c-12.160156 4.148437-25.347656 4.148437-37.5 0v227.347656c0 10.355469 8.394531 18.75 18.75 18.75 10.351562 0 18.75-8.394531 18.75-18.75zm0 0" fill="#ffc107" data-original="#000000" style="" class=""/><path xmlns="http://www.w3.org/2000/svg" d="m58.183594 121.097656v-102.347656c0-10.355469-8.398438-18.75-18.75-18.75-10.355469 0-18.75 8.394531-18.75 18.75v102.347656c12.152344-4.148437 25.339844-4.148437 37.5 0zm0 0" fill="#ffc107" data-original="#000000" style="" class=""/><path xmlns="http://www.w3.org/2000/svg" d="m80.195312 176.25c0 22.515625-18.246093 40.765625-40.761718 40.765625s-40.765625-18.25-40.765625-40.765625 18.25-40.765625 40.765625-40.765625 40.761718 18.25 40.761718 40.765625zm0 0" fill="#ffc107" data-original="#000000" style="" class=""/><path xmlns="http://www.w3.org/2000/svg" d="m408.183594 121.097656v-102.347656c0-10.355469-8.398438-18.75-18.75-18.75-10.355469 0-18.75 8.394531-18.75 18.75v102.347656c12.152344-4.148437 25.339844-4.148437 37.5 0zm0 0" fill="#ffc107" data-original="#000000" style="" class=""/><path xmlns="http://www.w3.org/2000/svg" d="m430.195312 176.25c0 22.515625-18.246093 40.765625-40.761718 40.765625s-40.765625-18.25-40.765625-40.765625 18.25-40.765625 40.765625-40.765625 40.761718 18.25 40.761718 40.765625zm0 0" fill="#ffc107" data-original="#000000" style="" class=""/><path xmlns="http://www.w3.org/2000/svg" d="m370.683594 231.402344v227.347656c0 10.355469 8.394531 18.75 18.75 18.75 10.351562 0 18.75-8.394531 18.75-18.75v-227.347656c-12.160156 4.148437-25.347656 4.148437-37.5 0zm0 0" fill="#ffc107" data-original="#000000" style="" class=""/></g></svg>
