<?xml version="1.0"?>
<svg xmlns="http://www.w3.org/2000/svg" xmlns:xlink="http://www.w3.org/1999/xlink" xmlns:svgjs="http://svgjs.com/svgjs" version="1.1" width="512" height="512" x="0" y="0" viewBox="0 0 596.416 596.416" style="enable-background:new 0 0 512 512" xml:space="preserve" class=""><g>
<g xmlns="http://www.w3.org/2000/svg">
	<g>
		<path d="M136.363,434.07c36.291,0,70.408-14.132,96.069-39.793l65.776-65.776l65.776,65.776    c25.661,25.661,59.779,39.793,96.069,39.793c36.291,0,70.408-14.133,96.069-39.793c25.661-25.661,39.793-59.779,39.793-96.069    c0-36.291-14.132-70.408-39.793-96.069s-59.778-39.793-96.069-39.793c-36.29,0-70.408,14.132-96.069,39.793l-65.776,65.777    l-65.776-65.776c-25.661-25.661-59.779-39.793-96.069-39.793c-36.291,0-70.408,14.132-96.069,39.793    C14.632,227.8,0.5,261.918,0.5,298.209c0,36.289,14.132,70.407,39.793,96.068C65.955,419.938,100.072,434.07,136.363,434.07z     M394.277,232.431c17.569-17.569,40.93-27.246,65.776-27.246c24.848,0,48.207,9.676,65.776,27.246    c17.57,17.569,27.247,40.93,27.247,65.777c0,24.847-9.677,48.206-27.247,65.776c-17.569,17.569-40.929,27.246-65.776,27.246    c-24.847,0-48.207-9.677-65.776-27.246L328.5,298.208L394.277,232.431z M70.586,232.431    c17.569-17.569,40.929-27.246,65.776-27.246s48.207,9.676,65.776,27.246l65.777,65.777l-65.778,65.777    c-17.569,17.569-40.929,27.245-65.776,27.245s-48.208-9.676-65.777-27.245c-17.569-17.57-27.245-40.93-27.245-65.776    C43.341,273.361,53.016,250.001,70.586,232.431z" fill="#ffc107" data-original="#000000" style="" class=""/>
		<path d="M460.054,434.57c-36.424,0-70.668-14.184-96.423-39.939l-65.423-65.423l-65.422,65.423    c-25.755,25.756-59.999,39.939-96.423,39.939s-70.667-14.184-96.423-39.939C14.184,368.875,0,334.632,0,298.209    c0-36.424,14.184-70.668,39.939-96.423c25.756-25.755,60-39.939,96.423-39.939c36.424,0,70.667,14.184,96.423,39.939    l65.423,65.423l65.423-65.423c25.756-25.755,59.999-39.939,96.423-39.939s70.668,14.184,96.423,39.939    s39.939,59.999,39.939,96.423s-14.185,70.668-39.939,96.423C530.721,420.387,496.477,434.57,460.054,434.57z M298.208,327.794    l66.13,66.13c25.566,25.566,59.559,39.646,95.716,39.646c36.156,0,70.148-14.08,95.716-39.646    c25.566-25.566,39.646-59.559,39.646-95.716c0-36.157-14.08-70.149-39.646-95.716s-59.559-39.646-95.716-39.646    c-36.156,0-70.148,14.08-95.716,39.646l-66.13,66.13l-66.13-66.13c-25.566-25.566-59.559-39.646-95.716-39.646    c-36.156,0-70.149,14.08-95.716,39.646C15.08,228.059,1,262.052,1,298.209c0,36.155,14.08,70.147,39.646,95.715    c25.567,25.566,59.56,39.646,95.716,39.646s70.149-14.08,95.716-39.646L298.208,327.794z M460.054,391.73    c-24.98,0-48.466-9.729-66.13-27.393l-66.131-66.13l66.131-66.13c17.664-17.664,41.149-27.392,66.13-27.392    s48.466,9.728,66.13,27.392c17.665,17.664,27.394,41.149,27.394,66.13c0,24.979-9.729,48.465-27.394,66.13    C508.52,382.002,485.034,391.73,460.054,391.73z M329.207,298.208l65.424,65.423c17.476,17.476,40.71,27.1,65.423,27.1    s47.947-9.624,65.423-27.1c17.476-17.477,27.101-40.71,27.101-65.423c0-24.714-9.625-47.948-27.101-65.423    s-40.71-27.099-65.423-27.099s-47.947,9.624-65.423,27.099L329.207,298.208z M136.362,391.73c-24.981,0-48.467-9.728-66.13-27.392    s-27.391-41.149-27.391-66.13c0-24.982,9.728-48.468,27.392-66.131c17.664-17.664,41.149-27.392,66.13-27.392    s48.466,9.728,66.13,27.392l66.131,66.13l-66.131,66.131C184.829,382.003,161.343,391.73,136.362,391.73z M136.363,205.686    c-24.713,0-47.948,9.624-65.423,27.099c-17.475,17.475-27.099,40.709-27.099,65.424c0,24.713,9.624,47.947,27.098,65.423    c17.475,17.475,40.709,27.099,65.423,27.099s47.948-9.624,65.423-27.099l65.424-65.424l-65.424-65.423    C184.311,215.31,161.076,205.686,136.363,205.686z" fill="#ffc107" data-original="#000000" style="" class=""/>
	</g>
</g>
<g xmlns="http://www.w3.org/2000/svg">
</g>
<g xmlns="http://www.w3.org/2000/svg">
</g>
<g xmlns="http://www.w3.org/2000/svg">
</g>
<g xmlns="http://www.w3.org/2000/svg">
</g>
<g xmlns="http://www.w3.org/2000/svg">
</g>
<g xmlns="http://www.w3.org/2000/svg">
</g>
<g xmlns="http://www.w3.org/2000/svg">
</g>
<g xmlns="http://www.w3.org/2000/svg">
</g>
<g xmlns="http://www.w3.org/2000/svg">
</g>
<g xmlns="http://www.w3.org/2000/svg">
</g>
<g xmlns="http://www.w3.org/2000/svg">
</g>
<g xmlns="http://www.w3.org/2000/svg">
</g>
<g xmlns="http://www.w3.org/2000/svg">
</g>
<g xmlns="http://www.w3.org/2000/svg">
</g>
<g xmlns="http://www.w3.org/2000/svg">
</g>
</g></svg>
