<?xml version="1.0"?>
<svg xmlns="http://www.w3.org/2000/svg" xmlns:xlink="http://www.w3.org/1999/xlink" xmlns:svgjs="http://svgjs.com/svgjs" version="1.1" width="512" height="512" x="0" y="0" viewBox="0 0 512 512" style="enable-background:new 0 0 512 512" xml:space="preserve" class=""><g><path xmlns="http://www.w3.org/2000/svg" d="m256 150.015625c33.617188 0 60.972656-27.289063 60.972656-60.832031 0-13.859375-4.78125-27.371094-13.472656-38.140625-.09375-.132813-.191406-.265625-.296875-.394531l-35.164063-44.71875c-2.960937-3.769532-7.40625-5.929688-12.199218-5.929688-.011719 0-.023438 0-.035156 0-4.808594.0117188-9.257813 2.191406-12.210938 5.984375l-35.015625 44.964844c-.007813.007812-.015625.019531-.019531.027343-8.726563 10.773438-13.53125 24.332032-13.53125 38.207032 0 33.542968 27.351562 60.832031 60.972656 60.832031zm-31.785156-86.59375c.101562-.125.203125-.253906.296875-.382813l31.34375-40.25 31.191406 39.667969c.175781.257813.363281.511719.566406.753907 6.03125 7.28125 9.355469 16.507812 9.355469 25.972656 0 22.515625-18.378906 40.832031-40.972656 40.832031-22.589844 0-40.96875-18.316406-40.96875-40.832031 0-9.5 3.175781-18.410156 9.1875-25.761719zm0 0" fill="#ffc107" data-original="#000000" style="" class=""/><path xmlns="http://www.w3.org/2000/svg" d="m60.972656 150.015625c33.617188 0 60.96875-27.289063 60.96875-60.832031 0-13.863282-4.78125-27.378906-13.476562-38.144532-.09375-.132812-.191406-.261718-.289063-.390624l-35.164062-44.71875c-2.964844-3.769532-7.40625-5.929688-12.199219-5.929688-.011719 0-.027344 0-.039062 0-4.804688.0117188-9.253907 2.195312-12.207032 5.984375l-35.015625 44.964844c-.003906.003906-.007812.011719-.011719.015625-8.734374 10.777344-13.539062 24.339844-13.539062 38.21875 0 33.542968 27.351562 60.832031 60.972656 60.832031zm-31.785156-86.59375c.097656-.121094.195312-.242187.289062-.371094l31.351563-40.261719 31.191406 39.671876c.175781.257812.363281.507812.566407.75 6.03125 7.28125 9.355468 16.507812 9.355468 25.972656 0 22.515625-18.378906 40.832031-40.972656 40.832031-22.589844 0-40.96875-18.316406-40.96875-40.832031 0-9.5 3.175781-18.410156 9.1875-25.761719zm0 0" fill="#ffc107" data-original="#000000" style="" class=""/><path xmlns="http://www.w3.org/2000/svg" d="m451.027344 150.015625c33.621094 0 60.972656-27.289063 60.972656-60.832031 0-13.859375-4.78125-27.375-13.476562-38.144532-.09375-.132812-.1875-.261718-.289063-.390624l-35.164063-44.71875c-2.964843-3.769532-7.410156-5.929688-12.199218-5.929688-.015625 0-.027344 0-.039063 0-4.804687.0117188-9.257812 2.195312-12.207031 5.984375l-35.019531 44.964844c0 .003906-.003907.011719-.007813.015625-8.734375 10.777344-13.539062 24.339844-13.539062 38.21875 0 33.542968 27.351562 60.832031 60.96875 60.832031zm-31.785156-86.59375c.101562-.121094.199218-.242187.289062-.371094l31.355469-40.261719 31.191406 39.671876c.175781.257812.363281.507812.566406.75 6.03125 7.28125 9.355469 16.507812 9.355469 25.972656 0 22.515625-18.378906 40.832031-40.972656 40.832031-22.589844 0-40.96875-18.316406-40.96875-40.832031 0-9.5 3.175781-18.410156 9.183594-25.761719zm0 0" fill="#ffc107" data-original="#000000" style="" class=""/><path xmlns="http://www.w3.org/2000/svg" d="m502 238h-44v-13.28125c0-5.519531-4.476562-10-10-10s-10 4.480469-10 10v13.28125h-172v-13.28125c0-5.519531-4.476562-10-10-10s-10 4.480469-10 10v13.28125h-172v-13.28125c0-5.519531-4.476562-10-10-10s-10 4.480469-10 10v13.28125h-44c-5.523438 0-10 4.480469-10 10 0 5.523438 4.476562 10 10 10h492c5.523438 0 10-4.476562 10-10 0-5.519531-4.476562-10-10-10zm0 0" fill="#ffc107" data-original="#000000" style="" class=""/><path xmlns="http://www.w3.org/2000/svg" d="m502 174h-492c-5.523438 0-10 4.480469-10 10 0 5.523438 4.476562 10 10 10h140.128906v13.28125c0 5.523438 4.476563 10 10 10 5.519532 0 10-4.476562 10-10v-13.28125h172v13.28125c0 5.523438 4.476563 10 10 10 5.519532 0 10-4.476562 10-10v-13.28125h139.871094c5.523438 0 10-4.476562 10-10 0-5.519531-4.476562-10-10-10zm0 0" fill="#ffc107" data-original="#000000" style="" class=""/><path xmlns="http://www.w3.org/2000/svg" d="m271.128906 392.730469-5.128906 5.128906v-51.859375c0-5.519531-4.476562-10-10-10s-10 4.480469-10 10v51.859375l-5.128906-5.132813c-3.90625-3.902343-10.238282-3.902343-14.144532 0-3.90625 3.90625-3.90625 10.238282 0 14.144532l22.203126 22.199218c1.953124 1.953126 4.511718 2.929688 7.070312 2.929688s5.117188-.976562 7.070312-2.929688l22.199219-22.199218c3.90625-3.90625 3.90625-10.238282 0-14.144532-3.902343-3.902343-10.234375-3.902343-14.140625.003907zm0 0" fill="#ffc107" data-original="#000000" style="" class=""/><path xmlns="http://www.w3.org/2000/svg" d="m256 316c2.628906 0 5.210938-1.070312 7.070312-2.929688 1.859376-1.859374 2.929688-4.4375 2.929688-7.070312 0-2.628906-1.070312-5.210938-2.929688-7.070312-1.859374-1.859376-4.441406-2.929688-7.070312-2.929688s-5.210938 1.070312-7.070312 2.929688c-1.859376 1.859374-2.929688 4.441406-2.929688 7.070312 0 2.632812 1.070312 5.210938 2.929688 7.070312 1.859374 1.859376 4.441406 2.929688 7.070312 2.929688zm0 0" fill="#ffc107" data-original="#000000" style="" class=""/><path xmlns="http://www.w3.org/2000/svg" d="m466.160156 392.730469-5.128906 5.128906v-91.859375c0-5.519531-4.476562-10-10-10s-10 4.480469-10 10v91.859375l-5.132812-5.132813c-3.902344-3.902343-10.234376-3.902343-14.140626 0-3.90625 3.90625-3.90625 10.238282 0 14.144532l22.199219 22.199218c1.875 1.875 4.421875 2.929688 7.070313 2.929688 2.652344 0 5.199218-1.054688 7.074218-2.929688l22.199219-22.199218c3.90625-3.90625 3.90625-10.238282 0-14.144532-3.90625-3.902343-10.238281-3.902343-14.140625.003907zm0 0" fill="#ffc107" data-original="#000000" style="" class=""/><path xmlns="http://www.w3.org/2000/svg" d="m76.101562 392.730469-5.128906 5.128906v-91.859375c0-5.519531-4.476562-10-10-10-5.523437 0-10 4.480469-10 10v91.859375l-5.128906-5.132813c-3.90625-3.902343-10.238281-3.902343-14.144531 0-3.90625 3.90625-3.90625 10.238282 0 14.144532l22.199219 22.199218c1.875 1.875 4.421874 2.929688 7.074218 2.929688 2.648438 0 5.195313-1.054688 7.070313-2.929688l22.199219-22.199218c3.90625-3.90625 3.90625-10.238282 0-14.144532-3.90625-3.902343-10.234376-3.902343-14.140626.003907zm0 0" fill="#ffc107" data-original="#000000" style="" class=""/></g></svg>
