<?xml version="1.0"?>
<svg xmlns="http://www.w3.org/2000/svg" xmlns:xlink="http://www.w3.org/1999/xlink" xmlns:svgjs="http://svgjs.com/svgjs" version="1.1" width="512" height="512" x="0" y="0" viewBox="0 0 256 256" style="enable-background:new 0 0 512 512" xml:space="preserve" class=""><g><circle xmlns="http://www.w3.org/2000/svg" cx="128" cy="126.344" fill="#f7f7f7" r="100.672" data-original="#3193f3" style=""/><circle xmlns="http://www.w3.org/2000/svg" cx="128" cy="126.344" fill="#ffffff" r="79.587" data-original="#5fcdff" style="" class=""/><path xmlns="http://www.w3.org/2000/svg" d="m135.5 205.581c-2.47.23-4.97.35-7.5.35-43.95 0-79.59-35.63-79.59-79.59 0-43.95 35.64-79.58 79.59-79.58 2.53 0 5.03.12 7.5.35-40.43 3.78-72.09 37.81-72.09 79.23 0 41.429 31.66 75.459 72.09 79.24z" fill="#ffffff" data-original="#73d7f9" style="" class=""/><path xmlns="http://www.w3.org/2000/svg" d="m207.59 126.34c0 43.96-35.64 79.59-79.59 79.59-2.53 0-5.03-.12-7.5-.35 40.43-3.78 72.09-37.81 72.09-79.24 0-41.42-31.66-75.45-72.09-79.23 2.47-.23 4.97-.35 7.5-.35 43.95 0 79.59 35.631 79.59 79.58z" fill="#fdfdfd" data-original="#30b6ff" style="" class=""/><path xmlns="http://www.w3.org/2000/svg" d="m229.472 230.329h-202.944c-1.415 0-2.562-1.147-2.562-2.562v-40.723c0-1.415 1.147-2.562 2.562-2.562h202.944c1.415 0 2.562 1.147 2.562 2.562v40.723c0 1.415-1.147 2.562-2.562 2.562z" fill="#ffffff" data-original="#44c7b6" style="" class=""/><path xmlns="http://www.w3.org/2000/svg" d="m4.333 193.43 5.368 13.976-5.368 13.977h19.633v-9.177-9.6-9.176z" fill="#ffffff" data-original="#4bdbc3" style="" class=""/><path xmlns="http://www.w3.org/2000/svg" d="m251.667 221.383-5.368-13.977 5.368-13.976h-19.633v9.176 9.6 9.177z" fill="#ffffff" data-original="#3bb2a0" style="" class=""/><path xmlns="http://www.w3.org/2000/svg" d="m41.53 230.331h-15c-1.42 0-2.56-1.15-2.56-2.56v-40.73c0-1.41 1.14-2.56 2.56-2.56h15c-1.42 0-2.56 1.15-2.56 2.56v40.73c0 1.409 1.14 2.56 2.56 2.56z" fill="#ffffff" data-original="#4bdbc3" style="" class=""/><path xmlns="http://www.w3.org/2000/svg" d="m232.03 187.04v40.73c0 1.41-1.14 2.56-2.56 2.56h-15c1.42 0 2.56-1.15 2.56-2.56v-40.73c0-1.41-1.14-2.56-2.56-2.56h15c1.42 0 2.56 1.15 2.56 2.56z" fill="#ffffff" data-original="#3bb2a0" style="" class=""/><g xmlns="http://www.w3.org/2000/svg" fill="#5f266d"><path d="m250.584 207.406 4.817-12.541c.472-1.23.309-2.614-.438-3.7s-1.979-1.734-3.297-1.734h-15.633v-2.386c0-3.618-2.944-6.562-6.563-6.562h-11.885c9.885-16.298 15.084-34.863 15.084-54.143 0-57.715-46.955-104.67-104.67-104.67s-104.669 46.955-104.669 104.67c0 19.28 5.199 37.845 15.084 54.143h-11.886c-3.618 0-6.562 2.943-6.562 6.562v2.386h-15.633c-1.317 0-2.551.648-3.297 1.734s-.909 2.47-.438 3.7l4.817 12.542-4.817 12.541c-.472 1.23-.309 2.614.438 3.7s1.979 1.734 3.297 1.734h15.634v2.385c0 3.618 2.943 6.563 6.562 6.563h202.943c3.618 0 6.563-2.944 6.563-6.563v-2.385h15.633c1.317 0 2.551-.648 3.297-1.734s.909-2.47.438-3.7zm-230.617 9.976h-9.813l3.281-8.541c.354-.924.354-1.945 0-2.869l-3.281-8.542h9.813zm11.363-91.042c0-53.304 43.366-96.67 96.67-96.67s96.67 43.366 96.67 96.67c0 19.464-5.743 38.134-16.598 54.143h-16.426c12.758-15.017 19.944-34.272 19.944-54.143 0-46.086-37.498-83.58-83.59-83.58s-83.59 37.494-83.59 83.58c0 19.87 7.186 39.125 19.944 54.143h-16.426c-10.855-16.009-16.598-34.678-16.598-54.143zm149.371 54.143h-105.402c-14.554-14.16-22.889-33.793-22.889-54.143 0-41.675 33.909-75.58 75.59-75.58s75.59 33.905 75.59 75.58c0 20.35-8.335 39.983-22.889 54.143zm47.333 12.947v27.952 4.947h-200.067v-4.947-27.952-4.947h200.067zm14.53 15.41 3.281 8.542h-9.812v-19.952h9.812l-3.281 8.541c-.354.924-.354 1.946 0 2.869z" fill="#ffc107" data-original="#5f266d" style="" class=""/><path d="m35.656 219.637c.225.887 1.023 1.508 1.938 1.508h3.146c.901 0 1.691-.603 1.929-1.473l3.07-11.225 2.704 11.168c.217.897 1.021 1.529 1.944 1.529h3.146c.895 0 1.68-.594 1.924-1.455l6.604-23.305c.362-1.276-.599-2.545-1.924-2.545h-3.077c-.91 0-1.705.613-1.935 1.493l-2.926 11.173-2.669-11.133c-.216-.899-1.02-1.533-1.945-1.533h-3.145c-.908 0-1.701.611-1.934 1.488l-3.027 11.437-2.669-11.382c-.212-.903-1.019-1.543-1.947-1.543h-3.182c-1.302 0-2.259 1.227-1.938 2.492z" fill="#ffc107" data-original="#5f266d" style="" class=""/><path d="m63.107 221.145h3.112c.863 0 1.628-.554 1.899-1.373l1.966-5.957h5.385l2.029 5.974c.275.811 1.037 1.356 1.894 1.356h3.216c1.372 0 2.335-1.352 1.893-2.646l-7.953-23.305c-.276-.811-1.037-1.354-1.893-1.354h-3.631c-.856 0-1.618.546-1.894 1.356l-7.918 23.305c-.438 1.293.523 2.644 1.895 2.644zm9.66-15.799.721 2.117h-1.438z" fill="#ffc107" data-original="#5f266d" style="" class=""/><path d="m89.832 221.145h3.008c1.104 0 2-.896 2-2v-8.097h.76c1.426.054 2.198.21 2.793 2.971.949 4.202 1.37 5.43 1.776 6.13.358.616 1.017.996 1.73.996h3.111c.704 0 1.356-.37 1.717-.975.361-.604.378-1.354.044-1.973-.406-.756-1.132-3.854-1.609-5.895-.384-1.682-.994-3.046-1.823-4.086 1.802-1.521 2.842-3.722 2.842-6.223 0-2.391-.891-4.495-2.492-5.909-1.849-1.672-4.342-2.417-8.083-2.417-2.266 0-4.575.196-6.177.525-.93.19-1.598 1.01-1.598 1.959v22.992c.001 1.106.896 2.002 2.001 2.002zm5.008-21.136c2.336-.123 4.333.144 4.333 2.333 0 2.328-2.302 2.426-4.333 2.426z" fill="#ffc107" data-original="#5f266d" style="" class=""/><path d="m112.234 221.145h3.008c1.104 0 2-.896 2-2v-8.097h.759c1.427.054 2.199.21 2.793 2.972.951 4.202 1.371 5.429 1.775 6.127.357.618 1.017.998 1.731.998h3.112c1.515 0 2.476-1.622 1.76-2.949-.405-.751-1.13-3.852-1.608-5.894-.385-1.681-.995-3.045-1.823-4.085 1.801-1.521 2.841-3.722 2.841-6.223 0-2.391-.89-4.494-2.491-5.909-1.849-1.672-4.342-2.417-8.084-2.417-2.267 0-4.576.196-6.176.525-.93.191-1.597 1.01-1.597 1.959v22.992c0 1.105.896 2.001 2 2.001zm5.008-21.136c.279-.015.597-.024.952-.024 3.381.037 3.381 1.604 3.381 2.357 0 2.189-2.277 2.426-3.256 2.426h-1.077z" fill="#ffc107" data-original="#5f266d" style="" class=""/><path d="m133.046 221.145h3.111c.863 0 1.628-.554 1.899-1.373l1.968-5.957h5.385l2.029 5.974c.275.811 1.037 1.356 1.894 1.356h3.216c1.369 0 2.335-1.349 1.893-2.646l-7.952-23.305c-.276-.811-1.038-1.354-1.893-1.354h-3.631c-.856 0-1.618.546-1.894 1.356l-7.918 23.305c-.441 1.293.521 2.644 1.893 2.644zm9.659-15.801.721 2.119h-1.438z" fill="#ffc107" data-original="#5f266d" style="" class=""/><path d="m159.769 221.145h2.835c1.104 0 2-.896 2-2 0-10.84.001-10.551-.004-11.612.417.675.015.028 7.927 12.673.366.585 1.006.939 1.695.939h3.043c1.104 0 2-.896 2-2v-23.305c0-1.104-.896-2-2-2h-2.836c-1.104 0-2 .896-2 2 0 9.682-.002 10.081.003 11.072-.18-.288-7.507-11.856-7.689-12.143-.367-.579-1.004-.93-1.689-.93h-3.285c-1.104 0-2 .896-2 2v23.305c0 1.105.896 2.001 2 2.001z" fill="#ffc107" data-original="#5f266d" style="" class=""/><path d="m183.658 200.398h5.088v18.746c0 1.104.896 2 2 2h3.043c1.104 0 2-.896 2-2v-18.746h5.123c1.104 0 2-.896 2-2v-2.559c0-1.104-.896-2-2-2h-17.254c-1.104 0-2 .896-2 2v2.559c0 1.105.895 2 2 2z" fill="#ffc107" data-original="#5f266d" style="" class=""/><path d="m211.46 209.769v9.376c0 1.104.896 2 2 2h3.043c1.104 0 2-.896 2-2v-9.383l7.542-12.913c.778-1.333-.186-3.009-1.727-3.009h-3.424c-.745 0-1.429.414-1.773 1.075-4.634 8.888-2.948 5.651-3.952 7.603-.434-.869-.583-1.154-3.868-7.587-.342-.67-1.03-1.091-1.781-1.091h-3.423c-1.522 0-2.482 1.635-1.753 2.962z" fill="#ffc107" data-original="#5f266d" style="" class=""/><path d="m90.941 130.292c-3.166 0-2.545.091-8.442 12.192l-5.12-10.507c-1.688-3.463-8.028-1.206-5.972 2.709l7.792 14.832v8.649c0 4.018 6.64 4.014 6.64 0v-8.651l7.76-14.835c1.045-1.996-.404-4.389-2.658-4.389z" fill="#ffc107" data-original="#5f266d" style="" class=""/><path d="m115.559 136.251c1.657 0 3-1.343 3-3s-1.343-3-3-3h-11.999c-1.657 0-3 1.343-3 3v24.916c0 1.657 1.343 3 3 3h11.999c1.657 0 3-1.343 3-3s-1.343-3-3-3h-8.359v-6.599h7.159c1.657 0 3-1.343 3-3v-.001c0-1.657-1.343-3-3-3h-7.159v-6.318h8.359z" fill="#ffc107" data-original="#5f266d" style="" class=""/><path d="m141.667 132.43c-.841-2.322-3.111-1.978-4.917-1.978-1.261 0-2.388.789-2.819 1.975l-8.988 24.717c-1.459 4.011 4.98 5.66 6.286 2.044l1.524-4.219h10.053c1.751 4.848 1.687 6.199 4.994 6.199 2.08 0 3.529-2.065 2.82-4.021zm-6.798 16.579 2.909-8.127 2.909 8.127z" fill="#ffc107" data-original="#5f266d" style="" class=""/><path d="m179.317 139.991c0-5.892-4.388-9.698-11.179-9.698h-7.5c-1.657 0-3 1.343-3 3v24.876c0 4.018 6.64 4.014 6.64 0v-8.399h2.037l5.771 9.909c.938 1.61 2.442 1.49 3.442 1.49 2.331 0 3.771-2.542 2.573-4.542l-4.662-7.778c3.673-1.517 5.878-4.768 5.878-8.858zm-11.178 3.859h-3.859v-7.559h3.859c3.917 0 4.419 1.977 4.419 3.699 0 2.597-1.446 3.86-4.419 3.86z" fill="#ffc107" data-original="#5f266d" style="" class=""/><path d="m103.556 106.251-1.065-6.208c-.059-.346.055-.699.307-.944l4.51-4.397c.633-.617.284-1.692-.591-1.819l-6.233-.905c-.347-.051-.648-.269-.803-.584l-2.788-5.648c-.391-.793-1.522-.793-1.913 0l-2.788 5.648c-.155.315-.456.533-.803.584l-6.233.905c-.875.127-1.224 1.203-.591 1.819l4.51 4.397c.251.245.366.598.307.944l-1.065 6.208c-.149.872.765 1.536 1.548 1.125l5.575-2.931c.311-.163.682-.163.993 0l5.575 2.931c.783.411 1.697-.253 1.548-1.125z" fill="#ffc107" data-original="#5f266d" style="" class=""/><path d="m160.56 104.444 5.575 2.931c.783.412 1.697-.253 1.548-1.125l-1.065-6.208c-.059-.346.055-.699.307-.944l4.51-4.397c.633-.617.284-1.692-.591-1.819l-6.233-.905c-.348-.051-.648-.269-.803-.584l-2.788-5.648c-.391-.793-1.522-.793-1.913 0l-2.788 5.648c-.155.315-.456.533-.803.584l-6.233.905c-.875.127-1.224 1.203-.591 1.819l4.51 4.397c.251.245.366.598.307.944l-1.065 6.208c-.15.872.765 1.536 1.548 1.125l5.575-2.931c.311-.163.682-.163.993 0z" fill="#ffc107" data-original="#5f266d" style="" class=""/><path d="m129.961 74.29h-7.28c-1.657 0-3 1.343-3 3v.98c0 1.657 1.343 3 3 3h1.486c.704 0 1.274.57 1.274 1.274v34.125c0 1.657 1.343 3 3 3h1.521c1.657 0 3-1.343 3-3v-39.38c-.001-1.657-1.344-2.999-3.001-2.999z" fill="#ffc107" data-original="#5f266d" style="" class=""/><path d="m142.046 58.7c-2.319-.443-4.676-.72-7.003-.821-2.208-.111-4.073 1.616-4.17 3.822-.097 2.207 1.615 4.074 3.822 4.17 1.94.085 3.908.315 5.847.687.254.049.507.072.757.072 1.881 0 3.558-1.334 3.924-3.249.415-2.17-1.008-4.266-3.177-4.681z" fill="#ffc107" data-original="#5f266d" style="" class=""/><path d="m175.663 78.729c-.282-.347-7.034-8.572-18.423-14.604-1.955-1.034-4.375-.289-5.407 1.663-1.033 1.952-.289 4.373 1.663 5.407 9.854 5.218 15.863 12.463 15.96 12.581.79.97 1.942 1.474 3.104 1.474.886 0 1.777-.293 2.52-.895 1.714-1.392 1.976-3.911.583-5.626z" fill="#ffc107" data-original="#5f266d" style="" class=""/></g></g></svg>
