<?xml version="1.0"?>
<svg xmlns="http://www.w3.org/2000/svg" xmlns:xlink="http://www.w3.org/1999/xlink" xmlns:svgjs="http://svgjs.com/svgjs" version="1.1" width="512" height="512" x="0" y="0" viewBox="0 0 256 256" style="enable-background:new 0 0 512 512" xml:space="preserve" class=""><g><g xmlns="http://www.w3.org/2000/svg"><g><path d="m58.493 118.165h-39.765c-3.064 0-5.549-2.484-5.549-5.549 0-3.064 2.484-5.549 5.549-5.549h39.764c3.064 0 5.549 2.484 5.549 5.549 0 3.065-2.484 5.549-5.548 5.549z" fill="#ebebeb" data-original="#f9cfcf" style="" class=""/></g><g><path d="m58.493 95.793h-30.517c-3.064 0-5.549-2.484-5.549-5.549 0-3.064 2.484-5.549 5.549-5.549h30.517c3.064 0 5.549 2.484 5.549 5.549-.001 3.064-2.485 5.549-5.549 5.549z" fill="#ebebeb" data-original="#f9cfcf" style="" class=""/></g><g><path d="m62.56 140.538h-49.011c-3.064 0-5.549-2.484-5.549-5.549 0-3.064 2.484-5.549 5.549-5.549h49.011c3.064 0 5.549 2.484 5.549 5.549 0 3.065-2.484 5.549-5.549 5.549z" fill="#ebebeb" data-original="#f9cfcf" style="" class=""/></g><g><path d="m176.701 164.673h-128.833v-93.332c0-2.761 2.239-5 5-5h118.833c2.761 0 5 2.239 5 5z" fill="#ffffff" data-original="#f9a7a7" style="" class=""/></g><g><path d="m176.701 166.673h-128.833c-1.104 0-2-.896-2-2v-93.332c0-3.86 3.14-7 7-7h118.833c3.86 0 7 3.14 7 7v93.332c0 1.104-.896 2-2 2zm-126.833-4h124.833v-91.332c0-1.654-1.346-3-3-3h-118.833c-1.654 0-3 1.346-3 3z" fill="#ffc107" data-original="#3762cc" style="" class=""/></g><g><path d="m176.701 164.673v-78.064h42.941c2.8 0 5.359 1.58 6.614 4.083l15.041 30.01c.709 1.414 1.078 2.975 1.078 4.557v39.414z" fill="#e4e4e4" data-original="#e0ebfc" style="" class=""/></g><g><path d="m231.794 122.714-12.076-24.094c-.627-1.251-1.907-2.042-3.307-2.042h-26.764c-2.043 0-3.699 1.656-3.699 3.699v21.666c0 2.043 1.656 3.699 3.699 3.699l40.505-.249c1.37-.01 2.256-1.454 1.642-2.679z" fill="#ffffff" data-original="#a4c9ff" style="" class=""/></g><g><path d="m242.375 166.673h-65.674c-1.104 0-2-.896-2-2v-78.064c0-1.104.896-2 2-2h42.941c3.579 0 6.798 1.987 8.402 5.187l15.041 30.01c.844 1.684 1.29 3.569 1.29 5.453v39.414c0 1.104-.896 2-2 2zm-63.674-4h61.674v-37.414c0-1.264-.299-2.53-.866-3.661l-15.041-30.01c-.921-1.837-2.77-2.979-4.826-2.979h-40.941z" fill="#ffc107" data-original="#3762cc" style="" class=""/></g><g><path d="m189.659 127.641c-3.154 0-5.711-2.557-5.711-5.699v-21.666c0-3.142 2.557-5.699 5.699-5.699h26.764c2.17 0 4.123 1.206 5.095 3.146l12.076 24.094c.6 1.198.54 2.595-.161 3.737-.7 1.142-1.918 1.828-3.257 1.836zm-.012-29.063c-.937 0-1.699.762-1.699 1.699v21.666c0 .937.762 1.699 1.699 1.699l40.25-.248-11.967-23.879c-.29-.578-.872-.938-1.519-.938h-26.764zm40.358 25.03s0 .001 0 0z" fill="#ffc107" data-original="#3762cc" style="" class=""/></g><g><path d="m45.278 160.336h200.303c1.123 0 2.034.911 2.034 2.034v15.044c0 1.123-.911 2.034-2.034 2.034h-200.303c-1.123 0-2.034-.911-2.034-2.034v-15.044c0-1.124.911-2.034 2.034-2.034z" fill="#ffffff" data-original="#a4c9ff" style="" class=""/></g><g><path d="m245.966 148.336h-9.906c-2.247 0-4.068-1.821-4.068-4.068v-3.116c0-2.247 1.821-4.068 4.068-4.068h9.906c1.123 0 2.034.911 2.034 2.034v7.183c0 1.124-.911 2.035-2.034 2.035z" fill="#ffffff" data-original="#ffea92" style="" class=""/></g><g><path d="m245.581 181.447h-200.303c-2.224 0-4.034-1.81-4.034-4.034v-15.043c0-2.224 1.81-4.034 4.034-4.034h200.303c2.225 0 4.034 1.81 4.034 4.034v15.044c0 2.224-1.81 4.033-4.034 4.033zm-200.303-19.111c-.019 0-.034.015-.034.034v15.044l200.336.034.034-15.078z" fill="#ffc107" data-original="#3762cc" style="" class=""/></g><g><circle cx="88.3" cy="185.326" fill="#aaaaaa" r="25.277" data-original="#4671c6" style="" class=""/></g><g><path d="m88.3 198.581c-7.309 0-13.255-5.946-13.255-13.255s5.946-13.255 13.255-13.255 13.255 5.946 13.255 13.255-5.947 13.255-13.255 13.255z" fill="#ebebeb" data-original="#f9cfcf" style="" class=""/></g><g><circle cx="204.475" cy="185.326" fill="#aaaaaa" r="25.277" data-original="#4671c6" style="" class=""/></g><g><circle cx="204.475" cy="185.326" fill="#ebebeb" r="13.255" data-original="#f9cfcf" style="" class=""/></g><g><path d="m88.3 212.602c-15.041 0-27.277-12.236-27.277-27.276 0-15.041 12.236-27.277 27.277-27.277 15.04 0 27.276 12.236 27.276 27.277 0 15.04-12.236 27.276-27.276 27.276zm0-50.553c-12.835 0-23.277 10.442-23.277 23.277 0 12.834 10.442 23.276 23.277 23.276 12.834 0 23.276-10.442 23.276-23.276 0-12.835-10.442-23.277-23.276-23.277z" fill="#ffc107" data-original="#3762cc" style="" class=""/></g><g><path d="m88.299 200.581c-8.411 0-15.254-6.843-15.254-15.255s6.843-15.255 15.254-15.255c8.412 0 15.255 6.843 15.255 15.255s-6.843 15.255-15.255 15.255zm0-26.51c-6.206 0-11.254 5.049-11.254 11.255s5.049 11.255 11.254 11.255c6.206 0 11.255-5.049 11.255-11.255s-5.049-11.255-11.255-11.255z" fill="#ffc107" data-original="#3762cc" style="" class=""/></g><g><path d="m204.475 212.602c-15.04 0-27.276-12.236-27.276-27.276 0-15.041 12.236-27.277 27.276-27.277 15.041 0 27.277 12.236 27.277 27.277-.001 15.04-12.237 27.276-27.277 27.276zm0-50.553c-12.834 0-23.276 10.442-23.276 23.277 0 12.834 10.442 23.276 23.276 23.276 12.835 0 23.277-10.442 23.277-23.276-.001-12.835-10.442-23.277-23.277-23.277z" fill="#ffc107" data-original="#3762cc" style="" class=""/></g><g><path d="m204.475 200.581c-8.412 0-15.255-6.843-15.255-15.255s6.844-15.255 15.255-15.255 15.255 6.843 15.255 15.255-6.843 15.255-15.255 15.255zm0-26.51c-6.206 0-11.255 5.049-11.255 11.255s5.049 11.255 11.255 11.255 11.255-5.049 11.255-11.255-5.049-11.255-11.255-11.255z" fill="#ffc107" data-original="#3762cc" style="" class=""/></g><g><path d="m245.966 150.335h-9.906c-3.346 0-6.068-2.722-6.068-6.068v-3.115c0-3.346 2.722-6.068 6.068-6.068h9.906c2.224 0 4.034 1.81 4.034 4.034v7.184c0 2.224-1.81 4.033-4.034 4.033zm-9.906-11.251c-1.14 0-2.068.928-2.068 2.068v3.115c0 1.14.928 2.068 2.068 2.068h9.906c.019 0 .034-.015.034-.034v-7.184z" fill="#ffc107" data-original="#3762cc" style="" class=""/></g><g><path d="m197.386 117.278c-.512 0-1.023-.195-1.414-.586-.781-.781-.781-2.047 0-2.828l7.424-7.425c.78-.781 2.047-.781 2.828 0s.781 2.047 0 2.828l-7.424 7.425c-.39.39-.903.586-1.414.586z" fill="#e4e4e4" data-original="#e0ebfc" style="" class=""/></g><g><path d="m207.386 117.278c-.512 0-1.023-.195-1.414-.586-.781-.781-.781-2.047 0-2.828l7.424-7.425c.78-.781 2.047-.781 2.828 0s.781 2.047 0 2.828l-7.424 7.425c-.39.39-.903.586-1.414.586z" fill="#e4e4e4" data-original="#e0ebfc" style="" class=""/></g><g><circle cx="112.284" cy="84.695" fill="#ffffff" r="39.298" data-original="#6bdddd" style="" class=""/></g><g><circle cx="112.284" cy="84.695" fill="#aaaaaa" r="30.118" data-original="#4671c6" style="" class=""/></g><g><path d="m112.284 125.993c-22.771 0-41.298-18.526-41.298-41.298s18.526-41.297 41.298-41.297 41.298 18.526 41.298 41.297-18.526 41.298-41.298 41.298zm0-78.595c-20.566 0-37.298 16.731-37.298 37.297s16.732 37.298 37.298 37.298 37.298-16.732 37.298-37.298-16.732-37.297-37.298-37.297z" fill="#ffc107" data-original="#3762cc" style="" class=""/></g><g><path d="m112.409 110.385c-.596 0-1.02-.185-1.259-.549-.244-.369-.362-.924-.362-1.696v-6.728l-.478-.065c-1.741-.234-3.296-.676-4.623-1.313-1.449-.696-2.674-1.572-3.641-2.606-.97-1.036-1.695-2.126-2.158-3.243-.464-1.117-.699-2.228-.699-3.305 0-.795.315-1.52.936-2.157s1.405-.96 2.332-.96c.743 0 1.381.176 1.895.524.513.348.874.844 1.072 1.472.45 1.364.843 2.414 1.172 3.13.331.72.839 1.387 1.509 1.983.512.455 1.163.834 1.935 1.127l.747.283v-11.635l-.4-.114c-2.041-.582-3.787-1.237-5.187-1.945-1.49-.753-2.714-1.839-3.641-3.23s-1.397-3.203-1.397-5.387c0-2.847.919-5.213 2.731-7.034 1.724-1.731 4.215-2.789 7.403-3.144l.49-.055v-2.637c0-1.41.514-2.095 1.571-2.095 1.074 0 1.596.669 1.596 2.045v2.688l.483.06c1.571.197 2.948.548 4.094 1.043 1.266.545 2.386 1.384 3.33 2.494.746.845 1.326 1.723 1.733 2.619.405.894.611 1.724.611 2.469 0 .827-.306 1.553-.91 2.158-.604.603-1.347.91-2.207.91-1.623 0-2.688-.889-3.168-2.644-.475-1.8-1.548-3.092-3.186-3.838l-.78-.355v10.428l.403.112c1.873.523 3.395 1.006 4.523 1.435 1.216.462 2.319 1.142 3.28 2.02 1.028.912 1.828 2.014 2.382 3.28.555 1.266.836 2.671.836 4.177 0 1.886-.449 3.678-1.335 5.325-.886 1.646-2.207 3.01-3.928 4.053-1.599.968-3.507 1.582-5.671 1.823l-.49.055v6.203c0 .976-.096 1.698-.287 2.146-.19.453-.602.673-1.257.673zm1.546-13.865.697-.192c1.34-.368 2.415-.993 3.194-1.856.923-1.023 1.372-2.182 1.372-3.542 0-1.46-.437-2.558-1.335-3.354-.754-.669-1.826-1.26-3.188-1.757l-.74-.27zm-3.907-27.669c-1.044.378-1.894.851-2.528 1.403-.789.689-1.172 1.7-1.172 3.093 0 1.325.359 2.301 1.098 2.981.597.55 1.464 1.065 2.577 1.533l.765.321v-9.599z" fill="#ebebeb" data-original="#f9cfcf" style="" class=""/></g><g><path d="m77.936 80.03h68.679v8.277h-68.679z" fill="#ffffff" transform="matrix(.707 -.707 .707 .707 -26.632 104.043)" data-original="#6bdddd" style="" class=""/></g></g></g></svg>
