<?xml version="1.0"?>
<svg xmlns="http://www.w3.org/2000/svg" xmlns:xlink="http://www.w3.org/1999/xlink" xmlns:svgjs="http://svgjs.com/svgjs" version="1.1" width="512" height="512" x="0" y="0" viewBox="0 0 478 478.878" style="enable-background:new 0 0 512 512" xml:space="preserve" class=""><g><path xmlns="http://www.w3.org/2000/svg" d="m370.929688 136.878906h-31.300782c-2.875-76-65.558594-136.878906-142.214844-136.878906-76.652343 0-139.335937 60.878906-142.214843 136.878906h-31.25c-12.933594.03125-23.425781 10.484375-23.511719 23.417969v60.730469c0 12.875 10.636719 23.851562 23.511719 23.851562h37.183593c3.464844-.210937 6.199219-3.03125 6.304688-6.5v-35.390625c12 42.652344 41 79.550781 79 100.167969v15.722656h-33.027344c-45.238281.042969-81.90625 36.691406-81.972656 81.929688v72.039062c.011719 3.324219 2.703125 6.019532 6.027344 6.03125h319.949218c3.324219-.011718 6.015626-2.707031 6.023438-6.03125v-72.039062c-.0625-45.238282-36.730469-81.886719-81.96875-81.929688h-33.03125v-12.09375c4-3.257812 8.675781-6.90625 13.203125-10.90625h32.070313c12.160156-.015625 23.820312-4.871094 32.398437-13.492187 8.578125-8.625 13.375-20.304688 13.328125-32.46875v-5.039063h31.492188c12.875 0 23.507812-10.976562 23.507812-23.851562v-60.730469c-.082031-12.933594-10.574219-23.386719-23.507812-23.417969zm-173.515626-124.8125c60.148438 0 110.902344 40.957032 125.855469 96.445313-4.324219-8.808594-10.09375-16.34375-16.589843-21.5625-8.464844-6.796875-18.101563-9.773438-28.121094-8.746094-9.671875-21.402344-25.183594-37.984375-45-48.070313-21.5-10.9375-46.773438-13.082031-71.164063-6.035156-34.066406 9.84375-62.914062 31.019532-81.054687 59.058594 22.285156-43.597656 67.109375-71.050781 116.074218-71.089844zm-173.464843 220.8125c-6.257813 0-11.511719-5.59375-11.511719-11.851562v-60.730469c.078125-6.3125 5.199219-11.394531 11.511719-11.417969h31.488281v84zm48.351562-71.609375c-.933593-20.789062 3.398438-41.480469 12.589844-60.152343 15.585937-31.277344 45.046875-55.148438 80.839844-65.488282 21.453125-6.203125 43.609375-4.355468 62.386719 5.199219 17.957031 9.136719 31.914062 24.457031 40.382812 44.3125l.558594 1.675781c.984375 2.949219 4.054687 4.660156 7.078125 3.941406 18.339843-4.351562 31.835937 11.335938 38.34375 27.46875 11.472656 28.425782 10.847656 60.660157-1.765625 90.765626-9.414063 22.476562-24.949219 44.601562-46.167969 65.792968-3.257813 3.253906-6.417969 6.089844-9.515625 9.089844h-.75c7-5 13.054688-11.96875 18.449219-19.351562 12.277343-16.851563 18.835937-37.191407 18.707031-58.039063v-37.144531l.351562-8.769532c.34375-23.480468-10.707031-45.0625-29.753906-57.726562-7.613281-5.171875-16.308594-8.542969-25.421875-9.855469-2.460937-.339843-4.875.882813-6.058593 3.066407-42.851563 78.429687-119.054688 86.917968-124.085938 87.394531-4.46875.113281-8.03125 3.769531-8.03125 8.242187v15.929688c-.039062 19.773437 6.019531 39.078125 17.347656 55.285156 5.476563 7.863281 12.082032 14.871094 19.609375 20.796875-38.109375-27.140625-63.0625-73.199219-65.09375-122.433594zm86.136719 163.585938v-27.292969c0 10.960938 8.894531 20.316406 19.855469 20.316406h32.671875c10.753906-.117187 19.511718-8.675781 19.875-19.425781 1.882812-.707031 3.597656-1.691406 5.597656-2.511719v30.359375c0 21.539063-17.460938 39-39 39s-39-17.460937-39-39zm72-40.976563v-2.183594c.085938-5.222656-1.929688-10.257812-5.589844-13.984374-3.660156-3.722657-8.660156-5.824219-13.882812-5.832032h-32.671875c-10.957031-.015625-19.847657 8.859375-19.855469 19.816406v1.289063c-12.265625-6.398437-22.824219-15.636719-30.796875-26.945313-9.925781-14.191406-15.234375-31.097656-15.203125-48.417968v-12.5625c16-2.167969 86.21875-15.816406 128.546875-89.453125 5.902344 1.386719 11.496094 3.839843 16.519531 7.230469 15.632813 10.398437 24.570313 28.175781 24.289063 47.5625l-.355469 8.855468v37.230469c.203125 32.808594-18.332031 62.855469-47.746094 77.394531zm-12 14.121094c0 4.351562-3.527344 7.878906-7.878906 7.878906h-32.242188c-4.351562 0-7.875-3.527344-7.878906-7.878906v-16.242188c.003906-4.351562 3.527344-7.878906 7.878906-7.878906h32.242188c4.351562 0 7.878906 3.527344 7.878906 7.878906zm133 102.808594v66.070312h-308v-66.070312c.058594-38.613282 31.359375-69.894532 69.972656-69.929688h32.742188c2.367187 26.40625 24.496094 46.640625 51.011718 46.640625 26.511719 0 48.640626-20.234375 51.007813-46.640625h33.300781c38.613282.035156 69.910156 31.320313 69.964844 69.929688zm-24-150.890625c.050781 8.980469-3.480469 17.613281-9.808594 23.984375-6.332031 6.375-14.9375 9.964844-23.917968 9.976562h-19.3125c.210937 0 .417968-.390625.628906-.601562 22.332031-22.304688 38.582031-45.734375 48.601562-69.65625 1.484375-3.460938 2.757813-7.003906 3.808594-10.621094zm55-28.890625c0 6.257812-5.25 11.851562-11.507812 11.851562h-31.492188v-84h31.492188c6.308593.023438 11.433593 5.105469 11.507812 11.417969zm0 0" fill="#ffc107" data-original="#000000" style="" class=""/></g></svg>
