<svg xmlns="http://www.w3.org/2000/svg"
     xmlns:xlink="http://www.w3.org/1999/xlink"
     xmlns:svgjs="http://svgjs.com/svgjs" version="1.1" width="30" height="30"
     x="0" y="0"
     viewBox="0 0 512.02 512.02" style="enable-background:new 0 0 512 512"
     xml:space="preserve"
     class="">
                            <g>
                                <path xmlns="http://www.w3.org/2000/svg"
                                      d="m511.696 219.34c-1.843-8.615-10.43-12.038-13.251-13.163l-.169-.068c-22.32-8.946-43.41-29.144-63.814-49.32l23.205-9.152c6.169-2.433 10.155-8.29 10.155-14.921s-3.986-12.488-10.155-14.921l-29.448-11.614-11.613-29.448c-2.433-6.169-8.29-10.155-14.921-10.155-6.632 0-12.489 3.986-14.922 10.155l-11.613 29.448-.043.017c-13.362-7.628-26.09-11.345-38.787-11.345-36.119 0-51.273 10.032-62.339 17.357-7.02 4.646-11.256 7.451-19.44 7.451-5.84 0-9.534-2.212-16.682-6.815-11.79-7.594-27.938-17.994-65.096-17.994-35.92 0-66.866 31.604-96.793 62.167-20.91 21.355-42.532 43.437-63.053 50.913-6.439 2.348-11.1 7.246-12.469 13.104-1.577 6.747.992 13.697 7.637 20.659 10.789 11.305 19.672 26.594
                                     29.077 42.78 7.559 13.01 15.323 26.372 24.945 39.541l-29.216 11.523c-7.254 2.861-11.94 9.749-11.94 17.546s4.688 14.684 11.94 17.544l45.088 17.782 17.782 45.086c2.86 7.254 9.747 11.942 17.545 11.942s14.685-4.688 17.545-11.941l17.266-43.778c29.709 11.009 64.54 16.368 106.301 16.368 67.039 0 118.758-14.782 158.112-45.192 33.857-26.162 52.647-59.625 67.745-86.512 9.077-16.167 16.917-30.129 26.022-39.516 5.906-6.084 6.196-11.803 5.399-15.528zm-119.534-101.78 9.522-24.147 9.523 24.147c1.017 2.577 3.057 4.617 5.634 5.634l24.147 9.523-24.147 9.523c-2.577 1.017-4.617 3.057-5.634 5.634l-9.522 24.147-9.523-24.147c-1.017-2.577-3.057-4.617-5.634-5.634l-24.147-9.523 24.147-9.523c2.578-1.017 4.618-3.057 5.634-5.634zm-301.899 53.453c27.034-27.61 54.989-56.16 82.502-56.16 31.274 0 43.489 7.867 54.267 14.808 7.635 4.916 15.528 10 27.511 10 14.203 0 22.478-5.478 30.479-10.774 9.938-6.578 21.201-14.034 51.3-14.034 4.076 0 8.221.57 12.476 1.722l-3.094 1.22c-6.169 2.433-10.155 8.29-10.155 14.921s3.986 12.488 10.155 14.921l29.448 11.614 11.613 29.448c2.433 6.169 8.29 10.155 14.922 10.155 6.631 0 12.487-3.986 14.921-10.155l6.084-15.427c14.336 14.133 29.068 28.14 44.891 38.819h-65.103c-35.799 0-71.423 8.993-103.02 26.005l-10.26 5.524c-20.779 11.188-45.59 11.187-66.369 0l-10.259-5.523c-31.598-17.013-67.222-26.005-103.021-26.005h-63.734c15.269-11.283 30.016-26.342 44.446-41.079zm41.36 206.022-18.315 46.439-18.315-46.439c-1.017-2.577-3.057-4.617-5.634-5.634l-46.439-18.315 46.439-18.316c2.577-1.017 4.617-3.057 5.634-5.634l18.315-46.439 18.315 46.439c1.017 2.577 3.057 4.617 5.634 5.634l46.439 18.316-46.439 18.315c-2.577 1.017-4.617 3.057-5.634 5.634zm331.214-112.441c-30.394 54.13-68.22 121.496-208.418 121.496-29.684 0-55.499-2.817-78.173-8.567l17.477-6.893c7.253-2.861 11.939-9.748 11.94-17.544 0-7.797-4.687-14.684-11.94-17.546l-45.088-17.782-17.782-45.087c-2.86-7.254-9.747-11.941-17.545-11.941s-14.685 4.687-17.545 11.94l-16.261 41.23c-9.611-12.908-17.437-26.376-25.045-39.471-8.966-15.43-17.487-30.095-28.086-42.337h83.179c32.501 0 64.846 8.166 93.539 23.615l10.26 5.523c13.359 7.193 28.01 10.788 42.665 10.788 14.652 0 29.309-3.597 42.665-10.788l10.261-5.524c28.692-15.449 61.037-23.615 93.538-23.615h80.202c-6.958 9.557-13.273 20.803-19.843 32.503z"
                                      fill="#ffffff" data-original="#000000"
                                      style="" class=""/>
                            </g>
                        </svg>