<svg width="42" height="33" viewBox="0 0 42 33" fill="none" xmlns="http://www.w3.org/2000/svg">
<path d="M5.10032 11.9606L4.84488 11.7052H4.67458H2.20528C1.69439 11.7052 1.3538 11.2794 1.3538 10.8537V8.38438C1.3538 7.87349 1.77954 7.5329 2.20528 7.5329H4.67458C5.18547 7.5329 5.52606 7.95864 5.52606 8.38438V10.2576C5.52606 10.3428 5.10032 11.7903 5.10032 11.9606Z" fill="white"/>
<path d="M40.6072 11.7052H38.1379H37.9676L37.4567 12.1309V11.8755C37.4567 11.7903 37.3716 11.5349 37.2864 11.1091L37.3716 11.024C37.3716 10.9388 37.3716 10.9388 37.3716 10.8537V8.38438C37.3716 7.87349 37.7973 7.5329 38.2231 7.5329H40.6072C41.1181 7.5329 41.4587 7.95864 41.4587 8.38438V10.8537C41.5438 11.3646 41.1181 11.7052 40.6072 11.7052Z" fill="white"/>
<path d="M9.35779 31.2039C9.35779 31.8851 8.76175 32.4812 8.08056 32.4812H3.31227C2.63108 32.4812 2.03504 31.9703 2.03504 31.2039V28.394H9.35779V31.2039Z" fill="white"/>
<path d="M40.4369 31.2039C40.4369 31.8851 39.8409 32.4812 39.1597 32.4812H34.3914C33.7102 32.4812 33.1141 31.9703 33.1141 31.2039V28.394H40.4369V31.2039Z" fill="white"/>
<path d="M2.12019 24.9882H40.4369C41.1181 24.9882 41.7141 25.5843 41.7141 26.2654C41.7141 26.9466 41.1181 27.5427 40.4369 27.5427H2.20533C1.52415 27.5427 0.928109 26.9466 0.928109 26.2654C0.928109 25.5843 1.439 24.9882 2.12019 24.9882Z" fill="white"/>
<path d="M40.7775 15.9626C40.9478 17.3249 40.6072 21.5823 40.4369 24.1368H39.7557H33.8805H8.59147H2.80139H2.12021C1.86476 21.5823 1.52417 17.3249 1.77961 15.9626C2.03506 14.1744 3.99347 13.323 4.9301 12.8972C19.0647 12.8972 23.1518 12.8972 37.7973 12.8972C38.6488 13.323 40.5221 14.1744 40.7775 15.9626ZM10.9756 19.8794C10.9756 19.4536 10.635 19.113 10.2093 19.113H4.84495C4.41921 19.113 4.07862 19.4536 4.07862 19.8794V22.519C4.07862 22.9447 4.41921 23.2853 4.84495 23.2853H10.2093C10.635 23.2853 10.9756 22.9447 10.9756 22.519V19.8794ZM28.1756 17.5804H14.2964V18.7724H28.1756V17.5804ZM28.1756 19.7942H14.2964V20.9863H28.1756V19.7942ZM37.7122 19.113H32.3478C31.9221 19.113 31.5815 19.4536 31.5815 19.8794V22.519C31.5815 22.9447 31.9221 23.2853 32.3478 23.2853H37.7122C38.1379 23.2853 38.4785 22.9447 38.4785 22.519V19.8794C38.4785 19.4536 38.1379 19.113 37.7122 19.113Z" fill="white"/>
<path d="M9.10235 2.93483C10.2944 0.97642 12.338 1.31701 12.6786 1.14672C18.5538 0.635827 24.3439 0.635827 29.8785 1.14672C30.134 1.23187 32.1775 0.97642 33.4547 2.93483C34.6468 4.97839 36.6052 12.0457 36.6052 12.0457H5.95186C5.95186 12.0457 7.91027 4.97839 9.10235 2.93483ZM33.3696 10.9388L30.9003 2.76453C29.8785 2.42394 12.6786 2.42394 11.6568 2.76453L9.18749 10.9388C25.2805 10.9388 7.99542 10.6833 33.3696 10.9388Z" fill="white"/>
<path d="M23.6627 3.78619H18.8944V4.97827H23.6627V3.78619Z" fill="white"/>
</svg>
