<?xml version="1.0" encoding="iso-8859-1"?>
<!-- Generator: Adobe Illustrator 19.0.0, SVG Export Plug-In . SVG Version: 6.00 Build 0)  -->
<svg version="1.1" id="Capa_1" xmlns="http://www.w3.org/2000/svg" xmlns:xlink="http://www.w3.org/1999/xlink" x="0px" y="0px"
	 viewBox="0 0 416.4 416.4" style="enable-background:new 0 0 416.4 416.4;" xml:space="preserve">
<g>
	<g>
		<path d="M328.14,12.16l-0.44-0.56c-7.411-7.449-17.492-11.626-28-11.6H116.46C94.683,0.066,77.046,17.703,76.98,39.48V376.8
			c-0.021,10.507,4.155,20.587,11.6,28c7.413,7.445,17.493,11.621,28,11.6h183.24c10.501,0.032,20.58-4.129,28-11.56
			c7.445-7.413,11.621-17.493,11.6-28V39.52C339.362,29.28,335.316,19.466,328.14,12.16z M324.1,376.8
			c0.004,6.439-2.558,12.615-7.12,17.16c-4.545,4.562-10.721,7.124-17.16,7.12H116.46c-6.44,0.004-12.615-2.558-17.16-7.12
			c-4.573-4.541-7.149-10.716-7.16-17.16V39.52c0.044-13.413,10.907-24.276,24.32-24.32h183.36c6.444,0.011,12.619,2.587,17.16,7.16
			l0.36,0.32c4.367,4.518,6.805,10.557,6.8,16.84L324.1,376.8z"/>
	</g>
</g>
<g>
	<g>
		<circle cx="208.14" cy="378.84" r="10.68"/>
	</g>
</g>
<g>
	<g>
		<path d="M305.86,47.64h-0.08c-6.239-6.267-14.716-9.793-23.56-9.8h-148c-8.83,0.017-17.29,3.543-23.52,9.8
			c-6.267,6.239-9.793,14.717-9.8,23.56v251.36c0.007,8.844,3.533,17.321,9.8,23.56c6.239,6.267,14.717,9.793,23.56,9.8h148
			c8.629-0.005,16.918-3.361,23.12-9.36l0.48-0.44c6.267-6.239,9.793-14.716,9.8-23.56V71.16
			C315.643,62.331,312.118,53.87,305.86,47.64z M295.02,335.4l-0.32,0.36c-3.373,3.219-7.858,5.01-12.52,5h-148
			c-4.818,0.008-9.44-1.907-12.84-5.32c-3.424-3.396-5.353-8.017-5.36-12.84V71.16c-0.008-4.818,1.907-9.44,5.32-12.84
			c3.4-3.413,8.022-5.328,12.84-5.32h148c4.818-0.008,9.44,1.907,12.84,5.32c3.413,3.4,5.328,8.022,5.32,12.84l0.08,251.4
			C300.373,327.383,298.444,332.004,295.02,335.4z"/>
	</g>
</g>
<g>
</g>
<g>
</g>
<g>
</g>
<g>
</g>
<g>
</g>
<g>
</g>
<g>
</g>
<g>
</g>
<g>
</g>
<g>
</g>
<g>
</g>
<g>
</g>
<g>
</g>
<g>
</g>
<g>
</g>
</svg>
