<?xml version="1.0"?>
<svg xmlns="http://www.w3.org/2000/svg" xmlns:xlink="http://www.w3.org/1999/xlink" xmlns:svgjs="http://svgjs.com/svgjs" version="1.1" width="512" height="512" x="0" y="0" viewBox="0 0 31.685 31.685" style="enable-background:new 0 0 512 512" xml:space="preserve" class=""><g>
<g xmlns="http://www.w3.org/2000/svg">
	<path d="M22.507,0H9.175C7.9,0,6.87,1.034,6.87,2.309v27.07c0,1.271,1.03,2.306,2.305,2.306h13.332   c1.273,0,2.307-1.034,2.307-2.306V2.309C24.813,1.034,23.78,0,22.507,0z M23.085,25.672H8.599V3.895h14.486V25.672z M18.932,2.343   h-6.181V1.669h6.182L18.932,2.343L18.932,2.343z M21.577,2.035c0,0.326-0.266,0.59-0.591,0.59c-0.326,0-0.591-0.265-0.591-0.59   s0.265-0.59,0.591-0.59C21.312,1.444,21.577,1.709,21.577,2.035z M18.655,29.225h-5.629v-1.732h5.629V29.225z" fill="#dcdcdc" data-original="#000000" style="" class=""/>
	<g>
	</g>
	<g>
	</g>
	<g>
	</g>
	<g>
	</g>
	<g>
	</g>
	<g>
	</g>
	<g>
	</g>
	<g>
	</g>
	<g>
	</g>
	<g>
	</g>
	<g>
	</g>
	<g>
	</g>
	<g>
	</g>
	<g>
	</g>
	<g>
	</g>
</g>
<g xmlns="http://www.w3.org/2000/svg">
</g>
<g xmlns="http://www.w3.org/2000/svg">
</g>
<g xmlns="http://www.w3.org/2000/svg">
</g>
<g xmlns="http://www.w3.org/2000/svg">
</g>
<g xmlns="http://www.w3.org/2000/svg">
</g>
<g xmlns="http://www.w3.org/2000/svg">
</g>
<g xmlns="http://www.w3.org/2000/svg">
</g>
<g xmlns="http://www.w3.org/2000/svg">
</g>
<g xmlns="http://www.w3.org/2000/svg">
</g>
<g xmlns="http://www.w3.org/2000/svg">
</g>
<g xmlns="http://www.w3.org/2000/svg">
</g>
<g xmlns="http://www.w3.org/2000/svg">
</g>
<g xmlns="http://www.w3.org/2000/svg">
</g>
<g xmlns="http://www.w3.org/2000/svg">
</g>
<g xmlns="http://www.w3.org/2000/svg">
</g>
</g></svg>
