<svg xmlns="http://www.w3.org/2000/svg" height="800" width="1200" viewBox="-65.00145 -52.22725 563.3459 313.3635"><circle r="21.999" cy="184.908" cx="23.999" fill="none" stroke="#1d2d44" stroke-width="4"/><circle r="22.001" cy="184.908" cx="291.512" fill="none" stroke="#1d2d44" stroke-width="4"/><path d="M62 162.703v30.074c0 7.801 6.324 14.123 14.123 14.123 7.803 0 14.125-6.322 14.125-14.123v-30.074m0 0v30.074c0 7.801 6.324 14.123 14.125 14.123s14.125-6.322 14.125-14.123v-30.074m127.767-40.004v70.078c0 7.801 6.322 14.123 14.123 14.123m-125.384.006v-22.201c0-12.15 9.85-22 22-22 12.152 0 22.002 9.85 22.002 22v22.201m149.003-44.203v22.205c0 12.148 9.85 21.998 22 21.998s22.002-9.85 22.002-21.998v-22.205m-142.178-26.127c-19.421 0-35.167 15.744-35.167 35.166 0 19.422 15.746 35.164 35.167 35.164m201.45-84.207v40.172-.979m-14.36 45.002h-7.848c-12.15 0-22-9.85-22-21.998 0-12.15 9.85-22 22-22l22.207-.025s.137 22.342 0 29.895c-.138 7.552-7.968 14.128-14.359 14.128z" fill="none" stroke="#1d2d44" stroke-width="4"/><circle r="20.332" cy="38.648" cx="215.181" fill="#1d2d44" stroke="#fff" stroke-width="4"/><circle r="37.242" cy="109.314" cx="177.898" fill="#1d2d44" stroke="#fff" stroke-width="4"/><circle r="40.261" cy="84.533" cx="219.912" fill="#1d2d44" stroke="#fff" stroke-width="4"/><circle r="37.242" cy="68.209" cx="302.021" fill="#1d2d44" stroke="#fff" stroke-width="4"/><circle r="37.241" cy="39.241" cx="261.18" fill="#1d2d44" stroke="#fff" stroke-width="4"/><circle r="21.3" cy="123.695" cx="385.114" fill="#1d2d44" stroke="#fff" stroke-width="4"/><circle r="40.261" cy="107.3" cx="339.85" fill="#1d2d44" stroke="#fff" stroke-width="4"/><circle r="21.299" cy="125.748" cx="217.449" fill="#1d2d44" stroke="#fff" stroke-width="4"/><path d="M324.794 95.406c0 28.348-22.984 51.328-51.334 51.328s-51.333-22.98-51.333-51.328c0-28.351 22.984-51.333 51.333-51.333 28.349 0 51.334 22.982 51.334 51.333z" fill="#1d2d44" stroke="#fff" stroke-width="4"/></svg>