<svg width="12" height="12" viewBox="0 0 12 12" fill="none" xmlns="http://www.w3.org/2000/svg">
<g clip-path="url(#clip0_50_195)">
<path d="M8.60344 4.39644C8.40844 4.20119 8.09144 4.20119 7.89644 4.39644L5.74994 6.54269L4.85344 5.64644C4.65844 5.45119 4.34144 5.45119 4.14644 5.64644C3.95119 5.84169 3.95119 6.15819 4.14644 6.35344L5.39644 7.60344C5.49394 7.70119 5.62194 7.74994 5.74994 7.74994C5.87794 7.74994 6.00594 7.70119 6.10344 7.60344L8.60344 5.10344C8.79869 4.90819 8.79869 4.59169 8.60344 4.39644Z" fill="#008E06"/>
<path d="M11.5 5.5C11.224 5.5 11 5.724 11 6C11 8.757 8.757 11 6 11C3.243 11 1 8.757 1 6C1 3.243 3.243 1 6 1C7.34225 1 8.60225 1.5245 9.54825 2.477C9.7425 2.67325 10.0592 2.67425 10.2552 2.4795C10.4513 2.285 10.4522 1.9685 10.2577 1.7725C9.12275 0.6295 7.6105 0 6 0C2.6915 0 0 2.6915 0 6C0 9.3085 2.6915 12 6 12C9.3085 12 12 9.3085 12 6C12 5.724 11.776 5.5 11.5 5.5Z" fill="#008E06"/>
</g>
<defs>
<clipPath id="clip0_50_195">
<rect width="12" height="12" fill="white"/>
</clipPath>
</defs>
</svg>
