<svg width="18" height="18" viewBox="0 0 18 18" fill="none" xmlns="http://www.w3.org/2000/svg">
<path d="M9 0.000732422C4.02996 0.000732422 0 4.0299 0 9.00034C0 13.9708 4.02956 17.9999 9 17.9999C13.9708 17.9999 18 13.9708 18 9.00034C18 4.0299 13.9708 0.000732422 9 0.000732422ZM9 2.69172C10.6446 2.69172 11.9772 4.02476 11.9772 5.66853C11.9772 7.31269 10.6446 8.64533 9 8.64533C7.35623 8.64533 6.02359 7.31269 6.02359 5.66853C6.02359 4.02476 7.35623 2.69172 9 2.69172ZM8.99802 15.647C7.35781 15.647 5.85557 15.0496 4.69687 14.0609C4.41461 13.8202 4.25173 13.4671 4.25173 13.0967C4.25173 11.4296 5.60098 10.0954 7.26847 10.0954H10.7323C12.4002 10.0954 13.7443 11.4296 13.7443 13.0967C13.7443 13.4675 13.5822 13.8198 13.2996 14.0605C12.1413 15.0496 10.6386 15.647 8.99802 15.647Z" fill="#545454"/>
</svg>
