<svg width="10" height="12" viewBox="0 0 10 12" fill="none" xmlns="http://www.w3.org/2000/svg">
<path d="M9.18821 3.16036L6.73523 0.648239C6.43604 0.349181 6.01726 0.169742 5.53864 0.169742H2.00871C1.11127 0.109927 0.333496 0.887493 0.333496 1.78468V10.1584C0.333496 11.0556 1.05145 11.8332 2.00871 11.8332H7.99161C8.88907 11.8332 9.66683 11.1154 9.66683 10.1584V4.2968C9.66683 3.87811 9.48734 3.45943 9.18821 3.16036ZM3.20529 4.89494H5.00016C5.2395 4.89494 5.47879 5.07437 5.47879 5.37345C5.47879 5.67246 5.2993 5.8519 5.00016 5.8519H3.20529C2.96597 5.8519 2.72666 5.67246 2.72666 5.37345C2.72666 5.07437 2.96597 4.89494 3.20529 4.89494ZM6.79502 8.24444H3.20529C2.96597 8.24444 2.72666 8.06501 2.72666 7.76593C2.72666 7.46686 2.90615 7.28742 3.20529 7.28742H6.79502C7.03436 7.28742 7.27365 7.46686 7.27365 7.76593C7.27365 8.06501 7.03436 8.24444 6.79502 8.24444Z" fill="#545454"/>
</svg>
