<?xml version="1.0" encoding="utf-8"?>
<!-- Generator: Adobe Illustrator 24.1.3, SVG Export Plug-In . SVG Version: 6.00 Build 0)  -->
<svg version="1.1" id="Layer_1" xmlns="http://www.w3.org/2000/svg" xmlns:xlink="http://www.w3.org/1999/xlink" x="0px" y="0px"
	 viewBox="0 0 300 300" style="enable-background:new 0 0 300 300;" xml:space="preserve">
<style type="text/css">
	.st0{fill:#FCB017;}
</style>
<g>
	<path class="st0" d="M227.48,262.23H110.52c-19.37,0-36.45-9.69-46.69-24.5c-1.72-2.5-3.26-5.14-4.57-7.91
		c-2.4-5.04-4.07-10.49-4.89-16.21c-0.37-2.64-0.57-5.35-0.57-8.1c0-2.76,0.19-5.46,0.57-8.1c1.04-7.24,3.45-14.03,6.95-20.13
		l58.55-101.43l9.37-16.21l18.7,32.41l-9.35,16.21l-23.5,40.71l-25.36,43.93l-0.62,1.07c-0.58,1.1-1.09,2.24-1.51,3.44
		c-0.91,2.53-1.39,5.27-1.39,8.1c0,2.84,0.49,5.56,1.39,8.1c3.32,9.43,12.32,16.21,22.92,16.21h98.24L227.48,262.23z"/>
	<path class="st0" d="M218.13,213.62H110.52c-4.49,0-8.1-3.63-8.1-8.1c0-4.49,3.61-8.1,8.1-8.1h98.24L218.13,213.62z"/>
	<polygon class="st0" points="246.2,262.23 227.48,262.23 208.76,229.82 199.41,213.62 218.13,213.62 227.48,229.82 	"/>
	<polygon class="st0" points="129.24,59.65 119.87,75.85 110.52,59.65 101.17,43.44 110.52,27.23 119.87,43.44 	"/>
	<polygon class="st0" points="110.52,59.65 53.8,157.88 53.8,125.47 101.17,43.44 	"/>
</g>
</svg>
