<svg width="50" height="51" viewBox="0 0 50 51" fill="none" xmlns="http://www.w3.org/2000/svg">
<g clip-path="url(#clip0_837_641)">
<mask id="mask0_837_641" style="mask-type:luminance" maskUnits="userSpaceOnUse" x="0" y="0" width="50" height="51">
<path d="M0 0.195316H50V50.1953H0V0.195316Z" fill="white"/>
</mask>
<g mask="url(#mask0_837_641)">
<path d="M41.0405 49.0352H7.88281C6.77824 49.0352 5.88281 48.1397 5.88281 47.0352V3.96485C5.88281 2.86028 6.77824 1.96485 7.88281 1.96485H32.2798C32.8102 1.96485 33.3192 2.1758 33.6942 2.55087C36.2467 5.10338 37.902 6.75863 40.4545 9.31115C40.8296 9.68622 41.0405 10.1952 41.0405 10.7256V30.4692" stroke="white" stroke-width="2" stroke-miterlimit="10"/>
<path d="M32.251 1.96523L32.2521 10.7538L41.0406 10.7549" stroke="white" stroke-miterlimit="10"/>
<path d="M11.5166 42.1431H31.7571" stroke="white" stroke-miterlimit="10"/>
<path d="M11.5166 36.2837H32.4277" stroke="white" stroke-miterlimit="10"/>
<path d="M11.5166 11.0073H17.4502" stroke="white" stroke-miterlimit="10"/>
<path d="M24.9245 16.6415L21.998 30.6499" stroke="white" stroke-miterlimit="10"/>
<path d="M18.2316 26.7275L15.1494 23.6453L18.2316 20.5632" stroke="white" stroke-miterlimit="10"/>
<path d="M28.6914 20.5632L31.7736 23.6454L28.6914 26.7275" stroke="white" stroke-miterlimit="10"/>
<path d="M48.0396 40.1999C48.0396 45.073 44.0892 49.0234 39.2161 49.0234C34.3429 49.0234 30.3926 45.073 30.3926 40.1999C30.3926 35.3267 34.3429 31.3764 39.2161 31.3764C44.0892 31.3764 48.0396 35.3267 48.0396 40.1999Z" stroke="white" stroke-width="2" stroke-miterlimit="10"/>
<path d="M44.8368 37.2065L39.6195 42.4238L36.7871 39.5914" stroke="white" stroke-miterlimit="10"/>
</g>
</g>
<defs>
<clipPath id="clip0_837_641">
<rect width="50" height="50" fill="white" transform="translate(0 0.195312)"/>
</clipPath>
</defs>
</svg>
