<?xml version="1.0" encoding="iso-8859-1"?>
<!-- Generator: Adobe Illustrator 19.0.0, SVG Export Plug-In . SVG Version: 6.00 Build 0)  -->
<svg version="1.1" id="Layer_1" xmlns="http://www.w3.org/2000/svg" xmlns:xlink="http://www.w3.org/1999/xlink" x="0px" y="0px"
	 viewBox="0 0 512 512" style="enable-background:new 0 0 512 512;" xml:space="preserve">
<g>
	<g>
		<path d="M256,0c-8.284,0-15,6.716-15,15v32c0,8.284,6.716,15,15,15s15-6.716,15-15V15C271,6.716,264.284,0,256,0z"/>
	</g>
</g>
<g>
	<g>
		<path d="M256,450c-8.284,0-15,6.716-15,15v32c0,8.284,6.716,15,15,15s15-6.716,15-15v-32C271,456.716,264.284,450,256,450z"/>
	</g>
</g>
<g>
	<g>
		<path d="M119.529,98.315L96.901,75.687c-5.858-5.857-15.356-5.857-21.213,0c-5.858,5.858-5.858,15.356,0,21.213l22.628,22.628
			c2.928,2.929,6.767,4.394,10.606,4.394s7.678-1.465,10.607-4.394C125.387,113.67,125.387,104.172,119.529,98.315z"/>
	</g>
</g>
<g>
	<g>
		<path d="M436.313,415.099l-22.628-22.628c-5.858-5.857-15.356-5.857-21.213,0c-5.858,5.858-5.858,15.356,0,21.213l22.628,22.628
			c2.928,2.929,6.767,4.394,10.606,4.394c3.839,0,7.678-1.465,10.607-4.394C442.171,430.454,442.171,420.956,436.313,415.099z"/>
	</g>
</g>
<g>
	<g>
		<path d="M47,241H15c-8.284,0-15,6.716-15,15s6.716,15,15,15h32c8.284,0,15-6.716,15-15S55.284,241,47,241z"/>
	</g>
</g>
<g>
	<g>
		<path d="M497,241h-32c-8.284,0-15,6.716-15,15s6.716,15,15,15h32c8.284,0,15-6.716,15-15S505.284,241,497,241z"/>
	</g>
</g>
<g>
	<g>
		<path d="M119.529,392.471c-5.858-5.857-15.356-5.857-21.213,0l-22.628,22.628c-5.858,5.858-5.858,15.356,0,21.213
			c2.928,2.929,6.767,4.394,10.606,4.394s7.678-1.465,10.606-4.393l22.629-22.629C125.387,407.826,125.387,398.328,119.529,392.471z
			"/>
	</g>
</g>
<g>
	<g>
		<path d="M436.313,75.688c-5.858-5.857-15.356-5.857-21.213,0l-22.628,22.627c-5.858,5.858-5.858,15.356,0,21.213
			c2.928,2.929,6.767,4.394,10.606,4.394s7.678-1.465,10.607-4.393l22.628-22.628C442.171,91.043,442.171,81.545,436.313,75.688z"/>
	</g>
</g>
<g>
	<g>
		<path d="M256,97c-87.673,0-159,71.327-159,159s71.327,159,159,159s159-71.327,159-159S343.673,97,256,97z M271,384.123V127.877
			c64.089,7.456,114,62.066,114,128.123S335.089,376.667,271,384.123z"/>
	</g>
</g>
<g>
</g>
<g>
</g>
<g>
</g>
<g>
</g>
<g>
</g>
<g>
</g>
<g>
</g>
<g>
</g>
<g>
</g>
<g>
</g>
<g>
</g>
<g>
</g>
<g>
</g>
<g>
</g>
<g>
</g>
</svg>
