<svg id="Capa_1" enable-background="new 0 0 511.978 511.978" height="512" viewBox="0 0 511.978 511.978" width="512" xmlns="http://www.w3.org/2000/svg"><g><path d="m489.571 22.436c-14.467-14.468-33.703-22.436-54.164-22.436s-39.697 7.968-54.165 22.436l-91.597 91.597c-7.943-6.584-17.836-10.17-28.282-10.17-11.863 0-23.016 4.62-31.403 13.008-8.388 8.388-13.008 19.54-13.008 31.403 0 10.447 3.587 20.34 10.17 28.282l-165.836 165.836c-17.585 17.586-25.402 42.454-21.412 66.649l-26.799 26.798c-8.427 8.427-13.067 19.63-13.067 31.547s4.641 23.121 13.067 31.547c8.697 8.697 20.122 13.045 31.547 13.045s22.85-4.349 31.547-13.046l26.799-26.798c24.191 3.991 49.062-3.827 66.648-21.413l165.836-165.836c7.942 6.584 17.835 10.17 28.283 10.17 11.862 0 23.015-4.619 31.402-13.007 16.31-16.311 17.251-42.252 2.835-59.681l91.601-91.601c29.865-29.867 29.864-78.464-.002-108.33zm-197.178 263.083h-131.808l87.608-87.608 65.904 65.904zm-143.99 143.989c-12.026 12.028-29.659 16.545-46.021 11.785-5.253-1.525-10.925-.074-14.796 3.797l-32.631 32.63c-5.697 5.698-14.971 5.698-20.668 0-5.669-5.439-5.669-15.227 0-20.667l32.631-32.63c3.87-3.87 5.325-9.54 3.797-14.795-4.759-16.36-.243-33.994 11.783-46.022l48.086-48.086h131.808zm225.52-168.673c-5.619 5.619-14.761 5.618-20.38 0-.005 0-102.371-102.371-102.371-102.371-5.618-5.619-5.618-14.761 0-20.38 5.364-5.59 15.017-5.59 20.381 0 0 0 102.37 102.37 102.37 102.371 5.619 5.618 5.619 14.761 0 20.38zm94.436-151.282-91.456 91.456-65.903-65.905 91.455-91.455c18.17-18.169 47.734-18.169 65.904 0 18.169 18.17 18.169 47.734 0 65.904z"/></g></svg>