<svg id="Capa_1" enable-background="new 0 0 512 512" height="512" viewBox="0 0 512 512" width="512" xmlns="http://www.w3.org/2000/svg"><g><path d="m256 341c46.869 0 85-38.131 85-85s-38.131-85-85-85-85 38.131-85 85 38.131 85 85 85zm0-140c30.327 0 55 24.673 55 55s-24.673 55-55 55-55-24.673-55-55 24.673-55 55-55z"/><path d="m115.995 299.644c2.632 8.452 6.027 16.639 10.152 24.483l-12.676 20.477c-3.664 5.919-2.775 13.58 2.147 18.502l33.275 33.275c4.922 4.923 12.584 5.812 18.501 2.147l20.477-12.676c7.845 4.125 16.032 7.521 24.483 10.152l5.514 23.431c1.594 6.775 7.64 11.564 14.601 11.564h47.059c6.961 0 13.007-4.789 14.601-11.564l5.514-23.431c8.451-2.632 16.638-6.027 24.483-10.152l20.477 12.676c5.917 3.663 13.58 2.772 18.501-2.147l33.275-33.275c4.922-4.922 5.812-12.583 2.147-18.502l-12.676-20.477c4.125-7.845 7.52-16.032 10.152-24.483l23.431-5.513c6.776-1.595 11.564-7.641 11.564-14.602v-47.059c0-6.961-4.789-13.007-11.564-14.602l-23.431-5.513c-2.632-8.452-6.027-16.639-10.152-24.483l12.676-20.477c3.664-5.919 2.775-13.58-2.147-18.502l-33.275-33.275c-4.922-4.923-12.584-5.812-18.501-2.147l-20.477 12.676c-7.845-4.125-16.032-7.521-24.483-10.152l-5.514-23.431c-1.593-6.775-7.639-11.564-14.6-11.564h-47.059c-6.961 0-13.007 4.789-14.601 11.564l-5.514 23.431c-8.451 2.632-16.638 6.027-24.483 10.152l-20.477-12.676c-5.918-3.665-13.581-2.774-18.501 2.147l-33.275 33.275c-4.922 4.922-5.812 12.583-2.147 18.502l12.676 20.477c-4.125 7.845-7.52 16.031-10.152 24.483l-23.431 5.513c-6.776 1.596-11.565 7.642-11.565 14.603v47.059c0 6.961 4.789 13.007 11.564 14.602zm-4.995-55.293 20.51-4.825c5.504-1.295 9.812-5.575 11.143-11.07 2.83-11.682 7.449-22.821 13.729-33.107 2.947-4.827 2.928-10.902-.049-15.711l-11.1-17.93 16.474-16.475 17.931 11.1c4.809 2.977 10.883 2.995 15.71.049 10.287-6.279 21.426-10.897 33.107-13.728 5.495-1.331 9.775-5.639 11.07-11.143l4.826-20.511h23.299l4.826 20.511c1.295 5.504 5.575 9.812 11.07 11.143 11.681 2.83 22.82 7.448 33.107 13.728 4.828 2.949 10.902 2.929 15.71-.049l17.931-11.1 16.474 16.475-11.1 17.93c-2.977 4.809-2.996 10.884-.049 15.711 6.279 10.286 10.898 21.426 13.729 33.107 1.331 5.495 5.639 9.775 11.143 11.07l20.51 4.825v23.299l-20.51 4.825c-5.504 1.295-9.812 5.575-11.143 11.07-2.83 11.682-7.449 22.82-13.728 33.107-2.947 4.828-2.928 10.902.049 15.711l11.099 17.93-16.474 16.475-17.931-11.1c-4.81-2.978-10.884-2.996-15.71-.049-10.287 6.279-21.426 10.897-33.107 13.728-5.495 1.331-9.775 5.639-11.07 11.143l-4.827 20.51h-23.299l-4.826-20.511c-1.295-5.504-5.575-9.812-11.07-11.143-11.681-2.83-22.82-7.448-33.107-13.728-4.827-2.948-10.902-2.927-15.71.049l-17.931 11.1-16.474-16.475 11.1-17.93c2.977-4.809 2.996-10.884.049-15.711-6.279-10.286-10.898-21.426-13.729-33.107-1.331-5.495-5.639-9.775-11.143-11.07l-20.509-4.825z"/><path d="m256 30c41.254 0 81.612 11.372 116.619 32.464l-20.254 3.572c-8.158 1.438-13.606 9.218-12.167 17.377 1.439 8.158 9.218 13.606 17.377 12.167l55.942-9.865c8.158-1.438 13.606-9.218 12.167-17.377l-9.864-55.94c-1.439-8.158-9.219-13.606-17.377-12.167h-.001c-8.158 1.439-13.606 9.219-12.167 17.377l3.565 20.215c-40.054-24.568-86.426-37.823-133.84-37.823-68.38 0-132.667 26.629-181.02 74.98-48.352 48.353-74.98 112.64-74.98 181.02 0 8.284 6.716 15 15 15s15-6.716 15-15c0-124.617 101.383-226 226-226z"/><path d="m497 241c-8.284 0-15 6.716-15 15 0 124.617-101.383 226-226 226-41.253 0-81.608-11.372-116.613-32.465l20.247-3.57c8.158-1.438 13.606-9.218 12.167-17.377-1.439-8.158-9.218-13.606-17.377-12.167l-55.942 9.865c-8.158 1.438-13.606 9.218-12.167 17.376l9.864 55.94c1.439 8.158 9.219 13.606 17.377 12.167h.001c8.158-1.439 13.606-9.219 12.167-17.377l-3.568-20.235c40.057 24.574 86.426 37.843 133.844 37.843 68.38 0 132.667-26.629 181.02-74.98 48.352-48.353 74.98-112.64 74.98-181.02 0-8.284-6.716-15-15-15z"/></g></svg>