<?xml version="1.0"?>
<svg xmlns="http://www.w3.org/2000/svg" xmlns:xlink="http://www.w3.org/1999/xlink" xmlns:svgjs="http://svgjs.com/svgjs" version="1.1" width="512" height="512" x="0" y="0" viewBox="0 0 74 74" style="enable-background:new 0 0 512 512" xml:space="preserve" class=""><g><path xmlns="http://www.w3.org/2000/svg" d="m61.265 47.283a1 1 0 0 1 -1-1v-5.127a22.346 22.346 0 0 0 -44.691 0v5.127a1 1 0 0 1 -2 0v-5.127a24.346 24.346 0 0 1 48.691 0v5.127a1 1 0 0 1 -1 1z" fill="#ffc107" data-original="#000000" style="" class=""/><path xmlns="http://www.w3.org/2000/svg" d="m66.276 49.171a1 1 0 0 1 -1-1v-7.015a27.357 27.357 0 1 0 -54.714 0v7.015a1 1 0 0 1 -2 0v-7.015a29.357 29.357 0 0 1 58.714 0v7.015a1 1 0 0 1 -1 1z" fill="#ffc107" data-original="#000000" style="" class=""/><path xmlns="http://www.w3.org/2000/svg" d="m56.744 71.413a3.627 3.627 0 0 1 -3.623-3.628v-21.218a3.628 3.628 0 0 1 7.255 0v21.218a3.62 3.62 0 0 1 -3.476 3.625c-.051.002-.1.003-.156.003zm0-26.473a1.626 1.626 0 0 0 -1.625 1.627v21.218a1.628 1.628 0 1 0 3.255 0v-21.218a1.624 1.624 0 0 0 -1.559-1.626z" fill="#ffc107" data-original="#000000" style="" class=""/><path xmlns="http://www.w3.org/2000/svg" d="m60.034 69.142h-.658a1 1 0 0 1 -1-1v-21.932a1 1 0 0 1 1-1h.658a11.966 11.966 0 0 1 0 23.932zm.342-21.926v19.92a9.966 9.966 0 0 0 0-19.92z" fill="#ffc107" data-original="#000000" style="" class=""/><path xmlns="http://www.w3.org/2000/svg" d="m19.1 71.413c-.052 0-.105 0-.157 0a3.62 3.62 0 0 1 -3.475-3.625v-21.221a3.619 3.619 0 0 1 3.475-3.624 3.626 3.626 0 0 1 3.78 3.624v21.218a3.627 3.627 0 0 1 -3.623 3.628zm0-26.473h-.072a1.623 1.623 0 0 0 -1.558 1.626v21.219a1.624 1.624 0 0 0 1.558 1.627 1.628 1.628 0 0 0 1.7-1.627v-21.218a1.626 1.626 0 0 0 -1.625-1.627z" fill="#ffc107" data-original="#000000" style="" class=""/><path xmlns="http://www.w3.org/2000/svg" d="m16.463 69.142h-.658a11.966 11.966 0 0 1 0-23.932h.658a1 1 0 0 1 1 1v21.932a1 1 0 0 1 -1 1zm-1-21.926a9.966 9.966 0 0 0 0 19.92z" fill="#ffc107" data-original="#000000" style="" class=""/><path xmlns="http://www.w3.org/2000/svg" d="m28.569 47.92a3.536 3.536 0 1 1 3.531-3.536 3.54 3.54 0 0 1 -3.531 3.536zm0-5.072a1.536 1.536 0 1 0 1.536 1.536 1.538 1.538 0 0 0 -1.536-1.536z" fill="#ffc107" data-original="#000000" style="" class=""/><path xmlns="http://www.w3.org/2000/svg" d="m42.2 45.813a3.536 3.536 0 1 1 3.536-3.536 3.54 3.54 0 0 1 -3.536 3.536zm0-5.072a1.536 1.536 0 1 0 1.536 1.536 1.538 1.538 0 0 0 -1.536-1.536z" fill="#ffc107" data-original="#000000" style="" class=""/><path xmlns="http://www.w3.org/2000/svg" d="m31.105 45.384a1 1 0 0 1 -1-1v-13.1a1 1 0 0 1 .815-.982l13.628-2.575a1 1 0 0 1 1.185.983v13.567a1 1 0 0 1 -2 0v-12.363l-11.633 2.197v12.273a1 1 0 0 1 -.995 1z" fill="#ffc107" data-original="#000000" style="" class=""/><path xmlns="http://www.w3.org/2000/svg" d="m31.1 36.262a1 1 0 0 1 -.184-1.983l13.628-2.574a1 1 0 1 1 .371 1.964l-13.624 2.575a.987.987 0 0 1 -.191.018z" fill="#ffc107" data-original="#000000" style="" class=""/><path xmlns="http://www.w3.org/2000/svg" d="m3 18.622c-.022 0-.045 0-.067 0a1 1 0 0 1 -.933-1.067 16.058 16.058 0 0 1 17.071-14.931 1 1 0 1 1 -.133 1.995 14.041 14.041 0 0 0 -14.938 13.069 1 1 0 0 1 -1 .934z" fill="#ffc107" data-original="#000000" style="" class=""/><path xmlns="http://www.w3.org/2000/svg" d="m8.081 18.961c-.022 0-.045 0-.067 0a1 1 0 0 1 -.932-1.064 10.978 10.978 0 0 1 11.649-10.197 1 1 0 1 1 -.132 2 8.959 8.959 0 0 0 -9.521 8.329 1 1 0 0 1 -.997.932z" fill="#ffc107" data-original="#000000" style="" class=""/><path xmlns="http://www.w3.org/2000/svg" d="m13.162 19.3c-.022 0-.045 0-.067 0a1 1 0 0 1 -.932-1.065 5.868 5.868 0 0 1 6.23-5.449 1 1 0 1 1 -.133 1.995 3.866 3.866 0 0 0 -4.1 3.588 1 1 0 0 1 -.998.931z" fill="#ffc107" data-original="#000000" style="" class=""/></g></svg>
