<?xml version="1.0"?>
<svg xmlns="http://www.w3.org/2000/svg" xmlns:xlink="http://www.w3.org/1999/xlink" xmlns:svgjs="http://svgjs.com/svgjs" version="1.1" width="512" height="512" x="0" y="0" viewBox="0 0 512.001 512.001" style="enable-background:new 0 0 512 512" xml:space="preserve" class=""><g transform="matrix(0.9999999999999999,0,0,0.9999999999999999,2.842170943040401e-14,2.842170943040401e-14)">
<g xmlns="http://www.w3.org/2000/svg">
	<g>
		<path d="M165.051,121.887c-24.809,0-44.992,20.184-44.992,44.992s20.184,44.992,44.992,44.992s44.992-20.184,44.992-44.992    S189.86,121.887,165.051,121.887z M165.051,181.877c-8.27,0-14.997-6.728-14.997-14.997s6.728-14.997,14.997-14.997    s14.997,6.728,14.997,14.997S173.321,181.877,165.051,181.877z" fill="#ffc107" data-original="#000000" style="" class=""/>
	</g>
</g>
<g xmlns="http://www.w3.org/2000/svg">
	<g>
		<path d="M105.061,211.872c-24.809,0-44.992,20.184-44.992,44.992c0,24.809,20.184,44.992,44.992,44.992    s44.992-20.184,44.992-44.992C150.054,232.056,129.87,211.872,105.061,211.872z M105.061,271.862    c-8.27,0-14.997-6.728-14.997-14.997c0-8.27,6.728-14.997,14.997-14.997s14.997,6.728,14.997,14.997    C120.059,265.134,113.331,271.862,105.061,271.862z" fill="#ffc107" data-original="#000000" style="" class=""/>
	</g>
</g>
<g xmlns="http://www.w3.org/2000/svg">
	<g>
		<path d="M135.056,331.852c-24.809,0-44.992,20.184-44.992,44.992c0,24.809,20.184,44.992,44.992,44.992    s44.992-20.184,44.992-44.992C180.049,352.035,159.865,331.852,135.056,331.852z M135.056,391.841    c-8.27,0-14.997-6.728-14.997-14.997c0-8.27,6.728-14.997,14.997-14.997s14.997,6.728,14.997,14.997    C150.054,385.114,143.326,391.841,135.056,391.841z" fill="#ffc107" data-original="#000000" style="" class=""/>
	</g>
</g>
<g xmlns="http://www.w3.org/2000/svg">
	<g>
		<path d="M490.564,71.222c15.043-22.064,30.34-49.363,14.957-64.744c-7.259-7.259-18.181-8.424-32.466-3.462    c-9.144,3.176-20.246,8.946-32.994,17.15c-26.254,16.894-60.308,44.817-91.726,78.146c-57.61-37.558-128.99-45.705-192.013-25.544    C52.201,106.077-17.897,212.466,4.14,330.203c16.257,86.848,85.119,157.749,171.353,176.428c16.519,3.578,33.088,5.37,49.546,5.37    c11.229,0,22.408-0.835,33.481-2.505c23.93-3.609,43.563-20.343,51.236-43.67c7.916-24.059,1.809-50.029-15.941-67.78    c-11.719-11.709-11.727-30.687,0.004-42.408c11.728-11.727,30.684-11.728,42.413,0c17.733,17.733,43.655,23.843,67.648,15.95    c23.294-7.664,40.008-27.301,43.62-51.249c7.948-52.674-2.621-110.311-35.472-159.187    C438.39,136.255,470.017,101.355,490.564,71.222z M478.399,33.132c-7.306,15.324-22.145,34.914-32.873,48.072l-16.356-16.356    C442.821,54.161,462.444,40.103,478.399,33.132z M417.84,315.865c-1.943,12.883-10.667,23.062-23.335,27.23    c-10.329,3.397-25.489,2.906-37.064-8.668c-23.387-23.387-61.444-23.389-84.827-0.004c-23.452,23.433-23.461,61.399-0.004,84.837    c11.59,11.59,12.07,26.811,8.655,37.192c-4.179,12.702-14.354,21.443-27.218,23.383c-23.691,3.574-47.982,2.726-72.204-2.521    c-74.59-16.156-134.155-77.494-148.22-152.631C7.922,187.38,125.443,69.928,262.866,95.652c22.99,4.303,45.21,12.961,65.15,25.276    c-17.182,20.121-36.031,45.096-44.425,66.211c-20.264-5.756-42.982-0.685-58.904,15.237c-7.054,7.053-12.273,15.812-15.094,25.329    c-4.544,15.33-18.707,27.05-36.08,29.857c-5.559,0.898-10.146,4.835-11.879,10.193c-1.732,5.358-0.316,11.235,3.666,15.217    l4.242,4.241c18.695,18.696,43.552,28.992,69.991,28.992s51.296-10.296,69.991-28.992c16.582-16.582,21.393-40.534,14.464-61.409    c21.026-8.696,45.666-27.382,65.485-44.347C416.346,223.406,424.44,272.112,417.84,315.865z M288.314,266.005    c-13.031,13.03-30.355,20.207-48.783,20.207c-12.082,0-23.691-3.086-33.925-8.883c15.701-9.27,27.621-23.823,32.742-41.099    c1.426-4.808,3.965-9.062,7.547-12.644c11.693-11.695,30.724-11.695,42.419,0C299.927,235.203,300.074,254.245,288.314,266.005z     M338.767,182.921c-13.114,9.026-21.932,13.498-27.498,15.71c2.214-5.566,6.684-14.384,15.71-27.497    c20.467-29.734,51.654-62.772,79.058-87.002l19.871,19.871C400.848,131.714,369.19,161.98,338.767,182.921z" fill="#ffc107" data-original="#000000" style="" class=""/>
	</g>
</g>
<g xmlns="http://www.w3.org/2000/svg">
</g>
<g xmlns="http://www.w3.org/2000/svg">
</g>
<g xmlns="http://www.w3.org/2000/svg">
</g>
<g xmlns="http://www.w3.org/2000/svg">
</g>
<g xmlns="http://www.w3.org/2000/svg">
</g>
<g xmlns="http://www.w3.org/2000/svg">
</g>
<g xmlns="http://www.w3.org/2000/svg">
</g>
<g xmlns="http://www.w3.org/2000/svg">
</g>
<g xmlns="http://www.w3.org/2000/svg">
</g>
<g xmlns="http://www.w3.org/2000/svg">
</g>
<g xmlns="http://www.w3.org/2000/svg">
</g>
<g xmlns="http://www.w3.org/2000/svg">
</g>
<g xmlns="http://www.w3.org/2000/svg">
</g>
<g xmlns="http://www.w3.org/2000/svg">
</g>
<g xmlns="http://www.w3.org/2000/svg">
</g>
</g></svg>
