<?xml version="1.0"?>
<svg xmlns="http://www.w3.org/2000/svg" xmlns:xlink="http://www.w3.org/1999/xlink" xmlns:svgjs="http://svgjs.com/svgjs" version="1.1" width="512" height="512" x="0" y="0" viewBox="0 0 512.256 512.256" style="enable-background:new 0 0 512 512" xml:space="preserve" class=""><g><g xmlns="http://www.w3.org/2000/svg"><path d="m256.128 114.42c-78.138 0-141.708 63.57-141.708 141.708s63.57 141.708 141.708 141.708 141.708-63.57 141.708-141.708-63.57-141.708-141.708-141.708zm0 253.416c-61.596 0-111.708-50.112-111.708-111.708s50.112-111.708 111.708-111.708 111.708 50.112 111.708 111.708-50.112 111.708-111.708 111.708z" fill="#ffc107" data-original="#000000" style="" class=""/><path d="m512.256 315.484v-118.713h-52.036c-4.334-14.931-10.3-29.312-17.824-42.969l36.813-36.813-83.942-83.942-36.813 36.813c-13.657-7.524-28.038-13.489-42.97-17.823v-52.037h-118.713v52.037c-14.931 4.333-29.312 10.299-42.97 17.823l-36.813-36.813-83.942 83.942 36.813 36.813c-7.524 13.657-13.49 28.038-17.824 42.969h-52.035v118.713h52.036c4.334 14.931 10.3 29.312 17.824 42.969l-36.813 36.813 83.942 83.942 36.813-36.813c13.657 7.524 28.038 13.489 42.97 17.823v52.037h118.713v-52.037c14.932-4.334 29.313-10.299 42.97-17.823l36.813 36.813 83.942-83.942-36.813-36.813c7.524-13.657 13.49-28.038 17.824-42.969zm-75.473 79.783-41.517 41.516-32.251-32.251-10.124 6.345c-17.254 10.813-36.015 18.594-55.763 23.126l-11.645 2.672v45.581h-58.713v-45.581l-11.645-2.672c-19.748-4.532-38.509-12.313-55.763-23.126l-10.124-6.345-32.251 32.251-41.517-41.516 32.253-32.251-6.346-10.125c-10.814-17.253-18.595-36.014-23.127-55.762l-2.673-11.645h-45.577v-58.713h45.58l2.673-11.645c4.532-19.748 12.313-38.508 23.127-55.762l6.346-10.125-32.253-32.251 41.517-41.516 32.251 32.251 10.124-6.345c17.255-10.814 36.016-18.595 55.762-23.126l11.646-2.672v-45.58h58.713v45.581l11.645 2.672c19.748 4.532 38.509 12.313 55.763 23.126l10.124 6.345 32.251-32.251 41.517 41.516-32.253 32.251 6.346 10.125c10.814 17.253 18.595 36.014 23.127 55.762l2.673 11.645h45.58v58.713h-45.58l-2.673 11.645c-4.532 19.748-12.313 38.508-23.127 55.762l-6.346 10.125z" fill="#ffc107" data-original="#000000" style="" class=""/><path d="m256.128 245.942c23.515 0 42.645-19.13 42.645-42.645 0-23.514-19.13-42.645-42.645-42.645s-42.645 19.13-42.645 42.645 19.13 42.645 42.645 42.645zm0-55.289c6.973 0 12.645 5.672 12.645 12.645s-5.672 12.645-12.645 12.645-12.645-5.672-12.645-12.645 5.672-12.645 12.645-12.645z" fill="#ffc107" data-original="#000000" style="" class=""/><path d="m264.477 245.944h-16.697c-31.214 0-56.607 25.394-56.607 56.607v27.072h129.912v-27.072c-.001-31.213-25.395-56.607-56.608-56.607zm-43.145 53.679c1.462-13.298 12.766-23.679 26.447-23.679h16.697c13.682 0 24.985 10.38 26.447 23.679z" fill="#ffc107" data-original="#000000" style="" class=""/></g></g></svg>
