<svg width="512" height="258" viewBox="0 0 512 258" fill="none" xmlns="http://www.w3.org/2000/svg">
<path d="M508.625 120.801L392.262 4.43703C388.082 -0.443974 380.736 -1.01297 375.855 3.16803C370.974 7.34803 370.405 14.694 374.586 19.575C374.976 20.03 375.4 20.455 375.855 20.844L472.32 117.426H11.636C5.21 117.426 0 122.636 0 129.063C0 135.49 5.21 140.699 11.636 140.699H472.32L375.855 237.164C370.974 241.344 370.405 248.69 374.586 253.571C378.767 258.452 386.112 259.021 390.993 254.84C391.448 254.45 391.873 254.026 392.262 253.571L508.626 137.207C513.137 132.67 513.137 125.34 508.625 120.801Z" fill="black"/>
</svg>
