<svg xmlns="http://www.w3.org/2000/svg" version="1.1" xmlns:xlink="http://www.w3.org/1999/xlink" width="512" height="512" x="0" y="0" viewBox="0 0 128 128" style="enable-background:new 0 0 512 512" xml:space="preserve" class=""><g><path d="M64 0C28.711 0 0 28.711 0 64s28.711 64 64 64 64-28.711 64-64S99.289 0 64 0zm0 120C33.121 120 8 94.879 8 64S33.121 8 64 8s56 25.121 56 56-25.121 56-56 56zm26.828-58.828a3.997 3.997 0 0 1 0 5.656l-20 20C70.047 87.609 69.023 88 68 88s-2.047-.391-2.828-1.172a3.997 3.997 0 0 1 0-5.656L78.344 68H40c-2.209 0-4-1.789-4-4s1.791-4 4-4h38.344L65.172 46.828c-1.563-1.563-1.563-4.094 0-5.656s4.094-1.563 5.656 0z" fill="#1c3f90" opacity="1" data-original="#000000" class=""></path></g></svg>