<svg width="46" height="46" fill="#ffffff" viewBox="0 0 24 24" xmlns="http://www.w3.org/2000/svg">
 <path d="m14.57 11.76 6.418 2.574a1 1 0 0 1 .01 1.852l-8.85 3.664a1 1 0 0 1-.765 0l-8.851-3.663a1 1 0 0 1 .01-1.852l6.53-2.62c.374-.15 1.556.29 2.693.294 1.215.004 2.387-.417 2.806-.249Zm-9.006 3.517 6.2 2.567 6.203-2.567-6.202-2.489-6.201 2.49Zm6.574-10.494 8.85 3.551a1 1 0 0 1 .01 1.852l-8.85 3.664a1 1 0 0 1-.765 0l-8.851-3.663a1 1 0 0 1 .01-1.852l8.85-3.552a1 1 0 0 1 .746 0ZM5.564 9.277l6.2 2.567 6.203-2.567-6.202-2.489-6.201 2.49Z"></path>
</svg>