<?xml version="1.0" ?><svg id="Layer_1" style="enable-background:new 0 0 156 128;" version="1.1" viewBox="0 0 156 128" xml:space="preserve" xmlns="http://www.w3.org/2000/svg" xmlns:xlink="http://www.w3.org/1999/xlink"><style type="text/css">
	.st0{clip-path:url(#SVGID_2_);enable-background:new    ;}
	.st1{clip-path:url(#SVGID_4_);}
	.st2{clip-path:url(#SVGID_6_);fill:#FFFFFF;}
	.st3{clip-path:url(#SVGID_8_);}
	.st4{clip-path:url(#SVGID_10_);fill:#E6772F;}
	.st5{clip-path:url(#SVGID_12_);}
	.st6{clip-path:url(#SVGID_14_);fill:none;stroke:#CBCBCB;stroke-width:2;stroke-miterlimit:10;}
	.st7{clip-path:url(#SVGID_16_);}
	.st8{clip-path:url(#SVGID_18_);fill:#1A1919;}
	.st9{clip-path:url(#SVGID_20_);}
	.st10{clip-path:url(#SVGID_22_);fill:#1A1919;}
	.st11{clip-path:url(#SVGID_24_);}
	.st12{clip-path:url(#SVGID_26_);fill:#1A1919;}
	.st13{clip-path:url(#SVGID_28_);}
	.st14{clip-path:url(#SVGID_30_);fill:#1A1919;}
	.st15{clip-path:url(#SVGID_32_);}
	.st16{clip-path:url(#SVGID_34_);fill:#1A1919;}
	.st17{clip-path:url(#SVGID_36_);}
	.st18{clip-path:url(#SVGID_38_);fill:#1A1919;}
	.st19{clip-path:url(#SVGID_40_);}
	.st20{clip-path:url(#SVGID_42_);fill:#1A1919;}
	.st21{clip-path:url(#SVGID_44_);}
	.st22{clip-path:url(#SVGID_46_);fill:#E6772F;}
	.st23{clip-path:url(#SVGID_48_);}
	.st24{clip-path:url(#SVGID_50_);fill:#1A1919;}
	.st25{clip-path:url(#SVGID_52_);}
	.st26{clip-path:url(#SVGID_54_);fill:#1A1919;}
</style><g><defs><path d="M13.9,30c0-3.3,2.7-6,6-6h116c3.3,0,6,2.7,6,6v68c0,3.3-2.7,6-6,6h-116c-3.3,0-6-2.7-6-6V30z" id="SVGID_1_"/></defs><clipPath id="SVGID_2_"><use style="overflow:visible;" xlink:href="#SVGID_1_"/></clipPath><g class="st0"><g><defs><rect height="90" id="SVGID_3_" width="138" x="8.9" y="19"/></defs><clipPath id="SVGID_4_"><use style="overflow:visible;" xlink:href="#SVGID_3_"/></clipPath><g class="st1"><defs><rect height="80" id="SVGID_5_" width="128" x="13.9" y="24"/></defs><clipPath id="SVGID_6_"><use style="overflow:visible;" xlink:href="#SVGID_5_"/></clipPath><rect class="st2" height="90" width="138" x="8.9" y="19"/></g><g class="st1"><defs><path d="M141.5,67.7c0,0-34.7,24.5-98.3,35.4h98.3V67.7" id="SVGID_7_"/></defs><clipPath id="SVGID_8_"><use style="overflow:visible;" xlink:href="#SVGID_7_"/></clipPath><g class="st3"><defs><rect height="80" id="SVGID_9_" width="128" x="13.9" y="24"/></defs><clipPath id="SVGID_10_"><use style="overflow:visible;" xlink:href="#SVGID_9_"/></clipPath><rect class="st4" height="45.4" width="108.3" x="38.2" y="62.7"/></g></g><g class="st1"><defs><path d="M13.9,30c0-3.3,2.7-6,6-6h116c3.3,0,6,2.7,6,6v68c0,3.3-2.7,6-6,6h-116c-3.3,0-6-2.7-6-6V30z" id="SVGID_11_"/></defs><clipPath id="SVGID_12_"><use style="overflow:visible;" xlink:href="#SVGID_11_"/></clipPath><g class="st5"><defs><rect height="80" id="SVGID_13_" width="128" x="13.9" y="24"/></defs><clipPath id="SVGID_14_"><use style="overflow:visible;" xlink:href="#SVGID_13_"/></clipPath><path class="st6" d="M13.9,30c0-3.3,2.7-6,6-6h116c3.3,0,6,2.7,6,6v68c0,3.3-2.7,6-6,6h-116c-3.3,0-6-2.7-6-6V30z"/></g></g><g class="st1"><defs><path d="M24.9,47.7h-5.3v18.4h5.2c2.8,0,4.8-0.7,6.6-2.1c2.1-1.7,3.3-4.4,3.3-7.1       C34.8,51.5,30.7,47.7,24.9,47.7z M29.1,61.5c-1.1,1-2.6,1.5-4.9,1.5h-1V50.8h1c2.3,0,3.7,0.4,4.9,1.5c1.2,1.1,2,2.8,2,4.6       C31.1,58.7,30.3,60.4,29.1,61.5z" id="SVGID_15_"/></defs><clipPath id="SVGID_16_"><use style="overflow:visible;" xlink:href="#SVGID_15_"/></clipPath><g class="st7"><defs><rect height="80" id="SVGID_17_" width="128" x="13.9" y="24"/></defs><clipPath id="SVGID_18_"><use style="overflow:visible;" xlink:href="#SVGID_17_"/></clipPath><rect class="st8" height="28.4" width="25.2" x="14.6" y="42.7"/></g></g><g class="st1"><defs><rect height="18.4" id="SVGID_19_" width="3.6" x="36.8" y="47.7"/></defs><clipPath id="SVGID_20_"><use style="overflow:visible;" xlink:href="#SVGID_19_"/></clipPath><g class="st9"><defs><rect height="80" id="SVGID_21_" width="128" x="13.9" y="24"/></defs><clipPath id="SVGID_22_"><use style="overflow:visible;" xlink:href="#SVGID_21_"/></clipPath><rect class="st10" height="28.4" width="13.6" x="31.8" y="42.7"/></g></g><g class="st1"><defs><path d="M49.2,55.1c-2.2-0.8-2.8-1.3-2.8-2.3c0-1.2,1.1-2,2.7-2c1.1,0,2,0.4,2.9,1.5l1.9-2.5       c-1.5-1.4-3.4-2-5.4-2c-3.3,0-5.7,2.3-5.7,5.3c0,2.5,1.2,3.8,4.5,5.1c1.4,0.5,2.1,0.8,2.5,1.1c0.7,0.5,1.1,1.1,1.1,1.9       c0,1.5-1.2,2.6-2.8,2.6c-1.7,0-3.1-0.9-3.9-2.5l-2.3,2.2c1.7,2.4,3.6,3.5,6.4,3.5c3.7,0,6.4-2.5,6.4-6.1       C54.5,57.9,53.3,56.6,49.2,55.1" id="SVGID_23_"/></defs><clipPath id="SVGID_24_"><use style="overflow:visible;" xlink:href="#SVGID_23_"/></clipPath><g class="st11"><defs><rect height="80" id="SVGID_25_" width="128" x="13.9" y="24"/></defs><clipPath id="SVGID_26_"><use style="overflow:visible;" xlink:href="#SVGID_25_"/></clipPath><rect class="st12" height="29.2" width="22.7" x="36.8" y="42.7"/></g></g><g class="st1"><defs><path d="M55.4,56.6c0,5.4,4.3,9.6,9.7,9.6c1.5,0,2.9-0.3,4.5-1.1v-4.2c-1.4,1.4-2.7,2-4.3,2       c-3.6,0-6.2-2.6-6.2-6.3c0-3.5,2.6-6.3,6-6.3c1.7,0,3,0.6,4.5,2.1v-4.2C68,47.3,66.7,47,65.2,47C59.7,47,55.4,51.3,55.4,56.6" id="SVGID_27_"/></defs><clipPath id="SVGID_28_"><use style="overflow:visible;" xlink:href="#SVGID_27_"/></clipPath><g class="st13"><defs><rect height="80" id="SVGID_29_" width="128" x="13.9" y="24"/></defs><clipPath id="SVGID_30_"><use style="overflow:visible;" xlink:href="#SVGID_29_"/></clipPath><rect class="st14" height="29.2" width="24.2" x="50.4" y="42"/></g></g><g class="st1"><defs><polyline id="SVGID_31_" points="98.5,60.1 93.6,47.7 89.7,47.7 97.5,66.6 99.4,66.6 107.4,47.7 103.5,47.7 98.5,60.1      "/></defs><clipPath id="SVGID_32_"><use style="overflow:visible;" xlink:href="#SVGID_31_"/></clipPath><g class="st15"><defs><rect height="80" id="SVGID_33_" width="128" x="13.9" y="24"/></defs><clipPath id="SVGID_34_"><use style="overflow:visible;" xlink:href="#SVGID_33_"/></clipPath><rect class="st16" height="28.9" width="27.7" x="84.7" y="42.7"/></g></g><g class="st1"><defs><polyline id="SVGID_35_" points="109,66.1 119.2,66.1 119.2,63 112.6,63 112.6,58 118.9,58 118.9,54.9 112.6,54.9 112.6,50.8        119.2,50.8 119.2,47.7 109,47.7 109,66.1      "/></defs><clipPath id="SVGID_36_"><use style="overflow:visible;" xlink:href="#SVGID_35_"/></clipPath><g class="st17"><defs><rect height="80" id="SVGID_37_" width="128" x="13.9" y="24"/></defs><clipPath id="SVGID_38_"><use style="overflow:visible;" xlink:href="#SVGID_37_"/></clipPath><rect class="st18" height="28.4" width="20.2" x="104" y="42.7"/></g></g><g class="st1"><defs><path d="M133.7,53.1c0-3.4-2.4-5.4-6.5-5.4h-5.3v18.4h3.6v-7.4h0.5l5,7.4h4.4l-5.8-7.8       C132.2,57.8,133.7,55.9,133.7,53.1z M126.5,56.2h-1v-5.6h1.1c2.2,0,3.4,0.9,3.4,2.7C130,55.2,128.8,56.2,126.5,56.2z" id="SVGID_39_"/></defs><clipPath id="SVGID_40_"><use style="overflow:visible;" xlink:href="#SVGID_39_"/></clipPath><g class="st19"><defs><rect height="80" id="SVGID_41_" width="128" x="13.9" y="24"/></defs><clipPath id="SVGID_42_"><use style="overflow:visible;" xlink:href="#SVGID_41_"/></clipPath><rect class="st20" height="28.4" width="23.4" x="116.9" y="42.7"/></g></g><g class="st1"><defs><path d="M90.3,56.6c0,5.3-4.3,9.6-9.6,9.6c-5.3,0-9.6-4.3-9.6-9.6c0-5.3,4.3-9.6,9.6-9.6       C86,47,90.3,51.3,90.3,56.6" id="SVGID_43_"/></defs><clipPath id="SVGID_44_"><use style="overflow:visible;" xlink:href="#SVGID_43_"/></clipPath><g class="st21"><defs><rect height="80" id="SVGID_45_" width="128" x="13.9" y="24"/></defs><clipPath id="SVGID_46_"><use style="overflow:visible;" xlink:href="#SVGID_45_"/></clipPath><rect class="st22" height="29.2" width="29.2" x="66.1" y="42"/></g></g><g class="st1"><defs><path d="M135.9,48.2c0-0.3-0.2-0.5-0.6-0.5h-0.5v1.7h0.4v-0.7l0.5,0.7h0.5l-0.6-0.7       C135.8,48.6,135.9,48.5,135.9,48.2z M135.2,48.5L135.2,48.5l-0.1-0.4h0.1c0.2,0,0.3,0.1,0.3,0.2       C135.5,48.4,135.4,48.5,135.2,48.5z" id="SVGID_47_"/></defs><clipPath id="SVGID_48_"><use style="overflow:visible;" xlink:href="#SVGID_47_"/></clipPath><g class="st23"><defs><rect height="80" id="SVGID_49_" width="128" x="13.9" y="24"/></defs><clipPath id="SVGID_50_"><use style="overflow:visible;" xlink:href="#SVGID_49_"/></clipPath><rect class="st24" height="11.7" width="11.4" x="129.7" y="42.7"/></g></g><g class="st1"><defs><path d="M135.5,47c-0.8,0-1.5,0.7-1.5,1.5c0,0.8,0.7,1.5,1.5,1.5c0.8,0,1.5-0.7,1.5-1.5       C137,47.7,136.3,47,135.5,47z M135.5,49.7c-0.7,0-1.2-0.5-1.2-1.2c0-0.7,0.5-1.2,1.2-1.2c0.6,0,1.2,0.6,1.2,1.2       C136.7,49.1,136.2,49.7,135.5,49.7z" id="SVGID_51_"/></defs><clipPath id="SVGID_52_"><use style="overflow:visible;" xlink:href="#SVGID_51_"/></clipPath><g class="st25"><defs><rect height="80" id="SVGID_53_" width="128" x="13.9" y="24"/></defs><clipPath id="SVGID_54_"><use style="overflow:visible;" xlink:href="#SVGID_53_"/></clipPath><rect class="st26" height="13" width="13" x="129" y="42"/></g></g></g></g></g></svg>