<svg id="Layer_1" height="512" viewBox="0 0 128 128" width="512" xmlns="http://www.w3.org/2000/svg" data-name="Layer 1"><path d="m116.5 74.206a3.281 3.281 0 0 0 -3.052-2.054h-1.7a16.89 16.89 0 0 0 -8.221 2.143l-12.415 6.942h-3.541a9.8 9.8 0 0 0 -9.63-8.036h-22.361a1.754 1.754 0 0 0 -1.338.621l-6.775 8.03a1.738 1.738 0 0 0 -1.321-.615h-33.146a1.75 1.75 0 0 0 0 3.5h21.38v25.081h-21.38a1.75 1.75 0 0 0 0 3.5h33.146a1.75 1.75 0 0 0 1.75-1.75v-8.392l35.688-1.638c.035 0 .069 0 .1-.008a25.208 25.208 0 0 0 14.907-7l17.157-16.729a3.282 3.282 0 0 0 .752-3.595zm-72.1 35.612h-6.52v-25.081h6.52zm51.751-17.789a21.69 21.69 0 0 1 -12.779 6.015l-35.472 1.629v-12.9l8.5-10.071h21.541a6.3 6.3 0 0 1 6.14 4.95l-17.733 4.353a1.75 1.75 0 0 0 .415 3.449 1.728 1.728 0 0 0 .419-.051l19.006-4.666h5.38a1.749 1.749 0 0 0 .854-.222l12.814-7.165a13.37 13.37 0 0 1 6.513-1.7h1.2z"/><path d="m82.316 66.554a25.936 25.936 0 1 0 -25.936-25.936 25.966 25.966 0 0 0 25.936 25.936zm0-48.372a22.436 22.436 0 1 1 -22.436 22.436 22.462 22.462 0 0 1 22.436-22.436z"/><path d="m77.72 46.979a1.75 1.75 0 0 0 -3.5 0 8.122 8.122 0 0 0 6.343 7.912v2.942a1.75 1.75 0 1 0 3.5 0v-2.933a8.106 8.106 0 0 0 0-15.841v-9.071a4.614 4.614 0 0 1 2.88 4.268 1.75 1.75 0 0 0 3.5 0 8.122 8.122 0 0 0 -6.38-7.921v-2.935a1.75 1.75 0 0 0 -3.5 0v2.943a8.105 8.105 0 0 0 0 15.823v9.068a4.618 4.618 0 0 1 -2.843-4.255zm9.223 0a4.613 4.613 0 0 1 -2.88 4.268v-8.535a4.612 4.612 0 0 1 2.88 4.267zm-9.223-12.723a4.615 4.615 0 0 1 2.843-4.256v8.513a4.619 4.619 0 0 1 -2.843-4.257z"/></svg>