<?xml version="1.0" ?><svg id="Layer_1" style="enable-background:new 0 0 512 512;" version="1.1" viewBox="0 0 512 512" xml:space="preserve" xmlns="http://www.w3.org/2000/svg" xmlns:xlink="http://www.w3.org/1999/xlink"><style type="text/css">
	.st0{fill-rule:evenodd;clip-rule:evenodd;fill:#003473;}
	.st1{fill-rule:evenodd;clip-rule:evenodd;fill:#009DDD;}
	.st2{fill-rule:evenodd;clip-rule:evenodd;fill:#ED1B2E;}
	.st3{fill-rule:evenodd;clip-rule:evenodd;fill:#FFFFFF;}
</style><g><path class="st0" d="M489.2,94.5H21.9c-9.1,0-14.8,1.4-17.9,4.3c-2.7,3.3-4,8.7-4,16.7v29.9v24.1v172.3V367v28.8   c0,14.3,7.4,21.7,21.9,21.7h467.3c15.2,0,22.8-7.4,22.8-21.7V367v-25.2V169.4v-24.1v-29.9C512,101.3,504.4,94.5,489.2,94.5z"/><g><path class="st1" d="M256,338.4c22.4-20.2,36.6-49.6,36.6-82.3c0-32.6-14.1-62-36.6-82.5c-19.6-17.8-45.7-28.7-74.4-28.7    c-61.4,0-111.2,49.8-111.2,111.2c0,61.4,49.8,111,111.2,111C210.3,367.1,236.4,356.2,256,338.4L256,338.4z"/><path class="st1" d="M256,338.4c22.4-20.2,36.6-49.6,36.6-82.3c0-32.6-14.1-62-36.6-82.5V338.4L256,338.4z"/><path class="st2" d="M330.7,144.9c-28.7,0-54.9,10.9-74.7,28.7c-3.9,3.7-7.6,7.6-11.1,11.8h22.4c3,3.7,5.9,7.8,8.5,11.8h-39.4    c-2.4,3.9-4.6,7.8-6.5,11.8h52.2c1.7,3.9,3.5,7.8,4.8,11.8h-61.6c-1.3,3.9-2.4,7.8-3.3,12h68.1c1.5,7.4,2.4,15.5,2.4,23.5    c0,12.2-2,24.2-5.7,35.3h-61.6c1.3,3.9,2.8,7.8,4.6,11.8h52.2c-2,3.9-3.9,8.1-6.3,11.8h-39.4c2.6,4.1,5.4,8.1,8.5,11.8h22.4    c-3.5,4.1-7.2,8.1-11.3,11.8c19.8,17.8,45.9,28.7,74.7,28.7c61.4,0,111-49.6,111-111C441.7,194.7,392,144.9,330.7,144.9    L330.7,144.9z"/><path class="st2" d="M427.5,317.9c0-2,1.5-3.5,3.5-3.5c2,0,3.5,1.5,3.5,3.5c0,2-1.5,3.7-3.5,3.7    C429,321.6,427.5,319.9,427.5,317.9L427.5,317.9z M431,320.8c1.5,0,2.8-1.3,2.8-2.8c0-1.5-1.3-2.6-2.8-2.6c-1.5,0-2.8,1.1-2.8,2.6    C428.2,319.4,429.5,320.8,431,320.8L431,320.8z M430.6,319.4h-0.9v-3h1.3c0.4,0,0.7,0,0.9,0.2c0.2,0,0.4,0.4,0.4,0.7    c0,0.4-0.2,0.7-0.4,0.9l0.4,1.3h-0.9l-0.4-1.1h-0.4V319.4L430.6,319.4z M430.6,317.7h0.4c0,0,0.2,0,0.4,0c0,0,0.2-0.2,0.2-0.4    l-0.2-0.2c-0.2-0.2-0.4-0.2-0.4-0.2h-0.4V317.7L430.6,317.7z"/><polygon class="st0" points="164.1,287 150.2,287 158.5,243.7 139.6,287 127.8,287 125.4,243.9 116.3,287 103.6,287 114.3,230.6     136.3,230.6 136.5,265.5 151.7,230.6 175,230.6 164.1,287   "/><path class="st0" d="M318.7,286.4c-3.9,1.1-6.7,1.5-10,1.5c-7,0-10.9-3.5-10.9-10c0-1.3,0.2-2.8,0.4-4.1l0.9-4.6l0.7-3.5l6.3-35    h13.7l-2,10.4h7l-1.7,11.1h-7.2l-3.7,19.2c0,0.9-0.2,1.5-0.2,2c0,2.4,1.5,3.3,4.8,3.3c1.5,0,2.8,0,3.7-0.4L318.7,286.4    L318.7,286.4z"/><path class="st0" d="M263.8,255.7c0,5.7,3.3,9.8,10.4,12.6c5.9,2.4,6.8,3,6.8,5.2c0,2.8-2.6,4.1-8.1,4.1c-4.4,0-8.1-0.7-12.6-2    l-2,10.7h0.7l2.6,0.4c0.9,0.2,2,0.4,3.7,0.4c3.3,0.2,5.9,0.4,7.6,0.4c14.8,0,21.5-4.8,21.5-15.2c0-6.3-2.8-10-9.8-12.8    c-5.9-2.2-6.5-2.8-6.5-5c0-2.4,2.4-3.7,6.7-3.7c2.8,0,6.5,0.2,10.2,0.7l2-10.4c-3.7-0.7-9.1-1.1-12.4-1.1    C269.1,240,263.6,247.2,263.8,255.7L263.8,255.7z"/><path class="st0" d="M209,287h-11.5l0.2-4.8c-3.5,3.7-8.3,5.4-14.6,5.4c-7.4,0-12.6-5-12.6-12.4c0-11.1,8.9-17.6,24.4-17.6    c1.5,0,3.5,0,5.7,0.2c0.4-1.5,0.4-2.2,0.4-2.8c0-3-2.4-4.4-8.9-4.4c-3.9,0-8.3,0.7-11.3,1.3l-2,0.7l-1.3,0.2l2-10.2    c7-2,11.5-2.6,16.5-2.6c12,0,18.3,4.8,18.3,13.5c0,2.4-0.2,3.9-1.3,9.1l-2.8,16.1l-0.4,3.1l-0.4,2.4l-0.2,1.5V287L209,287z     M199.6,266.6c-1.5-0.2-2.2-0.2-3.3-0.2c-7.8,0-11.8,2.4-11.8,7c0,2.8,2,4.6,5,4.6C195.3,277.9,199.4,273.3,199.6,266.6    L199.6,266.6z"/><path class="st0" d="M254.3,285.9c-4.6,1.3-9.1,2-14.1,2c-15.5,0-23.5-7.2-23.5-20.7c0-15.7,10.2-27.2,24.2-27.2    c11.5,0,18.7,6.5,18.7,16.5c0,3.5-0.4,6.7-1.7,11.3h-27.4c-0.2,0.9-0.2,1.1-0.2,1.5c0,5.2,4.1,8.1,12.2,8.1c5,0,9.4-0.9,14.4-3    L254.3,285.9L254.3,285.9z M247.7,258.7c0-1.1,0-1.7,0-2.4c0-3.7-2.4-5.9-6.5-5.9c-4.4,0-7.6,2.8-8.9,8.3H247.7L247.7,258.7z"/><path class="st0" d="M401.8,266.1c-2,15.2-12.6,22-26.8,22c-15.7,0-22-9.4-22-21.1c0-16.1,10.7-27.2,27.2-27.2    c14.4,0,22,9.1,22,20.7C402.3,263.3,402.3,263.5,401.8,266.1L401.8,266.1z M387.9,260.7c0-4.8-2-9.4-7.6-9.4    c-7,0-11.5,8.5-11.5,15.7c0,6.3,3,10.4,8.1,10.4c3,0,9.4-4.1,10.7-11.3C387.7,264.6,387.9,262.6,387.9,260.7L387.9,260.7z"/><path class="st3" d="M403.4,280.1c0-2,1.7-3.5,3.7-3.5c2,0,3.5,1.5,3.5,3.5c0,2-1.5,3.7-3.5,3.7    C405.1,283.8,403.4,282,403.4,280.1L403.4,280.1z M407.1,282.9c1.5,0,2.6-1.3,2.6-2.8c0-1.5-1.1-2.6-2.6-2.6    c-1.5,0-2.8,1.1-2.8,2.6C404.2,281.6,405.5,282.9,407.1,282.9L407.1,282.9z M406.6,281.6h-0.9v-3h1.3c0.4,0,0.7,0,0.9,0.2    c0.2,0.2,0.4,0.4,0.4,0.7c0,0.4-0.2,0.9-0.7,0.9l0.7,1.3h-0.9l-0.4-1.1h-0.4V281.6L406.6,281.6z M406.6,279.8h0.4c0,0,0.2,0,0.4,0    c0,0,0-0.2,0-0.4v-0.2c-0.2,0-0.4,0-0.7,0h-0.2V279.8L406.6,279.8z"/><polygon class="st3" points="167.6,283.8 153.7,283.8 162,240.4 143,283.8 130.4,283.8 128.2,240.7 120,283.8 107.3,283.8     118,227.4 139.8,227.4 140.9,262.2 156.1,227.4 178.5,227.4 167.6,283.8   "/><path class="st3" d="M322.2,283.1c-3.9,1.1-6.8,1.5-10,1.5c-7,0-10.9-3.5-10.9-10c0-1.3,0.2-2.6,0.4-4.1l0.9-4.6l0.7-3.5l6.3-35    h13.7l-2,10.4h7.2l-2,11.1h-7.2l-3.5,19.2c-0.2,0.9-0.4,1.5-0.4,2c0,2.4,1.5,3.5,4.8,3.5c1.5,0,2.8-0.2,3.7-0.4L322.2,283.1    L322.2,283.1z"/><path class="st0" d="M357.6,251.1l-0.2-1.5l2.6-7.2c-0.7,0-0.9,0-1.1-0.2c-0.7,0-1.1-0.2-1.1-0.2c-0.4,0-0.9,0-1.3,0    c-4.6,0-7.8,2-12.2,7.4l1.5-8.3h-14.4L323,287h13.7c2-10.7,2.8-16.5,3.9-21.5c1.7-8.3,7.8-12,12.4-11.1c0.4,0,0.9,0,1.5,0.2    l0.9,0.4L357.6,251.1L357.6,251.1z"/><path class="st3" d="M362.4,238.3c-1.1-0.4-1.3-0.4-1.5-0.4c-0.7-0.2-1.1-0.2-1.1-0.4c-0.4,0-0.9,0-1.5,0c-4.6,0-7.8,2-12,7.4    l1.3-7H335l-8.5,45.9h13.9c5-28.1,7-33.1,13.7-33.1c0.4,0,1.1,0.2,1.7,0.2l1.5,0.4L362.4,238.3L362.4,238.3z"/><path class="st3" d="M267.3,252.4c0,5.7,3.3,9.8,10.7,12.6c5.7,2.4,6.5,3,6.5,5.2c0,2.8-2.6,4.1-8.1,4.1c-4.1,0-8-0.7-12.6-2    l-1.7,10.7h0.7l2.4,0.7c0.9,0,2.2,0.2,3.7,0.2c3.3,0.4,5.9,0.4,7.8,0.4c14.6,0,21.6-4.8,21.6-15.2c0-6.3-2.8-10-10-12.8    c-5.9-2.2-6.5-2.8-6.5-5c0-2.4,2.4-3.7,7-3.7c2.6,0,6.5,0.2,10,0.7l2-10.4c-3.7-0.7-9.1-0.9-12.2-0.9    C272.8,237,267.3,243.9,267.3,252.4L267.3,252.4z"/><path class="st3" d="M212.5,283.8h-11.3l0.2-4.8c-3.5,3.7-8.3,5.4-14.6,5.4c-7.4,0-12.6-5-12.6-12.4c0-11.1,8.9-17.6,24.4-17.6    c1.5,0,3.5,0,5.7,0.2c0.4-1.5,0.4-2.2,0.4-2.8c0-3-2.4-4.1-8.9-4.1c-3.9,0-8.3,0.4-11.3,1.1l-2,0.7l-1.3,0.2l2-10.2    c7-1.7,11.3-2.4,16.5-2.4c12,0,18.1,4.6,18.1,13.3c0,2.4-0.2,4.1-1.1,9.1l-2.8,16.3l-0.4,2.8l-0.4,2.4l-0.2,1.5L212.5,283.8    L212.5,283.8z M202.5,263.3c-1.5-0.2-2.2-0.2-3-0.2c-7.8,0-11.8,2.4-11.8,7c0,2.8,1.7,4.8,4.8,4.8    C198.1,274.8,202.2,270,202.5,263.3L202.5,263.3z"/><path class="st3" d="M258,282.7c-4.8,1.3-9.4,2-14.1,2c-15.5,0-23.5-7.2-23.5-20.7c0-15.7,10.2-27.2,24.2-27.2    c11.3,0,18.5,6.5,18.5,16.5c0,3.5-0.4,6.7-1.5,11.3h-27.6c0,0.9,0,1.1,0,1.5c0,5.2,3.9,8.1,12,8.1c5,0,9.6-0.9,14.4-2.8L258,282.7    L258,282.7z M250.6,255.5c0-0.9,0-1.7,0-2.4c0-3.7-2.4-5.9-6.5-5.9c-4.4,0-7.4,3-8.7,8.3H250.6L250.6,255.5z"/><path class="st3" d="M405.5,262.9c-2.2,15.2-12.8,22-27,22c-15.5,0-21.8-9.4-21.8-21.1c0-16.1,10.7-27.2,27.2-27.2    c14.4,0,22,9.1,22,20.7C406,260,406,260.2,405.5,262.9L405.5,262.9z M391.2,257c0-4.8-2-9.1-7.6-9.1c-7,0-11.3,8.3-11.3,15.7    c0,6.1,3,10.2,7.8,10.2c3,0,9.6-4.1,10.7-11.1C391.2,260.9,391.2,258.9,391.2,257L391.2,257z"/></g></g></svg>