<svg id="Regular" height="512" viewBox="0 0 24 24" width="512" xmlns="http://www.w3.org/2000/svg"><path d="m16.974 23.5h-9.948c-1.393 0-2.526-1.159-2.526-2.583v-17.834c0-1.424 1.133-2.583 2.526-2.583h9.947c1.393 0 2.526 1.159 2.526 2.583v17.835c.001 1.423-1.132 2.582-2.525 2.582z" fill="#cfd8dc"/><path d="m15.5.75c-.123 0-.219.11-.219.25 0 .96-.691 1.75-1.531 1.75h-3.5c-.84 0-1.531-.79-1.531-1.75 0-.14-.096-.25-.219-.25z" fill="#607d8b"/><path d="m17.305 24h-10.61c-1.486 0-2.695-1.209-2.695-2.695v-18.61c0-1.486 1.209-2.695 2.695-2.695h10.61c1.486 0 2.695 1.209 2.695 2.695v18.61c0 1.486-1.209 2.695-2.695 2.695zm-10.61-22.5c-.659 0-1.195.536-1.195 1.195v18.61c0 .659.536 1.195 1.195 1.195h10.61c.659 0 1.195-.536 1.195-1.195v-18.61c0-.659-.536-1.195-1.195-1.195z"/><path d="m14 3.5h-4c-.965 0-1.75-.785-1.75-1.75 0-.138-.112-.25-.25-.25h-1c-.414 0-.75-.336-.75-.75s.336-.75.75-.75h1c.965 0 1.75.785 1.75 1.75 0 .138.112.25.25.25h4c.138 0 .25-.112.25-.25 0-.965.785-1.75 1.75-1.75h1c.414 0 .75.336.75.75s-.336.75-.75.75h-1c-.138 0-.25.112-.25.25 0 .965-.785 1.75-1.75 1.75z"/><path d="m12.375 15.75h-1.625c-.414 0-.75-.336-.75-.75s.336-.75.75-.75h1.625c.203 0 .375-.229.375-.5s-.172-.5-.375-.5h-.75c-1.034 0-1.875-.897-1.875-2s.841-2 1.875-2h1.625c.414 0 .75.336.75.75s-.336.75-.75.75h-1.625c-.203 0-.375.229-.375.5s.172.5.375.5h.75c1.034 0 1.875.897 1.875 2s-.841 2-1.875 2z"/><path d="m12 17c-.414 0-.75-.336-.75-.75v-1c0-.414.336-.75.75-.75s.75.336.75.75v1c0 .414-.336.75-.75.75z"/><path d="m12 10.75c-.414 0-.75-.336-.75-.75v-1.25c0-.414.336-.75.75-.75s.75.336.75.75v1.25c0 .414-.336.75-.75.75z"/></svg>