<?xml version="1.0" encoding="iso-8859-1"?>
<!-- Generator: Adobe Illustrator 19.0.0, SVG Export Plug-In . SVG Version: 6.00 Build 0)  -->
<svg version="1.1" id="Capa_1" xmlns="http://www.w3.org/2000/svg" xmlns:xlink="http://www.w3.org/1999/xlink" x="0px" y="0px"
	 viewBox="0 0 333 333" style="enable-background:new 0 0 333 333;" xml:space="preserve">
<g>
	<g>
		<path d="M323,31.5H10c-5.5,0-10,4.5-10,10s4.5,10,10,10h313c5.5,0,10-4.5,10-10S328.5,31.5,323,31.5z"/>
	</g>
</g>
<g>
	<g>
		<path d="M323,114.5H10c-5.5,0-10,4.5-10,10s4.5,10,10,10h313c5.5,0,10-4.5,10-10S328.5,114.5,323,114.5z"/>
	</g>
</g>
<g>
	<g>
		<path d="M323,198.5H10c-5.5,0-10,4.5-10,10s4.5,10,10,10h313c5.5,0,10-4.5,10-10S328.5,198.5,323,198.5z"/>
	</g>
</g>
<g>
	<g>
		<path d="M323,281.5H10c-5.5,0-10,4.5-10,10s4.5,10,10,10h313c5.5,0,10-4.5,10-10S328.5,281.5,323,281.5z"/>
	</g>
</g>
<g>
</g>
<g>
</g>
<g>
</g>
<g>
</g>
<g>
</g>
<g>
</g>
<g>
</g>
<g>
</g>
<g>
</g>
<g>
</g>
<g>
</g>
<g>
</g>
<g>
</g>
<g>
</g>
<g>
</g>
</svg>
