<?xml version="1.0" encoding="utf-8"?>
<!-- Generator: Adobe Illustrator 24.1.3, SVG Export Plug-In . SVG Version: 6.00 Build 0)  -->
<svg version="1.1" id="Layer_1" xmlns="http://www.w3.org/2000/svg" xmlns:xlink="http://www.w3.org/1999/xlink" x="0px" y="0px"
	 viewBox="0 0 138 44" style="enable-background:new 0 0 138 44;" xml:space="preserve">
<style type="text/css">
	.st0{fill:#FDB139;}
</style>
<g>
	<path d="M13.83,38.02H3.96V5.81h9.87v5.37c2.25-3.41,5.77-5.71,10.1-5.71v10.45h-2.71c-4.68,0-7.39,1.62-7.39,7.16V38.02z"/>
	<path d="M43.33,38.48c-9.47,0-16.62-6.35-16.62-16.57c0-10.22,7.33-16.57,16.74-16.57c9.47,0,16.74,6.35,16.74,16.57
		C60.19,32.13,52.8,38.48,43.33,38.48z M43.33,29.93c3.52,0,6.81-2.6,6.81-8.02c0-5.48-3.23-8.02-6.7-8.02
		c-3.58,0-6.7,2.54-6.7,8.02C36.75,27.34,39.75,29.93,43.33,29.93z"/>
	<path d="M88.36,13.66L74.68,29.88h13.97v8.14h-25v-7.85l13.39-16.22H63.77V5.81h24.59V13.66z"/>
	<path d="M116.99,13.66l-13.68,16.22h13.97v8.14h-25v-7.85l13.39-16.22H92.4V5.81h24.59V13.66z"/>
	<path class="st0" d="M127.33,38.48c-3.52,0-5.89-2.37-5.89-5.31c0-3.06,2.37-5.43,5.89-5.43c3.46,0,5.83,2.37,5.83,5.43
		C133.16,36.11,130.79,38.48,127.33,38.48z"/>
</g>
</svg>
