<svg xmlns="http://www.w3.org/2000/svg" xmlns:svgjs="http://svgjs.com/svgjs" xmlns:xlink="http://www.w3.org/1999/xlink" width="288" height="288"><svg xmlns="http://www.w3.org/2000/svg" width="288" height="288" fill="#fff" viewBox="0 0 24 24"><path fill="#3c4354" d="M12.75 7a.75.75 0 0 0-1.5 0v5a.75.75 0 0 0 .352.636l3 1.875a.75.75 0 1 0 .796-1.272l-2.648-1.655V7Z" class="color000 svgShape"/><path fill="#3c4354" fill-rule="evenodd" d="M12 3.25a8.75 8.75 0 1 0 0 17.5 8.75 8.75 0 0 0 0-17.5ZM4.75 12a7.25 7.25 0 1 1 14.5 0 7.25 7.25 0 0 1-14.5 0Z" class="color000 svgShape" clip-rule="evenodd"/></svg></svg>