<?xml version="1.0" encoding="iso-8859-1"?>
<!-- Generator: Adobe Illustrator 19.0.0, SVG Export Plug-In . SVG Version: 6.00 Build 0)  -->
<svg version="1.1" id="Capa_1" xmlns="http://www.w3.org/2000/svg" xmlns:xlink="http://www.w3.org/1999/xlink" x="0px" y="0px"
	 viewBox="0 0 395.947 395.947" style="enable-background:new 0 0 395.947 395.947;" xml:space="preserve">
<g>
	<g>
		<path d="M197.973,17.067c-3.77,0-6.827,3.057-6.827,6.827v34.133c0,3.77,3.057,6.827,6.827,6.827s6.827-3.057,6.827-6.827V23.893
			C204.8,20.123,201.743,17.067,197.973,17.067z"/>
	</g>
</g>
<g>
	<g>
		<path d="M250.586,32.72c-2.666-2.666-6.987-2.666-9.653,0l-20.48,20.48c-2.666,2.666-2.666,6.987,0,9.653
			c1.333,1.333,3.081,2,4.826,2s3.494-0.667,4.826-2l20.48-20.48C253.252,39.707,253.252,35.386,250.586,32.72z"/>
	</g>
</g>
<g>
	<g>
		<path d="M175.493,53.2l-20.48-20.48c-2.666-2.666-6.987-2.666-9.653,0c-2.666,2.666-2.666,6.987,0,9.653l20.48,20.48
			c1.333,1.333,3.081,2,4.826,2s3.494-0.667,4.826-2C178.159,60.187,178.159,55.866,175.493,53.2z"/>
	</g>
</g>
<g>
	<g>
		<path d="M360.434,78.507H35.514C15.93,78.507,0,94.437,0,114.021v188.385c0,19.584,15.93,35.514,35.514,35.514H81.92v34.133
			c0,2.76,1.664,5.25,4.214,6.306c0.846,0.35,1.732,0.521,2.613,0.521c1.777,0,3.519-0.693,4.826-1.998l38.96-38.96h227.9
			c19.584,0,35.514-15.93,35.514-35.514V114.021C395.947,94.437,380.017,78.507,360.434,78.507z M382.293,302.406
			c0,12.054-9.808,21.861-21.861,21.861H129.707c-1.809,0-3.546,0.72-4.826,2l-29.307,29.307v-24.48c0-3.77-3.057-6.827-6.827-6.827
			H35.514c-12.054,0-21.861-9.807-21.861-21.859V114.021c0-12.054,9.807-21.861,21.861-21.861h324.919
			c12.054,0,21.861,9.807,21.861,21.861V302.406z"/>
	</g>
</g>
<g>
	<g>
		<path d="M167.927,168.257c-4.878-11.877-15.251-19.727-27.764-21.001c-11.307-1.154-23.011,2.836-31.237,10.684
			c-8.224-7.844-19.84-11.81-31.247-10.684c-12.503,1.273-22.878,9.124-27.754,21.001c-5.086,12.39-2.999,26.438,5.441,36.651
			l48.297,58.457c1.297,1.57,3.227,2.48,5.263,2.48c2.038,0,3.966-0.911,5.263-2.48l48.3-58.457
			C170.931,194.69,173.013,180.647,167.927,168.257z M151.963,196.214l-43.037,52.087l-43.034-52.087c0,0,0,0,0-0.003
			c-5.226-6.323-6.502-15.048-3.337-22.767c2.973-7.247,8.991-11.837,16.493-12.6c0.874-0.087,1.765-0.137,2.661-0.137
			c8.67,0,16.717,4.326,21.53,11.573c2.526,3.806,8.847,3.806,11.373,0c4.813-7.247,12.86-11.573,21.53-11.573
			c0.901,0,1.787,0.049,2.65,0.133c7.513,0.766,13.53,5.357,16.503,12.6C158.467,181.164,157.189,189.887,151.963,196.214z"/>
	</g>
</g>
<g>
</g>
<g>
</g>
<g>
</g>
<g>
</g>
<g>
</g>
<g>
</g>
<g>
</g>
<g>
</g>
<g>
</g>
<g>
</g>
<g>
</g>
<g>
</g>
<g>
</g>
<g>
</g>
<g>
</g>
</svg>
