<svg enable-background="new 0 0 24 24" height="512" viewBox="0 0 24 24" width="512" xmlns="http://www.w3.org/2000/svg"><path d="m11.992 24c-.079 0-.159-.019-.231-.057l-11.492-6c-.165-.086-.269-.257-.269-.443v-11.25c0-.173.09-.334.237-.425s.332-.099.486-.022l11.492 5.75c.169.085.276.258.276.447v11.5c0 .175-.091.337-.241.428-.078.048-.168.072-.258.072zm-10.992-6.803 10.492 5.478v-10.366l-10.492-5.25z"/><path d="m12.008 24c-.09 0-.18-.024-.259-.072-.149-.091-.241-.253-.241-.428v-11.5c0-.189.107-.362.276-.447l11.492-5.75c.153-.078.339-.07.486.022.148.091.238.252.238.425v11.25c0 .186-.104.357-.269.443l-11.492 6c-.072.038-.152.057-.231.057zm.5-11.691v10.366l10.492-5.478v-10.138zm10.992 5.191h.01z"/><path d="m.5 6.75c-.184 0-.36-.101-.448-.276-.124-.247-.023-.547.224-.671l11.508-5.75c.141-.07.307-.07.447 0l11.492 5.75c.247.124.347.424.224.671-.124.247-.423.346-.671.224l-11.268-5.639-11.284 5.638c-.072.036-.148.053-.224.053z"/><path d="m18 15c-.276 0-.5-.224-.5-.5v-5.191l-11.216-5.612c-.247-.123-.347-.424-.223-.671s.424-.346.671-.224l11.492 5.75c.169.086.276.259.276.448v5.5c0 .276-.224.5-.5.5z"/></svg>