<?xml version="1.0" encoding="iso-8859-1"?>
<!-- Generator: Adobe Illustrator 19.0.0, SVG Export Plug-In . SVG Version: 6.00 Build 0)  -->
<svg version="1.1" id="Capa_1" xmlns="http://www.w3.org/2000/svg" xmlns:xlink="http://www.w3.org/1999/xlink" x="0px" y="0px"
	 viewBox="0 0 477.867 477.867" style="enable-background:new 0 0 477.867 477.867;" xml:space="preserve">
<g>
	<g>
		<path d="M426.667,0.002H51.2C22.923,0.002,0,22.925,0,51.202v273.067c0,28.277,22.923,51.2,51.2,51.2h60.587l-9.284,83.456
			c-1.035,9.369,5.721,17.802,15.09,18.837c4.838,0.534,9.674-1.023,13.292-4.279l108.919-98.014h186.863
			c28.277,0,51.2-22.923,51.2-51.2V51.202C477.867,22.925,454.944,0.002,426.667,0.002z M443.733,324.269
			c0,9.426-7.641,17.067-17.067,17.067H233.25c-4.217,0.001-8.284,1.564-11.418,4.386l-80.452,72.414l6.434-57.839
			c1.046-9.367-5.699-17.809-15.067-18.856c-0.63-0.07-1.263-0.106-1.897-0.105H51.2c-9.426,0-17.067-7.641-17.067-17.067V51.202
			c0-9.426,7.641-17.067,17.067-17.067h375.467c9.426,0,17.067,7.641,17.067,17.067V324.269z"/>
	</g>
</g>
<g>
</g>
<g>
</g>
<g>
</g>
<g>
</g>
<g>
</g>
<g>
</g>
<g>
</g>
<g>
</g>
<g>
</g>
<g>
</g>
<g>
</g>
<g>
</g>
<g>
</g>
<g>
</g>
<g>
</g>
</svg>
