<svg xmlns="http://www.w3.org/2000/svg" height="48" viewBox="0 96 960 960" width="48"><path d="M298 796q-91.164 0-154.582-64.5Q80 667 80 576t62.5-155.5Q205 356 296 356h430q63.525 0 108.763 45.544Q880 447.089 880 511.044 880 575 834.763 620.5 789.525 666 726 666H331q-38.22 0-64.61-26.141t-26.39-64Q240 538 267.5 512t65.5-26h393v40H332q-21 0-36.5 14.325-15.5 14.324-15.5 35.5Q280 597 295 611.5q15 14.5 36 14.5h395q47.88 0 80.94-33.289 33.06-33.288 33.06-81.5Q840 463 806.94 429.5T726 396H294q-73 0-123.5 52.875T120 576q0 75 51.5 127.5T297 756h429v40H298Z"/></svg>