<?xml version="1.0"?>
<svg xmlns="http://www.w3.org/2000/svg" xmlns:xlink="http://www.w3.org/1999/xlink" xmlns:svgjs="http://svgjs.com/svgjs" version="1.1" width="512" height="512" x="0" y="0" viewBox="0 0 511.999 511.999" style="enable-background:new 0 0 512 512" xml:space="preserve"><g><g xmlns="http://www.w3.org/2000/svg"><path d="m171.966 210.754c17.546-17.546 17.546-46.094 0-63.64l-61.707-61.707c-9.439-9.44-22.524-14.223-35.887-13.123-13.108 1.079-24.964 7.761-32.527 18.331-1.57 2.194-3.086 4.42-4.571 6.664l124.083 124.083z" fill="#ffc107" data-original="#000000" style=""/><path d="m426.592 401.74-61.707-61.707c-17.544-17.544-46.094-17.546-63.64 0l-10.609 10.609 124.088 124.088c2.244-1.485 4.466-3.007 6.659-4.576 10.57-7.563 17.252-19.419 18.332-32.527 1.101-13.365-3.683-26.446-13.123-35.887z" fill="#ffc107" data-original="#000000" style=""/><path d="m248.213 374.426c-12.021 0-23.32-4.681-31.82-13.18l-65.64-65.64c-8.499-8.499-13.181-19.8-13.181-31.82 0-6.828 1.515-13.422 4.377-19.404l-120.002-120.003c-16.88 35.443-24.35 75.152-21.268 115.01 4.153 53.71 27.315 104.164 65.221 142.069l64.642 64.641c37.904 37.905 88.359 61.067 142.069 65.221 5.869.454 11.733.679 17.583.679 33.875 0 67.202-7.552 97.426-21.946l-120.004-120.004c-5.981 2.863-12.575 4.377-19.403 4.377z" fill="#ffc107" data-original="#000000" style=""/><path d="m301.999 0c-8.284 0-15 6.716-15 15s6.716 15 15 15c99.252 0 180 80.748 180 180 0 8.284 6.716 15 15 15s15-6.716 15-15c0-115.794-94.206-210-210-210z" fill="#ffc107" data-original="#000000" style=""/><path d="m301.998 209.986s.001.005.001.014c0 8.284 6.716 15 15 15s15-6.716 15-15c0-16.542-13.458-30-30-30-8.284 0-15 6.709-15 14.993s6.715 14.993 14.999 14.993z" fill="#ffc107" data-original="#000000" style=""/><path d="m301.999 150c33.084 0 60 26.916 60 60 0 8.284 6.716 15 15 15s15-6.716 15-15c0-49.626-40.374-90-90-90-8.284 0-15 6.716-15 15s6.716 15 15 15z" fill="#ffc107" data-original="#000000" style=""/><path d="m301.999 60c-8.284 0-15 6.716-15 15s6.716 15 15 15c66.168 0 120 53.832 120 120 0 8.284 6.716 15 15 15s15-6.716 15-15c0-82.71-67.29-150-150-150z" fill="#ffc107" data-original="#000000" style=""/></g></g></svg>
