<?xml version="1.0"?>
<svg xmlns="http://www.w3.org/2000/svg" xmlns:xlink="http://www.w3.org/1999/xlink" xmlns:svgjs="http://svgjs.com/svgjs" version="1.1" width="512" height="512" x="0" y="0" viewBox="0 0 512.032 512.032" style="enable-background:new 0 0 512 512" xml:space="preserve"><g>
<g xmlns="http://www.w3.org/2000/svg">
	<g>
		<path d="M496.016,224c-8.832,0-16,7.168-16,16v181.184l-128,51.2V304c0-8.832-7.168-16-16-16c-8.832,0-16,7.168-16,16v168.352    l-128-51.2V167.648l74.144,29.664c8.096,3.264,17.504-0.704,20.8-8.928c3.296-8.192-0.704-17.504-8.928-20.8l-95.776-38.336    c0,0,0,0-0.032,0l-0.256-0.096c-3.808-1.536-8.064-1.536-11.872,0l-0.288,0.096c0,0,0,0-0.032,0L10.064,193.152    C4.016,195.584,0.016,201.44,0.016,208v288c0,5.312,2.656,10.272,7.04,13.248c2.688,1.824,5.792,2.752,8.96,2.752    c2.016,0,4.032-0.384,5.952-1.152l154.048-61.6l153.76,61.504c0,0,0,0,0.032,0l0.288,0.128c3.808,1.536,8.064,1.536,11.872,0    l0.288-0.128c0,0,0,0,0.032,0L502,446.88c6.016-2.464,10.016-8.32,10.016-14.88V240C512.016,231.168,504.848,224,496.016,224z     M160.016,421.152l-128,51.2V218.816l128-51.2V421.152z" fill="#ffc107" data-original="#000000" style=""/>
	</g>
</g>
<g xmlns="http://www.w3.org/2000/svg">
	<g>
		<path d="M400.016,64c-26.464,0-48,21.536-48,48s21.536,48,48,48s48-21.536,48-48S426.48,64,400.016,64z M400.016,128    c-8.832,0-16-7.168-16-16c0-8.832,7.168-16,16-16c8.832,0,16,7.168,16,16C416.016,120.832,408.848,128,400.016,128z" fill="#ffc107" data-original="#000000" style=""/>
	</g>
</g>
<g xmlns="http://www.w3.org/2000/svg">
	<g>
		<path d="M400.016,0c-61.76,0-112,50.24-112,112c0,57.472,89.856,159.264,100.096,170.688c3.04,3.36,7.36,5.312,11.904,5.312    s8.864-1.952,11.904-5.312C422.16,271.264,512.016,169.472,512.016,112C512.016,50.24,461.776,0,400.016,0z M400.016,247.584    c-34.944-41.44-80-105.056-80-135.584c0-44.096,35.904-80,80-80s80,35.904,80,80C480.016,142.496,434.96,206.144,400.016,247.584z    " fill="#ffc107" data-original="#000000" style=""/>
	</g>
</g>
<g xmlns="http://www.w3.org/2000/svg">
</g>
<g xmlns="http://www.w3.org/2000/svg">
</g>
<g xmlns="http://www.w3.org/2000/svg">
</g>
<g xmlns="http://www.w3.org/2000/svg">
</g>
<g xmlns="http://www.w3.org/2000/svg">
</g>
<g xmlns="http://www.w3.org/2000/svg">
</g>
<g xmlns="http://www.w3.org/2000/svg">
</g>
<g xmlns="http://www.w3.org/2000/svg">
</g>
<g xmlns="http://www.w3.org/2000/svg">
</g>
<g xmlns="http://www.w3.org/2000/svg">
</g>
<g xmlns="http://www.w3.org/2000/svg">
</g>
<g xmlns="http://www.w3.org/2000/svg">
</g>
<g xmlns="http://www.w3.org/2000/svg">
</g>
<g xmlns="http://www.w3.org/2000/svg">
</g>
<g xmlns="http://www.w3.org/2000/svg">
</g>
</g></svg>
