<?xml version="1.0" encoding="iso-8859-1"?>
<!-- Generator: Adobe Illustrator 18.0.0, SVG Export Plug-In . SVG Version: 6.00 Build 0)  -->
<!DOCTYPE svg PUBLIC "-//W3C//DTD SVG 1.1//EN" "http://www.w3.org/Graphics/SVG/1.1/DTD/svg11.dtd">
<svg version="1.1" id="Capa_1" xmlns="http://www.w3.org/2000/svg" xmlns:xlink="http://www.w3.org/1999/xlink" x="0px" y="0px"
	 viewBox="0 0 59.414 59.414" style="enable-background:new 0 0 59.414 59.414;" xml:space="preserve">
	     <path d="M70,47.5H30c-1.4,0-2.5,1.1-2.5,2.5v40c0,1.4,1.1,2.5,2.5,2.5h40c1.4,0,2.5-1.1,2.5-2.5V50C72.5,48.6,71.4,47.5,70,47.5z   M47.5,87.5h-5v-25h5V87.5z M57.5,87.5h-5v-25h5V87.5z M67.5,87.5h-5V60c0-1.4-1.1-2.5-2.5-2.5H40c-1.4,0-2.5,1.1-2.5,2.5v27.5h-5  v-35h35V87.5z"/>
                       <path d="M50,42.5c1.4,0,2.5-1.1,2.5-2.5V16l5.7,5.7c0.5,0.5,1.1,0.7,1.8,0.7s1.3-0.2,1.8-0.7c1-1,
                       1-2.6,0-3.5l-10-10  c-1-1-2.6-1-3.5,0l-10,10c-1,1-1,2.6,0,3.5c1,1,2.6,1,3.5,0l5.7-5.7v24C47.5,41.
                       4,48.6,42.5,50,42.5z"/>
<polygon points="15.561,0 14.146,1.414 42.439,29.707 14.146,58 15.561,59.414 45.268,29.707 "/>
<g>
</g>
<g>
</g>
<g>
</g>
<g>
</g>
<g>
</g>
<g>
</g>
<g>
</g>
<g>
</g>
<g>
</g>
<g>
</g>
<g>
</g>
<g>
</g>
<g>
</g>
<g>
</g>
<g>
</g>
</svg>
