<?xml version="1.0"?>
<svg xmlns="http://www.w3.org/2000/svg" id="Icons" viewBox="0 0 74 74" width="512" height="512" fill="red">
<path d="M60,57.313A3.313,3.313,0,1,1,63.312,54,3.316,3.316,0,0,1,60,57.313Zm0-4.625A1.313,1.313,0,1,0,61.312,54,1.313,1.313,0,0,0,60,52.688Z"/><path d="M71,55H66.21a1,1,0,0,1,0-2H70V34.709L61.806,24H50V53h3.79a1,1,0,0,1,0,2H49a1,1,0,0,1-1-1V23a1,1,0,0,1,1-1H62.3a1,1,0,0,1,.794.392l8.7,11.37A1,1,0,0,1,72,34.37V54A1,1,0,0,1,71,55Z"/><path d="M49,55H24.42a1,1,0,0,1,0-2H48V16.99H4V53h8a1,1,0,0,1,0,2H3a1,1,0,0,1-1-1V15.99a1,1,0,0,1,1-1H49a1,1,0,0,1,1,1V54A1,1,0,0,1,49,55Z"/><path d="M49,44H3a1,1,0,0,1,0-2H49a1,1,0,0,1,0,2Z"/><path d="M18.208,61.208A7.208,7.208,0,1,1,25.417,54,7.216,7.216,0,0,1,18.208,61.208Zm0-12.417A5.208,5.208,0,1,0,23.417,54,5.214,5.214,0,0,0,18.208,48.792Z"/><path d="M18.208,57.208A3.208,3.208,0,1,1,21.417,54,3.212,3.212,0,0,1,18.208,57.208Zm0-4.417A1.208,1.208,0,1,0,19.417,54,1.21,1.21,0,0,0,18.208,52.792Z"/><path d="M60,61.208A7.208,7.208,0,1,1,67.208,54,7.216,7.216,0,0,1,60,61.208Zm0-12.417A5.208,5.208,0,1,0,65.208,54,5.214,5.214,0,0,0,60,48.792Z"/><path d="M65.17,41H54a1,1,0,0,1-1-1V28.83a1,1,0,0,1,1-1h6.91a1,1,0,0,1,.795.394l4.26,5.585a1,1,0,0,1,.205.606V40A1,1,0,0,1,65.17,41ZM55,39h9.17V34.753L60.415,29.83H55Z"/></svg>
