<svg id="Layer_1" enable-background="new 0 0 512 512" height="512"  viewBox="0 0 512 512" width="512" xmlns="http://www.w3.org/2000/svg" fill="red"><g><path d="m256 512c-2.943 0-5.886-.811-8.48-2.432l-107.4-67.125c-28.118-17.573-51.476-42.191-67.55-71.193-16.074-29.001-24.57-61.857-24.57-95.015v-220.235c0-7.579 5.317-14.118 12.737-15.664l192-40c2.152-.448 4.374-.448 6.526 0l192 40c7.419 1.546 12.737 8.085 12.737 15.664v220.235c0 33.158-8.496 66.014-24.57 95.015s-39.432 53.62-67.55 71.193l-107.4 67.125c-2.594 1.621-5.537 2.432-8.48 2.432zm-176-442.99v207.225c0 56.917 28.815 108.906 77.08 139.072l98.92 61.825 98.92-61.825c48.265-30.166 77.08-82.155 77.08-139.072v-207.225l-176-36.666z"/><path d="m320 288c0-35.29-28.71-64-64-64-17.645 0-32-14.355-32-32s14.355-32 32-32c15.697 0 28.965 11.205 31.55 26.642 1.459 8.716 9.703 14.601 18.422 13.139 8.715-1.459 14.597-9.707 13.138-18.422-4.267-25.487-23.057-45.199-47.11-51.343v-10.016c0-8.836-7.164-16-16-16s-16 7.164-16 16v10.025c-27.572 7.123-48 32.208-48 61.975 0 35.29 28.71 64 64 64 17.645 0 32 14.355 32 32s-14.355 32-32 32c-15.697 0-28.965-11.205-31.55-26.642-1.458-8.715-9.702-14.599-18.422-13.139-8.715 1.459-14.597 9.707-13.138 18.422 4.267 25.487 23.057 45.199 47.11 51.343v10.016c0 8.836 7.164 16 16 16s16-7.164 16-16v-10.025c27.572-7.123 48-32.209 48-61.975z"/></g></svg>