<?xml version="1.0" encoding="iso-8859-1"?>
<!-- Generator: Adobe Illustrator 21.0.0, SVG Export Plug-In . SVG Version: 6.00 Build 0)  -->
<svg xmlns="http://www.w3.org/2000/svg" xmlns:xlink="http://www.w3.org/1999/xlink" version="1.1" id="Capa_1" x="0px" y="0px" viewBox="0 0 512.22 512.22" style="enable-background:new 0 0 512.22 512.22;" xml:space="preserve" width="512" height="512" fill="#fff">
<path d="M451.73,352.45c-16.01-9.61-49.31-29.62-49.31-81.67c0-43.93,29.4-66.1,45.19-78.01l0.33-0.25  c6.34-4.78,7.85-13.68,3.45-20.29c-35.28-52.97-95.87-54.5-107.65-54.28h-0.07c-8.08,0.01-15.79,0.94-23.1,2.41  c2.7-2.16,5.32-4.46,7.84-6.9c25.24-24.42,39.11-60.45,38.04-98.88C366.22,6.47,359.58,0,351.46,0c-27.3,0-58.34,16.31-81.01,42.57  c-22.84,26.46-33.51,58.16-29.26,86.96c0.35,2.39,1.27,4.57,2.59,6.44c-4-1.34-8.23-2.9-12.41-4.44  c-15.88-5.85-33.89-12.48-50.75-12.48c-0.34,0-34.62,0.25-68.85,21.51c-29.94,18.61-65.64,57.34-65.64,136.23  c0,41.03,16.03,98.47,40.84,146.35c17.14,33.08,52.71,88.6,98.39,88.86h0.49c33.31,0,60.91-19.67,79.68-19.67  c32.06,0,43.47,19.89,78.14,19.89c31.08,0,61.2-23.61,89.53-70.16c10.4-17.1,18.49-34.01,23.44-45.19  c9.45-21.3,9.45-24.14,9.45-26.22C466.09,361.08,458.79,356.69,451.73,352.45z M293.16,62.17c12.31-14.26,27.82-24.84,42.51-29.51  c-2.81,23.29-12.65,44.28-28.12,59.24c-10.84,10.49-23.85,17.31-37.06,19.66C271.89,95.08,279.77,77.68,293.16,62.17z   M406.12,428.82c-21.41,34.44-43.59,53.4-62.45,53.4c-25.95,0-38.08-19.89-78.14-19.89c-27.03,0-52.82,19.81-80,19.67  c-21.2-0.12-48.76-27.96-71.92-72.66c-22.77-43.93-37.48-95.96-37.48-132.55c0-51.8,17.03-88.87,50.59-110.19  c26.13-16.59,52.86-17.52,53.99-17.55c23.42,0.06,55.93,20.79,79.62,20.79c21.33,0,49.89-21.89,83.45-21.89h0.55  c8.14-0.16,46.57,0.75,73.57,30.05c-19.08,16.07-45.48,44.97-45.48,92.78c0,64.94,41.07,93.45,60.47,105.34  C428.06,387.82,418.85,408.35,406.12,428.82z"/>















</svg>
