<svg width="39" height="39" viewBox="0 0 39 39" fill="none" xmlns="http://www.w3.org/2000/svg">
<g clip-path="url(#clip0_657_2177)">
<path d="M19.03 38.06C8.52 38.06 0 29.54 0 19.03C0 8.52 8.52 0 19.03 0C29.54 0 38.06 8.52 38.06 19.03C38.06 29.54 29.54 38.06 19.03 38.06Z" fill="white"/>
<path d="M19.0301 10.48C21.8201 10.48 22.1501 10.49 23.2501 10.54C24.2701 10.59 24.8201 10.76 25.1901 10.9C25.6801 11.09 26.0201 11.32 26.3901 11.68C26.7601 12.05 26.9801 12.39 27.1701 12.88C27.3101 13.25 27.4801 13.8 27.5301 14.82C27.5801 15.92 27.5901 16.25 27.5901 19.04C27.5901 21.83 27.5801 22.16 27.5301 23.26C27.4801 24.28 27.3101 24.83 27.1701 25.2C26.9801 25.69 26.7501 26.03 26.3901 26.4C26.0301 26.76 25.6801 26.99 25.1901 27.18C24.8201 27.32 24.2701 27.49 23.2501 27.54C22.1501 27.59 21.8201 27.6 19.0301 27.6C16.2401 27.6 15.9101 27.59 14.8101 27.54C13.7901 27.49 13.2401 27.32 12.8701 27.18C12.3801 26.99 12.0401 26.76 11.6701 26.4C11.3101 26.03 11.0801 25.69 10.8901 25.2C10.7501 24.83 10.5801 24.28 10.5301 23.26C10.4801 22.16 10.4701 21.83 10.4701 19.04C10.4701 16.25 10.4801 15.92 10.5301 14.82C10.5801 13.8 10.7501 13.25 10.8901 12.88C11.0801 12.39 11.3101 12.05 11.6701 11.68C12.0401 11.31 12.3801 11.09 12.8701 10.9C13.2401 10.76 13.7901 10.59 14.8101 10.54C15.9101 10.49 16.2401 10.48 19.0301 10.48ZM19.0301 8.59998C16.2001 8.59998 15.8401 8.60998 14.7301 8.65998C13.6201 8.70998 12.8601 8.88997 12.2001 9.14997C11.5101 9.41997 10.9301 9.76998 10.3501 10.35C9.7701 10.93 9.4101 11.51 9.1501 12.2C8.8901 12.86 8.7201 13.62 8.6601 14.73C8.6101 15.84 8.6001 16.2 8.6001 19.03C8.6001 21.86 8.6101 22.22 8.6601 23.33C8.7101 24.44 8.8901 25.2 9.1501 25.86C9.4201 26.55 9.7701 27.13 10.3501 27.71C10.9301 28.29 11.5101 28.65 12.2001 28.91C12.8601 29.17 13.6201 29.34 14.7301 29.4C15.8401 29.45 16.2001 29.46 19.0301 29.46C21.8601 29.46 22.2201 29.45 23.3301 29.4C24.4401 29.35 25.2001 29.17 25.8601 28.91C26.5501 28.64 27.1301 28.29 27.7101 27.71C28.2901 27.13 28.6501 26.55 28.9101 25.86C29.1701 25.2 29.3401 24.44 29.4001 23.33C29.4501 22.22 29.4601 21.86 29.4601 19.03C29.4601 16.2 29.4501 15.84 29.4001 14.73C29.3501 13.62 29.1701 12.86 28.9101 12.2C28.6401 11.51 28.2901 10.93 27.7101 10.35C27.1301 9.76998 26.5501 9.40997 25.8601 9.14997C25.2001 8.88997 24.4401 8.71998 23.3301 8.65998C22.2201 8.60998 21.8601 8.59998 19.0301 8.59998Z" fill="#282828"/>
<path d="M19.0302 13.67C16.0702 13.67 13.6702 16.07 13.6702 19.03C13.6702 21.99 16.0702 24.39 19.0302 24.39C21.9902 24.39 24.3902 21.99 24.3902 19.03C24.3902 16.07 21.9902 13.67 19.0302 13.67ZM19.0302 22.51C17.1102 22.51 15.5502 20.95 15.5502 19.03C15.5502 17.11 17.1102 15.55 19.0302 15.55C20.9502 15.55 22.5102 17.11 22.5102 19.03C22.5102 20.95 20.9502 22.51 19.0302 22.51Z" fill="#282828"/>
<path d="M25.8501 13.46C25.8501 14.15 25.2901 14.71 24.6001 14.71C23.9101 14.71 23.3501 14.15 23.3501 13.46C23.3501 12.77 23.9101 12.21 24.6001 12.21C25.2901 12.21 25.8501 12.77 25.8501 13.46Z" fill="#282828"/>
<g clip-path="url(#clip1_657_2177)">
<path d="M19.03 38.06C8.52 38.06 0 29.54 0 19.03C0 8.52 8.52 0 19.03 0C29.54 0 38.06 8.52 38.06 19.03C38.06 29.54 29.54 38.06 19.03 38.06Z" fill="white"/>
<path d="M16.13 30.53H20.76V18.93H24L24.34 15.05H20.76C20.76 15.05 20.76 13.6 20.76 12.84C20.76 11.92 20.94 11.56 21.83 11.56C22.54 11.56 24.34 11.56 24.34 11.56V7.53003C24.34 7.53003 21.7 7.53003 21.13 7.53003C17.68 7.53003 16.13 9.05003 16.13 11.95C16.13 14.48 16.13 15.05 16.13 15.05H13.72V18.98H16.13V30.53V30.53Z" fill="#282828"/>
</g>
</g>
<defs>
<clipPath id="clip0_657_2177">
<rect width="38.06" height="38.06" fill="white"/>
</clipPath>
<clipPath id="clip1_657_2177">
<rect width="38.06" height="38.06" fill="white"/>
</clipPath>
</defs>
</svg>
