<svg width="55" height="81" viewBox="0 0 55 81" fill="none" xmlns="http://www.w3.org/2000/svg">
<path d="M46.7583 35.1761L46.9047 35.0296L53.5444 28.39C54.2207 27.7137 54.2207 26.6199 53.5444 25.9436L46.9047 19.304L46.7583 19.1576V18.9504V9.55353C46.7583 8.59365 45.9838 7.81919 45.024 7.81919H35.627H35.4199L35.2735 7.67274L28.6338 1.0331C27.9576 0.356806 26.8638 0.356807 26.1875 1.0331L26.1871 1.03352L19.5316 7.67316L19.3852 7.81919H19.1785H9.78156C8.82168 7.81919 8.04721 8.59365 8.04721 9.55353V18.9504V19.1576L7.90077 19.304L1.26112 25.9436C0.584834 26.6199 0.584833 27.7137 1.26112 28.39L7.90077 35.0296L8.04721 35.1761V35.3832V44.7801C8.04721 45.74 8.82168 46.5144 9.78156 46.5144H16.136H16.95L16.5819 47.2405L4.33034 71.4113C4.05703 72.1714 4.13065 72.8705 4.42796 73.3251C4.70941 73.7554 5.25811 74.068 6.18355 73.9351L12.6879 72.764L13.0596 72.6971L13.2256 73.0363L16.137 78.9858C16.1377 78.9872 16.1384 78.9886 16.1391 78.9899C16.8371 80.3407 18.7218 80.1628 19.23 79.0398L19.2346 79.0297L19.2397 79.0198L26.941 63.8389L27.3869 62.96L27.8328 63.8389L35.5306 79.0128C35.9174 79.7161 36.522 80.0285 37.0883 80.0256C37.6535 80.0227 38.255 79.705 38.6359 78.9874L41.5482 73.0363L41.7138 72.6979L42.0847 72.7638L41.9973 73.2561L42.0848 72.7638L42.085 72.7638L42.0859 72.764L42.0896 72.7646L42.1041 72.7672L42.1609 72.7773L42.3763 72.8155L43.1462 72.9519C43.7839 73.0648 44.6354 73.2153 45.4909 73.3658C46.3465 73.5163 47.2055 73.6667 47.8584 73.7795C48.185 73.8359 48.4592 73.8828 48.6553 73.9155C48.7535 73.9318 48.8308 73.9444 48.8848 73.9528C48.8982 73.9549 48.9097 73.9567 48.9194 73.9581C48.9293 73.9596 48.9373 73.9608 48.9436 73.9616L46.7583 35.1761ZM46.7583 35.1761V35.3832V44.7801C46.7583 45.7331 45.9749 46.5144 44.9923 46.5144H38.6379H37.8238L38.1919 47.2405L50.3302 71.1844L50.3463 71.216L50.3666 71.2451C50.4547 71.3709 50.569 71.6301 50.6384 71.9657C50.7067 72.2955 50.7218 72.6521 50.6539 72.9663C50.5873 73.275 50.4463 73.5238 50.2126 73.6937C49.9777 73.8644 49.5891 73.9989 48.9449 73.9618L46.7583 35.1761ZM17.3034 73.4447L17.7446 74.3435L18.1981 73.4508L27.801 54.5461L28.1588 53.8417L27.3691 53.8198C26.9245 53.8075 26.492 53.6208 26.1875 53.3164L20.8473 47.9761L20.3597 47.4886L20.0478 48.1035L9.44656 69.0049L8.99116 69.9028L9.98174 69.7231L13.7172 69.0453C14.213 68.9978 14.5595 69.0452 14.8313 69.1763C15.0996 69.3057 15.3561 69.5461 15.6141 70.0028L17.3034 73.4447ZM44.8238 69.7231L45.8139 69.9027L45.359 69.0051L35.2966 49.1495L34.8508 48.2699L34.4047 49.1493L29.4606 58.8949L29.3459 59.1209L29.4605 59.3471L36.6072 73.4504L37.0604 74.3446L37.5021 73.4447L39.1976 69.9903C39.1976 69.9903 39.1976 69.9902 39.1976 69.9902C39.5423 69.2887 40.3048 68.9066 41.0691 69.0418C41.0695 69.0419 41.0698 69.0419 41.0701 69.042L44.8238 69.7231ZM42.7896 43.0457H43.2896V42.5457V34.4641C43.2896 34.0024 43.464 33.5657 43.7861 33.2554L43.7862 33.2555L43.7929 33.2488L49.5134 27.5283L49.867 27.1747L49.5134 26.8212L43.7964 21.1042C43.4723 20.766 43.2896 20.3199 43.2896 19.8695V11.7879V11.2879H42.7896H34.7079C34.2369 11.2879 33.794 11.1018 33.4769 10.7846L27.7563 5.06406L27.4032 4.711L27.0497 5.06357L21.3324 10.765C20.9942 11.0892 20.548 11.272 20.0976 11.272H12.0159H11.5159V11.772V19.8537C11.5159 20.3248 11.3298 20.7676 11.0126 21.0848L5.29209 26.8053L4.93854 27.1589L5.29209 27.5124L11.0091 33.2295C11.3332 33.5676 11.5159 34.0138 11.5159 34.4641V42.5457V43.0457H12.0159H20.0976C20.5686 43.0457 21.0115 43.2318 21.3286 43.549L21.3291 43.5495L27.0497 49.2542L27.4028 49.6063L27.7558 49.2542L33.473 43.5528C33.8112 43.2286 34.2575 43.0457 34.7079 43.0457H42.7896Z" fill="#282828" stroke="white"/>
<path d="M15.6543 27.1746C15.6543 20.7001 20.9291 15.4253 27.4036 15.4253C33.878 15.4253 39.1528 20.7001 39.1528 27.1746C39.1528 33.649 33.878 38.9238 27.4036 38.9238C20.9291 38.9238 15.6543 33.649 15.6543 27.1746ZM19.123 27.1746C19.123 31.7451 22.833 35.4551 27.4036 35.4551C31.9741 35.4551 35.6842 31.7451 35.6842 27.1746C35.6842 22.604 31.9741 18.894 27.4036 18.894C22.833 18.894 19.123 22.604 19.123 27.1746Z" fill="#282828" stroke="white"/>
</svg>
