<svg width="67" height="75" viewBox="0 0 67 75" fill="none" xmlns="http://www.w3.org/2000/svg">
<path d="M61.2122 71.8909V71.8906V21.8344C61.2122 21.1071 60.6222 20.5171 59.8949 20.5171H53.3084V4.70973C53.3084 4.11935 52.9159 3.60134 52.3476 3.44127C51.9579 3.33182 42.6972 0.757812 33.5495 0.757812C24.4018 0.757812 15.1407 3.33182 14.7507 3.44127C14.1821 3.60134 13.7899 4.11935 13.7899 4.70973V20.5171H7.20372C6.47644 20.5171 5.88641 21.1071 5.88641 21.8344V71.8909H0.617188V74.5256H7.20372H59.8949H66.4814V71.8909H61.2122ZM16.4249 21.8344V5.72721C19.0156 5.07765 26.4278 3.39243 33.5495 3.39243C40.6712 3.39243 48.0834 5.07765 50.6741 5.72721V21.8344V36.3244H16.4249V21.8344ZM40.1357 56.0833V63.9867V70.5733H26.963V54.766H40.1357V56.0833ZM58.5776 71.8909H42.7699V71.8906V65.3041H48.0392C48.7664 65.3041 49.3565 64.714 49.3565 63.9867V56.0833C49.3565 55.356 48.7664 54.766 48.0392 54.766H42.7699V53.4487C42.7699 52.7214 42.1799 52.1313 41.4526 52.1313H25.6457C24.9184 52.1313 24.3284 52.7214 24.3284 53.4487V71.8906H8.52103V23.1517H13.7903V37.6417C13.7903 38.369 14.3803 38.959 15.1076 38.959H51.9914C52.7187 38.959 53.3087 38.369 53.3087 37.6417V23.1517H58.578V71.8909H58.5776ZM42.7703 62.6698V57.4006H46.7222V62.6698H42.7703Z" fill="#282828"/>
<path d="M38.8174 40.2759H28.2793V42.9105H38.8174V40.2759Z" fill="#282828"/>
<path d="M40.4625 12.5641C37.1729 9.70558 31.3953 10.9459 27.5835 15.3324C23.7721 19.7175 23.3464 25.612 26.6352 28.4709C27.8199 29.4998 29.329 30.0306 31.0082 30.0306C31.6791 30.0306 32.3775 29.9458 33.0927 29.7746C35.4389 29.2131 37.7191 27.7664 39.5138 25.7026C41.3085 23.6384 42.4229 21.1788 42.6525 18.7773C42.8981 16.2115 42.1202 14.0047 40.4625 12.5641ZM40.0304 18.5264C39.8521 20.3859 38.9626 22.3207 37.5252 23.9742C36.0884 25.6273 34.2963 26.7771 32.4791 27.2127C30.8228 27.6088 29.3622 27.3504 28.3639 26.4819C26.2088 24.6084 26.7621 20.2939 29.5729 17.0604C31.4652 14.8825 33.9865 13.6507 36.0892 13.6507C36.8079 13.6507 37.4721 13.8033 38.0514 14.1024C36.4906 15.2012 34.0285 17.1417 32.1932 19.5702C31.7547 20.151 31.8698 20.977 32.4499 21.4155C32.688 21.5948 32.9665 21.6818 33.2431 21.6818C33.6424 21.6818 34.0364 21.5018 34.2952 21.1588C35.9897 18.916 38.3758 17.0853 39.7666 16.1206C40.0165 16.8201 40.1159 17.629 40.0304 18.5264Z" fill="#282828"/>
</svg>
