<svg width="69" height="77" viewBox="0 0 69 77" fill="none" xmlns="http://www.w3.org/2000/svg">
<mask id="mask0_146_3272" style="mask-type:alpha" maskUnits="userSpaceOnUse" x="0" y="0" width="69" height="77">
<rect x="0.910156" y="0.757812" width="67.8626" height="75.5701" fill="#282828"/>
</mask>
<g mask="url(#mask0_146_3272)">
<path d="M22.8096 9.38452L23.3089 9.41094C23.4007 7.67124 28.0329 5.14492 35.0822 5.14492C42.156 5.14492 46.8165 7.67644 46.918 9.41875C46.9827 10.5328 47.8842 11.4214 49.0118 11.4833M22.8096 9.38452C22.8434 8.745 23.2761 8.14432 23.8691 7.63208C24.4786 7.1055 25.3373 6.6016 26.3953 6.16357C28.5147 5.28608 31.5013 4.64492 35.0822 4.64492C38.6753 4.64492 41.6749 5.28736 43.8054 6.16626C44.8689 6.605 45.7326 7.10957 46.3464 7.63659C46.9433 8.14914 47.3799 8.74987 47.4172 9.38967L47.4172 9.38978C47.4668 10.245 48.1607 10.9358 49.0392 10.984M22.8096 9.38452C22.7649 10.2291 22.0918 10.9182 21.2266 10.985C19.5435 11.1151 18.0425 11.6653 16.95 12.4984C15.8578 13.3312 15.1445 14.4747 15.1445 15.7692C15.1445 18.1726 17.2341 19.8119 20.4606 20.3682C21.248 20.5042 21.7635 21.1765 21.7635 22.0368V26.3331V26.8331H22.2635H47.4194H47.9194V26.3331V22.1573C47.9194 21.3221 48.5135 20.6158 49.3452 20.485L49.2675 19.991L49.3453 20.485C50.9987 20.2246 52.4093 19.6522 53.4187 18.8519C54.4305 18.0496 55.0628 16.9945 55.0628 15.8002C55.0628 13.0819 52.3712 11.1661 49.0392 10.984M22.8096 9.38452L49.0118 11.4833M49.0392 10.984C49.0392 10.984 49.0392 10.984 49.0391 10.984L49.0118 11.4833M49.0392 10.984L49.0118 11.4833M46.3344 54.3649V54.8649H46.8344H53.7382C61.8625 54.8649 68.2727 61.4732 68.2727 69.5101V77.2607C68.2727 77.9202 68.0077 78.4567 67.5052 78.7357C67.5052 78.7357 67.5051 78.7357 67.5051 78.7358L67.502 78.7375C67.1744 78.9192 59.948 82.9289 48.248 84.9611C44.5212 85.6082 40.0907 86.0866 35.1319 86.0866C25.7127 86.0869 14.3975 84.3623 2.38856 78.7927L2.38841 78.7927C1.7867 78.5138 1.41016 77.9177 1.41016 77.2607V69.5101C1.41016 61.4816 8.00653 54.8649 16.1392 54.8649H23.141H23.641V54.3649V48.0118V47.8106L23.5016 47.6654C21.8055 45.8992 20.7981 43.925 19.7629 41.8714L19.6468 41.6411L19.3918 41.6022C18.5304 41.4709 17.6013 41.0102 16.7687 40.2159C15.7486 39.2421 14.834 37.8089 14.2516 36.1782C13.5273 34.1487 13.3839 32.2675 13.7219 30.8073C14.0581 29.3545 14.8571 28.3501 16.0186 27.9444L16.0188 27.9443C16.4539 27.7921 16.998 27.6804 17.7626 27.8582L18.3758 28.0008V27.3712V23.7623V23.3958L18.0263 23.2855C14.0756 22.0385 11.6094 19.1889 11.6094 15.7692C11.6094 12.023 14.839 8.7474 19.4042 7.82348L19.6623 7.77125L19.7652 7.52886C20.5232 5.74399 22.3518 4.17259 25.0333 3.0432C27.7051 1.91798 31.1665 1.25781 35.0813 1.25781C38.9911 1.25781 42.4527 1.91351 45.131 3.03187C47.8192 4.15439 49.6611 5.71704 50.4381 7.49307L50.5451 7.73763L50.8078 7.7848C55.4143 8.61185 58.5002 11.8402 58.5002 15.7999C58.5002 19.2473 55.9131 22.1979 51.6682 23.428L51.3074 23.5326V23.9083V27.355V27.9923L51.9264 27.8406C52.413 27.7214 53.1058 27.7502 53.6606 27.9447L53.6612 27.945C54.8245 28.3511 55.6338 29.3577 55.98 30.8107C56.3277 32.2706 56.1945 34.1506 55.4706 36.1781C54.5918 38.6387 53.0643 40.513 51.4799 41.2609C51.1443 41.4192 50.7733 41.5304 50.4312 41.5905L50.184 41.6339L50.0711 41.858C49.137 43.7125 47.9372 45.5662 46.6175 47.2591C46.6127 47.2617 46.6077 47.2644 46.6027 47.2674C46.5961 47.2711 46.5886 47.2757 46.5803 47.2809C46.5724 47.2859 46.5639 47.2916 46.555 47.298C46.5372 47.3107 46.5126 47.3297 46.4865 47.3557C46.4612 47.381 46.4256 47.4215 46.395 47.4786C46.3633 47.5378 46.3344 47.6201 46.3344 47.7196V54.3649ZM42.7992 57.944L42.9467 57.7974V57.5894V52.0394V51.0603L42.1536 51.6343C39.8686 53.2882 37.5039 54.2969 34.8391 54.2969C32.2763 54.2969 29.8017 53.3636 27.8328 51.8549L27.0287 51.2388V52.2518V55.4948V55.7743L27.2668 55.9207L37.7861 62.388L38.1213 62.5941L38.4004 62.3166L42.7992 57.944ZM50.3725 30.4288L50.2275 30.1821L49.9413 30.1821L19.9704 30.1876L19.6769 30.1876L19.5338 30.444C19.1607 31.1127 18.4062 31.4733 17.7024 31.3378L17.1989 31.2409L17.1146 31.7467C17.0033 32.4156 17.0202 33.5854 17.5447 35.0552L17.5447 35.0553C18.1647 36.7909 19.0758 37.7714 19.5831 38.1066L19.7943 38.2462L20.0318 38.1585C20.3904 38.0262 20.7857 38.0134 21.1551 38.1277C21.6292 38.2747 22.0135 38.6148 22.2126 39.0589L22.2127 39.0589C23.4247 41.7618 25.2128 44.7021 27.3758 46.9753C29.5296 49.2389 32.122 50.9089 34.9383 50.9089C37.7486 50.9089 40.3373 49.2435 42.489 46.9864C44.6498 44.7197 46.4372 41.7879 47.6493 39.093L47.6494 39.0929C47.8418 38.6648 48.2066 38.3319 48.6575 38.1775L48.6575 38.1775C49.0187 38.0539 49.4058 38.0508 49.7614 38.1662L49.9879 38.2397L50.1878 38.1101C50.6937 37.782 51.6146 36.793 52.2393 35.0435C52.7734 33.5478 52.7817 32.3512 52.6628 31.6878L52.578 31.2143L52.1016 31.2807C51.4245 31.3752 50.7293 31.036 50.3725 30.4288ZM4.79782 75.8533V76.179L5.09567 76.3107C18.9349 82.4284 31.6 83.2664 41.3196 82.4234L41.7764 82.3837V81.9252V69.1257V68.8442L41.5356 68.6982L24.8169 58.5611L24.6974 58.4886H24.5576H16.1392C9.92208 58.4886 4.79782 63.3298 4.79782 69.5101V75.8533ZM64.5002 76.4178H64.8853V75.9178V69.5101C64.8853 63.3415 59.9676 58.4886 53.7385 58.4886H47.5534H47.3516L47.2064 58.6287L41.6054 64.0284L41.1333 64.4835L41.6971 64.8183L44.4636 66.4612C44.4642 66.4616 44.4648 66.462 44.4655 66.4623C44.9296 66.746 45.1643 67.2608 45.1643 67.9013V81.4013V81.9797L45.7367 81.896C46.3236 81.8102 46.9075 81.7205 47.4538 81.6255C47.4538 81.6255 47.4539 81.6255 47.4539 81.6255L47.3682 81.1328L64.5002 76.4178Z" fill="#282828" stroke="white"/>
<path d="M36.4194 73.3269H35.5313C34.5147 73.3269 33.7105 72.5394 33.7105 71.5595C33.7105 70.5795 34.5147 69.7921 35.5313 69.7921H36.4194C37.4359 69.7921 38.2398 70.5795 38.2398 71.5595C38.2398 72.5395 37.4356 73.3269 36.4194 73.3269Z" fill="#282828" stroke="white" stroke-width="0.8"/>
<line x1="2.55273" y1="75.1781" x2="67.1296" y2="75.1781" stroke="#282828" stroke-width="2.3"/>
</g>
</svg>
