<svg width="21" height="22" viewBox="0 0 21 22" fill="none" xmlns="http://www.w3.org/2000/svg">
<path d="M19.9096 19.2841L19.9101 19.2845C20.0418 19.415 20.1315 19.5819 20.1679 19.7637C20.2042 19.9455 20.1856 20.134 20.1142 20.3052L20.1138 20.3063C20.0552 20.4491 19.9622 20.5751 19.8431 20.6732C19.7239 20.7713 19.5823 20.8383 19.4309 20.8683C19.2795 20.8984 19.1231 20.8904 18.9755 20.8452C18.8279 20.8 18.6939 20.719 18.5853 20.6093L18.5848 20.6089L14.7467 16.7596L14.6213 16.6339L14.4816 16.7435C12.9346 17.9578 11.0243 18.6166 9.05767 18.6142H9.05742C7.30559 18.6142 5.59309 18.0947 4.1365 17.1215C2.67991 16.1483 1.54463 14.765 0.874233 13.1466C0.203838 11.5282 0.0284319 9.74735 0.370196 8.02927C0.711961 6.31118 1.55555 4.73302 2.79428 3.49435C4.03301 2.25568 5.61125 1.41213 7.32942 1.07038C9.0476 0.728635 10.8285 0.904033 12.447 1.5744C14.0655 2.24476 15.4488 3.37998 16.4221 4.83651C17.3954 6.29303 17.9148 8.00543 17.9148 9.75718V9.75743C17.9173 11.7239 17.2584 13.6342 16.0441 15.1811L15.9345 15.3208L16.0602 15.4462L19.9096 19.2841ZM2.59667 7.08117C2.24524 7.92957 2.06436 8.83888 2.06436 9.75718C2.06436 11.6118 2.80113 13.3904 4.11258 14.7018C5.42404 16.0132 7.20275 16.7499 9.05742 16.7499C10.9121 16.7499 12.6908 16.0132 14.0023 14.7018C15.3137 13.3904 16.0505 11.6118 16.0505 9.75718C16.0505 8.83888 15.8696 7.92957 15.5182 7.08117C15.1667 6.23277 14.6516 5.4619 14.0023 4.81256C13.3529 4.16323 12.582 3.64815 11.7335 3.29673C10.8851 2.94532 9.97576 2.76444 9.05742 2.76444C8.13908 2.76444 7.22973 2.94532 6.3813 3.29673C5.53286 3.64815 4.76195 4.16323 4.11258 4.81256C3.46322 5.4619 2.94811 6.23277 2.59667 7.08117Z" fill="#282828" stroke="white" stroke-width="0.4"/>
</svg>
