<?xml version="1.0" encoding="UTF-8"?>
<svg xmlns="http://www.w3.org/2000/svg" version="1.1" viewBox="0 0 60 60">
  <defs>
    <style>
      .cls-1 {
        fill: #333;
      }
    </style>
  </defs>
  <!-- Generator: Adobe Illustrator 28.6.0, SVG Export Plug-In . SVG Version: 1.2.0 Build 709)  -->
  <g>
    <g id="Layer_1">
      <path class="cls-1" d="M0,28c0-.2.2-.4.2-.7.6-1.6,2-2.7,3.7-2.8.2,0,.4,0,.5,0,17,0,34,0,51,0,1.8,0,3.2.7,4,2.3.6,1.2.6,5.1,0,6.3-.7,1.4-1.9,2.2-3.5,2.3-.3,0-.5,0-.8,0-16.7,0-33.4,0-50.2,0S1.1,34.8,0,32.1C0,30.7,0,29.3,0,28Z"/>
    </g>
  </g>
</svg>