<svg width="48" height="48" fill="#2d0b0b" viewBox="0 0 24 24" xmlns="http://www.w3.org/2000/svg">
<path fill-rule="evenodd" d="M2 6a3 3 0 0 1 3-3h14a3 3 0 0 1 3 3v7a1 1 0 1 1-2 0v-2H4v7a1 1 0 0 0 1 1h6a1 1 0 1 1 0 2H5a3 3 0 0 1-3-3V6Zm2 3h16V6a1 1 0 0 0-1-1H5a1 1 0 0 0-1 1v3Z" clip-rule="evenodd"></path>
<path fill-rule="evenodd" d="M17 13a1 1 0 0 1 1 1v2h2a1 1 0 1 1 0 2h-2v2a1 1 0 1 1-2 0v-2h-2a1 1 0 1 1 0-2h2v-2a1 1 0 0 1 1-1Z" clip-rule="evenodd"></path>
<path d="M7 7a1 1 0 1 1-2 0 1 1 0 0 1 2 0Z"></path>
<path d="M10 7a1 1 0 1 1-2 0 1 1 0 0 1 2 0Z"></path>
</svg>