<svg width="48" height="48" fill="#2d0b0b" viewBox="0 0 24 24" xmlns="http://www.w3.org/2000/svg">
<path fill-rule="evenodd" d="M2 10a4 4 0 0 1 4-4h8a4 4 0 0 1 4 4v8a4 4 0 0 1-4 4H6a4 4 0 0 1-4-4v-8Zm4-2a2 2 0 0 0-2 2v8a2 2 0 0 0 2 2h8a2 2 0 0 0 2-2v-8a2 2 0 0 0-2-2H6Z" clip-rule="evenodd"></path>
<path fill-rule="evenodd" d="M10 10a1 1 0 0 1 1 1v2h2a1 1 0 1 1 0 2h-2v2a1 1 0 1 1-2 0v-2H7a1 1 0 1 1 0-2h2v-2a1 1 0 0 1 1-1Z" clip-rule="evenodd"></path>
<path fill-rule="evenodd" d="M6 3a1 1 0 0 1 1-1h11a4 4 0 0 1 4 4v11a1 1 0 1 1-2 0V6a2 2 0 0 0-2-2H7a1 1 0 0 1-1-1Z" clip-rule="evenodd"></path>
</svg>