<svg width="48" height="48" fill="#2d0b0b" viewBox="0 0 24 24" xmlns="http://www.w3.org/2000/svg">
<path fill-rule="evenodd" d="M2 8a3 3 0 0 1 3-3h14a3 3 0 0 1 3 3v4.5a1 1 0 1 1-2 0V8a1 1 0 0 0-1-1H5a1 1 0 0 0-1 1v9a1 1 0 0 0 1 1h8a1 1 0 1 1 0 2H5a3 3 0 0 1-3-3V8Z" clip-rule="evenodd"></path>
<path fill-rule="evenodd" d="M18.5 14a1 1 0 0 1 1 1v1.5H21a1 1 0 1 1 0 2h-1.5V20a1 1 0 1 1-2 0v-1.5H16a1 1 0 1 1 0-2h1.5V15a1 1 0 0 1 1-1Z" clip-rule="evenodd"></path>
<path fill-rule="evenodd" d="M2 10a1 1 0 0 1 1-1h17.5a1 1 0 1 1 0 2H3a1 1 0 0 1-1-1Z" clip-rule="evenodd"></path>
<path fill-rule="evenodd" d="M6 15a1 1 0 0 1 1-1h2a1 1 0 1 1 0 2H7a1 1 0 0 1-1-1Z" clip-rule="evenodd"></path>
</svg>