<svg width="48" height="48" fill="#2d0b0b" viewBox="0 0 24 24" xmlns="http://www.w3.org/2000/svg">
<path fill-rule="evenodd" d="M12 6a7 7 0 1 0 0 14 7 7 0 0 0 0-14Zm-9 7a9 9 0 1 1 18 0 9 9 0 0 1-18 0Z" clip-rule="evenodd"></path>
<path fill-rule="evenodd" d="M12 8a1 1 0 0 1 1 1v3.465l2.555 1.703a1 1 0 0 1-1.11 1.664l-3-2A1 1 0 0 1 11 13V9a1 1 0 0 1 1-1Z" clip-rule="evenodd"></path>
<path fill-rule="evenodd" d="M17.293 2.293a1 1 0 0 1 1.414 0l3 3a1 1 0 0 1-1.414 1.414l-3-3a1 1 0 0 1 0-1.414Z" clip-rule="evenodd"></path>
<path fill-rule="evenodd" d="M6.707 2.293a1 1 0 0 0-1.414 0l-3 3a1 1 0 0 0 1.414 1.414l3-3a1 1 0 0 0 0-1.414Z" clip-rule="evenodd"></path>
</svg>