<svg width="48" height="48" fill="#2d0b0b" viewBox="0 0 24 24" xmlns="http://www.w3.org/2000/svg">
<path fill-rule="evenodd" d="M2 6a4 4 0 0 1 4-4h8a4 4 0 0 1 4 4v8a4 4 0 0 1-4 4H6a4 4 0 0 1-4-4V6Zm4-2a2 2 0 0 0-2 2v8a2 2 0 0 0 2 2h8a2 2 0 0 0 2-2V6a2 2 0 0 0-2-2H6Z" clip-rule="evenodd"></path>
<path fill-rule="evenodd" d="M21 6a1 1 0 0 1 1 1v11a4 4 0 0 1-4 4H7a1 1 0 1 1 0-2h11a2 2 0 0 0 2-2V7a1 1 0 0 1 1-1Z" clip-rule="evenodd"></path>
<path fill-rule="evenodd" d="M5.96 8a2 2 0 0 1 2.83 0l2.085 2.086 1.648-1.649a2 2 0 0 1 2.829 0l2.355 2.356a1 1 0 0 1-1.414 1.414l-2.355-2.355-1.649 1.648 1.262 1.261a1 1 0 0 1-1.414 1.415L7.375 9.414l-3.668 3.668a1 1 0 0 1-1.414-1.414L5.96 8Z" clip-rule="evenodd"></path>
</svg>