<svg width="48" height="48" fill="#2d0b0b" viewBox="0 0 24 24" xmlns="http://www.w3.org/2000/svg">
<path fill-rule="evenodd" d="M3 4a1 1 0 0 1 1-1h16a1 1 0 1 1 0 2H4a1 1 0 0 1-1-1Zm3.578 3h1.844c.257 0 .507 0 .719.018.232.019.506.064.781.207a2 2 0 0 1 .853.853c.143.275.188.55.207.781.018.212.018.462.018.719v4.844c0 .257 0 .507-.018.718a2.02 2.02 0 0 1-.207.782 2 2 0 0 1-.853.853 2.02 2.02 0 0 1-.781.208 9.53 9.53 0 0 1-.719.017H6.578c-.257 0-.507 0-.719-.017a2.02 2.02 0 0 1-.78-.208 2 2 0 0 1-.854-.853 2.02 2.02 0 0 1-.207-.782C4 14.93 4 14.68 4 14.422V9.578c0-.257 0-.507.018-.719a2.01 2.01 0 0 1 .207-.781 2 2 0 0 1 .853-.853 2.01 2.01 0 0 1 .781-.207C6.071 7 6.321 7 6.578 7Zm-.566 2.012-.001.013C6 9.143 6 9.308 6 9.61v4.78a8.194 8.194 0 0 0 .012.598l.013.001c.118.01.283.011.585.011h1.78a8.226 8.226 0 0 0 .598-.012l.001-.013C9 14.857 9 14.691 9 14.39V9.61a8.194 8.194 0 0 0-.012-.598l-.013-.001A8.194 8.194 0 0 0 8.39 9H6.61a8.194 8.194 0 0 0-.598.012ZM15.578 7h1.844c.257 0 .507 0 .718.018.233.019.507.064.782.207a2 2 0 0 1 .853.853c.143.275.188.55.208.781.017.212.017.462.017.719v8.844c0 .257 0 .507-.017.718a2.02 2.02 0 0 1-.208.782 2 2 0 0 1-.853.853 2.02 2.02 0 0 1-.782.208c-.211.017-.46.017-.718.017h-1.844c-.257 0-.507 0-.718-.017a2.02 2.02 0 0 1-.782-.208 2 2 0 0 1-.853-.853 2.02 2.02 0 0 1-.207-.782C13 18.93 13 18.68 13 18.422V9.579c0-.257 0-.507.018-.719a2.02 2.02 0 0 1 .207-.781 2 2 0 0 1 .853-.853 2.02 2.02 0 0 1 .782-.207C15.07 7 15.32 7 15.578 7Zm-.566 2.012-.001.013C15 9.143 15 9.308 15 9.61v8.78a8.227 8.227 0 0 0 .012.598l.013.001c.118.01.284.011.585.011h1.78a8.227 8.227 0 0 0 .598-.012l.001-.013c.01-.119.011-.284.011-.585V9.61a8.226 8.226 0 0 0-.012-.598l-.013-.001A8.194 8.194 0 0 0 17.39 9h-1.78a8.194 8.194 0 0 0-.598.012Z" clip-rule="evenodd"></path>
</svg>