<svg width="48" height="48" fill="#2d0b0b" viewBox="0 0 24 24" xmlns="http://www.w3.org/2000/svg">
<path fill-rule="evenodd" d="M8 7a2 2 0 0 1 2-2h10a2 2 0 0 1 2 2v10a1 1 0 0 1-1 1h-2a1 1 0 1 1 0-2h1V7H10v9h6a1 1 0 1 1 0 2H9a1 1 0 0 1-1-1V7Z" clip-rule="evenodd"></path>
<path fill-rule="evenodd" d="M15 8a1 1 0 0 1 1 1v1h1a1 1 0 1 1 0 2h-1v1a1 1 0 1 1-2 0v-1h-1a1 1 0 1 1 0-2h1V9a1 1 0 0 1 1-1Z" clip-rule="evenodd"></path>
<path fill-rule="evenodd" d="M5 8.586A2 2 0 0 1 6.414 8H9a1 1 0 0 1 0 2H6.414L4 12.414V16h1a1 1 0 1 1 0 2H3a1 1 0 0 1-1-1v-4.586A2 2 0 0 1 2.586 11L5 8.586Z" clip-rule="evenodd"></path>
<path fill-rule="evenodd" d="M17.5 17a.5.5 0 1 0 0 1 .5.5 0 0 0 0-1Zm-2.5.5a2.5 2.5 0 1 1 5 0 2.5 2.5 0 0 1-5 0Z" clip-rule="evenodd"></path>
<path fill-rule="evenodd" d="M6.5 17a.5.5 0 1 0 0 1 .5.5 0 0 0 0-1Zm-2.5.5a2.5 2.5 0 1 1 5 0 2.5 2.5 0 0 1-5 0Z" clip-rule="evenodd"></path>
</svg>