<svg width="48" height="48" fill="#2d0b0b" viewBox="0 0 24 24" xmlns="http://www.w3.org/2000/svg">
<path fill-rule="evenodd" d="M2 5a2 2 0 0 1 2-2h16a2 2 0 0 1 2 2v3a2 2 0 0 1-2 2H4a2 2 0 0 1-2-2V5Zm18 0H4v3h16V5Z" clip-rule="evenodd"></path>
<path fill-rule="evenodd" d="M4 9a1 1 0 0 1 1-1h14a1 1 0 0 1 1 1v9a3 3 0 0 1-3 3H7a3 3 0 0 1-3-3V9Zm2 1v8a1 1 0 0 0 1 1h10a1 1 0 0 0 1-1v-8H6Z" clip-rule="evenodd"></path>
<path fill-rule="evenodd" d="M9 13a1 1 0 0 1 1-1h4a1 1 0 1 1 0 2h-4a1 1 0 0 1-1-1Z" clip-rule="evenodd"></path>
</svg>