<svg width="48" height="48" fill="#2d0b0b" viewBox="0 0 24 24" xmlns="http://www.w3.org/2000/svg">
<path fill-rule="evenodd" d="M3 8a1 1 0 0 1 1-1h16a1 1 0 0 1 1 1v10a3 3 0 0 1-3 3h-1a1 1 0 1 1 0-2h1a1 1 0 0 0 1-1V9H5v9a1 1 0 0 0 1 1h1a1 1 0 1 1 0 2H6a3 3 0 0 1-3-3V8Z" clip-rule="evenodd"></path>
<path fill-rule="evenodd" d="M5.106 3.553A1 1 0 0 1 6 3h12a1 1 0 0 1 .894.553l2 4A1 1 0 0 1 20 9H4a1 1 0 0 1-.894-1.447l2-4ZM6.618 5l-1 2h12.764l-1-2H6.618Z" clip-rule="evenodd"></path>
<path fill-rule="evenodd" d="M12 13a1 1 0 0 0-1 1v3.586l-.793-.793a1 1 0 0 0-1.414 1.414l2.5 2.5a1 1 0 0 0 1.414 0l2.5-2.5a1 1 0 0 0-1.414-1.414l-.793.793V14a1 1 0 0 0-1-1Z" clip-rule="evenodd"></path>
</svg>