<svg width="48" height="48" fill="#2d0b0b" viewBox="0 0 24 24" xmlns="http://www.w3.org/2000/svg">
<path fill-rule="evenodd" d="M3 6a1 1 0 0 1 1 1v4h3.586L6.293 9.707a1 1 0 0 1 1.414-1.414l3 3a1 1 0 0 1 0 1.414l-3 3a1 1 0 0 1-1.414-1.414L7.586 13H4v4a1 1 0 1 1-2 0V7a1 1 0 0 1 1-1Z" clip-rule="evenodd"></path>
<path fill-rule="evenodd" d="M21 6a1 1 0 0 0-1 1v4h-3.586l1.293-1.293a1 1 0 0 0-1.414-1.414l-3 3a1 1 0 0 0 0 1.414l3 3a1 1 0 0 0 1.414-1.414L16.414 13H20v4a1 1 0 1 0 2 0V7a1 1 0 0 0-1-1Z" clip-rule="evenodd"></path>
</svg>