<svg width="48" height="48" fill="#2d0b0b" viewBox="0 0 24 24" xmlns="http://www.w3.org/2000/svg">
<path fill-rule="evenodd" d="M10 18a1 1 0 0 1-1-1v-4H5.414l1.293 1.293a1 1 0 1 1-1.414 1.414l-3-3a1 1 0 0 1 0-1.414l3-3a1 1 0 0 1 1.414 1.414L5.414 11H9V7a1 1 0 1 1 2 0v10a1 1 0 0 1-1 1Z" clip-rule="evenodd"></path>
<path fill-rule="evenodd" d="M14 18a1 1 0 0 0 1-1v-4h3.586l-1.293 1.293a1 1 0 0 0 1.414 1.414l3-3a1 1 0 0 0 0-1.414l-3-3a1 1 0 1 0-1.414 1.414L18.586 11H15V7a1 1 0 1 0-2 0v10a1 1 0 0 0 1 1Z" clip-rule="evenodd"></path>
</svg>