<svg width="48" height="48" fill="#2d0b0b" viewBox="0 0 24 24" xmlns="http://www.w3.org/2000/svg">
<path fill-rule="evenodd" d="M4.293 4.293a1 1 0 0 1 1.414 0L8 6.586V5a1 1 0 0 1 2 0v4a1 1 0 0 1-1 1H5a1 1 0 0 1 0-2h1.586L4.293 5.707a1 1 0 0 1 0-1.414Z" clip-rule="evenodd"></path>
<path fill-rule="evenodd" d="M19.707 4.293a1 1 0 0 1 0 1.414L17.414 8H19a1 1 0 1 1 0 2h-4a1 1 0 0 1-1-1V5a1 1 0 1 1 2 0v1.586l2.293-2.293a1 1 0 0 1 1.414 0Z" clip-rule="evenodd"></path>
<path fill-rule="evenodd" d="M4.293 19.707a1 1 0 0 1 0-1.414L6.586 16H5a1 1 0 1 1 0-2h4a1 1 0 0 1 1 1v4a1 1 0 1 1-2 0v-1.586l-2.293 2.293a1 1 0 0 1-1.414 0Z" clip-rule="evenodd"></path>
<path fill-rule="evenodd" d="M19.707 19.707a1 1 0 0 1-1.414 0L16 17.414V19a1 1 0 1 1-2 0v-4a1 1 0 0 1 1-1h4a1 1 0 1 1 0 2h-1.586l2.293 2.293a1 1 0 0 1 0 1.414Z" clip-rule="evenodd"></path>
</svg>