<svg width="48" height="48" fill="#2d0b0b" viewBox="0 0 24 24" xmlns="http://www.w3.org/2000/svg">
<path fill-rule="evenodd" d="M9.707 9.707a1 1 0 0 1-1.414 0L6 7.414V9a1 1 0 0 1-2 0V5a1 1 0 0 1 1-1h4a1 1 0 1 1 0 2H7.414l2.293 2.293a1 1 0 0 1 0 1.414Z" clip-rule="evenodd"></path>
<path fill-rule="evenodd" d="M14.293 9.707a1 1 0 0 1 0-1.414L16.586 6H15a1 1 0 1 1 0-2h4a1 1 0 0 1 1 1v4a1 1 0 1 1-2 0V7.414l-2.293 2.293a1 1 0 0 1-1.414 0Z" clip-rule="evenodd"></path>
<path fill-rule="evenodd" d="M9.707 14.293a1 1 0 0 1 0 1.414L7.414 18H9a1 1 0 1 1 0 2H5a1 1 0 0 1-1-1v-4a1 1 0 1 1 2 0v1.586l2.293-2.293a1 1 0 0 1 1.414 0Z" clip-rule="evenodd"></path>
<path fill-rule="evenodd" d="M14.293 14.293a1 1 0 0 1 1.414 0L18 16.586V15a1 1 0 1 1 2 0v4a1 1 0 0 1-1 1h-4a1 1 0 1 1 0-2h1.586l-2.293-2.293a1 1 0 0 1 0-1.414Z" clip-rule="evenodd"></path>
</svg>