<svg width="48" height="48" fill="#2d0b0b" viewBox="0 0 24 24" xmlns="http://www.w3.org/2000/svg">
<path fill-rule="evenodd" d="M12 10a1 1 0 0 1-1-1V5.757L9.879 6.88a1 1 0 0 1-1.415-1.415l2.829-2.828a1 1 0 0 1 1.414 0l2.829 2.828A1 1 0 1 1 14.12 6.88L13 5.757V9a1 1 0 0 1-1 1Z" clip-rule="evenodd"></path>
<path fill-rule="evenodd" d="M14 12a1 1 0 0 1 1-1h3.243l-1.121-1.121a1 1 0 1 1 1.414-1.415l2.828 2.829a1 1 0 0 1 0 1.414l-2.828 2.829a1 1 0 1 1-1.415-1.415L18.244 13H15a1 1 0 0 1-1-1Z" clip-rule="evenodd"></path>
<path fill-rule="evenodd" d="M10 12a1 1 0 0 1-1 1H5.757l1.122 1.121a1 1 0 1 1-1.415 1.415l-2.828-2.829a1 1 0 0 1 0-1.414l2.828-2.829A1 1 0 1 1 6.88 9.88L5.757 11H9a1 1 0 0 1 1 1Z" clip-rule="evenodd"></path>
<path fill-rule="evenodd" d="M12 14a1 1 0 0 1 1 1v3.243l1.121-1.121a1 1 0 1 1 1.415 1.414l-2.829 2.828a1 1 0 0 1-1.414 0l-2.829-2.828A1 1 0 1 1 9.88 17.12L11 18.244V15a1 1 0 0 1 1-1Z" clip-rule="evenodd"></path>
</svg>