<svg width="48" height="48" fill="#2d0b0b" viewBox="0 0 24 24" xmlns="http://www.w3.org/2000/svg">
<path fill-rule="evenodd" d="M6.932 5.72A2 2 0 0 1 8.468 5H18a4 4 0 0 1 4 4v6a4 4 0 0 1-4 4H8.468a2 2 0 0 1-1.536-.72l-4.167-5a2 2 0 0 1 0-2.56l4.167-5ZM18 7H8.468l-4.166 5 4.166 5H18a2 2 0 0 0 2-2V9a2 2 0 0 0-2-2Z" clip-rule="evenodd"></path>
<path fill-rule="evenodd" d="M10.293 9.293a1 1 0 0 1 1.414 0L13 10.586l1.293-1.293a1 1 0 1 1 1.414 1.414L14.414 12l1.293 1.293a1 1 0 0 1-1.414 1.414L13 13.414l-1.293 1.293a1 1 0 0 1-1.414-1.414L11.586 12l-1.293-1.293a1 1 0 0 1 0-1.414Z" clip-rule="evenodd"></path>
</svg>