<svg width="48" height="48" fill="#2d0b0b" viewBox="0 0 24 24" xmlns="http://www.w3.org/2000/svg">
<path fill-rule="evenodd" d="M9.838 7.316C11.162 6.37 13 7.316 13 8.943v6.114c0 1.626-1.838 2.573-3.162 1.627l-4.28-3.057a2 2 0 0 1 0-3.255l4.28-3.056ZM11 8.943 6.72 12 11 15.057V8.943Z" clip-rule="evenodd"></path>
<path fill-rule="evenodd" d="M16.838 7.316C18.16 6.37 20 7.316 20 8.943v6.114c0 1.626-1.838 2.573-3.162 1.627l-4.28-3.057a2 2 0 0 1 0-3.255l4.28-3.056ZM18 8.943 13.72 12 18 15.057V8.943Z" clip-rule="evenodd"></path>
</svg>