<svg width="48" height="48" fill="#2d0b0b" viewBox="0 0 24 24" xmlns="http://www.w3.org/2000/svg">
<path fill-rule="evenodd" d="M12 9a1 1 0 0 1 1 1v9a1 1 0 1 1-2 0v-9a1 1 0 0 1 1-1Z" clip-rule="evenodd"></path>
<path fill-rule="evenodd" d="M16 6a1 1 0 0 1 1 1v12a1 1 0 1 1-2 0V7a1 1 0 0 1 1-1Z" clip-rule="evenodd"></path>
<path fill-rule="evenodd" d="M8 13a1 1 0 0 1 1 1v5a1 1 0 1 1-2 0v-5a1 1 0 0 1 1-1Z" clip-rule="evenodd"></path>
<path fill-rule="evenodd" d="M4 4a1 1 0 0 1 1 1v14h14a1 1 0 1 1 0 2H5a2 2 0 0 1-2-2V5a1 1 0 0 1 1-1Z" clip-rule="evenodd"></path>
</svg>