<svg width="48" height="48" fill="#2d0b0b" viewBox="0 0 24 24" xmlns="http://www.w3.org/2000/svg">
<path fill-rule="evenodd" d="M9 4a1 1 0 0 1 1-1h4a1 1 0 0 1 1 1v16a1 1 0 0 1-1 1h-4a1 1 0 0 1-1-1V4Zm2 1v14h2V5h-2Z" clip-rule="evenodd"></path>
<path fill-rule="evenodd" d="M13 9a1 1 0 0 1 1-1h4a1 1 0 0 1 1 1v11a1 1 0 0 1-1 1h-4a1 1 0 0 1-1-1V9Zm2 1v9h2v-9h-2Z" clip-rule="evenodd"></path>
<path fill-rule="evenodd" d="M5 13a1 1 0 0 1 1-1h4a1 1 0 0 1 1 1v7a1 1 0 0 1-1 1H6a1 1 0 0 1-1-1v-7Zm2 1v5h2v-5H7Z" clip-rule="evenodd"></path>
<path fill-rule="evenodd" d="M2 20a1 1 0 0 1 1-1h18a1 1 0 1 1 0 2H3a1 1 0 0 1-1-1Z" clip-rule="evenodd"></path>
</svg>