<svg width="48" height="48" fill="#2d0b0b" viewBox="0 0 24 24" xmlns="http://www.w3.org/2000/svg">
<path fill-rule="evenodd" d="M16 10a1 1 0 0 1 1-1h4a1 1 0 0 1 1 1v9a1 1 0 0 1-1 1h-4a1 1 0 0 1-1-1v-9Zm2 1v7h2v-7h-2Z" clip-rule="evenodd"></path>
<path fill-rule="evenodd" d="M9 5a1 1 0 0 1 1-1h4a1 1 0 0 1 1 1v14a1 1 0 0 1-1 1h-4a1 1 0 0 1-1-1V5Zm2 1v12h2V6h-2Z" clip-rule="evenodd"></path>
<path fill-rule="evenodd" d="M2 13a1 1 0 0 1 1-1h4a1 1 0 0 1 1 1v6a1 1 0 0 1-1 1H3a1 1 0 0 1-1-1v-6Zm2 1v4h2v-4H4Z" clip-rule="evenodd"></path>
</svg>