<svg width="48" height="48" fill="#2d0b0b" viewBox="0 0 24 24" xmlns="http://www.w3.org/2000/svg">
<path fill-rule="evenodd" d="M9 9a1 1 0 0 1 1-1h4a1 1 0 0 1 1 1v10a1 1 0 0 1-1 1h-4a1 1 0 0 1-1-1V9Zm2 1v8h2v-8h-2Z" clip-rule="evenodd"></path>
<path fill-rule="evenodd" d="M16 5a1 1 0 0 1 1-1h4a1 1 0 0 1 1 1v14a1 1 0 0 1-1 1h-4a1 1 0 0 1-1-1V5Zm2 1v12h2V6h-2Z" clip-rule="evenodd"></path>
<path fill-rule="evenodd" d="M2 14a1 1 0 0 1 1-1h4a1 1 0 0 1 1 1v5a1 1 0 0 1-1 1H3a1 1 0 0 1-1-1v-5Zm2 1v3h2v-3H4Z" clip-rule="evenodd"></path>
</svg>