<svg width="48" height="48" fill="#2d0b0b" viewBox="0 0 24 24" xmlns="http://www.w3.org/2000/svg">
<path fill-rule="evenodd" d="M12 5a4 4 0 0 0-4 4v2.756c0 1.294-.89 2.278-1.45 2.867A1.99 1.99 0 0 0 6 16h12a1.99 1.99 0 0 0-.55-1.377c-.56-.59-1.45-1.573-1.45-2.867V9a4 4 0 0 0-4-4ZM6 9a6 6 0 1 1 12 0v2.756c0 .402.292.85.9 1.49A3.99 3.99 0 0 1 20 16a2 2 0 0 1-2 2H6a2 2 0 0 1-2-2 3.99 3.99 0 0 1 1.1-2.755c.608-.64.9-1.087.9-1.489V9Z" clip-rule="evenodd"></path>
<path fill-rule="evenodd" d="M9.766 18.916a1 1 0 0 1 1.324.497 1 1 0 0 0 1.81.026 1 1 0 0 1 1.797.876 3 3 0 0 1-5.429-.076 1 1 0 0 1 .498-1.323Z" clip-rule="evenodd"></path>
<path fill-rule="evenodd" d="M12 2a1 1 0 0 1 1 1v1a1 1 0 1 1-2 0V3a1 1 0 0 1 1-1Z" clip-rule="evenodd"></path>
</svg>