<svg width="48" height="48" fill="#2d0b0b" viewBox="0 0 24 24" xmlns="http://www.w3.org/2000/svg">
<path fill-rule="evenodd" d="M6.909 5.823A5.972 5.972 0 0 0 6 9v2.756c0 .402-.292.85-.9 1.49A3.99 3.99 0 0 0 4 16a2 2 0 0 0 2 2h10a2 2 0 0 0 1.85-1.237L16 14.914V16H6c0-.534.208-1.018.55-1.377.56-.59 1.45-1.573 1.45-2.867V9c0-.61.136-1.188.38-1.705L6.91 5.823ZM16 12.086V9a4 4 0 0 0-6.334-3.249L8.239 4.325A6 6 0 0 1 18 9v5.086l-2-2Z" clip-rule="evenodd"></path>
<path fill-rule="evenodd" d="M2.293 2.293a1 1 0 0 1 1.414 0l18 18a1 1 0 0 1-1.414 1.414l-18-18a1 1 0 0 1 0-1.414Z" clip-rule="evenodd"></path>
<path fill-rule="evenodd" d="M9.766 18.916a1 1 0 0 1 1.324.497 1 1 0 0 0 1.81.026 1 1 0 0 1 1.797.876 3 3 0 0 1-5.429-.076 1 1 0 0 1 .498-1.323Z" clip-rule="evenodd"></path>
<path fill-rule="evenodd" d="M12 2a1 1 0 0 1 1 1v1a1 1 0 1 1-2 0V3a1 1 0 0 1 1-1Z" clip-rule="evenodd"></path>
</svg>