<svg width="48" height="48" fill="#2d0b0b" viewBox="0 0 24 24" xmlns="http://www.w3.org/2000/svg">
<path fill-rule="evenodd" d="M7 6a1 1 0 0 1 1 1v10a1 1 0 1 1-2 0V7a1 1 0 0 1 1-1Z" clip-rule="evenodd"></path>
<path fill-rule="evenodd" d="M6 12a1 1 0 0 1 1-1h7.5a3.5 3.5 0 1 1 0 7H7a1 1 0 0 1-1-1v-5Zm2 1v3h6.5a1.5 1.5 0 0 0 0-3H8Z" clip-rule="evenodd"></path>
<path fill-rule="evenodd" d="M6 7a1 1 0 0 1 1-1h7.5a3.5 3.5 0 1 1 0 7H7a1 1 0 0 1-1-1V7Zm2 1v3h6.5a1.5 1.5 0 0 0 0-3H8Z" clip-rule="evenodd"></path>
<path fill-rule="evenodd" d="M9 4a1 1 0 0 1 1 1v2a1 1 0 0 1-2 0V5a1 1 0 0 1 1-1Z" clip-rule="evenodd"></path>
<path fill-rule="evenodd" d="M9 16a1 1 0 0 1 1 1v2a1 1 0 1 1-2 0v-2a1 1 0 0 1 1-1Z" clip-rule="evenodd"></path>
<path fill-rule="evenodd" d="M13 4a1 1 0 0 1 1 1v2a1 1 0 1 1-2 0V5a1 1 0 0 1 1-1Z" clip-rule="evenodd"></path>
<path fill-rule="evenodd" d="M13 16a1 1 0 0 1 1 1v2a1 1 0 1 1-2 0v-2a1 1 0 0 1 1-1Z" clip-rule="evenodd"></path>
</svg>