<svg width="48" height="48" fill="#2d0b0b" viewBox="0 0 24 24" xmlns="http://www.w3.org/2000/svg">
<path fill-rule="evenodd" d="M10.162 3h3.676c.528 0 .982 0 1.357.03.395.033.789.104 1.167.297a3 3 0 0 1 1.311 1.311c.193.378.264.772.296 1.167.031.375.031.83.031 1.356V20a1 1 0 0 1-1.664.747l-2.874-2.554a16.066 16.066 0 0 0-.84-.72c-.193-.146-.284-.184-.335-.2a1 1 0 0 0-.574 0c-.051.016-.142.054-.335.2-.203.155-.452.375-.84.72l-2.874 2.554A1 1 0 0 1 6 20V7.161c0-.527 0-.981.03-1.356.033-.395.104-.789.297-1.167a3 3 0 0 1 1.311-1.311c.378-.193.772-.264 1.167-.296C9.18 3 9.635 3 10.162 3ZM8.968 5.024c-.272.022-.373.06-.422.085a1 1 0 0 0-.437.437c-.025.05-.063.15-.085.422C8 6.25 8 6.623 8 7.2v10.573l1.236-1.099c.354-.314.66-.587.933-.793.289-.22.598-.412.971-.524a3 3 0 0 1 1.72 0c.373.112.682.304.971.524.273.206.58.48.933.793l1.236 1.1V7.2c0-.577 0-.949-.024-1.232-.022-.272-.06-.373-.085-.422a1 1 0 0 0-.437-.437c-.05-.025-.15-.063-.422-.085C14.75 5 14.377 5 13.8 5h-3.6c-.577 0-.949 0-1.232.024Z" clip-rule="evenodd"></path>
</svg>