<svg width="48" height="48" fill="#2d0b0b" viewBox="0 0 24 24" xmlns="http://www.w3.org/2000/svg">
<path d="M21 16a1 1 0 1 1-2 0 1 1 0 0 1 2 0Z"></path>
<path d="M21 20a1 1 0 1 1-2 0 1 1 0 0 1 2 0Z"></path>
<path d="M17 20a1 1 0 1 1-2 0 1 1 0 0 1 2 0Z"></path>
<path d="M17 4a1 1 0 1 1-2 0 1 1 0 0 1 2 0Z"></path>
<path d="M21 4a1 1 0 1 1-2 0 1 1 0 0 1 2 0Z"></path>
<path d="M21 8a1 1 0 1 1-2 0 1 1 0 0 1 2 0Z"></path>
<path d="M9 20a1 1 0 1 1-2 0 1 1 0 0 1 2 0Z"></path>
<path d="M5 20a1 1 0 1 1-2 0 1 1 0 0 1 2 0Z"></path>
<path d="M5 8a1 1 0 1 1-2 0 1 1 0 0 1 2 0Z"></path>
<path d="M5 4a1 1 0 1 1-2 0 1 1 0 0 1 2 0Z"></path>
<path d="M9 4a1 1 0 1 1-2 0 1 1 0 0 1 2 0Z"></path>
<path d="M5 16a1 1 0 1 1-2 0 1 1 0 0 1 2 0Z"></path>
<path fill-rule="evenodd" d="M12 3a1 1 0 0 1 1 1v7h7a1 1 0 1 1 0 2h-7v7a1 1 0 1 1-2 0v-7H4a1 1 0 1 1 0-2h7V4a1 1 0 0 1 1-1Z" clip-rule="evenodd"></path>
</svg>