<svg width="48" height="48" fill="#2d0b0b" viewBox="0 0 24 24" xmlns="http://www.w3.org/2000/svg">
<path d="M17 20a1 1 0 1 1-2 0 1 1 0 0 1 2 0Z"></path>
<path d="M9 20a1 1 0 1 1-2 0 1 1 0 0 1 2 0Z"></path>
<path d="M17 12a1 1 0 1 1-2 0 1 1 0 0 1 2 0Z"></path>
<path d="M17 4a1 1 0 1 1-2 0 1 1 0 0 1 2 0Z"></path>
<path d="M13 12a1 1 0 1 1-2 0 1 1 0 0 1 2 0Z"></path>
<path d="M13 4a1 1 0 1 1-2 0 1 1 0 0 1 2 0Z"></path>
<path d="M13 20a1 1 0 1 1-2 0 1 1 0 0 1 2 0Z"></path>
<path d="M9 12a1 1 0 1 1-2 0 1 1 0 0 1 2 0Z"></path>
<path d="M9 4a1 1 0 1 1-2 0 1 1 0 0 1 2 0Z"></path>
<path d="M13 8a1 1 0 1 1-2 0 1 1 0 0 1 2 0Z"></path>
<path d="M5 12a1 1 0 1 1-2 0 1 1 0 0 1 2 0Z"></path>
<path d="M5 4a1 1 0 1 1-2 0 1 1 0 0 1 2 0Z"></path>
<path d="M5 20a1 1 0 1 1-2 0 1 1 0 0 1 2 0Z"></path>
<path d="M5 8a1 1 0 1 1-2 0 1 1 0 0 1 2 0Z"></path>
<path d="M5 16a1 1 0 1 1-2 0 1 1 0 0 1 2 0Z"></path>
<path d="M13 16a1 1 0 1 1-2 0 1 1 0 0 1 2 0Z"></path>
<path fill-rule="evenodd" d="M20 3a1 1 0 0 1 1 1v16a1 1 0 1 1-2 0V4a1 1 0 0 1 1-1Z" clip-rule="evenodd"></path>
</svg>