<svg width="48" height="48" fill="#2d0b0b" viewBox="0 0 24 24" xmlns="http://www.w3.org/2000/svg">
<path d="M21 16a1 1 0 1 1-2 0 1 1 0 0 1 2 0Z"></path>
<path d="M21 20a1 1 0 1 1-2 0 1 1 0 0 1 2 0Z"></path>
<path d="M17 20a1 1 0 1 1-2 0 1 1 0 0 1 2 0Z"></path>
<path d="M21 8a1 1 0 1 1-2 0 1 1 0 0 1 2 0Z"></path>
<path d="M9 20a1 1 0 1 1-2 0 1 1 0 0 1 2 0Z"></path>
<path d="M21 12a1 1 0 1 1-2 0 1 1 0 0 1 2 0Z"></path>
<path d="M17 12a1 1 0 1 1-2 0 1 1 0 0 1 2 0Z"></path>
<path d="M13 12a1 1 0 1 1-2 0 1 1 0 0 1 2 0Z"></path>
<path d="M13 20a1 1 0 1 1-2 0 1 1 0 0 1 2 0Z"></path>
<path d="M9 12a1 1 0 1 1-2 0 1 1 0 0 1 2 0Z"></path>
<path d="M13 8a1 1 0 1 1-2 0 1 1 0 0 1 2 0Z"></path>
<path d="M13 16a1 1 0 1 1-2 0 1 1 0 0 1 2 0Z"></path>
<path fill-rule="evenodd" d="M4 21a1 1 0 0 1-1-1V5a2 2 0 0 1 2-2h15a1 1 0 1 1 0 2H5v15a1 1 0 0 1-1 1Z" clip-rule="evenodd"></path>
</svg>