<svg width="48" height="48" fill="#2d0b0b" viewBox="0 0 24 24" xmlns="http://www.w3.org/2000/svg">
<path fill-rule="evenodd" d="M12 4a8 8 0 1 0 0 16 8 8 0 0 0 0-16ZM2 12C2 6.477 6.477 2 12 2s10 4.477 10 10-4.477 10-10 10S2 17.523 2 12Z" clip-rule="evenodd"></path>
<path fill-rule="evenodd" d="M8 12a1 1 0 0 1 1-1h5.25a2.75 2.75 0 1 1 0 5.5H9a1 1 0 0 1-1-1V12Zm2 1v1.5h4.25a.75.75 0 0 0 0-1.5H10Z" clip-rule="evenodd"></path>
<path fill-rule="evenodd" d="M8 8.5a1 1 0 0 1 1-1h5.25a2.75 2.75 0 1 1 0 5.5H9a1 1 0 0 1-1-1V8.5Zm2 1V11h4.25a.75.75 0 0 0 0-1.5H10Z" clip-rule="evenodd"></path>
<path fill-rule="evenodd" d="M11 6a1 1 0 0 1 1 1v1a1 1 0 1 1-2 0V7a1 1 0 0 1 1-1Z" clip-rule="evenodd"></path>
<path fill-rule="evenodd" d="M11 15a1 1 0 0 1 1 1v1a1 1 0 1 1-2 0v-1a1 1 0 0 1 1-1Z" clip-rule="evenodd"></path>
<path fill-rule="evenodd" d="M14 6a1 1 0 0 1 1 1v1a1 1 0 1 1-2 0V7a1 1 0 0 1 1-1Z" clip-rule="evenodd"></path>
<path fill-rule="evenodd" d="M14 15a1 1 0 0 1 1 1v1a1 1 0 1 1-2 0v-1a1 1 0 0 1 1-1Z" clip-rule="evenodd"></path>
</svg>