<svg width="48" height="48" fill="#2d0b0b" viewBox="0 0 24 24" xmlns="http://www.w3.org/2000/svg">
<path fill-rule="evenodd" d="M10.604 6.133a3.869 3.869 0 0 0-5.47 5.471L12 18.471l6.867-6.867a3.869 3.869 0 0 0-5.471-5.47l-.689.688a1 1 0 0 1-1.414 0l-.689-.689ZM12 4.7a5.869 5.869 0 0 0-8.281 8.319l7.574 7.574a1 1 0 0 0 1.414 0l7.574-7.574A5.869 5.869 0 0 0 12 4.7Z" clip-rule="evenodd"></path>
<path fill-rule="evenodd" d="M12.447 5.106a1 1 0 0 1 .447 1.341l-1.442 2.885 2.79.698a1 1 0 0 1 .59 1.525l-2 3a1 1 0 0 1-1.664-1.11l1.213-1.819-2.624-.656a1 1 0 0 1-.651-1.417l2-4a1 1 0 0 1 1.341-.447Z" clip-rule="evenodd"></path>
</svg>