<svg width="48" height="48" fill="#2d0b0b" viewBox="0 0 24 24" xmlns="http://www.w3.org/2000/svg">
<path fill-rule="evenodd" d="M2 6a3 3 0 0 1 3-3h14a3 3 0 0 1 3 3v6a1 1 0 1 1-2 0v-1H4v7a1 1 0 0 0 1 1h6a1 1 0 1 1 0 2H5a3 3 0 0 1-3-3V6Zm2 3h16V6a1 1 0 0 0-1-1H5a1 1 0 0 0-1 1v3Z" clip-rule="evenodd"></path>
<path d="M7 7a1 1 0 1 1-2 0 1 1 0 0 1 2 0Z"></path>
<path d="M10 7a1 1 0 1 1-2 0 1 1 0 0 1 2 0Z"></path>
<path fill-rule="evenodd" d="M18 13a1 1 0 0 1 1 1v.94c.256.101.492.24.703.41l.793-.464a1 1 0 1 1 1.008 1.728l-.803.468a2.782 2.782 0 0 1 0 .836l.803.468a1 1 0 0 1-1.008 1.728l-.81-.473a2.78 2.78 0 0 1-.686.385V21a1 1 0 0 1-2 0v-.953a2.608 2.608 0 0 1-.703-.396l-.793.463a1 1 0 1 1-1.008-1.728l.803-.468a2.784 2.784 0 0 1 0-.836l-.803-.468a1 1 0 0 1 1.008-1.728l.794.463c.21-.169.447-.308.702-.409V14a1 1 0 0 1 1-1Zm0 3.75a.728.728 0 0 0-.632.372.756.756 0 0 0-.1.378c0 .14.037.268.1.378.14.244.359.348.612.343.29-.006.542-.156.66-.356a.699.699 0 0 0 .092-.365.756.756 0 0 0-.1-.378.728.728 0 0 0-.632-.372Z" clip-rule="evenodd"></path>
</svg>