<svg width="48" height="48" fill="#2d0b0b" viewBox="0 0 24 24" xmlns="http://www.w3.org/2000/svg">
<path fill-rule="evenodd" d="M17.462 3.937c1.633-.653 3.253.967 2.6 2.6l-.012.03c-.12.302-.29.582-.5.83l-5.507 6.469a.977.977 0 0 1-.054.059l-3.282 3.281a1 1 0 0 1-1.414-1.414l2.948-2.948a1.238 1.238 0 0 0-.494-.732 2.12 2.12 0 0 0-.633-.312l-2.407 2.406a1 1 0 0 1-1.414-1.414l2.782-2.782c.019-.018.038-.037.059-.054l6.468-5.506a3 3 0 0 1 .83-.5l.03-.013Zm-4.725 6.43a3.392 3.392 0 0 1 .923.864l4.366-5.13a1 1 0 0 0 .167-.277l.012-.03-.03.012a1 1 0 0 0-.276.167l-5.162 4.393Z" clip-rule="evenodd"></path>
<path fill-rule="evenodd" d="M3.502 17.47A3.78 3.78 0 1 1 11 16.78V17a4 4 0 0 1-4 4H3.926c-1.26 0-1.786-1.609-.772-2.354l.498-.366-.15-.81ZM7.22 15a1.78 1.78 0 0 0-1.75 2.106l.22 1.192c.045.24.025.48-.052.702H7a2 2 0 0 0 2-2v-.22A1.78 1.78 0 0 0 7.22 15Z" clip-rule="evenodd"></path>
</svg>