<svg width="48" height="48" fill="#2d0b0b" viewBox="0 0 24 24" xmlns="http://www.w3.org/2000/svg">
<path fill-rule="evenodd" d="M3 17a4 4 0 1 1 4 4H4.545A1.545 1.545 0 0 1 3 19.454V17Zm4-2a2 2 0 0 0-2 2v2h2a2 2 0 1 0 0-4Z" clip-rule="evenodd"></path>
<path fill-rule="evenodd" d="M14.847 4.651a3 3 0 0 1 4.35-.114l.265.265a3 3 0 0 1-.114 4.35l-8.433 7.59a1 1 0 1 1-1.338-1.486l8.433-7.59a1 1 0 0 0 .038-1.45l-.264-.265a1 1 0 0 0-1.45.038l-7.59 8.433a1 1 0 0 1-1.487-1.338l7.59-8.433Z" clip-rule="evenodd"></path>
</svg>