<svg width="48" height="48" fill="#2d0b0b" viewBox="0 0 24 24" xmlns="http://www.w3.org/2000/svg">
<path fill-rule="evenodd" d="M8 2a1 1 0 0 1 1 1v1h6V3a1 1 0 1 1 2 0v1h1a3 3 0 0 1 3 3v3a1 1 0 0 1-1 1H5v8a1 1 0 0 0 1 1h5a1 1 0 1 1 0 2H6a3 3 0 0 1-3-3V7a3 3 0 0 1 3-3h1V3a1 1 0 0 1 1-1ZM7 6H6a1 1 0 0 0-1 1v2h14V7a1 1 0 0 0-1-1h-1v1a1 1 0 1 1-2 0V6H9v1a1 1 0 0 1-2 0V6Z" clip-rule="evenodd"></path>
<path fill-rule="evenodd" d="M17.464 12a1 1 0 0 1 1 1v1.17c.352.125.673.313.95.55l1.014-.586a1 1 0 1 1 1 1.732l-1.014.586a3.017 3.017 0 0 1 .002 1.097l1.012.585a1 1 0 0 1-1 1.732l-1.03-.595c-.281.229-.6.402-.934.519V21a1 1 0 0 1-2 0v-1.187a2.864 2.864 0 0 1-.95-.532l-1.014.585a1 1 0 1 1-1-1.732l1.014-.586a3.017 3.017 0 0 1 0-1.096l-1.014-.586a1 1 0 1 1 1-1.732l1.015.586c.277-.237.598-.425.95-.55V13a1 1 0 0 1 1-1Zm0 4a1 1 0 0 0-.866 1.5c.19.328.499.474.846.467.386-.008.73-.205.895-.48a.924.924 0 0 0 .125-.487 1 1 0 0 0-1-1Z" clip-rule="evenodd"></path>
</svg>