<svg width="48" height="48" fill="#2d0b0b" viewBox="0 0 24 24" xmlns="http://www.w3.org/2000/svg">
<path fill-rule="evenodd" d="M8 2a1 1 0 0 1 1 1v1h6V3a1 1 0 1 1 2 0v1h1a3 3 0 0 1 3 3v3.75a1 1 0 0 1-1.968.25H5v8a1 1 0 0 0 1 1h6a1 1 0 1 1 0 2H6a3 3 0 0 1-3-3V7a3 3 0 0 1 3-3h1V3a1 1 0 0 1 1-1ZM7 6H6a1 1 0 0 0-1 1v2h14V7a1 1 0 0 0-1-1h-1v1a1 1 0 1 1-2 0V6H9v1a1 1 0 0 1-2 0V6Z" clip-rule="evenodd"></path>
<path fill-rule="evenodd" d="M17.535 13a1 1 0 0 1 1 1v2.536h2.536a1 1 0 1 1 0 2h-2.536v2.535a1 1 0 0 1-2 0v-2.535H14a1 1 0 1 1 0-2h2.535V14a1 1 0 0 1 1-1Z" clip-rule="evenodd"></path>
</svg>