<svg width="48" height="48" fill="#2d0b0b" viewBox="0 0 24 24" xmlns="http://www.w3.org/2000/svg">
<path fill-rule="evenodd" d="M8 2a1 1 0 0 1 1 1v1h6V3a1 1 0 1 1 2 0v1h1a3 3 0 0 1 3 3v4.75a1 1 0 1 1-2 0V11H5v8a1 1 0 0 0 1 1h5a1 1 0 1 1 0 2H6a3 3 0 0 1-3-3V7a3 3 0 0 1 3-3h1V3a1 1 0 0 1 1-1ZM7 6H6a1 1 0 0 0-1 1v2h14V7a1 1 0 0 0-1-1h-1v1a1 1 0 1 1-2 0V6H9v1a1 1 0 0 1-2 0V6Z" clip-rule="evenodd"></path>
<path d="M16.723 13.665a.3.3 0 0 1 .554 0l.975 2.345a.3.3 0 0 0 .253.184l2.532.203a.3.3 0 0 1 .17.526l-1.928 1.652a.3.3 0 0 0-.096.298l.589 2.47a.3.3 0 0 1-.448.325l-2.167-1.323a.3.3 0 0 0-.313 0l-2.167 1.323a.3.3 0 0 1-.448-.325l.589-2.47a.3.3 0 0 0-.097-.298l-1.928-1.652a.3.3 0 0 1 .171-.526l2.531-.203a.3.3 0 0 0 .253-.184l.975-2.345Z"></path>
</svg>