<svg width="48" height="48" fill="#2d0b0b" viewBox="0 0 24 24" xmlns="http://www.w3.org/2000/svg">
<path fill-rule="evenodd" d="M2.293 2.293a1 1 0 0 1 1.414 0l18 18a1 1 0 0 1-1.414 1.414l-18-18a1 1 0 0 1 0-1.414Z" clip-rule="evenodd"></path>
<path fill-rule="evenodd" d="M5.195 4.11A3.001 3.001 0 0 0 3 7v12a3 3 0 0 0 3 3h12a3 3 0 0 0 2.89-2.195L19 17.915V19a1 1 0 0 1-1 1H6a1 1 0 0 1-1-1v-8h7.086l-2-2H5V7a1 1 0 0 1 1-1h1v1a1 1 0 0 0 1.749.663L5.195 4.109ZM12.915 9H19V7a1 1 0 0 0-1-1h-1v1a1 1 0 1 1-2 0V6H9.914L7 3.086V3a1 1 0 0 1 2 0v1h6V3a1 1 0 1 1 2 0v1h1a3 3 0 0 1 3 3v10.086l-2-2V11h-4.086l-2-2Z" clip-rule="evenodd"></path>
</svg>