<svg width="48" height="48" fill="#2d0b0b" viewBox="0 0 24 24" xmlns="http://www.w3.org/2000/svg">
<path fill-rule="evenodd" d="M12 16a2 2 0 0 1 2-2h6a2 2 0 0 1 2 2v4a2 2 0 0 1-2 2h-6a2 2 0 0 1-2-2v-4Zm8 0h-6v4h6v-4Z" clip-rule="evenodd"></path>
<path fill-rule="evenodd" d="M14 13a3 3 0 1 1 6 0v3h-6v-3Zm3-1a1 1 0 0 0-1 1v1h2v-1a1 1 0 0 0-1-1Z" clip-rule="evenodd"></path>
<path fill-rule="evenodd" d="M9 3a1 1 0 0 0-2 0v1H6a3 3 0 0 0-3 3v12a3 3 0 0 0 3 3h3a1 1 0 1 0 0-2H6a1 1 0 0 1-1-1v-8h7.968a4.52 4.52 0 0 1 1.968-2H5V7a1 1 0 0 1 1-1h1v1a1 1 0 0 0 2 0V6h6v1a1 1 0 1 0 2 0V6h1a1 1 0 0 1 1 1v1.968a4.52 4.52 0 0 1 1.804 1.627A.996.996 0 0 0 21 10V7a3 3 0 0 0-3-3h-1V3a1 1 0 1 0-2 0v1H9V3Z" clip-rule="evenodd"></path>
</svg>