<svg width="48" height="48" fill="#2d0b0b" viewBox="0 0 24 24" xmlns="http://www.w3.org/2000/svg">
<path fill-rule="evenodd" d="M5 9a1 1 0 0 0-1 1v4a1 1 0 0 0 1 1h2.75a1 1 0 1 1 0 2H5a3 3 0 0 1-3-3v-4a3 3 0 0 1 3-3h.75a1 1 0 0 1 0 2H5Zm7.25-1a1 1 0 0 1 1-1H16a3 3 0 0 1 3 3v4a3 3 0 0 1-3 3h-.75a1 1 0 1 1 0-2H16a1 1 0 0 0 1-1v-4a1 1 0 0 0-1-1h-2.75a1 1 0 0 1-1-1Z" clip-rule="evenodd"></path>
<path fill-rule="evenodd" d="M21 10a1 1 0 0 1 1 1v2a1 1 0 1 1-2 0v-2a1 1 0 0 1 1-1Z" clip-rule="evenodd"></path>
<path fill-rule="evenodd" d="M10.447 7.106a1 1 0 0 1 .447 1.341L9.618 11H13a1 1 0 0 1 .894 1.447l-2 4a1 1 0 1 1-1.788-.894L11.382 13H8a1 1 0 0 1-.894-1.447l2-4a1 1 0 0 1 1.341-.447Z" clip-rule="evenodd"></path>
</svg>