<svg width="48" height="48" fill="#2d0b0b" viewBox="0 0 24 24" xmlns="http://www.w3.org/2000/svg">
<path fill-rule="evenodd" d="M20.8 6.4a1 1 0 0 1-.2 1.4l-6.2 4.65a4 4 0 0 1-4.8 0L3.4 7.8a1 1 0 1 1 1.2-1.6l6.2 4.65a2 2 0 0 0 2.4 0l6.2-4.65a1 1 0 0 1 1.4.2Z" clip-rule="evenodd"></path>
<path fill-rule="evenodd" d="M2 7a3 3 0 0 1 3-3h14a3 3 0 0 1 3 3v5a1 1 0 1 1-2 0V7a1 1 0 0 0-1-1H5a1 1 0 0 0-1 1v10a1 1 0 0 0 1 1h7a1 1 0 1 1 0 2H5a3 3 0 0 1-3-3V7Z" clip-rule="evenodd"></path>
<path fill-rule="evenodd" d="M22.207 15.293a1 1 0 0 1 0 1.414l-3.5 3.5a1 1 0 0 1-1.414 0l-2-2a1 1 0 0 1 1.414-1.414L18 18.086l2.793-2.793a1 1 0 0 1 1.414 0Z" clip-rule="evenodd"></path>
</svg>