<svg width="48" height="48" fill="#2d0b0b" viewBox="0 0 24 24" xmlns="http://www.w3.org/2000/svg">
<path fill-rule="evenodd" d="M8 5a3 3 0 0 1 3-3h2a3 3 0 0 1 3 3v2a1 1 0 0 1-1 1H9a1 1 0 0 1-1-1V5Zm3-1a1 1 0 0 0-1 1v1h4V5a1 1 0 0 0-1-1h-2Z" clip-rule="evenodd"></path>
<path fill-rule="evenodd" d="M7 6a1 1 0 0 0-1 1v12a1 1 0 0 0 1 1h3a1 1 0 1 1 0 2H7a3 3 0 0 1-3-3V7a3 3 0 0 1 3-3h2a1 1 0 0 1 0 2H7Zm7-1a1 1 0 0 1 1-1h2a3 3 0 0 1 3 3v5a1 1 0 1 1-2 0V7a1 1 0 0 0-1-1h-2a1 1 0 0 1-1-1Z" clip-rule="evenodd"></path>
<path fill-rule="evenodd" d="M20.707 15.293a1 1 0 0 1 0 1.414l-5 5a1 1 0 0 1-1.414 0l-2-2a1 1 0 0 1 1.414-1.414L15 19.586l4.293-4.293a1 1 0 0 1 1.414 0Z" clip-rule="evenodd"></path>
</svg>