<svg width="48" height="48" fill="#2d0b0b" viewBox="0 0 24 24" xmlns="http://www.w3.org/2000/svg">
<path fill-rule="evenodd" d="M5 6a1 1 0 0 0-1 1v10a1 1 0 0 0 1 1h6a1 1 0 1 1 0 2H5a3 3 0 0 1-3-3V7a3 3 0 0 1 3-3h4.586A2 2 0 0 1 11 4.586L12.414 6H19a3 3 0 0 1 3 3v2a1 1 0 1 1-2 0V9a1 1 0 0 0-1-1h-7a1 1 0 0 1-.707-.293L9.586 6H5Z" clip-rule="evenodd"></path>
<path fill-rule="evenodd" d="M21.707 14.293a1 1 0 0 1 0 1.414l-5 5a1 1 0 0 1-1.414 0l-2-2a1 1 0 0 1 1.414-1.414L16 18.586l4.293-4.293a1 1 0 0 1 1.414 0Z" clip-rule="evenodd"></path>
</svg>