<svg width="48" height="48" fill="#2d0b0b" viewBox="0 0 24 24" xmlns="http://www.w3.org/2000/svg">
<path fill-rule="evenodd" d="M2.293 2.293a1 1 0 0 1 1.414 0l18 18a1 1 0 0 1-1.414 1.414l-18-18a1 1 0 0 1 0-1.414Z" clip-rule="evenodd"></path>
<path fill-rule="evenodd" d="M5.492 4.406A2.999 2.999 0 0 0 4 7v12a3 3 0 0 0 3 3h10a3 3 0 0 0 3-3v-.086l-2-2V19a1 1 0 0 1-1 1H7a1 1 0 0 1-1-1V7a1 1 0 0 1 1-1h.086L5.492 4.406ZM8 6.914V7a1 1 0 0 0 1 1h.086L8 6.914Zm10 7.172V7a1 1 0 0 0-1-1h-1v1a1 1 0 0 1-1 1h-3.086l-4-4h.257A3.001 3.001 0 0 1 11 2h2c1.306 0 2.418.835 2.83 2H17a3 3 0 0 1 3 3v9.086l-2-2ZM14 5v1h-4V5a1 1 0 0 1 1-1h2a1 1 0 0 1 1 1Z" clip-rule="evenodd"></path>
</svg>