<svg width="48" height="48" fill="#2d0b0b" viewBox="0 0 24 24" xmlns="http://www.w3.org/2000/svg">
<path fill-rule="evenodd" d="M6.947 5.861a6.482 6.482 0 0 0-1.904 3.887A5.287 5.287 0 0 0 6.857 20H17a4.978 4.978 0 0 0 3.049-1.037l-1.434-1.434A2.986 2.986 0 0 1 17 18H6.857a3.286 3.286 0 0 1-.658-6.506 1 1 0 0 0 .8-.982V10.5c0-1.264.522-2.407 1.362-3.225L6.947 5.861ZM19.85 15.937A3 3 0 0 0 17 12h-.024a1 1 0 0 1-.995-1.09 4.5 4.5 0 0 0-5.854-4.697l-1.531-1.53a6.5 6.5 0 0 1 9.39 5.415 5.002 5.002 0 0 1 3.374 7.35l-1.51-1.511Z" clip-rule="evenodd"></path>
<path fill-rule="evenodd" d="M3.293 3.293a1 1 0 0 1 1.414 0l16 16a1 1 0 0 1-1.414 1.414l-16-16a1 1 0 0 1 0-1.414Z" clip-rule="evenodd"></path>
</svg>