<svg width="48" height="48" fill="#2d0b0b" viewBox="0 0 24 24" xmlns="http://www.w3.org/2000/svg">
<path fill-rule="evenodd" d="M5.043 9.748a6.501 6.501 0 0 1 12.945.35 5.002 5.002 0 0 1 .261 9.744 1 1 0 1 1-.498-1.936A3.002 3.002 0 0 0 17 12h-.023a1 1 0 0 1-.995-1.09A4.5 4.5 0 1 0 7 10.5v.012a1 1 0 0 1-.801.982 3.287 3.287 0 0 0 0 6.44 1 1 0 1 1-.398 1.96 5.287 5.287 0 0 1-.758-10.146Z" clip-rule="evenodd"></path>
<path fill-rule="evenodd" d="M12 12a1 1 0 0 1 1 1v.94c.256.101.492.24.703.41l.793-.464a1 1 0 1 1 1.008 1.728l-.803.468a2.782 2.782 0 0 1 0 .836l.803.468a1 1 0 0 1-1.008 1.728l-.81-.473a2.78 2.78 0 0 1-.686.385V20a1 1 0 0 1-2 0v-.953a2.608 2.608 0 0 1-.703-.396l-.793.463a1 1 0 0 1-1.008-1.728l.804-.468a2.782 2.782 0 0 1 0-.836l-.804-.468a1 1 0 0 1 1.008-1.728l.794.463c.21-.169.447-.308.702-.409V13a1 1 0 0 1 1-1Zm0 3.75a.728.728 0 0 0-.632.372.756.756 0 0 0-.1.378c0 .14.037.268.1.378.14.244.359.348.612.343.29-.006.542-.156.66-.356a.699.699 0 0 0 .092-.365.756.756 0 0 0-.1-.378.728.728 0 0 0-.632-.372Z" clip-rule="evenodd"></path>
</svg>