<svg width="48" height="48" fill="#2d0b0b" viewBox="0 0 24 24" xmlns="http://www.w3.org/2000/svg">
<path fill-rule="evenodd" d="M8 4a2 2 0 0 0-2 2v12a2 2 0 0 0 2 2h8a2 2 0 0 0 2-2V9.625h-3.5a2 2 0 0 1-2-2V4H8Zm6.5 1.453 2.124 2.172H14.5V5.453ZM4 6a4 4 0 0 1 4-4h5.5a1 1 0 0 1 .715.3l5.5 5.626a1 1 0 0 1 .285.699V18a4 4 0 0 1-4 4H8a4 4 0 0 1-4-4V6Z" clip-rule="evenodd"></path>
<path fill-rule="evenodd" d="M10.707 11.293a1 1 0 0 1 0 1.414L9.414 14l1.293 1.293a1 1 0 0 1-1.414 1.414l-2-2a1 1 0 0 1 0-1.414l2-2a1 1 0 0 1 1.414 0Z" clip-rule="evenodd"></path>
<path fill-rule="evenodd" d="M13.293 11.293a1 1 0 0 0 0 1.414L14.586 14l-1.293 1.293a1 1 0 0 0 1.414 1.414l2-2a1 1 0 0 0 0-1.414l-2-2a1 1 0 0 0-1.414 0Z" clip-rule="evenodd"></path>
</svg>