<svg width="48" height="48" fill="#2d0b0b" viewBox="0 0 24 24" xmlns="http://www.w3.org/2000/svg">
<path fill-rule="evenodd" d="m7.836 6.75-4.543 4.543a1 1 0 0 0 0 1.414l5 5a1 1 0 0 0 1.414-1.414L5.414 12 9.25 8.164 7.836 6.75Zm8 8-1.543 1.543a1 1 0 0 0 1.414 1.414l1.543-1.543-1.414-1.414Zm2.828 0 2.043-2.043a1 1 0 0 0 0-1.414l-5-5a1 1 0 1 0-1.414 1.414L18.586 12l-1.336 1.336 1.414 1.414Z" clip-rule="evenodd"></path>
<path fill-rule="evenodd" d="M4.293 4.293a1 1 0 0 1 1.414 0l14 14a1 1 0 0 1-1.414 1.414l-14-14a1 1 0 0 1 0-1.414Z" clip-rule="evenodd"></path>
</svg>