<svg width="48" height="48" fill="#2d0b0b" viewBox="0 0 24 24" xmlns="http://www.w3.org/2000/svg">
<path fill-rule="evenodd" d="M16.707 7.293a1 1 0 0 1 .242 1.023l-2 6a1 1 0 0 1-.633.633l-6 2a1 1 0 0 1-1.265-1.265l2-6a1 1 0 0 1 .633-.633l6-2a1 1 0 0 1 1.023.242Zm-5.916 3.498-1.21 3.628 3.629-1.21 1.209-3.628-3.628 1.21Z" clip-rule="evenodd"></path>
<path fill-rule="evenodd" d="M12 4a8 8 0 1 0 0 16 8 8 0 0 0 0-16ZM2 12C2 6.477 6.477 2 12 2s10 4.477 10 10-4.477 10-10 10S2 17.523 2 12Z" clip-rule="evenodd"></path>
</svg>