<svg width="48" height="48" fill="#2d0b0b" viewBox="0 0 24 24" xmlns="http://www.w3.org/2000/svg">
<path fill-rule="evenodd" d="M10 3a1 1 0 0 1 1-1h2a1 1 0 1 1 0 2v2a1 1 0 1 1-2 0V4a1 1 0 0 1-1-1Z" clip-rule="evenodd"></path>
<path fill-rule="evenodd" d="M14 21a1 1 0 0 1-1 1h-2a1 1 0 1 1 0-2v-2a1 1 0 1 1 2 0v2a1 1 0 0 1 1 1Z" clip-rule="evenodd"></path>
<path fill-rule="evenodd" d="M16.95 4.223a1 1 0 0 1 1.414 0l1.415 1.414a1 1 0 1 1-1.415 1.414L16.95 8.465a1 1 0 1 1-1.414-1.414l1.414-1.414a1 1 0 0 1 0-1.414Z" clip-rule="evenodd"></path>
<path fill-rule="evenodd" d="M7.05 19.78a1 1 0 0 1-1.413 0l-1.415-1.415a1 1 0 1 1 1.415-1.414l1.414-1.414a1 1 0 0 1 1.414 1.414l-1.414 1.414a1 1 0 0 1 0 1.414Z" clip-rule="evenodd"></path>
<path fill-rule="evenodd" d="M21 10a1 1 0 0 1 1 1v2a1 1 0 1 1-2 0h-2a1 1 0 1 1 0-2h2a1 1 0 0 1 1-1Z" clip-rule="evenodd"></path>
<path fill-rule="evenodd" d="M3 14a1 1 0 0 1-1-1v-2a1 1 0 1 1 2 0h2a1 1 0 1 1 0 2H4a1 1 0 0 1-1 1Z" clip-rule="evenodd"></path>
<path fill-rule="evenodd" d="M19.778 16.95a1 1 0 0 1 0 1.413l-1.414 1.415a1 1 0 0 1-1.414-1.415l-1.414-1.414a1 1 0 0 1 1.414-1.414l1.414 1.414a1 1 0 0 1 1.414 0Z" clip-rule="evenodd"></path>
<path fill-rule="evenodd" d="M4.222 7.049a1 1 0 0 1 0-1.414L5.636 4.22A1 1 0 1 1 7.05 5.635l1.414 1.414A1 1 0 0 1 7.05 8.463L5.636 7.05a1 1 0 0 1-1.414 0Z" clip-rule="evenodd"></path>
<path fill-rule="evenodd" d="M12 7a5 5 0 1 0 0 10 5 5 0 0 0 0-10Zm-7 5a7 7 0 1 1 14 0 7 7 0 0 1-14 0Z" clip-rule="evenodd"></path>
<path d="M13 11a2 2 0 1 1-4 0 2 2 0 0 1 4 0Z"></path>
<path d="M15 14a1 1 0 1 1-2 0 1 1 0 0 1 2 0Z"></path>
</svg>