<svg width="48" height="48" fill="#2d0b0b" viewBox="0 0 24 24" xmlns="http://www.w3.org/2000/svg">
<path fill-rule="evenodd" d="M19.707 19.707a1 1 0 0 1-1.414 0L6 7.414V9a1 1 0 0 1-2 0V5a1 1 0 0 1 1-1h4a1 1 0 1 1 0 2H7.414l12.293 12.293a1 1 0 0 1 0 1.414Z" clip-rule="evenodd"></path>
<path fill-rule="evenodd" d="M4.293 19.707a1 1 0 0 1 0-1.414l4.375-4.375a1 1 0 0 1 1.414 1.414l-4.375 4.375a1 1 0 0 1-1.414 0Zm9.625-9.625a1 1 0 0 1 0-1.414L16.586 6H15a1 1 0 1 1 0-2h4a1 1 0 0 1 1 1v4a1 1 0 1 1-2 0V7.414l-2.668 2.668a1 1 0 0 1-1.414 0Z" clip-rule="evenodd"></path>
</svg>