<svg width="48" height="48" fill="#2d0b0b" viewBox="0 0 24 24" xmlns="http://www.w3.org/2000/svg">
<path fill-rule="evenodd" d="M4.293 4.293a1 1 0 0 1 1.414 0L18 16.586V15a1 1 0 1 1 2 0v4a1 1 0 0 1-1 1h-4a1 1 0 1 1 0-2h1.586L4.293 5.707a1 1 0 0 1 0-1.414Z" clip-rule="evenodd"></path>
<path fill-rule="evenodd" d="M19.707 4.293a1 1 0 0 1 0 1.414l-4.375 4.375a1 1 0 0 1-1.414-1.414l4.375-4.375a1 1 0 0 1 1.414 0Zm-9.625 9.625a1 1 0 0 1 0 1.414L7.414 18H9a1 1 0 1 1 0 2H5a1 1 0 0 1-1-1v-4a1 1 0 1 1 2 0v1.586l2.668-2.668a1 1 0 0 1 1.414 0Z" clip-rule="evenodd"></path>
</svg>