<svg width="48" height="48" fill="#2d0b0b" viewBox="0 0 24 24" xmlns="http://www.w3.org/2000/svg">
<path fill-rule="evenodd" d="M2.744 6.65a1 1 0 0 1 1.366-.366L12 10.845l7.888-4.554a1 1 0 0 1 1 1.732L12.5 12.866a1 1 0 0 1-1 0l-8.39-4.85a1 1 0 0 1-.366-1.367Z" clip-rule="evenodd"></path>
<path fill-rule="evenodd" d="M12 11a1 1 0 0 1 1 1v9a1 1 0 1 1-2 0v-9a1 1 0 0 1 1-1Z" clip-rule="evenodd"></path>
<path fill-rule="evenodd" d="M10.5 1.711a3 3 0 0 1 3 0l6.66 3.846a3 3 0 0 1 1.5 2.598v7.69a3 3 0 0 1-1.5 2.598L13.5 22.29a3 3 0 0 1-3 0l-6.66-3.846a3 3 0 0 1-1.5-2.598v-7.69a3 3 0 0 1 1.5-2.598L10.5 1.71Zm2 1.733a1 1 0 0 0-1 0L4.84 7.289a1 1 0 0 0-.5.866v7.69a1 1 0 0 0 .5.867l6.66 3.845a1 1 0 0 0 1 0l6.66-3.845a1 1 0 0 0 .5-.867v-7.69a1 1 0 0 0-.5-.866L12.5 3.444Z" clip-rule="evenodd"></path>
</svg>