<svg width="48" height="48" fill="#2d0b0b" viewBox="0 0 24 24" xmlns="http://www.w3.org/2000/svg">
<path fill-rule="evenodd" d="M3 5a2 2 0 0 1 2-2h4a2 2 0 0 1 2 2v7a2 2 0 0 1-2 2H5a2 2 0 0 1-2-2V5Zm6 0H5v7h4V5Zm3 0a2 2 0 0 1 2-2h5a2 2 0 0 1 2 2v2a2 2 0 0 1-2 2h-5a2 2 0 0 1-2-2V5Zm7 0h-5v2h5V5Zm-7 7a2 2 0 0 1 2-2h5a2 2 0 0 1 2 2v7a2 2 0 0 1-2 2h-5a2 2 0 0 1-2-2v-7Zm7 0h-5v7h5v-7ZM3 17a2 2 0 0 1 2-2h4a2 2 0 0 1 2 2v2a2 2 0 0 1-2 2H5a2 2 0 0 1-2-2v-2Zm6 0H5v2h4v-2Z" clip-rule="evenodd"></path>
</svg>