<svg width="48" height="48" fill="#2d0b0b" viewBox="0 0 24 24" xmlns="http://www.w3.org/2000/svg">
<path fill-rule="evenodd" d="M4.062 11H5a1 1 0 1 1 0 2h-.938a8.001 8.001 0 0 0 15.876 0H19a1 1 0 1 1 0-2h.938A8.004 8.004 0 0 0 13 4.062V5a1 1 0 1 1-2 0v-.938A8.004 8.004 0 0 0 4.062 11ZM2 12C2 6.477 6.477 2 12 2s10 4.477 10 10-4.477 10-10 10S2 17.523 2 12Zm14.53-4.707a1 1 0 0 1 0 1.414l-1.882 1.882a3 3 0 1 1-1.477-1.352l1.945-1.944a1 1 0 0 1 1.414 0ZM12 11a1 1 0 1 0 0 2 1 1 0 0 0 0-2Z" clip-rule="evenodd"></path>
</svg>