<svg width="48" height="48" fill="#2d0b0b" viewBox="0 0 24 24" xmlns="http://www.w3.org/2000/svg">
<path fill-rule="evenodd" d="M3 7a1 1 0 0 1 1-1h16a1 1 0 1 1 0 2H4a1 1 0 0 1-1-1Z" clip-rule="evenodd"></path>
<path fill-rule="evenodd" d="M5.821 9.016a1 1 0 0 1 1.163.805l1.701 9.358A1 1 0 0 0 9.67 20h4.662a1 1 0 0 0 .984-.82l1.701-9.359a1 1 0 0 1 1.968.358l-1.701 9.358A3 3 0 0 1 14.33 22H9.669a3 3 0 0 1-2.951-2.463l-1.702-9.358a1 1 0 0 1 .805-1.163Z" clip-rule="evenodd"></path>
<path fill-rule="evenodd" d="M8 5a3 3 0 0 1 3-3h2a3 3 0 0 1 3 3v2a1 1 0 0 1-1 1H9a1 1 0 0 1-1-1V5Zm3-1a1 1 0 0 0-1 1v1h4V5a1 1 0 0 0-1-1h-2Z" clip-rule="evenodd"></path>
</svg>