<svg width="48" height="48" fill="#2d0b0b" viewBox="0 0 24 24" xmlns="http://www.w3.org/2000/svg">
<path fill-rule="evenodd" d="M11 4a1 1 0 0 1 1-1h5a4 4 0 0 1 4 4v7a1 1 0 0 1-.322.735l-6.5 6A1 1 0 0 1 13.5 21H7a4 4 0 0 1-4-4v-5a1 1 0 1 1 2 0v5a2 2 0 0 0 2 2h5.5v-3a3 3 0 0 1 3-3H19V7a2 2 0 0 0-2-2h-5a1 1 0 0 1-1-1Zm6.442 11H15.5a1 1 0 0 0-1 1v1.716L17.442 15Z" clip-rule="evenodd"></path>
<path fill-rule="evenodd" d="M3.293 3.293a1 1 0 0 1 1.414 0L6.5 5.086l1.793-1.793a1 1 0 0 1 1.414 1.414L7.914 6.5l1.793 1.793a1 1 0 0 1-1.414 1.414L6.5 7.914 4.707 9.707a1 1 0 0 1-1.414-1.414L5.086 6.5 3.293 4.707a1 1 0 0 1 0-1.414Z" clip-rule="evenodd"></path>
</svg>