<svg width="48" height="48" fill="#2d0b0b" viewBox="0 0 24 24" xmlns="http://www.w3.org/2000/svg">
<path fill-rule="evenodd" d="M8.759 3H13a1 1 0 1 1 0 2H8.8c-.857 0-1.439 0-1.889.038-.438.035-.663.1-.819.18a2 2 0 0 0-.874.874c-.08.156-.145.38-.18.819C5 7.361 5 7.943 5 8.8v6.4c0 .857 0 1.439.038 1.889.035.438.1.663.18.819a2 2 0 0 0 .874.874c.156.08.38.145.819.18C7.361 19 7.943 19 8.8 19h6.4c.857 0 1.439 0 1.889-.038.438-.035.663-.1.819-.18a2 2 0 0 0 .874-.874c.08-.156.145-.38.18-.819.037-.45.038-1.032.038-1.889V11a1 1 0 1 1 2 0v4.241c0 .805 0 1.47-.044 2.01-.046.563-.145 1.08-.392 1.565a4 4 0 0 1-1.748 1.748c-.485.247-1.002.346-1.564.392-.541.044-1.206.044-2.01.044H8.758c-.805 0-1.47 0-2.01-.044-.563-.046-1.08-.145-1.565-.392a4 4 0 0 1-1.748-1.748c-.247-.485-.346-1.002-.392-1.564C3 16.71 3 16.046 3 15.242V8.758c0-.805 0-1.47.044-2.01.046-.563.145-1.08.392-1.565a4 4 0 0 1 1.748-1.748c.485-.247 1.002-.346 1.564-.392C7.29 3 7.954 3 8.758 3Z" clip-rule="evenodd"></path>
<path fill-rule="evenodd" d="M7.586 11a2 2 0 0 1 2.828 0L13 13.586l2.086-2.086a2 2 0 0 1 2.828 0l2.793 2.793a1 1 0 0 1-1.414 1.414L16.5 12.914 14.414 15l1.543 1.543a1 1 0 0 1-1.414 1.414L9 12.414l-4.293 4.293a1 1 0 0 1-1.414-1.414L7.586 11Z" clip-rule="evenodd"></path>
<path fill-rule="evenodd" d="M16.293 2.293a1 1 0 0 1 1.414 0L19 3.586l1.293-1.293a1 1 0 1 1 1.414 1.414L20.414 5l1.293 1.293a1 1 0 0 1-1.414 1.414L19 6.414l-1.293 1.293a1 1 0 1 1-1.414-1.414L17.586 5l-1.293-1.293a1 1 0 0 1 0-1.414Z" clip-rule="evenodd"></path>
</svg>