<svg width="48" height="48" fill="#2d0b0b" viewBox="0 0 24 24" xmlns="http://www.w3.org/2000/svg">
<path fill-rule="evenodd" d="M6 5a1 1 0 0 0-1 1v8a1 1 0 0 0 1 1h12a1 1 0 0 0 1-1v-1a1 1 0 1 1 2 0v1a3 3 0 0 1-3 3H6a3 3 0 0 1-3-3V6a3 3 0 0 1 3-3h4a1 1 0 1 1 0 2H6Z" clip-rule="evenodd"></path>
<path fill-rule="evenodd" d="M17.464 2a1 1 0 0 1 1 1v1.17c.352.125.673.313.95.55l1.014-.586a1 1 0 1 1 1 1.732l-1.014.586a3.016 3.016 0 0 1 .002 1.097l1.012.585a1 1 0 0 1-1 1.732l-1.03-.595c-.281.229-.6.402-.934.519V11a1 1 0 0 1-2 0V9.813a2.864 2.864 0 0 1-.95-.532l-1.014.585a1 1 0 0 1-1-1.732l1.014-.586a3.016 3.016 0 0 1 0-1.096L13.5 5.866a1 1 0 1 1 1-1.732l1.015.586c.277-.237.598-.425.95-.55V3a1 1 0 0 1 1-1Zm0 4a1 1 0 0 0-.866 1.5c.19.328.499.474.846.467.386-.008.73-.205.895-.48A.924.924 0 0 0 18.464 7a1 1 0 0 0-1-1Z" clip-rule="evenodd"></path>
<path fill-rule="evenodd" d="M12 15a1 1 0 0 1 1 1v4a1 1 0 1 1-2 0v-4a1 1 0 0 1 1-1Z" clip-rule="evenodd"></path>
<path fill-rule="evenodd" d="M7 20a1 1 0 0 1 1-1h8a1 1 0 1 1 0 2H8a1 1 0 0 1-1-1Z" clip-rule="evenodd"></path>
</svg>