<svg width="48" height="48" fill="#2d0b0b" viewBox="0 0 24 24" xmlns="http://www.w3.org/2000/svg">
<path fill-rule="evenodd" d="M9.75 7.5a1.75 1.75 0 1 0 0 3.5h4.5a3.75 3.75 0 1 1 0 7.5H9.167a4 4 0 0 1-2.703-1.051l-.14-.129a1 1 0 0 1 1.352-1.474l.14.128a2 2 0 0 0 1.351.526h5.083a1.75 1.75 0 1 0 0-3.5h-4.5a3.75 3.75 0 1 1 0-7.5h4.212a4 4 0 0 1 2.472.855l.35.275a1 1 0 1 1-1.235 1.573l-.35-.276a2 2 0 0 0-1.237-.427H9.75Z" clip-rule="evenodd"></path>
<path fill-rule="evenodd" d="M12 4a1 1 0 0 1 1 1v14a1 1 0 1 1-2 0V5a1 1 0 0 1 1-1Z" clip-rule="evenodd"></path>
</svg>