<svg width="48" height="48" fill="#2d0b0b" viewBox="0 0 24 24" xmlns="http://www.w3.org/2000/svg">
<path fill-rule="evenodd" d="M12 4a8 8 0 1 0 0 16 8 8 0 0 0 0-16ZM2 12C2 6.477 6.477 2 12 2s10 4.477 10 10-4.477 10-10 10S2 17.523 2 12Z" clip-rule="evenodd"></path>
<path fill-rule="evenodd" d="M10.75 9.5a.75.75 0 0 0 0 1.5h2.5a2.75 2.75 0 1 1 0 5.5h-2.838a3 3 0 0 1-2.091-.849l-.018-.017A1 1 0 0 1 9.697 14.2l.018.017a1 1 0 0 0 .697.283h2.838a.75.75 0 0 0 0-1.5h-2.5a2.75 2.75 0 1 1 0-5.5h2.326a3 3 0 0 1 1.92.695l.144.12a1 1 0 1 1-1.28 1.537l-.144-.12a1 1 0 0 0-.64-.232H10.75Z" clip-rule="evenodd"></path>
<path fill-rule="evenodd" d="M12 6a1 1 0 0 1 1 1v1a1 1 0 1 1-2 0V7a1 1 0 0 1 1-1Z" clip-rule="evenodd"></path>
<path fill-rule="evenodd" d="M12 15a1 1 0 0 1 1 1v1a1 1 0 1 1-2 0v-1a1 1 0 0 1 1-1Z" clip-rule="evenodd"></path>
</svg>