<svg width="48" height="48" fill="#2d0b0b" viewBox="0 0 24 24" xmlns="http://www.w3.org/2000/svg">
<path fill-rule="evenodd" d="M11 5.072a7 7 0 1 0 5.192 12.534l-2.015-2.015a4.196 4.196 0 0 1-4.841-.344A4.2 4.2 0 0 1 11 7.92V5.07Zm-3.243-1.01A9 9 0 0 1 12 3a1 1 0 0 1 1 1v4.8a1 1 0 0 1-1 1 2.2 2.2 0 1 0 1.556 3.756 1 1 0 0 1 1.414 0l3.394 3.394a1 1 0 0 1 0 1.414 9.002 9.002 0 0 1-14.679-2.92A9 9 0 0 1 7.757 4.063Z" clip-rule="evenodd"></path>
<path fill-rule="evenodd" d="M11 4a1 1 0 0 1 1-1 9 9 0 0 1 6.364 15.364 1 1 0 0 1-1.414 0l-3.394-3.394a1 1 0 0 1 0-1.414A2.2 2.2 0 0 0 12 9.8a1 1 0 0 1-1-1V4Zm2 1.072V7.92a4.2 4.2 0 0 1 2.591 6.256l2.015 2.015A7.001 7.001 0 0 0 13 5.072Z" clip-rule="evenodd"></path>
</svg>