<svg width="48" height="48" fill="#2d0b0b" viewBox="0 0 24 24" xmlns="http://www.w3.org/2000/svg">
<path fill-rule="evenodd" d="M7 6a1 1 0 0 0-1 1v8h12v-2.5a1 1 0 1 1 2 0V16a1 1 0 0 1-1 1H5a1 1 0 0 1-1-1V7a3 3 0 0 1 3-3h5a1 1 0 1 1 0 2H7Z" clip-rule="evenodd"></path>
<path fill-rule="evenodd" d="M2 16a1 1 0 0 1 1-1h18a1 1 0 0 1 1 1v1a3 3 0 0 1-3 3H5a3 3 0 0 1-3-3v-1Zm2 1a1 1 0 0 0 1 1h14a1 1 0 0 0 1-1H4Z" clip-rule="evenodd"></path>
<path fill-rule="evenodd" d="M18.5 2a1 1 0 0 1 1 1v3.586l.793-.793a1 1 0 1 1 1.414 1.414l-2.5 2.5a1 1 0 0 1-1.414 0l-2.5-2.5a1 1 0 0 1 1.414-1.414l.793.793V3a1 1 0 0 1 1-1Z" clip-rule="evenodd"></path>
</svg>