<svg width="48" height="48" fill="#2d0b0b" viewBox="0 0 24 24" xmlns="http://www.w3.org/2000/svg">
<path fill-rule="evenodd" d="M12 4a8 8 0 1 0 0 16 8 8 0 0 0 0-16ZM2 12C2 6.477 6.477 2 12 2s10 4.477 10 10-4.477 10-10 10S2 17.523 2 12Z" clip-rule="evenodd"></path>
<path fill-rule="evenodd" d="M13.765 2.405a1 1 0 0 1-.121 1.409 4 4 0 0 0 .786 6.641c.738.37 1.184.306 1.633.211a6.51 6.51 0 0 0 .148-.033c.486-.115 1.34-.316 2.211.27a2.548 2.548 0 0 1 .69 3.537 5.72 5.72 0 0 1-.493.614l-.014.016a4.94 4.94 0 0 0-.32.381c-.119.168-.193.324-.156.656.038.34.26.726.73 1.159a1 1 0 0 1-1.357 1.47c-.625-.577-1.246-1.375-1.36-2.408-.1-.885.15-1.525.513-2.036.146-.205.312-.39.438-.531l.033-.038c.143-.16.244-.277.327-.4a.548.548 0 0 0-.148-.76l-.01-.007c-.115-.078-.119-.08-.82.067-.714.151-1.662.262-2.942-.38a6 6 0 0 1-1.177-9.96 1 1 0 0 1 1.409.122Z" clip-rule="evenodd"></path>
<path fill-rule="evenodd" d="M3.029 9.043a1 1 0 0 1 1.208-.735 5.98 5.98 0 0 1 3.367 2.215 5.981 5.981 0 0 1 1.19 4.11c-.013.159.12.477.434.683a3.71 3.71 0 0 1 .438 5.87 1 1 0 0 1-1.332-1.492 1.71 1.71 0 0 0-.203-2.706c-.736-.482-1.42-1.428-1.33-2.521a3.981 3.981 0 0 0-.793-2.74 3.98 3.98 0 0 0-2.244-1.476 1 1 0 0 1-.735-1.208Z" clip-rule="evenodd"></path>
</svg>