<svg width="48" height="48" fill="#2d0b0b" viewBox="0 0 24 24" xmlns="http://www.w3.org/2000/svg">
<path fill-rule="evenodd" d="M16.258 3.5a2 2 0 0 1 2.828 0L20.5 4.914a2 2 0 0 1 0 2.829l-8.329 8.329a3 3 0 0 1-1.533.82l-2.941.589a1 1 0 0 1-1.177-1.177l.588-2.942a3 3 0 0 1 .82-1.533l8.33-8.329Zm2.121 3.536.707-.707-1.414-1.415-.707.707 1.414 1.415Zm-2.828 0-6.208 6.207a1 1 0 0 0-.274.511l-.294 1.471 1.471-.294a1 1 0 0 0 .511-.273l6.208-6.208-1.414-1.414Z" clip-rule="evenodd"></path>
<path fill-rule="evenodd" d="M4 20a1 1 0 0 1 1-1h14a1 1 0 1 1 0 2H5a1 1 0 0 1-1-1Z" clip-rule="evenodd"></path>
</svg>