<svg width="48" height="48" fill="#2d0b0b" viewBox="0 0 24 24" xmlns="http://www.w3.org/2000/svg">
<path fill-rule="evenodd" d="M7 6a1 1 0 0 0-1 1v12a1 1 0 0 0 1 1h2a1 1 0 1 1 0 2H7a3 3 0 0 1-3-3V7a3 3 0 0 1 3-3h2a1 1 0 0 1 0 2H7Zm7-1a1 1 0 0 1 1-1h2a3 3 0 0 1 3 3v2a1 1 0 1 1-2 0V7a1 1 0 0 0-1-1h-2a1 1 0 0 1-1-1Z" clip-rule="evenodd"></path>
<path fill-rule="evenodd" d="M19.5 11a1 1 0 0 1 .707.293l1.987 1.987a1 1 0 0 1 0 1.414l-6.074 6.074a2 2 0 0 1-1.022.547l-2.187.437a1 1 0 0 1-1.176-1.176l.437-2.187a2 2 0 0 1 .547-1.022l6.074-6.074A1 1 0 0 1 19.5 11Zm0 2.414-5.367 5.367-.143.716.716-.143 5.367-5.367-.573-.573Z" clip-rule="evenodd"></path>
<path fill-rule="evenodd" d="M8 5a3 3 0 0 1 3-3h2a3 3 0 0 1 3 3v2a1 1 0 0 1-1 1H9a1 1 0 0 1-1-1V5Zm3-1a1 1 0 0 0-1 1v1h4V5a1 1 0 0 0-1-1h-2Z" clip-rule="evenodd"></path>
</svg>