<svg width="48" height="48" fill="#2d0b0b" viewBox="0 0 24 24" xmlns="http://www.w3.org/2000/svg">
<path fill-rule="evenodd" d="M3 5a1 1 0 0 1 1-1h11a1 1 0 1 1 0 2H4a1 1 0 0 1-1-1Z" clip-rule="evenodd"></path>
<path fill-rule="evenodd" d="M3 8a1 1 0 0 1 1-1h11a1 1 0 1 1 0 2H4a1 1 0 0 1-1-1Z" clip-rule="evenodd"></path>
<path fill-rule="evenodd" d="M3 11a1 1 0 0 1 1-1h7a1 1 0 1 1 0 2H4a1 1 0 0 1-1-1Z" clip-rule="evenodd"></path>
<path fill-rule="evenodd" d="M16.731 9.56a2 2 0 0 1 2.829 0l.732.733a2 2 0 0 1 0 2.829l-2.147-2.147-.421.422.732.732.422-.422 1.414 1.414-5.658 5.659a3 3 0 0 1-1.533.82l-2.09.418a1 1 0 0 1-1.176-1.177l.418-2.089a3 3 0 0 1 .82-1.533l5.658-5.658Zm.311 3.983-.732-.732-3.823 3.822a1 1 0 0 0-.273.511l-.124.619.619-.124a1 1 0 0 0 .51-.273l3.823-3.823Z" clip-rule="evenodd"></path>
</svg>