<svg width="48" height="48" fill="#2d0b0b" viewBox="0 0 24 24" xmlns="http://www.w3.org/2000/svg">
<path fill-rule="evenodd" d="M15.964 3.793a3 3 0 0 1 4.243 4.242l-7.122 7.123a3 3 0 0 1-1.533.82l-2.942.588a1 1 0 0 1-1.176-1.176l.588-2.942a3 3 0 0 1 .82-1.533l7.122-7.122Zm2.829 1.414a1 1 0 0 0-1.414 0L17 5.586 18.414 7l.379-.379a1 1 0 0 0 0-1.414ZM17 8.414 15.586 7l-5.33 5.33a1 1 0 0 0-.273.51l-.294 1.47 1.47-.293a1 1 0 0 0 .512-.274L17 8.414ZM6 5a1 1 0 0 0-1 1v12a1 1 0 0 0 1 1h12a1 1 0 0 0 1-1v-6a1 1 0 1 1 2 0v6a3 3 0 0 1-3 3H6a3 3 0 0 1-3-3V6a3 3 0 0 1 3-3h6a1 1 0 1 1 0 2H6Z" clip-rule="evenodd"></path>
</svg>