<svg width="48" height="48" fill="#2d0b0b" viewBox="0 0 24 24" xmlns="http://www.w3.org/2000/svg">
<path fill-rule="evenodd" d="M20.8 8.4a1 1 0 0 1-.2 1.4l-6.2 4.65a4 4 0 0 1-4.8 0L3.4 9.8a1 1 0 1 1 1.2-1.6l6.2 4.65a2 2 0 0 0 2.4 0l6.2-4.65a1 1 0 0 1 1.4.2Z" clip-rule="evenodd"></path>
<path fill-rule="evenodd" d="M12.486 4.413a1 1 0 0 0-.972 0l-7 3.889A1 1 0 0 0 4 9.176v7.823a1 1 0 0 0 1 1h14a1 1 0 0 0 1-1V9.176a1 1 0 0 0-.514-.874l-7-3.889Zm-1.943-1.748a3 3 0 0 1 2.914 0l7 3.889A3 3 0 0 1 22 9.176v7.823a3 3 0 0 1-3 3H5a3 3 0 0 1-3-3V9.176a3 3 0 0 1 1.543-2.622l7-3.89Z" clip-rule="evenodd"></path>
</svg>