<svg width="48" height="48" fill="#2d0b0b" viewBox="0 0 24 24" xmlns="http://www.w3.org/2000/svg">
<path fill-rule="evenodd" d="M7.072 7.768c3.3-1.09 6.448-.908 9.132-.147a17.939 17.939 0 0 1 6.014 3.034c1.032.803.997 2.26.157 3.099l-1.13 1.13a2.144 2.144 0 0 1-2.705.267l-2.654-1.77a2.144 2.144 0 0 1-.955-1.783v-2.24c-1.996-.459-4.222-.53-6.545.102v2.76c0 .753-.395 1.45-1.04 1.838l-1.966 1.18-.515-.858.515.857a2.144 2.144 0 0 1-2.62-.322L1.627 13.78c-.863-.863-.859-2.336.17-3.137C3.55 9.275 5.323 8.345 7.071 7.768l.21.635-.21-.635Zm-.686 2.409a16.25 16.25 0 0 0-3.362 2.043.057.057 0 0 0-.017.02.074.074 0 0 0-.007.03.128.128 0 0 0 .04.096l1.135 1.135c.047.046.12.055.176.021l1.965-1.179a.144.144 0 0 0 .07-.123v-2.043Zm10.545-.21v1.63c0 .05.024.094.065.12l2.654 1.77c.057.038.133.03.182-.018l1.13-1.13a.118.118 0 0 0 .038-.084.037.037 0 0 0-.003-.014v-.002l-.007-.005a15.908 15.908 0 0 0-4.059-2.267Z" clip-rule="evenodd"></path>
</svg>