<svg width="48" height="48" fill="#2d0b0b" viewBox="0 0 24 24" xmlns="http://www.w3.org/2000/svg">
<path d="M21 16a1 1 0 1 1-2 0 1 1 0 0 1 2 0Z"></path>
<path d="M21 20a1 1 0 1 1-2 0 1 1 0 0 1 2 0Z"></path>
<path d="M17 20a1 1 0 1 1-2 0 1 1 0 0 1 2 0Z"></path>
<path d="M9 4a1 1 0 1 1-2 0 1 1 0 0 1 2 0Z"></path>
<path d="M21 12a1 1 0 1 1-2 0 1 1 0 0 1 2 0Z"></path>
<path d="M13 4a1 1 0 1 1-2 0 1 1 0 0 1 2 0Z"></path>
<path d="M5 4a1 1 0 1 1-2 0 1 1 0 0 1 2 0Z"></path>
<path d="M5 8a1 1 0 1 1-2 0 1 1 0 0 1 2 0Z"></path>
<path fill-rule="evenodd" d="M7.161 11H8.84c.527 0 .981 0 1.356.03.395.033.789.104 1.167.297a3 3 0 0 1 1.311 1.311c.193.378.264.772.296 1.167.031.375.031.83.031 1.357v1.676c0 .528 0 .982-.03 1.357-.033.395-.104.789-.297 1.167a3 3 0 0 1-1.311 1.311c-.378.193-.772.264-1.167.296C9.82 21 9.365 21 8.839 21H7.16c-.527 0-.981 0-1.356-.03-.395-.033-.789-.104-1.167-.297a3 3 0 0 1-1.311-1.311c-.193-.378-.264-.772-.296-1.167A17.9 17.9 0 0 1 3 16.838v-1.677c0-.527 0-.981.03-1.356.033-.395.104-.789.297-1.167a3 3 0 0 1 1.311-1.311c.378-.193.772-.264 1.167-.296C6.18 11 6.635 11 7.161 11Zm-1.193 2.024c-.272.022-.373.06-.422.085a1 1 0 0 0-.437.437c-.025.05-.063.15-.085.422C5 14.25 5 14.623 5 15.2v1.6c0 .577 0 .949.024 1.232.022.272.06.372.085.422a1 1 0 0 0 .437.437c.05.025.15.063.422.085C6.25 19 6.623 19 7.2 19h1.6c.577 0 .949 0 1.232-.024.272-.022.373-.06.422-.085a1 1 0 0 0 .437-.437c.025-.05.063-.15.085-.422C11 17.75 11 17.377 11 16.8v-1.6c0-.577 0-.949-.024-1.232-.022-.272-.06-.373-.085-.422a1 1 0 0 0-.437-.437c-.05-.025-.15-.063-.422-.085C9.75 13 9.377 13 8.8 13H7.2c-.577 0-.949 0-1.232.024Z" clip-rule="evenodd"></path>
<path fill-rule="evenodd" d="M5.763 14.623a2 2 0 0 1 2.524.25l3.42 3.42a1 1 0 0 1-1.414 1.415l-3.42-3.42-2.318 1.544a1 1 0 1 1-1.11-1.664l2.318-1.545Z" clip-rule="evenodd"></path>
<path fill-rule="evenodd" d="M15 4a1 1 0 0 1 1-1h4a1 1 0 0 1 1 1v4a1 1 0 1 1-2 0V6.414l-4.293 4.293a1 1 0 0 1-1.414-1.414L17.586 5H16a1 1 0 0 1-1-1Z" clip-rule="evenodd"></path>
</svg>