<svg width="48" height="48" fill="#2d0b0b" viewBox="0 0 24 24" xmlns="http://www.w3.org/2000/svg">
<path fill-rule="evenodd" d="M12 6a9.004 9.004 0 0 0-8.402 5.766.65.65 0 0 0 0 .468 9.004 9.004 0 0 0 16.804 0 .65.65 0 0 0 0-.468A9.004 9.004 0 0 0 12 6ZM1.732 11.047C3.319 6.927 7.316 4 12 4c4.683 0 8.681 2.927 10.268 7.047a2.65 2.65 0 0 1 0 1.906C20.681 17.073 16.683 20 12 20c-4.684 0-8.681-2.927-10.268-7.047a2.651 2.651 0 0 1 0-1.906Z" clip-rule="evenodd"></path>
<path fill-rule="evenodd" d="M12 10a2 2 0 1 0 0 4 2 2 0 0 0 0-4Zm-4 2a4 4 0 1 1 8 0 4 4 0 0 1-8 0Z" clip-rule="evenodd"></path>
</svg>