<svg width="48" height="48" fill="#2d0b0b" viewBox="0 0 24 24" xmlns="http://www.w3.org/2000/svg">
<path fill-rule="evenodd" d="M13.162 7.316C11.838 6.37 10 7.316 10 8.943v6.114c0 1.626 1.838 2.573 3.162 1.627l4.28-3.057a2 2 0 0 0 0-3.255l-4.28-3.056ZM12 8.943 16.28 12 12 15.057V8.943Z" clip-rule="evenodd"></path>
<path fill-rule="evenodd" d="M6.162 7.316C4.838 6.37 3 7.316 3 8.943v6.114c0 1.626 1.838 2.573 3.162 1.627l4.28-3.057a2 2 0 0 0 0-3.255l-4.28-3.056ZM5 8.943 9.28 12 5 15.057V8.943Z" clip-rule="evenodd"></path>
<path fill-rule="evenodd" d="M19 7a1 1 0 0 1 1 1v8a1 1 0 1 1-2 0V8a1 1 0 0 1 1-1Z" clip-rule="evenodd"></path>
</svg>