<svg width="48" height="48" fill="#2d0b0b" viewBox="0 0 24 24" xmlns="http://www.w3.org/2000/svg">
<path fill-rule="evenodd" d="M10.838 7.316C12.162 6.37 14 7.316 14 8.943v6.114c0 1.626-1.838 2.573-3.162 1.627l-4.28-3.057a2 2 0 0 1 0-3.255l4.28-3.056ZM12 8.943 7.72 12 12 15.057V8.943Z" clip-rule="evenodd"></path>
<path fill-rule="evenodd" d="M17.838 7.316C19.16 6.37 21 7.316 21 8.943v6.114c0 1.626-1.838 2.573-3.162 1.627l-4.28-3.057a2 2 0 0 1 0-3.255l4.28-3.056ZM19 8.943 14.72 12 19 15.057V8.943Z" clip-rule="evenodd"></path>
<path fill-rule="evenodd" d="M5 7a1 1 0 0 1 1 1v8a1 1 0 1 1-2 0V8a1 1 0 0 1 1-1Z" clip-rule="evenodd"></path>
</svg>