<svg width="48" height="48" fill="#2d0b0b" viewBox="0 0 24 24" xmlns="http://www.w3.org/2000/svg">
<path fill-rule="evenodd" d="M7 6a1 1 0 0 0-1 1v8h12v-2.5a1 1 0 1 1 2 0V16a1 1 0 0 1-1 1H5a1 1 0 0 1-1-1V7a3 3 0 0 1 3-3h5a1 1 0 1 1 0 2H7Z" clip-rule="evenodd"></path>
<path fill-rule="evenodd" d="M2 16a1 1 0 0 1 1-1h18a1 1 0 0 1 1 1v1a3 3 0 0 1-3 3H5a3 3 0 0 1-3-3v-1Zm2 1a1 1 0 0 0 1 1h14a1 1 0 0 0 1-1H4Z" clip-rule="evenodd"></path>
<path fill-rule="evenodd" d="M17.293 5.222a.757.757 0 0 0-1.071 1.07L18 8.073l1.778-1.779a.757.757 0 0 0-1.07-1.071 1 1 0 0 1-1.415 0ZM18 3.295a2.759 2.759 0 0 0-3.192 4.412l2.485 2.485a1 1 0 0 0 1.414 0l2.485-2.485A2.757 2.757 0 0 0 18 3.295Z" clip-rule="evenodd"></path>
</svg>