<svg width="48" height="48" fill="#2d0b0b" viewBox="0 0 24 24" xmlns="http://www.w3.org/2000/svg">
<path fill-rule="evenodd" d="M2 8a3 3 0 0 1 3-3h14a3 3 0 0 1 3 3v3.5a1 1 0 1 1-2 0V8a1 1 0 0 0-1-1H5a1 1 0 0 0-1 1v9a1 1 0 0 0 1 1h8a1 1 0 1 1 0 2H5a3 3 0 0 1-3-3V8Z" clip-rule="evenodd"></path>
<path fill-rule="evenodd" d="M2 10a1 1 0 0 1 1-1h17.5a1 1 0 1 1 0 2H3a1 1 0 0 1-1-1Z" clip-rule="evenodd"></path>
<path fill-rule="evenodd" d="M17.293 15.222a.757.757 0 0 0-1.071 1.07L18 18.073l1.778-1.779a.758.758 0 0 0-1.07-1.071 1 1 0 0 1-1.415 0ZM18 13.295a2.758 2.758 0 0 0-3.192 4.412l2.485 2.485a1 1 0 0 0 1.414 0l2.485-2.485A2.757 2.757 0 0 0 18 13.295Z" clip-rule="evenodd"></path>
<path fill-rule="evenodd" d="M6 15a1 1 0 0 1 1-1h2a1 1 0 1 1 0 2H7a1 1 0 0 1-1-1Z" clip-rule="evenodd"></path>
</svg>