<svg width="48" height="48" fill="#2d0b0b" viewBox="0 0 24 24" xmlns="http://www.w3.org/2000/svg">
<path fill-rule="evenodd" d="M8 4a2 2 0 0 0-2 2v12a2 2 0 0 0 2 2h8a2 2 0 0 0 2-2V9.625h-3.5a2 2 0 0 1-2-2V4H8Zm6.5 1.453 2.124 2.172H14.5V5.453ZM4 6a4 4 0 0 1 4-4h5.5a1 1 0 0 1 .715.3l5.5 5.626a1 1 0 0 1 .285.699V18a4 4 0 0 1-4 4H8a4 4 0 0 1-4-4V6Z" clip-rule="evenodd"></path>
<path fill-rule="evenodd" d="M8 13a1 1 0 0 1 1-1h6a1 1 0 1 1 0 2H9a1 1 0 0 1-1-1Z" clip-rule="evenodd"></path>
<path fill-rule="evenodd" d="M8 17a1 1 0 0 1 1-1h6a1 1 0 1 1 0 2H9a1 1 0 0 1-1-1Z" clip-rule="evenodd"></path>
</svg>