<svg width="48" height="48" fill="#2d0b0b" viewBox="0 0 24 24" xmlns="http://www.w3.org/2000/svg">
<path fill-rule="evenodd" d="M7.648 6.076a1 1 0 0 1 .612-.642l2.82-1.026a1 1 0 0 1 .809.055l3.526 1.862.715-.312a4.522 4.522 0 0 1 6.057 2.598 1.252 1.252 0 0 1-.748 1.604l-13.39 4.873a1 1 0 0 1-1.029-.213l-.808-.765-.004-.004-1.623-1.537L2.96 11.03a1 1 0 0 1 .345-1.666l2.82-1.026a1 1 0 0 1 1.029.214l.995.942 1.103-.48-1.465-2.062a1 1 0 0 1-.14-.877Zm-.069 6.574.004.004.363.344 12-4.368a2.523 2.523 0 0 0-3.016-.784l-1.156.505a1 1 0 0 1-.867-.032l-3.56-1.88-1.168.425 1.418 1.994a1 1 0 0 1-.415 1.497l-2.838 1.238a1 1 0 0 1-1.088-.19l-1.027-.973-.718.261.449.425 1.62 1.534Z" clip-rule="evenodd"></path>
<path fill-rule="evenodd" d="M3 19a1 1 0 0 1 1-1h16a1 1 0 1 1 0 2H4a1 1 0 0 1-1-1Z" clip-rule="evenodd"></path>
</svg>