<svg width="48" height="48" fill="#2d0b0b" viewBox="0 0 24 24" xmlns="http://www.w3.org/2000/svg">
<path fill-rule="evenodd" d="M10.456 3.82a1 1 0 0 1 .883-.098l2.819 1.026a1 1 0 0 1 .584.563l1.504 3.693.748.22a4.522 4.522 0 0 1 2.97 5.884 1.25 1.25 0 0 1-1.603.748L4.97 10.982a1 1 0 0 1-.65-.825l-.128-1.105v-.006l-.256-2.221-.256-2.221A1 1 0 0 1 5.016 3.55l2.82 1.026a1 1 0 0 1 .65.825l.158 1.362 1.154.34.202-2.52a1 1 0 0 1 .456-.762ZM6.178 8.813l.001.006.057.496 12 4.368a2.523 2.523 0 0 0-1.807-2.54l-1.21-.356a1 1 0 0 1-.643-.582l-1.52-3.728-1.167-.425-.196 2.44a1 1 0 0 1-1.28.879l-2.97-.876a1 1 0 0 1-.71-.845L6.57 6.244l-.718-.262.07.614.255 2.216Z" clip-rule="evenodd"></path>
<path fill-rule="evenodd" d="M3 19a1 1 0 0 1 1-1h16a1 1 0 1 1 0 2H4a1 1 0 0 1-1-1Z" clip-rule="evenodd"></path>
</svg>