<svg width="48" height="48" fill="#2d0b0b" viewBox="0 0 24 24" xmlns="http://www.w3.org/2000/svg">
<path fill-rule="evenodd" d="M2 13a1 1 0 0 1 1-1h18a1 1 0 1 1 0 2H3a1 1 0 0 1-1-1Z" clip-rule="evenodd"></path>
<path fill-rule="evenodd" d="M8.2 4h-.039c-.527 0-.981 0-1.356.03-.395.033-.789.104-1.167.297a3 3 0 0 0-1.311 1.311c-.193.378-.264.772-.296 1.167C4 7.18 4 7.635 4 8.161V10h2V8.2c0-.577 0-.949.024-1.232.022-.272.06-.373.085-.422a1 1 0 0 1 .437-.437c.05-.025.15-.063.422-.085C7.25 6 7.623 6 8.2 6h7.6c.577 0 .949 0 1.232.024.272.022.372.06.422.085a1 1 0 0 1 .437.437c.025.05.063.15.085.422C18 7.25 18 7.623 18 8.2V10h2V8.161c0-.527 0-.981-.03-1.356-.033-.395-.104-.789-.297-1.167a3 3 0 0 0-1.311-1.311c-.378-.193-.772-.264-1.167-.296A17.9 17.9 0 0 0 15.838 4H8.2ZM20 12h-2v3.8c0 .577 0 .949-.024 1.232-.022.272-.06.372-.085.422a1 1 0 0 1-.437.437c-.05.025-.15.063-.422.085C16.75 18 16.377 18 15.8 18H8.2c-.577 0-.949 0-1.232-.024-.272-.022-.373-.06-.422-.085a1 1 0 0 1-.437-.437c-.025-.05-.063-.15-.085-.422C6 16.75 6 16.377 6 15.8V12H4v3.838c0 .528 0 .982.03 1.357.033.395.104.789.297 1.167a3 3 0 0 0 1.311 1.311c.378.193.772.264 1.167.296.375.031.83.031 1.356.031h7.677c.528 0 .982 0 1.357-.03.395-.033.789-.104 1.167-.297a3 3 0 0 0 1.311-1.311c.193-.378.264-.772.296-1.167.031-.375.031-.83.031-1.357V12Z" clip-rule="evenodd"></path>
</svg>