<svg width="48" height="48" fill="#2d0b0b" viewBox="0 0 24 24" xmlns="http://www.w3.org/2000/svg">
<path fill-rule="evenodd" d="M12 4a1 1 0 0 1 1 1v2a1 1 0 1 1-2 0V5a1 1 0 0 1 1-1Zm0 6a1 1 0 0 1 1 1v2a1 1 0 1 1-2 0v-2a1 1 0 0 1 1-1Zm0 6a1 1 0 0 1 1 1v2a1 1 0 1 1-2 0v-2a1 1 0 0 1 1-1Z" clip-rule="evenodd"></path>
<path fill-rule="evenodd" d="M20.383 6.076A1 1 0 0 1 21 7v10a1 1 0 0 1-1.707.707l-5-5a1 1 0 0 1 0-1.414l5-5a1 1 0 0 1 1.09-.217ZM16.414 12 19 14.586V9.414L16.414 12Z" clip-rule="evenodd"></path>
<path fill-rule="evenodd" d="M3.617 6.076A1 1 0 0 0 3 7v10a1 1 0 0 0 1.707.707l5-5a1 1 0 0 0 0-1.414l-5-5a1 1 0 0 0-1.09-.217ZM7.586 12 5 14.586V9.414L7.586 12Z" clip-rule="evenodd"></path>
</svg>