<svg width="48" height="48" fill="#2d0b0b" viewBox="0 0 24 24" xmlns="http://www.w3.org/2000/svg">
<path fill-rule="evenodd" d="M20 12a1 1 0 0 1-1 1h-2a1 1 0 1 1 0-2h2a1 1 0 0 1 1 1Zm-6 0a1 1 0 0 1-1 1h-2a1 1 0 1 1 0-2h2a1 1 0 0 1 1 1Zm-6 0a1 1 0 0 1-1 1H5a1 1 0 1 1 0-2h2a1 1 0 0 1 1 1Z" clip-rule="evenodd"></path>
<path fill-rule="evenodd" d="M17.924 20.383A1 1 0 0 1 17 21H7a1 1 0 0 1-.707-1.707l5-5a1 1 0 0 1 1.414 0l5 5a1 1 0 0 1 .217 1.09ZM12 16.414 9.414 19h5.172L12 16.414Z" clip-rule="evenodd"></path>
<path fill-rule="evenodd" d="M17.924 3.617A1 1 0 0 0 17 3H7a1 1 0 0 0-.707 1.707l5 5a1 1 0 0 0 1.414 0l5-5a1 1 0 0 0 .217-1.09ZM12 7.586 9.414 5h5.172L12 7.586Z" clip-rule="evenodd"></path>
</svg>