<svg width="48" height="48" fill="#2d0b0b" viewBox="0 0 24 24" xmlns="http://www.w3.org/2000/svg">
<path fill-rule="evenodd" d="M2.293 2.293a1 1 0 0 1 1.414 0l18 18a1 1 0 0 1-1.414 1.414l-18-18a1 1 0 0 1 0-1.414Z" clip-rule="evenodd"></path>
<path fill-rule="evenodd" d="M4.888 4.002A3 3 0 0 0 2 7v10a3 3 0 0 0 3 3h14c.558 0 1.08-.152 1.528-.418a.998.998 0 0 1-.235-.175L18.886 18H5a1 1 0 0 1-1-1V7a1 1 0 0 1 1-1h1.886L4.888 4.002ZM20 16.286V9a1 1 0 0 0-1-1h-7a1 1 0 0 1-.348-.063L7.713 4h1.872A2 2 0 0 1 11 4.586L12.414 6H19a3 3 0 0 1 3 3v8c0 .386-.073.754-.205 1.093a1.002 1.002 0 0 0-.088-.1L20 16.286Z" clip-rule="evenodd"></path>
</svg>