<svg width="48" height="48" fill="#2d0b0b" viewBox="0 0 24 24" xmlns="http://www.w3.org/2000/svg">
<path fill-rule="evenodd" d="M3.08 5.14C2.95 3.935 3.923 3 5.033 3H7.18a2 2 0 0 1 1.96 1.608l.735 3.671a2 2 0 0 1-.547 1.806L7.495 11.92c1.186 1.91 2.859 3.7 5.165 5.006l2.232-2.232a2 2 0 0 1 1.9-.526l2.693.674A2 2 0 0 1 21 16.78v2.152c0 1.142-.976 2.102-2.175 1.967-2.476-.278-4.608-.932-6.432-1.85-3.323-1.672-5.57-4.194-7.026-6.804-1.383-2.48-2.063-5.054-2.287-7.107Zm11.498 12.696c1.296.508 2.763.88 4.422 1.071v-2.126l-2.694-.673-1.729 1.728Zm-8.069-7.76 1.405-1.405L7.18 5H5.077c.17 1.48.609 3.273 1.432 5.076Z" clip-rule="evenodd"></path>
<path fill-rule="evenodd" d="M15 4a1 1 0 0 1 1-1h4a1 1 0 0 1 1 1v4a1 1 0 1 1-2 0V6.414l-4.293 4.293a1 1 0 0 1-1.414-1.414L17.586 5H16a1 1 0 0 1-1-1Z" clip-rule="evenodd"></path>
</svg>