<svg width="48" height="48" fill="#2d0b0b" viewBox="0 0 24 24" xmlns="http://www.w3.org/2000/svg">
<path fill-rule="evenodd" d="M14.162 7.316C12.838 6.37 11 7.316 11 8.943v6.114c0 1.626 1.838 2.573 3.162 1.627l4.28-3.057a2 2 0 0 0 0-3.255l-4.28-3.056ZM13 8.943 17.28 12 13 15.057V8.943Z" clip-rule="evenodd"></path>
<path fill-rule="evenodd" d="M7.162 7.316C5.838 6.37 4 7.316 4 8.943v6.114c0 1.626 1.838 2.573 3.162 1.627l4.28-3.057a2 2 0 0 0 0-3.255l-4.28-3.056ZM6 8.943 10.28 12 6 15.057V8.943Z" clip-rule="evenodd"></path>
</svg>