<svg width="48" height="48" fill="#2d0b0b" viewBox="0 0 24 24" xmlns="http://www.w3.org/2000/svg">
<path fill-rule="evenodd" d="M1 9a3 3 0 0 1 3-3h16a3 3 0 0 1 3 3v1a3 3 0 0 1-3 3H4a3 3 0 0 1-3-3V9Zm3-1a1 1 0 0 0-1 1v1a1 1 0 0 0 1 1h16a1 1 0 0 0 1-1V9a1 1 0 0 0-1-1H4Z" clip-rule="evenodd"></path>
<path fill-rule="evenodd" d="M3 12a1 1 0 0 1 1-1h16a1 1 0 0 1 1 1v7a3 3 0 0 1-3 3H6a3 3 0 0 1-3-3v-7Zm2 1v6a1 1 0 0 0 1 1h12a1 1 0 0 0 1-1v-6H5Z" clip-rule="evenodd"></path>
<path fill-rule="evenodd" d="M12 6a1 1 0 0 1 1 1v14a1 1 0 1 1-2 0V7a1 1 0 0 1 1-1Z" clip-rule="evenodd"></path>
<path fill-rule="evenodd" d="M4 5.234A3.233 3.233 0 0 1 7.227 2h.902A4.87 4.87 0 0 1 13 6.871C13 7.495 12.495 8 11.871 8H6.76A2.765 2.765 0 0 1 4 5.234ZM7.227 4C6.554 4 6 4.552 6 5.234c0 .424.344.766.76.766h4.106a2.872 2.872 0 0 0-2.737-2h-.902Z" clip-rule="evenodd"></path>
<path fill-rule="evenodd" d="M20 5.234A3.233 3.233 0 0 0 16.773 2h-.902A4.871 4.871 0 0 0 11 6.871C11 7.495 11.505 8 12.129 8h5.111A2.765 2.765 0 0 0 20 5.234ZM16.773 4C17.446 4 18 4.552 18 5.234a.765.765 0 0 1-.76.766h-4.105a2.87 2.87 0 0 1 2.736-2h.902Z" clip-rule="evenodd"></path>
</svg>