<svg width="48" height="48" fill="#2d0b0b" viewBox="0 0 24 24" xmlns="http://www.w3.org/2000/svg">
<path fill-rule="evenodd" d="M12.5 6a3.5 3.5 0 1 0 0 7 3.5 3.5 0 0 0 0-7ZM7 9.5a5.5 5.5 0 1 1 11 0 5.5 5.5 0 0 1-11 0Z" clip-rule="evenodd"></path>
<path fill-rule="evenodd" d="M8.445 3.111a1 1 0 0 1-.123 1.409 6.5 6.5 0 0 0 8.356 9.959 1 1 0 0 1 1.286 1.532A8.5 8.5 0 1 1 7.036 2.988a1 1 0 0 1 1.41.123Z" clip-rule="evenodd"></path>
<path fill-rule="evenodd" d="M12 16a1 1 0 0 1 1 1v2h1a1 1 0 1 1 0 2H9.5a1 1 0 1 1 0-2H11v-2a1 1 0 0 1 1-1Z" clip-rule="evenodd"></path>
</svg>