<svg width="48" height="48" fill="#2d0b0b" viewBox="0 0 24 24" xmlns="http://www.w3.org/2000/svg">
<path fill-rule="evenodd" d="M2.293 2.293a1 1 0 0 1 1.414 0l18 18a1 1 0 0 1-1.414 1.414l-18-18a1 1 0 0 1 0-1.414Z" clip-rule="evenodd"></path>
<path fill-rule="evenodd" d="M4.192 3.606A2.995 2.995 0 0 0 3 6v12a3 3 0 0 0 3 3h12c.981 0 1.853-.471 2.4-1.2a1.007 1.007 0 0 1-.107-.093l-1.356-1.356A1 1 0 0 1 18 19h-2.333v-3.333h.586l-2.586-2.586v.586h-3.334v-3.334h.586L8.333 7.748v.585H5V6a1 1 0 0 1 .65-.937L4.191 3.606ZM21 17.586V6a3 3 0 0 0-3-3H6.414l3.92 3.92V5h3.333v3.333h-1.92l3.92 3.92v-1.92H19v3.334h-1.92L21 17.586Zm-5.333-9.253V5H18a1 1 0 0 1 1 1v2.333h-3.333Zm-2 7.334V19h-3.334v-3.333h3.334Zm-5.334 0V19H6a1 1 0 0 1-1-1v-2.333h3.333Zm0-2H5v-3.334h3.333v3.334Z" clip-rule="evenodd"></path>
</svg>