<svg width="48" height="48" fill="#2d0b0b" viewBox="0 0 24 24" xmlns="http://www.w3.org/2000/svg">
<path fill-rule="evenodd" d="M6 5a1 1 0 0 0-1 1v2.333h3.333V5H6Zm4.333 0v3.333h3.334V5h-3.334Zm5.334 0v3.333H19V6a1 1 0 0 0-1-1h-2.333ZM19 10.333h-3.333v3.334H19v-3.334Zm0 5.334h-3.333V19H18a1 1 0 0 0 1-1v-2.333ZM13.667 19v-3.333h-3.334V19h3.334Zm-5.334 0v-3.333H5V18a1 1 0 0 0 1 1h2.333ZM5 13.667h3.333v-3.334H5v3.334Zm5.333-3.334v3.334h3.334v-3.334h-3.334ZM3 6a3 3 0 0 1 3-3h12a3 3 0 0 1 3 3v12a3 3 0 0 1-3 3H6a3 3 0 0 1-3-3V6Z" clip-rule="evenodd"></path>
</svg>