<svg width="48" height="48" fill="#2d0b0b" viewBox="0 0 24 24" xmlns="http://www.w3.org/2000/svg">
<path fill-rule="evenodd" d="M4 9.5A7.5 7.5 0 0 1 11.5 2h1A7.5 7.5 0 0 1 20 9.5V17a1 1 0 0 1-.051.316l-.545 1.633A3 3 0 0 1 16.558 21H13a1 1 0 1 1 0-2h3.558a1 1 0 0 0 .95-.684l.105-.316H17a3 3 0 0 1-3-3v-2a3 3 0 0 1 3-3h1v-.5A5.5 5.5 0 0 0 12.5 4h-1A5.5 5.5 0 0 0 6 9.5v.5h1a3 3 0 0 1 3 3v2a3 3 0 0 1-3 3H5a1 1 0 0 1-1-1V9.5ZM6 12v4h1a1 1 0 0 0 1-1v-2a1 1 0 0 0-1-1H6Zm12 0h-1a1 1 0 0 0-1 1v2a1 1 0 0 0 1 1h1v-4Z" clip-rule="evenodd"></path>
</svg>