<svg width="48" height="48" fill="#2d0b0b" viewBox="0 0 24 24" xmlns="http://www.w3.org/2000/svg">
<path fill-rule="evenodd" d="M5 9a7 7 0 0 1 14 0v.126a4.002 4.002 0 0 1-.2 7.794l-.451 1.808A3 3 0 0 1 15.439 21H13a1 1 0 1 1 0-2h2.438a1 1 0 0 0 .97-.758l.326-1.301A2.25 2.25 0 0 1 15 14.75v-3.5a2.25 2.25 0 0 1 2-2.236V9A5 5 0 0 0 7 9v.014a2.25 2.25 0 0 1 2 2.236v3.5A2.25 2.25 0 0 1 6.75 17H6a4 4 0 0 1-1-7.874V9Zm1 2a2 2 0 1 0 0 4h.75a.25.25 0 0 0 .25-.25v-3.5a.25.25 0 0 0-.25-.25H6Zm11.25 0a.25.25 0 0 0-.25.25v3.5c0 .138.112.25.25.25H18a2 2 0 1 0 0-4h-.75Z" clip-rule="evenodd"></path>
</svg>