<svg width="48" height="48" fill="#2d0b0b" viewBox="0 0 24 24" xmlns="http://www.w3.org/2000/svg">
<path fill-rule="evenodd" d="M3.293 3.293a1 1 0 0 1 1.414 0l16 16a1 1 0 0 1-1.414 1.414l-16-16a1 1 0 0 1 0-1.414Z" clip-rule="evenodd"></path>
<path fill-rule="evenodd" d="M5.76 4.673A7.47 7.47 0 0 0 4 9.5V17a1 1 0 0 0 1 1h2a3 3 0 0 0 3-3v-2a3 3 0 0 0-3-3H6v-.5c0-1.286.441-2.469 1.18-3.405L5.76 4.673Zm9.076 6.249A2.991 2.991 0 0 1 17 10h1v-.5A5.5 5.5 0 0 0 12.5 4h-1c-1.028 0-1.99.282-2.813.773L7.24 3.326A7.465 7.465 0 0 1 11.5 2h1A7.5 7.5 0 0 1 20 9.5v6.586l-2-2V12h-1a.997.997 0 0 0-.749.337l-1.415-1.415Zm-.835 1.993L14 13v2a3 3 0 0 0 3 3h.613l-.106.316a1 1 0 0 1-.949.684H13a1 1 0 1 0 0 2h3.558a3 3 0 0 0 2.846-2.051l.158-.473L17.086 16H17a1 1 0 0 1-1-1v-.086l-1.999-1.999ZM6 16v-4h1a1 1 0 0 1 1 1v2a1 1 0 0 1-1 1H6Z" clip-rule="evenodd"></path>
</svg>