<svg width="48" height="48" fill="#2d0b0b" viewBox="0 0 24 24" xmlns="http://www.w3.org/2000/svg">
<path fill-rule="evenodd" d="M4.293 4.293a1 1 0 0 1 1.414 0l16 16a1 1 0 0 1-1.414 1.414l-16-16a1 1 0 0 1 0-1.414Z" clip-rule="evenodd"></path>
<path fill-rule="evenodd" d="M6.847 6.262A6.975 6.975 0 0 0 5 11v.5a1.036 1.036 0 0 0 0 .068V12c0 .042.003.083.008.124A4.002 4.002 0 0 0 6 20h.75A2.25 2.25 0 0 0 9 17.75v-3.5a2.25 2.25 0 0 0-2-2.236v-.446a1.025 1.025 0 0 0 0-.068V11c0-1.275.477-2.44 1.263-3.322L6.847 6.262Zm9.033 6.203a2.238 2.238 0 0 1 1.12-.451V11a5 5 0 0 0-7.117-4.531L8.406 4.992A7 7 0 0 1 19 11v1c0 .042-.003.083-.008.124a4.002 4.002 0 0 1 2.454 5.908l-1.514-1.514A2 2 0 0 0 18 14h-.586l-1.534-1.535Zm-.88 1.95v3.335A2.25 2.25 0 0 0 17.25 20H18c.742 0 1.436-.202 2.032-.554l-1.514-1.514A2.006 2.006 0 0 1 18 18h-.75a.25.25 0 0 1-.25-.25v-1.336l-2-2ZM6 14a2 2 0 1 0 0 4h.75a.25.25 0 0 0 .25-.25v-3.5a.25.25 0 0 0-.25-.25H6Z" clip-rule="evenodd"></path>
</svg>