<svg width="48" height="48" fill="#2d0b0b" viewBox="0 0 24 24" xmlns="http://www.w3.org/2000/svg">
<path fill-rule="evenodd" d="M5 11a7 7 0 0 1 14 0v1.126A4.002 4.002 0 0 1 18 20h-.75A2.25 2.25 0 0 1 15 17.75v-3.5a2.25 2.25 0 0 1 2-2.236V11a5 5 0 0 0-10 0v1.014a2.25 2.25 0 0 1 2 2.236v3.5A2.25 2.25 0 0 1 6.75 20H6a4 4 0 0 1-1-7.874V11Zm1 3a2 2 0 1 0 0 4h.75a.25.25 0 0 0 .25-.25v-3.5a.25.25 0 0 0-.25-.25H6Zm11.25 0a.25.25 0 0 0-.25.25v3.5c0 .138.112.25.25.25H18a2 2 0 1 0 0-4h-.75Z" clip-rule="evenodd"></path>
</svg>