<svg width="48" height="48" fill="#2d0b0b" viewBox="0 0 24 24" xmlns="http://www.w3.org/2000/svg">
<path fill-rule="evenodd" d="M2 6a4 4 0 0 1 4-4h12a4 4 0 0 1 4 4v1.5a1 1 0 1 1-2 0V6a2 2 0 0 0-2-2H6a2 2 0 0 0-2 2v1.5a1 1 0 0 1-2 0V6Zm1 9.5a1 1 0 0 1 1 1V18a2 2 0 0 0 2 2h12a2 2 0 0 0 2-2v-1.5a1 1 0 1 1 2 0V18a4 4 0 0 1-4 4H6a4 4 0 0 1-4-4v-1.5a1 1 0 0 1 1-1Z" clip-rule="evenodd"></path>
<path fill-rule="evenodd" d="M10.142 7.01a1 1 0 0 1 .794.639l2.36 6.29L15.2 11.4a1 1 0 0 1 .8-.4h5a1 1 0 1 1 0 2h-4.5l-2.7 3.6a1 1 0 0 1-1.736-.249l-2.36-6.29L7.8 12.6a1 1 0 0 1-.8.4H3a1 1 0 1 1 0-2h3.5l2.7-3.6a1 1 0 0 1 .942-.39Z" clip-rule="evenodd"></path>
</svg>