<svg width="48" height="48" fill="#2d0b0b" viewBox="0 0 24 24" xmlns="http://www.w3.org/2000/svg">
<path fill-rule="evenodd" d="M13.396 6.133a3.869 3.869 0 0 1 6.603 2.84 1 1 0 0 0 1.999.054A5.869 5.869 0 0 0 12 4.7a5.869 5.869 0 0 0-8.281 8.318l7.574 7.574a1 1 0 0 0 1.414 0l1.894-1.894a1 1 0 0 0-1.415-1.414L12 18.47l-6.867-6.867a3.869 3.869 0 0 1 5.471-5.47l.689.688a1 1 0 0 0 1.414 0l.689-.689Z" clip-rule="evenodd"></path>
<path fill-rule="evenodd" d="M13.809 9.01a1 1 0 0 1 .794.639l1.359 3.624.905-1.206a1 1 0 0 1 .8-.4H21a1 1 0 1 1 0 2h-2.833l-1.7 2.266a1 1 0 0 1-1.737-.248l-1.359-3.625-.904 1.207a1 1 0 0 1-.8.4H9a1 1 0 1 1 0-2h2.167l1.7-2.267a1 1 0 0 1 .942-.39Z" clip-rule="evenodd"></path>
</svg>