<svg width="48" height="48" fill="#2d0b0b" viewBox="0 0 24 24" xmlns="http://www.w3.org/2000/svg">
<path fill-rule="evenodd" d="M2 7a5 5 0 0 1 5-5h10a5 5 0 0 1 5 5v8a5 5 0 0 1-5 5h-2.25l-1.15 1.533a2 2 0 0 1-3.2 0L9.25 20H7a5 5 0 0 1-5-5V7Zm5-3a3 3 0 0 0-3 3v8a3 3 0 0 0 3 3h2.75a1 1 0 0 1 .8.4L12 20.333l1.45-1.933a1 1 0 0 1 .8-.4H17a3 3 0 0 0 3-3V7a3 3 0 0 0-3-3H7Zm5.195 4.02A1 1 0 0 0 11 9a1 1 0 1 1-2 0 3 3 0 1 1 4 2.828V12a1 1 0 1 1-2 0v-1a1 1 0 0 1 1-1 1 1 0 0 0 .195-1.98Z" clip-rule="evenodd"></path>
<path d="M13 15a1 1 0 1 1-2 0 1 1 0 0 1 2 0Z"></path>
</svg>