<svg width="48" height="48" fill="#2d0b0b" viewBox="0 0 24 24" xmlns="http://www.w3.org/2000/svg">
<path fill-rule="evenodd" d="M10.58 5.145a7 7 0 1 1-4.243 10.97 1 1 0 0 0-1.618 1.175 9 9 0 1 0-1.547-7.042 1 1 0 0 0-1.363 1.461l1.5 1.5a1 1 0 0 0 1.414 0l1.5-1.5a1 1 0 0 0-.94-1.68 6.999 6.999 0 0 1 5.298-4.884Z" clip-rule="evenodd"></path>
<path fill-rule="evenodd" d="M12 7a1 1 0 0 1 1 1v3.586l2.707 2.707a1 1 0 0 1-1.414 1.414l-3-3A1 1 0 0 1 11 12V8a1 1 0 0 1 1-1Z" clip-rule="evenodd"></path>
</svg>