<svg width="48" height="48" fill="#2d0b0b" viewBox="0 0 24 24" xmlns="http://www.w3.org/2000/svg">
<path fill-rule="evenodd" d="M6 3a1 1 0 0 1 1-1h10a1 1 0 0 1 1 1v4A6 6 0 0 1 6 7V3Zm2 1v3a4 4 0 1 0 8 0V4H8Z" clip-rule="evenodd"></path>
<path fill-rule="evenodd" d="M18 21a1 1 0 0 1-1 1H7a1 1 0 0 1-1-1v-4a6 6 0 0 1 12 0v4Zm-2-1v-3a4 4 0 0 0-8 0v3h8Z" clip-rule="evenodd"></path>
<path fill-rule="evenodd" d="M5 21a1 1 0 0 1 1-1h12a1 1 0 1 1 0 2H6a1 1 0 0 1-1-1Z" clip-rule="evenodd"></path>
<path fill-rule="evenodd" d="M5 3a1 1 0 0 1 1-1h12a1 1 0 1 1 0 2H6a1 1 0 0 1-1-1Z" clip-rule="evenodd"></path>
</svg>