<svg width="48" height="48" fill="#2d0b0b" viewBox="0 0 24 24" xmlns="http://www.w3.org/2000/svg">
<path fill-rule="evenodd" d="M3.293 3.293a1 1 0 0 1 1.414 0l17 17a1 1 0 0 1-1.414 1.414l-17-17a1 1 0 0 1 0-1.414Z" clip-rule="evenodd"></path>
<path fill-rule="evenodd" d="M6 4.914V7a5.994 5.994 0 0 0 2.682 5A5.994 5.994 0 0 0 6 17v3a1 1 0 1 0 0 2h12a1 1 0 1 0 0-2v-3.086l-5.915-5.915L12 11a4 4 0 0 1-4-4v-.086l-2-2Zm8.233 5.405A3.996 3.996 0 0 0 16 7V4H8v.086L5.918 2.003C5.945 2.001 5.972 2 6 2h12a1 1 0 1 1 0 2v3a5.99 5.99 0 0 1-2.335 4.75l-1.432-1.431ZM8 17a4 4 0 0 1 8 0v3H8v-3Z" clip-rule="evenodd"></path>
</svg>