<svg width="48" height="48" fill="#2d0b0b" viewBox="0 0 24 24" xmlns="http://www.w3.org/2000/svg">
<path fill-rule="evenodd" d="M3.186 5.3A2 2 0 0 1 5.164 3h13.673a2 2 0 0 1 1.977 2.3L19.07 16.8a2 2 0 0 1-1.126 1.51l-5.091 2.395a2 2 0 0 1-1.703 0l-5.092-2.396A2 2 0 0 1 4.932 16.8L3.186 5.3ZM18.837 5H5.164l1.745 11.499L12 18.895l5.092-2.396L18.837 5Z" clip-rule="evenodd"></path>
<path fill-rule="evenodd" d="M8.5 7.5a1 1 0 0 1 1-1H15a1 1 0 1 1 0 2h-4.5V10h4a1 1 0 0 1 1 1v3.5a1 1 0 0 1-.628.928l-2.129.852a2 2 0 0 1-1.486 0l-2.128-.852a1 1 0 0 1 .743-1.857l2.128.852 1.5-.6V12h-4a1 1 0 0 1-1-1V7.5Z" clip-rule="evenodd"></path>
</svg>