<svg width="48" height="48" fill="#2d0b0b" viewBox="0 0 24 24" xmlns="http://www.w3.org/2000/svg">
<path fill-rule="evenodd" d="M3 15a1 1 0 0 1 1-1h16a1 1 0 1 1 0 2H4a1 1 0 0 1-1-1Z" clip-rule="evenodd"></path>
<path fill-rule="evenodd" d="M3 9a1 1 0 0 1 1-1h16a1 1 0 1 1 0 2H4a1 1 0 0 1-1-1Z" clip-rule="evenodd"></path>
<path fill-rule="evenodd" d="M12 4a8 8 0 1 0 0 16 8 8 0 0 0 0-16ZM2 12C2 6.477 6.477 2 12 2s10 4.477 10 10-4.477 10-10 10S2 17.523 2 12Z" clip-rule="evenodd"></path>
<path fill-rule="evenodd" d="M12 2.182a1 1 0 0 1 .715.3A13.56 13.56 0 0 1 16.6 12a13.56 13.56 0 0 1-3.885 9.518 1 1 0 0 1-1.429 0A13.559 13.559 0 0 1 7.4 12a13.56 13.56 0 0 1 3.886-9.518 1 1 0 0 1 .714-.3Zm0 2.499A11.548 11.548 0 0 0 9.4 12c0 2.775.974 5.322 2.6 7.319a11.548 11.548 0 0 0 2.6-7.32c0-2.775-.973-5.321-2.6-7.318Z" clip-rule="evenodd"></path>
</svg>