<svg width="48" height="48" fill="#2d0b0b" viewBox="0 0 24 24" xmlns="http://www.w3.org/2000/svg">
<path fill-rule="evenodd" d="M7 6a1 1 0 0 0-1 1v8h12v-1.5a1 1 0 1 1 2 0V16a1 1 0 0 1-1 1H5a1 1 0 0 1-1-1V7a3 3 0 0 1 3-3h3a1 1 0 1 1 0 2H7Z" clip-rule="evenodd"></path>
<path fill-rule="evenodd" d="M17.464 2a1 1 0 0 1 1 1v1.17c.352.125.673.313.95.55l1.014-.586a1 1 0 1 1 1 1.732l-1.014.586a3.016 3.016 0 0 1 .002 1.097l1.012.585a1 1 0 0 1-1 1.732l-1.03-.595c-.281.229-.6.402-.934.519V11a1 1 0 0 1-2 0V9.813a2.864 2.864 0 0 1-.95-.532l-1.014.585a1 1 0 0 1-1-1.732l1.014-.586a3.016 3.016 0 0 1 0-1.096L13.5 5.866a1 1 0 1 1 1-1.732l1.015.586c.277-.237.598-.425.95-.55V3a1 1 0 0 1 1-1Zm0 4a1 1 0 0 0-.866 1.5c.19.328.499.474.846.467.386-.008.73-.205.895-.48A.924.924 0 0 0 18.464 7a1 1 0 0 0-1-1Z" clip-rule="evenodd"></path>
<path fill-rule="evenodd" d="M2 16a1 1 0 0 1 1-1h18a1 1 0 0 1 1 1v1a3 3 0 0 1-3 3H5a3 3 0 0 1-3-3v-1Zm2 1a1 1 0 0 0 1 1h14a1 1 0 0 0 1-1H4Z" clip-rule="evenodd"></path>
</svg>