<svg width="48" height="48" fill="#2d0b0b" viewBox="0 0 24 24" xmlns="http://www.w3.org/2000/svg">
<path fill-rule="evenodd" d="M11.553 3.106a1 1 0 0 1 .894 0l8 4a1 1 0 0 1 0 1.788l-8 4a1 1 0 0 1-.894 0l-8-4a1 1 0 0 1 0-1.788l8-4ZM6.236 8 12 10.882 17.764 8 12 5.118 6.236 8Z" clip-rule="evenodd"></path>
<path fill-rule="evenodd" d="M3.106 11.553a1 1 0 0 1 1.341-.447L12 14.882l7.553-3.776a1 1 0 1 1 .894 1.789l-8 4a1 1 0 0 1-.894 0l-8-4a1 1 0 0 1-.447-1.342Z" clip-rule="evenodd"></path>
<path fill-rule="evenodd" d="M3.106 15.553a1 1 0 0 1 1.341-.447L12 18.882l7.553-3.776a1 1 0 1 1 .894 1.789l-8 4a1 1 0 0 1-.894 0l-8-4a1 1 0 0 1-.447-1.342Z" clip-rule="evenodd"></path>
</svg>