<svg width="48" height="48" fill="#2d0b0b" viewBox="0 0 24 24" xmlns="http://www.w3.org/2000/svg">
<path fill-rule="evenodd" d="M2 6a4 4 0 0 1 4-4h8a4 4 0 0 1 4 4v8a4 4 0 0 1-4 4H6a4 4 0 0 1-4-4V6Zm4-2a2 2 0 0 0-2 2v8a2 2 0 0 0 2 2h8a2 2 0 0 0 2-2V6a2 2 0 0 0-2-2H6Z" clip-rule="evenodd"></path>
<path fill-rule="evenodd" d="M13.707 7.293a1 1 0 0 1 0 1.414l-4.5 4.5a1 1 0 0 1-1.414 0l-1.5-1.5a1 1 0 1 1 1.414-1.414l.793.793 3.793-3.793a1 1 0 0 1 1.414 0Z" clip-rule="evenodd"></path>
<path fill-rule="evenodd" d="M21 6a1 1 0 0 1 1 1v11a4 4 0 0 1-4 4H7a1 1 0 1 1 0-2h11a2 2 0 0 0 2-2V7a1 1 0 0 1 1-1Z" clip-rule="evenodd"></path>
</svg>