<svg width="48" height="48" fill="#2d0b0b" viewBox="0 0 24 24" xmlns="http://www.w3.org/2000/svg">
<path fill-rule="evenodd" d="M3.293 3.293a1 1 0 0 1 1.414 0l16 16a1 1 0 0 1-1.414 1.414l-16-16a1 1 0 0 1 0-1.414Z" clip-rule="evenodd"></path>
<path fill-rule="evenodd" d="m6.512 5.626-2.959 1.48a1 1 0 0 0 0 1.788l8 4a1 1 0 0 0 .894 0l.89-.444-1.801-1.8L6.236 8l1.767-.883-1.49-1.491Zm7.219 4.39L17.764 8 12 5.118 9.888 6.174l-1.49-1.49 3.155-1.578a1 1 0 0 1 .894 0l8 4a1 1 0 0 1 0 1.788l-5.225 2.613-1.491-1.49Zm.781 3.61L12 14.882l-7.553-3.776a1 1 0 1 0-.894 1.788l8 4a1 1 0 0 0 .894 0l3.556-1.777-1.49-1.491Zm3.376.548-1.49-1.49 3.155-1.578a1 1 0 1 1 .894 1.788l-2.559 1.28Zm-.71 2.119L12 18.882l-7.553-3.776a1 1 0 1 0-.894 1.788l8 4a1 1 0 0 0 .894 0l6.222-3.11-1.49-1.491Zm3.372.543-1.486-1.486.489-.244a1 1 0 0 1 .997 1.73Z" clip-rule="evenodd"></path>
</svg>