<svg width="48" height="48" fill="#2d0b0b" viewBox="0 0 24 24" xmlns="http://www.w3.org/2000/svg">
<path fill-rule="evenodd" d="M3.293 3.293a1 1 0 0 1 1.414 0l16 16a1 1 0 0 1-1.414 1.414l-16-16a1 1 0 0 1 0-1.414Z" clip-rule="evenodd"></path>
<path fill-rule="evenodd" d="M7.327 6.741 3.47 9.152a1 1 0 0 0 0 1.696l8 5a1 1 0 0 0 1.06 0l2.402-1.502-1.45-1.45L12 13.82 5.887 10l2.892-1.807L7.327 6.74Zm7.895 5.066L18.113 10 12 6.18l-1.48.925-1.452-1.452 2.402-1.501a1 1 0 0 1 1.06 0l8 5a1 1 0 0 1 0 1.696l-3.857 2.41-1.451-1.45Zm.72 3.55L12 17.82l-7.47-4.669a1 1 0 0 0-1.06 1.696l8 5a1 1 0 0 0 1.06 0l4.864-3.04-1.451-1.451Zm3.193.363-1.452-1.451 1.787-1.117a1 1 0 0 1 1.06 1.696l-1.395.872Z" clip-rule="evenodd"></path>
</svg>