<svg width="48" height="48" fill="#2d0b0b" viewBox="0 0 24 24" xmlns="http://www.w3.org/2000/svg">
<path fill-rule="evenodd" d="M9.351 3a1 1 0 0 1 1 1v1.873a1 1 0 0 1-2 0V4a1 1 0 0 1 1-1Zm3.97 1.707a3 3 0 0 1 4.243 0l1.542 1.542a3 3 0 0 1 0 4.243l-2.956 2.956a1 1 0 1 1-1.414-1.415l2.956-2.956a1 1 0 0 0 0-1.414L16.15 6.121a1 1 0 0 0-1.414 0L11.78 9.077a1 1 0 0 1-1.415-1.414l2.957-2.956Zm-9.145-.531a1 1 0 0 1 1.414 0l1.766 1.766a1 1 0 0 1-1.414 1.414L4.176 5.59a1 1 0 0 1 0-1.414ZM3 9.35a1 1 0 0 1 1-1h1.873a1 1 0 1 1 0 2H4a1 1 0 0 1-1-1Zm6.077 1.014a1 1 0 0 1 0 1.415l-2.956 2.956a1 1 0 0 0 0 1.414l1.542 1.542a1 1 0 0 0 1.414 0l2.957-2.956a1 1 0 1 1 1.414 1.414l-2.956 2.956a3 3 0 0 1-4.243 0l-1.542-1.542a3 3 0 0 1 0-4.242l2.956-2.957a1 1 0 0 1 1.414 0Zm8.05 4.284a1 1 0 0 1 1-1H20a1 1 0 1 1 0 2h-1.873a1 1 0 0 1-1-1Zm-.5 1.977a1 1 0 0 1 1.413 0l1.766 1.766a1 1 0 0 1-1.414 1.414l-1.766-1.766a1 1 0 0 1 0-1.414Zm-1.978.501a1 1 0 0 1 1 1V20a1 1 0 1 1-2 0v-1.873a1 1 0 0 1 1-1Z" clip-rule="evenodd"></path>
</svg>