<svg width="48" height="48" fill="#2d0b0b" viewBox="0 0 24 24" xmlns="http://www.w3.org/2000/svg">
<path fill-rule="evenodd" d="M4.292 4.293a1 1 0 0 1 1.415 0l14 14a1 1 0 0 1-1.415 1.414l-14-14a1 1 0 0 1 0-1.414Zm3.465 6.293a1 1 0 0 1 0 1.414l-2.121 2.121a2 2 0 0 0 0 2.829l1.414 1.414a2 2 0 0 0 2.828 0L12 16.243a1 1 0 0 1 1.414 1.414l-2.122 2.121a4 4 0 0 1-5.656 0L4.22 18.364a4 4 0 0 1 0-5.657l2.122-2.121a1 1 0 0 1 1.414 0Z" clip-rule="evenodd"></path>
<path fill-rule="evenodd" d="m11.836 10.75-2.664 2.665a1 1 0 0 0 1.414 1.414l2.664-2.664-1.414-1.414Zm5.657 2.829-1.414-1.414.164-.164 1.414-1.415.707-.707a2 2 0 0 0 0-2.828L16.95 5.637a2 2 0 0 0-2.828 0l-.708.707L12 7.758l-.164.164-1.414-1.414.164-.164L12 4.929l.707-.707a4 4 0 0 1 5.657 0l1.414 1.415a4 4 0 0 1 0 5.656l-.707.708-1.414 1.414-.164.164ZM13.25 9.336l.164-.164a1 1 0 0 1 1.415 1.414l-.165.165-1.414-1.415Z" clip-rule="evenodd"></path>
</svg>