<svg width="48" height="48" fill="#2d0b0b" viewBox="0 0 24 24" xmlns="http://www.w3.org/2000/svg">
<path fill-rule="evenodd" d="M13.878 4.707a3 3 0 0 1 4.243 0l1.172 1.171a3 3 0 0 1 0 4.243l-1.586 1.586a1 1 0 0 1-1.414-1.414l1.585-1.586a1 1 0 0 0 0-1.414L16.707 6.12a1 1 0 0 0-1.414 0l-4.505 4.505a1 1 0 0 0 0 1.414l.585.586A1 1 0 0 1 9.96 14.04l-.586-.586a3 3 0 0 1 0-4.242l4.505-4.505Zm-1.252 5.252a1 1 0 0 1 1.414 0l.586.586a3 3 0 0 1 0 4.243l-4.505 4.505a3 3 0 0 1-4.243 0L4.707 18.12a3 3 0 0 1 0-4.243l1.586-1.585a1 1 0 0 1 1.414 1.414L6.12 15.293a1 1 0 0 0 0 1.414l1.172 1.171a1 1 0 0 0 1.414 0l4.505-4.505a1 1 0 0 0 0-1.414l-.586-.585a1 1 0 0 1 0-1.415Z" clip-rule="evenodd"></path>
</svg>