<svg width="48" height="48" fill="#2d0b0b" viewBox="0 0 24 24" xmlns="http://www.w3.org/2000/svg">
<path fill-rule="evenodd" d="M4.293 4.293a1 1 0 0 1 1.414 0l14 14a1 1 0 0 1-1.414 1.414l-14-14a1 1 0 0 1 0-1.414Z" clip-rule="evenodd"></path>
<path fill-rule="evenodd" d="M7.586 7H6a4 4 0 0 0-4 4v2a4 4 0 0 0 4 4h4a1 1 0 1 0 0-2H6a2 2 0 0 1-2-2v-2a2 2 0 0 1 2-2h3.586l-2-2Zm4 4H9a1 1 0 1 0 0 2h4.586l-2-2Zm4 4H14a1 1 0 1 0 0 2h3.586l-2-2Zm4.337 1.509-1.544-1.545A2 2 0 0 0 20 13v-2a2 2 0 0 0-2-2h-4a1 1 0 1 1 0-2h4a4 4 0 0 1 4 4v2a4 4 0 0 1-2.077 3.509Zm-4.04-4.04L14.414 11H15a1 1 0 0 1 .883 1.47Z" clip-rule="evenodd"></path>
</svg>