<svg width="48" height="48" fill="#2d0b0b" viewBox="0 0 24 24" xmlns="http://www.w3.org/2000/svg">
<path fill-rule="evenodd" d="M12 8a2 2 0 1 0 0 4 2 2 0 0 0 0-4Zm-4 2a4 4 0 1 1 8 0 4 4 0 0 1-8 0Z" clip-rule="evenodd"></path>
<path fill-rule="evenodd" d="M12 4C8.652 4 6 6.608 6 9.75c0 2.442 1.547 5.02 3.27 7.096A27.482 27.482 0 0 0 12 19.68a27.484 27.484 0 0 0 2.73-2.834C16.453 14.77 18 12.192 18 9.75 18 6.608 15.348 4 12 4Zm0 17-.627.78-.002-.003-.005-.004-.019-.015a10.676 10.676 0 0 1-.3-.253 29.456 29.456 0 0 1-3.316-3.382C5.952 15.98 4 12.933 4 9.75 4 5.436 7.616 2 12 2s8 3.436 8 7.75c0 3.183-1.953 6.23-3.73 8.373a29.44 29.44 0 0 1-3.317 3.382 17.305 17.305 0 0 1-.3.253l-.019.015-.005.004-.002.002L12 21Zm0 0 .626.78a1 1 0 0 1-1.253 0L12 21Z" clip-rule="evenodd"></path>
</svg>