<svg width="48" height="48" fill="#2d0b0b" viewBox="0 0 24 24" xmlns="http://www.w3.org/2000/svg">
<path fill-rule="evenodd" d="M6 5a1 1 0 0 0-1 1v8a1 1 0 0 0 1 1h12a1 1 0 0 0 1-1v-1a1 1 0 1 1 2 0v1a3 3 0 0 1-3 3H6a3 3 0 0 1-3-3V6a3 3 0 0 1 3-3h4a1 1 0 1 1 0 2H6Z" clip-rule="evenodd"></path>
<path fill-rule="evenodd" d="M14.714 4.286a2.286 2.286 0 1 1 4.572 0v.29A1.857 1.857 0 0 1 21 6.43v2.714A1.857 1.857 0 0 1 19.143 11h-4.286A1.857 1.857 0 0 1 13 9.143V6.429c0-.978.755-1.78 1.714-1.852v-.291Zm2 .285h.572v-.285a.286.286 0 1 0-.572 0v.285Zm-1.714 2V9h4V6.571h-4Z" clip-rule="evenodd"></path>
<path fill-rule="evenodd" d="M12 15a1 1 0 0 1 1 1v4a1 1 0 1 1-2 0v-4a1 1 0 0 1 1-1Z" clip-rule="evenodd"></path>
<path fill-rule="evenodd" d="M7 20a1 1 0 0 1 1-1h8a1 1 0 1 1 0 2H8a1 1 0 0 1-1-1Z" clip-rule="evenodd"></path>
</svg>