<svg width="48" height="48" fill="#2d0b0b" viewBox="0 0 24 24" xmlns="http://www.w3.org/2000/svg">
<path fill-rule="evenodd" d="M2 6a3 3 0 0 1 3-3h14a3 3 0 0 1 3 3v6a1 1 0 1 1-2 0v-1H4v7a1 1 0 0 0 1 1h5a1 1 0 1 1 0 2H5a3 3 0 0 1-3-3V6Zm2 3h16V6a1 1 0 0 0-1-1H5a1 1 0 0 0-1 1v3Z" clip-rule="evenodd"></path>
<path fill-rule="evenodd" d="M14.714 15.286a2.286 2.286 0 1 1 4.572 0v.29A1.857 1.857 0 0 1 21 17.43v2.714A1.857 1.857 0 0 1 19.143 22h-4.286A1.857 1.857 0 0 1 13 20.143v-2.714c0-.978.755-1.78 1.714-1.852v-.291Zm2 .285h.572v-.285a.286.286 0 1 0-.572 0v.285Zm-1.714 2V20h4v-2.429h-4Z" clip-rule="evenodd"></path>
<path d="M7 7a1 1 0 1 1-2 0 1 1 0 0 1 2 0Z"></path>
<path d="M10 7a1 1 0 1 1-2 0 1 1 0 0 1 2 0Z"></path>
</svg>