<svg width="48" height="48" fill="#2d0b0b" viewBox="0 0 24 24" xmlns="http://www.w3.org/2000/svg">
<path fill-rule="evenodd" d="M20.8 6.4a1 1 0 0 1-.2 1.4l-6.2 4.65a4 4 0 0 1-4.8 0L3.4 7.8a1 1 0 1 1 1.2-1.6l6.2 4.65a2 2 0 0 0 2.4 0l6.2-4.65a1 1 0 0 1 1.4.2Z" clip-rule="evenodd"></path>
<path fill-rule="evenodd" d="M2 7a3 3 0 0 1 3-3h14a3 3 0 0 1 3 3v5a1 1 0 1 1-2 0V7a1 1 0 0 0-1-1H5a1 1 0 0 0-1 1v10a1 1 0 0 0 1 1h7a1 1 0 1 1 0 2H5a3 3 0 0 1-3-3V7Z" clip-rule="evenodd"></path>
<path fill-rule="evenodd" d="M15.714 15.286a2.286 2.286 0 1 1 4.572 0v.29A1.857 1.857 0 0 1 22 17.43v1.714A1.857 1.857 0 0 1 20.143 21h-4.286A1.857 1.857 0 0 1 14 19.143v-1.714c0-.978.755-1.78 1.714-1.852v-.291Zm2 .285h.572v-.285a.286.286 0 1 0-.572 0v.285Zm-1.714 2V19h4v-1.429h-4Z" clip-rule="evenodd"></path>
</svg>