<svg width="48" height="48" fill="#2d0b0b" viewBox="0 0 24 24" xmlns="http://www.w3.org/2000/svg">
<path fill-rule="evenodd" d="M5.043 9.748a6.501 6.501 0 0 1 12.945.35 5.002 5.002 0 0 1 .261 9.744 1 1 0 1 1-.498-1.936A3.002 3.002 0 0 0 17 12h-.023a1 1 0 0 1-.995-1.09A4.5 4.5 0 1 0 7 10.5v.012a1 1 0 0 1-.801.982 3.287 3.287 0 0 0 0 6.44 1 1 0 1 1-.398 1.96 5.287 5.287 0 0 1-.758-10.146Z" clip-rule="evenodd"></path>
<path fill-rule="evenodd" d="M9.714 14.286a2.286 2.286 0 1 1 4.572 0v.29A1.857 1.857 0 0 1 16 16.43v2.714A1.857 1.857 0 0 1 14.143 21H9.857A1.857 1.857 0 0 1 8 19.143v-2.714c0-.978.755-1.78 1.714-1.852v-.291Zm2 .285h.572v-.285a.286.286 0 1 0-.572 0v.285Zm-1.714 2V19h4v-2.429h-4Z" clip-rule="evenodd"></path>
</svg>