<svg width="48" height="48" fill="#2d0b0b" viewBox="0 0 24 24" xmlns="http://www.w3.org/2000/svg">
<path fill-rule="evenodd" d="M8 4a2 2 0 0 0-2 2v12a2 2 0 0 0 2 2h2a1 1 0 1 1 0 2H8a4 4 0 0 1-4-4V6a4 4 0 0 1 4-4h5.5a1 1 0 0 1 .715.3l5.5 5.626a1 1 0 0 1 .285.699v3.188a1 1 0 1 1-2 0V9.624h-3.5a2 2 0 0 1-2-2V4H8Zm6.5 1.453 2.124 2.172H14.5V5.453Z" clip-rule="evenodd"></path>
<path fill-rule="evenodd" d="M12 18a2 2 0 0 1 2-2h5a2 2 0 0 1 2 2v2a2 2 0 0 1-2 2h-5a2 2 0 0 1-2-2v-2Zm7 0h-5v2h5v-2Z" clip-rule="evenodd"></path>
<path fill-rule="evenodd" d="M14 15.5a2.5 2.5 0 0 1 5 0V17a1 1 0 0 1-1 1h-3a1 1 0 0 1-1-1v-1.5Zm2.5-.5a.5.5 0 0 0-.5.5v.5h1v-.5a.5.5 0 0 0-.5-.5Z" clip-rule="evenodd"></path>
</svg>