<svg width="48" height="48" fill="#2d0b0b" viewBox="0 0 24 24" xmlns="http://www.w3.org/2000/svg">
<path fill-rule="evenodd" d="M7 6a1 1 0 0 0-1 1v8h12v-1.5a1 1 0 1 1 2 0V16a1 1 0 0 1-1 1H5a1 1 0 0 1-1-1V7a3 3 0 0 1 3-3h4a1 1 0 1 1 0 2H7Z" clip-rule="evenodd"></path>
<path fill-rule="evenodd" d="M15.714 4.286a2.286 2.286 0 1 1 4.572 0v.29A1.857 1.857 0 0 1 22 6.43v2.714A1.857 1.857 0 0 1 20.143 11h-4.286A1.857 1.857 0 0 1 14 9.143V6.429c0-.978.755-1.78 1.714-1.852v-.291Zm2 .285h.572v-.285a.286.286 0 1 0-.572 0v.285Zm-1.714 2V9h4V6.571h-4Z" clip-rule="evenodd"></path>
<path fill-rule="evenodd" d="M2 16a1 1 0 0 1 1-1h18a1 1 0 0 1 1 1v1a3 3 0 0 1-3 3H5a3 3 0 0 1-3-3v-1Zm2 1a1 1 0 0 0 1 1h14a1 1 0 0 0 1-1H4Z" clip-rule="evenodd"></path>
</svg>