<svg width="48" height="48" fill="#2d0b0b" viewBox="0 0 24 24" xmlns="http://www.w3.org/2000/svg">
<path fill-rule="evenodd" d="M5 4.5a.5.5 0 1 0 0 1 .5.5 0 0 0 0-1ZM2.5 5A2.5 2.5 0 1 1 6 7.292v2.416a2.5 2.5 0 0 1 0 4.584v2.416A2.51 2.51 0 0 1 7.292 18h2.416a2.5 2.5 0 0 1 4.584 0h2.416a2.5 2.5 0 1 1 0 2h-2.416a2.5 2.5 0 0 1-4.584 0H7.292A2.5 2.5 0 1 1 4 16.708v-2.416a2.5 2.5 0 0 1 0-4.584V7.292A2.5 2.5 0 0 1 2.5 5ZM5 11.5a.5.5 0 1 0 0 1 .5.5 0 0 0 0-1Zm0 7a.5.5 0 1 0 0 1 .5.5 0 0 0 0-1Zm6.5.5a.5.5 0 1 0 1 0 .5.5 0 0 0-1 0Zm7 0a.5.5 0 1 0 1 0 .5.5 0 0 0-1 0ZM12 4.5a.5.5 0 1 0 0 1 .5.5 0 0 0 0-1ZM9.5 5a2.5 2.5 0 1 1 5 0 2.5 2.5 0 0 1-5 0Zm9.5-.5a.5.5 0 1 0 0 1 .5.5 0 0 0 0-1Zm-2.5.5a2.5 2.5 0 1 1 5 0 2.5 2.5 0 0 1-5 0ZM12 11.5a.5.5 0 1 0 0 1 .5.5 0 0 0 0-1Zm-2.5.5a2.5 2.5 0 1 1 5 0 2.5 2.5 0 0 1-5 0Zm9.5-.5a.5.5 0 1 0 0 1 .5.5 0 0 0 0-1Zm-2.5.5a2.5 2.5 0 1 1 5 0 2.5 2.5 0 0 1-5 0Z" clip-rule="evenodd"></path>
</svg>