<svg width="48" height="48" fill="#2d0b0b" viewBox="0 0 24 24" xmlns="http://www.w3.org/2000/svg">
<path fill-rule="evenodd" d="M5 6a1 1 0 0 0-1 1v10a1 1 0 0 0 1 1h6a1 1 0 1 1 0 2H5a3 3 0 0 1-3-3V7a3 3 0 0 1 3-3h4.586A2 2 0 0 1 11 4.586L12.414 6H19a3 3 0 0 1 3 3v1a1 1 0 1 1-2 0V9a1 1 0 0 0-1-1h-7a1 1 0 0 1-.707-.293L9.586 6H5Z" clip-rule="evenodd"></path>
<path fill-rule="evenodd" d="M13 16a2 2 0 0 1 2-2h5a2 2 0 0 1 2 2v3a2 2 0 0 1-2 2h-5a2 2 0 0 1-2-2v-3Zm7 0h-5v3h5v-3Z" clip-rule="evenodd"></path>
<path fill-rule="evenodd" d="M15 13.5a2.5 2.5 0 0 1 5 0V15a1 1 0 0 1-1 1h-3a1 1 0 0 1-1-1v-1.5Zm2.5-.5a.5.5 0 0 0-.5.5v.5h1v-.5a.5.5 0 0 0-.5-.5Z" clip-rule="evenodd"></path>
</svg>