<svg width="48" height="48" fill="#2d0b0b" viewBox="0 0 24 24" xmlns="http://www.w3.org/2000/svg">
<path fill-rule="evenodd" d="M5 9a3 3 0 0 1 3-3h8a3 3 0 0 1 3 3v9a3 3 0 0 1-3 3H8a3 3 0 0 1-3-3V9Zm3-1a1 1 0 0 0-1 1v9a1 1 0 0 0 1 1h8a1 1 0 0 0 1-1V9a1 1 0 0 0-1-1H8Z" clip-rule="evenodd"></path>
<path fill-rule="evenodd" d="M10 10a1 1 0 0 1 1 1v5a1 1 0 1 1-2 0v-5a1 1 0 0 1 1-1Z" clip-rule="evenodd"></path>
<path fill-rule="evenodd" d="M14 10a1 1 0 0 1 1 1v5a1 1 0 1 1-2 0v-5a1 1 0 0 1 1-1Z" clip-rule="evenodd"></path>
<path fill-rule="evenodd" d="M16 19a1 1 0 0 1 1 1v1a1 1 0 1 1-2 0v-1a1 1 0 0 1 1-1Z" clip-rule="evenodd"></path>
<path fill-rule="evenodd" d="M8 19a1 1 0 0 1 1 1v1a1 1 0 1 1-2 0v-1a1 1 0 0 1 1-1Z" clip-rule="evenodd"></path>
<path fill-rule="evenodd" d="M9 4a2 2 0 0 1 2-2h2a2 2 0 0 1 2 2v3a1 1 0 0 1-1 1h-4a1 1 0 0 1-1-1V4Zm4 0h-2v2h2V4Z" clip-rule="evenodd"></path>
</svg>