<svg width="48" height="48" fill="#2d0b0b" viewBox="0 0 24 24" xmlns="http://www.w3.org/2000/svg">
<path fill-rule="evenodd" d="M8.051 2.261a3 3 0 0 1 1.898 0l4.735 1.579a1 1 0 0 0 .632 0l4.051-1.35A2 2 0 0 1 22 4.386V17.38a2 2 0 0 1-1.106 1.79l-4.552 2.276a3 3 0 0 1-2.684 0l-4.21-2.106a1 1 0 0 0-.895 0l-3.659 1.83A2 2 0 0 1 2 19.38V5.72a2 2 0 0 1 1.368-1.897L8.05 2.26ZM9.316 4.16a1 1 0 0 0-.632 0L4 5.72v13.661l3.658-1.829a3 3 0 0 1 2.684 0l4.21 2.106a1 1 0 0 0 .895 0L20 17.38V4.387l-4.051 1.35a3 3 0 0 1-1.898 0L9.316 4.16Z" clip-rule="evenodd"></path>
<path fill-rule="evenodd" d="M15 4a1 1 0 0 1 1 1v15.5a1 1 0 1 1-2 0V5a1 1 0 0 1 1-1Z" clip-rule="evenodd"></path>
<path fill-rule="evenodd" d="M9 3a1 1 0 0 1 1 1v14a1 1 0 1 1-2 0V4a1 1 0 0 1 1-1Z" clip-rule="evenodd"></path>
</svg>