<svg width="48" height="48" fill="#2d0b0b" viewBox="0 0 24 24" xmlns="http://www.w3.org/2000/svg">
<path fill-rule="evenodd" d="M10.658 5.553a3 3 0 0 1 2.684 0l4 2A3 3 0 0 1 19 10.236v4.376a5 5 0 0 1-4.178 4.932l-2 .333a5 5 0 0 1-1.644 0l-2-.333A5 5 0 0 1 5 14.612v-4.376a3 3 0 0 1 1.658-2.683l4-2Zm1.79 1.789a1 1 0 0 0-.895 0l-4 2a1 1 0 0 0-.553.894v4.376a3 3 0 0 0 2.507 2.959l2 .333c.326.055.66.055.986 0l2-.333A3 3 0 0 0 17 14.61v-4.375a1 1 0 0 0-.553-.894l-4-2Z" clip-rule="evenodd"></path>
<path fill-rule="evenodd" d="M2 11.163c0-2.239 2.193-3.82 4.316-3.111l-.632 1.897A1.28 1.28 0 0 0 4 11.163v.445a1.6 1.6 0 0 0 .713 1.332l1.842 1.228a1 1 0 1 1-1.11 1.664l-1.842-1.228A3.6 3.6 0 0 1 2 11.61v-.446Z" clip-rule="evenodd"></path>
<path fill-rule="evenodd" d="M22 11.163c0-2.239-2.193-3.82-4.316-3.111l.632 1.897A1.28 1.28 0 0 1 20 11.163v.445a1.6 1.6 0 0 1-.713 1.332l-1.842 1.228a1 1 0 0 0 1.11 1.664l1.842-1.228A3.6 3.6 0 0 0 22 11.61v-.446Z" clip-rule="evenodd"></path>
<path fill-rule="evenodd" d="M12.316 12.159a1 1 0 0 0-.632 0l-2.367.789a1 1 0 1 1-.633-1.897l2.368-.79a3 3 0 0 1 1.897 0l2.367.79a1 1 0 1 1-.632 1.897l-2.367-.79Z" clip-rule="evenodd"></path>
<path fill-rule="evenodd" d="M12.243 15.592a.998.998 0 0 0-.485 0l-1.515.38a1 1 0 0 1-.485-1.941l1.515-.379c.477-.12.977-.12 1.455 0l1.515.379a1 1 0 0 1-.485 1.94l-1.515-.379Z" clip-rule="evenodd"></path>
</svg>