<svg width="48" height="48" fill="#2d0b0b" viewBox="0 0 24 24" xmlns="http://www.w3.org/2000/svg">
<path fill-rule="evenodd" d="M3 5a2 2 0 0 1 2-2h10a2 2 0 0 1 2 2v1a2 2 0 0 1-2 2H5a2 2 0 0 1-2-2V5Zm12 0H5v1h10V5Z" clip-rule="evenodd"></path>
<path fill-rule="evenodd" d="M5.834 6.346A1 1 0 0 1 6.591 6h6.818a1 1 0 0 1 .757.346l2.348 2.719A2 2 0 0 1 17 10.372V14a1 1 0 1 1-2 0v-3.628L12.951 8H7.05L5 10.372V18a1 1 0 0 0 1 1h10a1 1 0 1 1 0 2H6a3 3 0 0 1-3-3v-7.628a2 2 0 0 1 .486-1.307l2.348-2.719Z" clip-rule="evenodd"></path>
<path fill-rule="evenodd" d="M10 10a1 1 0 0 1 1 1v1h1a1 1 0 1 1 0 2h-1v1a1 1 0 1 1-2 0v-1H8a1 1 0 1 1 0-2h1v-1a1 1 0 0 1 1-1Z" clip-rule="evenodd"></path>
<path fill-rule="evenodd" d="M17 15a2 2 0 1 0 0 4 2 2 0 0 0 0-4Zm-4 2a4 4 0 1 1 8 0 4 4 0 0 1-8 0Z" clip-rule="evenodd"></path>
<path fill-rule="evenodd" d="M19 13.535a1 1 0 0 1 .366 1.366l-3 5.196a1 1 0 1 1-1.732-1l3-5.196A1 1 0 0 1 19 13.535Z" clip-rule="evenodd"></path>
</svg>