<svg width="48" height="48" fill="#2d0b0b" viewBox="0 0 24 24" xmlns="http://www.w3.org/2000/svg">
<path fill-rule="evenodd" d="M12 4a8 8 0 1 0 0 16 8 8 0 0 0 0-16ZM2 12C2 6.477 6.477 2 12 2s10 4.477 10 10-4.477 10-10 10S2 17.523 2 12Z" clip-rule="evenodd"></path>
<path d="M11 9.5a1.5 1.5 0 1 1-3 0 1.5 1.5 0 0 1 3 0Z"></path>
<path d="M16 9.5a1.5 1.5 0 1 1-3 0 1.5 1.5 0 0 1 3 0Z"></path>
<path fill-rule="evenodd" d="M7 15a1 1 0 0 1 1-1h8a1 1 0 1 1 0 2H8a1 1 0 0 1-1-1Z" clip-rule="evenodd"></path>
</svg>