<svg width="48" height="48" fill="#2d0b0b" viewBox="0 0 24 24" xmlns="http://www.w3.org/2000/svg">
<path fill-rule="evenodd" d="M9 7.914V11a3 3 0 0 0 5.163 2.078l-1.415-1.415A1 1 0 0 1 11 11V9.914l-2-2Zm4 1.172V5a1 1 0 0 0-2 0v2.086l-2-2V5a3 3 0 0 1 6 0v6c0 .028 0 .056-.002.085l-1.998-2Zm2.578 5.406a5 5 0 0 1-8.306-1.865 1 1 0 1 0-1.891.652A7 7 0 0 0 11 17.929V20H9a1 1 0 1 0 0 2h6a1 1 0 0 0 0-2h-2v-2.072a7 7 0 0 0 3.992-2.021l-1.414-1.415Zm2.61-.219-1.51-1.509a5 5 0 0 0 .103-.302 1 1 0 0 1 1.913.585c-.13.426-.3.836-.507 1.226Z" clip-rule="evenodd"></path>
<path fill-rule="evenodd" d="M4.293 4.293a1 1 0 0 1 1.414 0l14 14a1 1 0 0 1-1.414 1.414l-14-14a1 1 0 0 1 0-1.414Z" clip-rule="evenodd"></path>
</svg>