<svg width="48" height="48" fill="#2d0b0b" viewBox="0 0 24 24" xmlns="http://www.w3.org/2000/svg">
<path fill-rule="evenodd" d="M12 16a1 1 0 0 1 1 1v3h2a1 1 0 1 1 0 2H9a1 1 0 1 1 0-2h2v-3a1 1 0 0 1 1-1Z" clip-rule="evenodd"></path>
<path fill-rule="evenodd" d="M9 5a3 3 0 1 1 6 0v6a3 3 0 1 1-6 0V5Zm3-1a1 1 0 0 0-1 1v6a1 1 0 1 0 2 0V5a1 1 0 0 0-1-1Z" clip-rule="evenodd"></path>
<path fill-rule="evenodd" d="M18.03 11.798a1 1 0 0 1 .664 1.248 7 7 0 0 1-13.313.233 1 1 0 1 1 1.891-.651 5 5 0 0 0 9.51-.166 1 1 0 0 1 1.248-.664Z" clip-rule="evenodd"></path>
</svg>