<svg width="48" height="48" fill="#2d0b0b" viewBox="0 0 24 24" xmlns="http://www.w3.org/2000/svg">
<path fill-rule="evenodd" d="M5.38 4.295A3.985 3.985 0 0 0 5 6v12a4 4 0 0 0 4 4h6a4 4 0 0 0 4-4v-.086l-2-2V18a2 2 0 0 1-2 2H9a2 2 0 0 1-2-2V6c0-.028 0-.056.002-.084L5.38 4.295ZM17 13.085V6a2 2 0 0 0-2-2H9c-.316 0-.616.073-.882.204L6.666 2.751A3.982 3.982 0 0 1 9 2h6a4 4 0 0 1 4 4v9.086l-2-2ZM11 16a1 1 0 1 0 0 2h2a1 1 0 1 0 0-2h-2Z" clip-rule="evenodd"></path>
<path fill-rule="evenodd" d="M2.293 2.293a1 1 0 0 1 1.414 0l18 18a1 1 0 0 1-1.414 1.414l-18-18a1 1 0 0 1 0-1.414Z" clip-rule="evenodd"></path>
</svg>