<svg width="48" height="48" fill="#2d0b0b" viewBox="0 0 24 24" xmlns="http://www.w3.org/2000/svg">
<path fill-rule="evenodd" d="M1 6a1 1 0 0 1 1-1h20a1 1 0 0 1 1 1v12a1 1 0 0 1-1 1H2a1 1 0 0 1-1-1V6Zm2 1v10h18V7H3Z" clip-rule="evenodd"></path>
<path fill-rule="evenodd" d="M17 6a1 1 0 0 1 1-1h4a1 1 0 0 1 1 1v4a1 1 0 0 1-1 1 5 5 0 0 1-5-5Zm2.172 1A2.999 2.999 0 0 0 21 8.828V7h-1.828Z" clip-rule="evenodd"></path>
<path fill-rule="evenodd" d="M21 15.172A2.999 2.999 0 0 0 19.172 17H21v-1.828Zm-2.535-.708A5 5 0 0 1 22 13a1 1 0 0 1 1 1v4a1 1 0 0 1-1 1h-4a1 1 0 0 1-1-1 5 5 0 0 1 1.465-3.536Z" clip-rule="evenodd"></path>
<path fill-rule="evenodd" d="M1 14a1 1 0 0 1 1-1 5 5 0 0 1 5 5 1 1 0 0 1-1 1H2a1 1 0 0 1-1-1v-4Zm2 1.172V17h1.828A3 3 0 0 0 3 15.172Z" clip-rule="evenodd"></path>
<path fill-rule="evenodd" d="M1.293 5.293A1 1 0 0 1 2 5h4a1 1 0 0 1 1 1 5 5 0 0 1-5 5 1 1 0 0 1-1-1V6a1 1 0 0 1 .293-.707ZM3 7v1.828A3 3 0 0 0 4.828 7H3Z" clip-rule="evenodd"></path>
<path fill-rule="evenodd" d="M12 11a1 1 0 1 0 0 2 1 1 0 0 0 0-2Zm-3 1a3 3 0 1 1 6 0 3 3 0 0 1-6 0Z" clip-rule="evenodd"></path>
</svg>