<svg width="48" height="48" fill="#2d0b0b" viewBox="0 0 24 24" xmlns="http://www.w3.org/2000/svg">
<path fill-rule="evenodd" d="M13 4a1 1 0 0 1 1-1h6a1 1 0 0 1 1 1v6a1 1 0 0 1-1 1h-6a1 1 0 0 1-1-1V4Zm2 1v4h4V5h-4Z" clip-rule="evenodd"></path>
<path fill-rule="evenodd" d="M13 14a1 1 0 0 1 1-1h6a1 1 0 0 1 1 1v6a1 1 0 0 1-1 1h-6a1 1 0 0 1-1-1v-6Zm2 1v4h4v-4h-4Z" clip-rule="evenodd"></path>
<path fill-rule="evenodd" d="M5.05 8.423A7 7 0 0 0 10 20.373a1 1 0 1 0 0-2 5 5 0 1 1 0-10 1 1 0 1 0 0-2 7 7 0 0 0-4.95 2.05Z" clip-rule="evenodd"></path>
<path fill-rule="evenodd" d="M7.527 5.05a1 1 0 0 0 .374 1.364l1.66.946-.945 1.66a1 1 0 1 0 1.739.99l1.44-2.53a1 1 0 0 0-.375-1.364l-2.53-1.44a1 1 0 0 0-1.363.375Z" clip-rule="evenodd"></path>
</svg>