<svg width="48" height="48" fill="#2d0b0b" viewBox="0 0 24 24" xmlns="http://www.w3.org/2000/svg">
<path fill-rule="evenodd" d="M12 10.75a1.25 1.25 0 1 0 0 2.5 1.25 1.25 0 0 0 0-2.5ZM8.75 12a3.25 3.25 0 1 1 6.5 0 3.25 3.25 0 0 1-6.5 0Z" clip-rule="evenodd"></path>
<path fill-rule="evenodd" d="M12 6.25a5.75 5.75 0 1 0 0 11.5 5.75 5.75 0 0 0 0-11.5ZM4.25 12a7.75 7.75 0 1 1 15.5 0 7.75 7.75 0 0 1-15.5 0Z" clip-rule="evenodd"></path>
<path fill-rule="evenodd" d="M12 2a1 1 0 0 1 1 1v2.25a1 1 0 1 1-2 0V3a1 1 0 0 1 1-1Z" clip-rule="evenodd"></path>
<path fill-rule="evenodd" d="M17.75 12a1 1 0 0 1 1-1H21a1 1 0 1 1 0 2h-2.25a1 1 0 0 1-1-1Z" clip-rule="evenodd"></path>
<path fill-rule="evenodd" d="M12 17.75a1 1 0 0 1 1 1V21a1 1 0 1 1-2 0v-2.25a1 1 0 0 1 1-1Z" clip-rule="evenodd"></path>
<path fill-rule="evenodd" d="M2 12a1 1 0 0 1 1-1h2.25a1 1 0 1 1 0 2H3a1 1 0 0 1-1-1Z" clip-rule="evenodd"></path>
</svg>