<svg width="48" height="48" fill="#2d0b0b" viewBox="0 0 24 24" xmlns="http://www.w3.org/2000/svg">
<path fill-rule="evenodd" d="M2 6a4 4 0 0 1 4-4h12a4 4 0 0 1 4 4v12a4 4 0 0 1-4 4H6a4 4 0 0 1-4-4V6Zm4-2a2 2 0 0 0-2 2v12a2 2 0 0 0 2 2h12a2 2 0 0 0 2-2V6a2 2 0 0 0-2-2H6Z" clip-rule="evenodd"></path>
<path fill-rule="evenodd" d="M9 2a1 1 0 0 1 1 1v4.131l1.445-.963a1 1 0 0 1 1.11 0L14 7.131V3a1 1 0 1 1 2 0v6a1 1 0 0 1-1.555.832L12 8.202l-2.445 1.63A1 1 0 0 1 8 9V3a1 1 0 0 1 1-1Z" clip-rule="evenodd"></path>
</svg>