<svg width="48" height="48" fill="#2d0b0b" viewBox="0 0 24 24" xmlns="http://www.w3.org/2000/svg">
<path fill-rule="evenodd" d="M9 5a3 3 0 1 1 6 0 2 2 0 0 1 2 2v3a2 2 0 0 1-2 2H9a2 2 0 0 1-2-2V7a2 2 0 0 1 2-2Zm0 2v3h6V7H9Zm4-2h-2a1 1 0 1 1 2 0ZM2 16a3 3 0 0 1 3-3h14a3 3 0 0 1 3 3v3a3 3 0 0 1-3 3H5a3 3 0 0 1-3-3v-3Zm3-1a1 1 0 0 0-1 1v3a1 1 0 0 0 1 1h14a1 1 0 0 0 1-1v-3a1 1 0 0 0-1-1H5Z" clip-rule="evenodd"></path>
<path d="M9 17.5a1.5 1.5 0 1 1-3 0 1.5 1.5 0 0 1 3 0Z"></path>
<path d="M13.5 17.5a1.5 1.5 0 1 1-3 0 1.5 1.5 0 0 1 3 0Z"></path>
<path d="M18 17.5a1.5 1.5 0 1 1-3 0 1.5 1.5 0 0 1 3 0Z"></path>
</svg>