<svg width="48" height="48" fill="#2d0b0b" viewBox="0 0 24 24" xmlns="http://www.w3.org/2000/svg">
<path fill-rule="evenodd" d="M2 6a3 3 0 0 1 3-3h14a3 3 0 0 1 3 3v2.5a1 1 0 1 1-2 0V6a1 1 0 0 0-1-1H5a1 1 0 0 0-1 1v5a1 1 0 0 0 1 1h5.875a1 1 0 1 1 0 2H5a3 3 0 0 1-3-3V6Zm12 6a3 3 0 1 1 6 0v1a2 2 0 0 1 2 2v4a2 2 0 0 1-2 2h-6a2 2 0 0 1-2-2v-4a2 2 0 0 1 2-2v-1Zm0 3v4h6v-4h-6Zm4-2h-2v-1a1 1 0 1 1 2 0v1Z" clip-rule="evenodd"></path>
<path d="M9 8.5a1.5 1.5 0 1 1-3 0 1.5 1.5 0 0 1 3 0Z"></path>
<path d="M13.5 8.5a1.5 1.5 0 1 1-3 0 1.5 1.5 0 0 1 3 0Z"></path>
</svg>