<svg width="48" height="48" fill="#2d0b0b" viewBox="0 0 24 24" xmlns="http://www.w3.org/2000/svg">
<path fill-rule="evenodd" d="M2 6a3 3 0 0 1 3-3h14a3 3 0 0 1 3 3v3a3 3 0 0 1-3 3H5a3 3 0 0 1-3-3V6Zm3-1a1 1 0 0 0-1 1v3a1 1 0 0 0 1 1h14a1 1 0 0 0 1-1V6a1 1 0 0 0-1-1H5Zm1.5 11a1.5 1.5 0 1 0 0 3 1.5 1.5 0 0 0 0-3ZM3 17.5a3.5 3.5 0 0 1 6.855-1h8.895c.69 0 1.25.56 1.25 1.25V20a1 1 0 1 1-2 0v-1.5h-1.875V20a1 1 0 1 1-2 0v-1.5h-4.27A3.502 3.502 0 0 1 3 17.5Z" clip-rule="evenodd"></path>
<path d="M9 7.5a1.5 1.5 0 1 1-3 0 1.5 1.5 0 0 1 3 0Z"></path>
<path d="M13.5 7.5a1.5 1.5 0 1 1-3 0 1.5 1.5 0 0 1 3 0Z"></path>
<path d="M18 7.5a1.5 1.5 0 1 1-3 0 1.5 1.5 0 0 1 3 0Z"></path>
</svg>