<svg width="48" height="48" fill="#2d0b0b" viewBox="0 0 24 24" xmlns="http://www.w3.org/2000/svg">
<path fill-rule="evenodd" d="M6.969 5.883A1 1 0 0 1 6.5 6H5a3 3 0 0 0-3 3v9a3 3 0 0 0 3 3h14c.902 0 1.712-.398 2.262-1.029a.996.996 0 0 1-.47-.264l-1.043-1.044A.997.997 0 0 1 19 19H5a1 1 0 0 1-1-1V9a1 1 0 0 1 1-1h1.5a3 3 0 0 0 1.904-.682L6.97 5.883Zm2.695 2.695a5 5 0 1 0 6.758 6.758l-1.531-1.531a3.001 3.001 0 1 1-3.696-3.696L9.664 8.58Zm7.335 4.507-5.084-5.084L12 8a5 5 0 0 1 5 5.085Zm3.001 3V9a1 1 0 0 0-1-1h-1.5a3 3 0 0 1-2.4-1.2l-1.05-1.4a1 1 0 0 0-.8-.4h-2.5a1 1 0 0 0-.8.4l-.272.363-1.43-1.428.102-.135a3 3 0 0 1 2.4-1.2h2.5a3 3 0 0 1 2.4 1.2l1.05 1.4a1 1 0 0 0 .8.4H19a3 3 0 0 1 3 3v9l-.001.085-1.999-2Z" clip-rule="evenodd"></path>
<path fill-rule="evenodd" d="M2.293 2.293a1 1 0 0 1 1.414 0l18 18a1 1 0 0 1-1.414 1.414l-18-18a1 1 0 0 1 0-1.414Z" clip-rule="evenodd"></path>
</svg>