<svg width="48" height="48" fill="#2d0b0b" viewBox="0 0 24 24" xmlns="http://www.w3.org/2000/svg">
<path fill-rule="evenodd" d="M10.75 5a1 1 0 0 0-.8.4L8.9 6.8A3 3 0 0 1 6.5 8H5a1 1 0 0 0-1 1v9a1 1 0 0 0 1 1h14a1 1 0 0 0 1-1V9a1 1 0 0 0-1-1h-1.5a3 3 0 0 1-2.4-1.2l-1.05-1.4a1 1 0 0 0-.8-.4h-2.5Zm-2.4-.8a3 3 0 0 1 2.4-1.2h2.5a3 3 0 0 1 2.4 1.2l1.05 1.4a1 1 0 0 0 .8.4H19a3 3 0 0 1 3 3v9a3 3 0 0 1-3 3H5a3 3 0 0 1-3-3V9a3 3 0 0 1 3-3h1.5a1 1 0 0 0 .8-.4l1.05-1.4Z" clip-rule="evenodd"></path>
<path fill-rule="evenodd" d="M12 10a3 3 0 1 0 0 6 3 3 0 0 0 0-6Zm-5 3a5 5 0 1 1 10 0 5 5 0 0 1-10 0Z" clip-rule="evenodd"></path>
</svg>