<svg width="48" height="48" fill="#2d0b0b" viewBox="0 0 24 24" xmlns="http://www.w3.org/2000/svg">
<path fill-rule="evenodd" d="M2.293 2.293a1 1 0 0 1 1.414 0l18 18a1 1 0 0 1-1.414 1.414l-18-18a1 1 0 0 1 0-1.414Z" clip-rule="evenodd"></path>
<path fill-rule="evenodd" d="M4.768 3.68a4 4 0 0 0-1.332 1.504c-.247.485-.346 1.002-.392 1.564C3 7.29 3 7.954 3 8.758v6.484a123.581 123.581 0 0 0 .002.824c.004.448.014.843.042 1.187.046.562.145 1.079.392 1.564a4 4 0 0 0 1.748 1.748c.485.247 1.002.346 1.564.392C7.29 21 7.954 21 8.758 21h6.484c.805 0 1.47 0 2.01-.044.563-.046 1.08-.145 1.565-.392a4 4 0 0 0 1.503-1.331l-1.474-1.474a1.15 1.15 0 0 1-.063.149 2 2 0 0 1-.874.874c-.156.08-.38.145-.819.18-.45.037-1.032.038-1.889.038H8.8c-.857 0-1.439 0-1.889-.038-.438-.035-.663-.1-.819-.18a2 2 0 0 1-.874-.874c-.08-.156-.145-.38-.18-.819a11.453 11.453 0 0 1-.032-.704l4.787-5.177 3.293 3.292 2.25 2.25a1 1 0 0 0 1.703-.797L10.38 9.295a2 2 0 0 0-2.03.526L5 13.446V8.8c0-.857 0-1.439.038-1.889.035-.438.1-.663.18-.819a2 2 0 0 1 .874-.874 1.15 1.15 0 0 1 .15-.063l-1.45-1.448a1.004 1.004 0 0 1-.024-.026Zm10.491 7.665a2 2 0 0 1 2.655.155L19 12.586V8.8c0-.857 0-1.439-.038-1.889-.035-.438-.1-.663-.18-.819a2 2 0 0 0-.874-.874c-.156-.08-.38-.145-.819-.18C16.639 5 16.057 5 15.2 5H8.914l-1.97-1.97C7.449 3 8.05 3 8.76 3h6.48c.805 0 1.47 0 2.01.044.563.046 1.08.145 1.565.392a4 4 0 0 1 1.748 1.748c.247.485.346 1.002.392 1.564C21 7.29 21 7.954 21 8.758v6.484c0 .71 0 1.311-.03 1.814l-5.71-5.71Z" clip-rule="evenodd"></path>
</svg>