<svg width="48" height="48" fill="#2d0b0b" viewBox="0 0 24 24" xmlns="http://www.w3.org/2000/svg">
<path fill-rule="evenodd" d="M4.293 4.293a1 1 0 0 1 1.414 0l14 14a1 1 0 0 1-1.414 1.414l-14-14a1 1 0 0 1 0-1.414Z" clip-rule="evenodd"></path>
<path fill-rule="evenodd" d="M19.086 3.5a2 2 0 0 0-2.829 0l-2.085 2.086-1.293-1.293a1 1 0 0 0-1.415 1.414L12.757 7l-1.171 1.17L13 9.586l1.172-1.172 1.414 1.414L14.414 11l1.414 1.414L17 11.242l1.293 1.293a1 1 0 0 0 1.414-1.414l-1.293-1.293L20.5 7.742a2 2 0 0 0 0-2.828L19.086 3.5Zm-4.672 10.328L13 12.414l-4.743 4.743c-.075.075-.16.137-.254.185L6.642 16.03a.999.999 0 0 1 .2-.288L11.586 11l-1.414-1.414-4.744 4.743a3 3 0 0 0-.82 1.533l-.058.29-.177.884-.354 1.768a1 1 0 0 0 1.177 1.177l2.718-.544.224-.045a3 3 0 0 0 1.533-.82l4.743-4.744ZM15.586 7 17 8.414l2.086-2.086-1.414-1.414L15.586 7Z" clip-rule="evenodd"></path>
</svg>