<svg width="48" height="48" fill="#2d0b0b" viewBox="0 0 24 24" xmlns="http://www.w3.org/2000/svg">
<path fill-rule="evenodd" d="M16.258 3.5a2 2 0 0 1 2.828 0L20.5 4.914a2 2 0 0 1 0 2.829l-2.085 2.085 1.292 1.293a1 1 0 0 1-1.414 1.415L17 11.243l-7.329 7.329a3 3 0 0 1-1.533.82l-2.942.589a1 1 0 0 1-1.176-1.177l.588-2.942a3 3 0 0 1 .82-1.533L12.758 7l-1.293-1.293a1 1 0 0 1 1.414-1.414l1.293 1.293L16.258 3.5Zm-2.086 4.914-7.33 7.33a1.001 1.001 0 0 0-.2.287l1.361 1.311a1 1 0 0 0 .254-.184l7.33-7.33-1.415-1.414Zm2.828 0L15.586 7l2.086-2.086 1.414 1.415L17 8.414Z" clip-rule="evenodd"></path>
</svg>