<svg width="48" height="48" fill="#2d0b0b" viewBox="0 0 24 24" xmlns="http://www.w3.org/2000/svg">
<path fill-rule="evenodd" d="M11 5.072a7 7 0 0 0 0 13.856V5.072Zm-5.364.564A9 9 0 0 1 12 3a1 1 0 0 1 1 1v16a1 1 0 0 1-1 1A9 9 0 0 1 5.636 5.636Z" clip-rule="evenodd"></path>
<path fill-rule="evenodd" d="M11.293 3.293A1 1 0 0 1 12 3a9 9 0 0 1 9 9 1 1 0 0 1-1 1h-8a1 1 0 0 1-1-1V4a1 1 0 0 1 .293-.707ZM13 5.072V11h5.928A7 7 0 0 0 13 5.072Z" clip-rule="evenodd"></path>
<path fill-rule="evenodd" d="M20.707 11.293A1 1 0 0 1 21 12a9 9 0 0 1-9 9 1 1 0 0 1-1-1v-8a1 1 0 0 1 1-1h8a1 1 0 0 1 .707.293ZM18.928 13H13v5.928A7.001 7.001 0 0 0 18.928 13Z" clip-rule="evenodd"></path>
</svg>