<svg width="48" height="48" fill="#2d0b0b" viewBox="0 0 24 24" xmlns="http://www.w3.org/2000/svg">
<path fill-rule="evenodd" d="M11 5.072a7 7 0 1 0 5.192 12.534l-4.9-4.899A1 1 0 0 1 11 12V5.072Zm-3.243-1.01A9 9 0 0 1 12 3a1 1 0 0 1 1 1v7.586l5.364 5.364a1 1 0 0 1 0 1.414 9.002 9.002 0 0 1-14.679-2.92A9 9 0 0 1 7.757 4.063Z" clip-rule="evenodd"></path>
<path fill-rule="evenodd" d="M11 4a1 1 0 0 1 1-1 9 9 0 0 1 6.364 15.364 1 1 0 0 1-1.414 0l-5.657-5.657A1 1 0 0 1 11 12V4Zm2 1.072v6.514l4.606 4.606A7.001 7.001 0 0 0 13 5.072Z" clip-rule="evenodd"></path>
</svg>