<svg width="48" height="48" fill="#2d0b0b" viewBox="0 0 24 24" xmlns="http://www.w3.org/2000/svg">
<path fill-rule="evenodd" d="M6.15 5.063C6.051 5.358 6 5.673 6 6v1H5a3 3 0 0 0-3 3v7a1 1 0 0 0 1 1h3a3 3 0 0 0 3 3h6a3 3 0 0 0 3-3h1.086l-5-5H7a1 1 0 0 0-1 1v2H4v-6a1 1 0 0 1 1-1h5.086l-2-2H8v-.086l-1.85-1.85ZM10.913 7H16V6a1 1 0 0 0-1-1H9c-.028 0-.055.001-.082.003L7.385 3.471A2.986 2.986 0 0 1 9 3h6a3 3 0 0 1 3 3v1h1a3 3 0 0 1 3 3v7c0 .298-.13.566-.337.749L19.914 16H20v-6a1 1 0 0 0-1-1h-6.086l-2-2Zm4.996 4.996-.906-.906A1 1 0 0 1 16 10h2a1 1 0 1 1 0 2h-2a.988.988 0 0 1-.09-.004ZM8 18v-3h8v3a1 1 0 0 1-1 1H9a1 1 0 0 1-1-1Z" clip-rule="evenodd"></path>
<path fill-rule="evenodd" d="M2.293 2.293a1 1 0 0 1 1.414 0l18 18a1 1 0 0 1-1.414 1.414l-18-18a1 1 0 0 1 0-1.414Z" clip-rule="evenodd"></path>
</svg>