<svg width="48" height="48" fill="#2d0b0b" viewBox="0 0 24 24" xmlns="http://www.w3.org/2000/svg">
<path fill-rule="evenodd" d="M6 6a3 3 0 0 1 3-3h6a3 3 0 0 1 3 3v2a1 1 0 0 1-1 1H7a1 1 0 0 1-1-1V6Zm3-1a1 1 0 0 0-1 1v1h8V6a1 1 0 0 0-1-1H9Z" clip-rule="evenodd"></path>
<path fill-rule="evenodd" d="M6 14a1 1 0 0 1 1-1h10a1 1 0 0 1 1 1v4a3 3 0 0 1-3 3H9a3 3 0 0 1-3-3v-4Zm2 1v3a1 1 0 0 0 1 1h6a1 1 0 0 0 1-1v-3H8Z" clip-rule="evenodd"></path>
<path fill-rule="evenodd" d="M2 10a3 3 0 0 1 3-3h14a3 3 0 0 1 3 3v7a1 1 0 0 1-1 1h-3a1 1 0 1 1 0-2h2v-6a1 1 0 0 0-1-1H5a1 1 0 0 0-1 1v6h2a1 1 0 1 1 0 2H3a1 1 0 0 1-1-1v-7Z" clip-rule="evenodd"></path>
<path fill-rule="evenodd" d="M15 11a1 1 0 0 1 1-1h2a1 1 0 1 1 0 2h-2a1 1 0 0 1-1-1Z" clip-rule="evenodd"></path>
</svg>