<svg width="48" height="48" fill="#2d0b0b" viewBox="0 0 24 24" xmlns="http://www.w3.org/2000/svg">
<path fill-rule="evenodd" d="M2 6a3 3 0 0 1 3-3h14a3 3 0 0 1 3 3v6a1 1 0 1 1-2 0v-1H4v7a1 1 0 0 0 1 1h7a1 1 0 1 1 0 2H5a3 3 0 0 1-3-3V6Zm2 3h16V6a1 1 0 0 0-1-1H5a1 1 0 0 0-1 1v3Z" clip-rule="evenodd"></path>
<path fill-rule="evenodd" d="m17.482 15.068 2.45 2.45a2 2 0 0 0-2.45-2.45Zm1.036 3.864-2.45-2.45a2 2 0 0 0 2.45 2.45Zm-3.346-4.76a4 4 0 1 1 5.657 5.657 4 4 0 0 1-5.657-5.657Z" clip-rule="evenodd"></path>
<path d="M7 7a1 1 0 1 1-2 0 1 1 0 0 1 2 0Z"></path>
<path d="M10 7a1 1 0 1 1-2 0 1 1 0 0 1 2 0Z"></path>
</svg>