<svg width="48" height="48" fill="#2d0b0b" viewBox="0 0 24 24" xmlns="http://www.w3.org/2000/svg">
<path fill-rule="evenodd" d="M2 8a3 3 0 0 1 3-3h14a3 3 0 0 1 3 3v3.5a1 1 0 1 1-2 0V8a1 1 0 0 0-1-1H5a1 1 0 0 0-1 1v9a1 1 0 0 0 1 1h7a1 1 0 1 1 0 2H5a3 3 0 0 1-3-3V8Z" clip-rule="evenodd"></path>
<path fill-rule="evenodd" d="m17.482 15.068 2.45 2.45a2 2 0 0 0-2.45-2.45Zm1.036 3.864-2.45-2.45a2 2 0 0 0 2.45 2.45Zm-3.346-4.76a4 4 0 1 1 5.657 5.657 4 4 0 0 1-5.657-5.657Z" clip-rule="evenodd"></path>
<path fill-rule="evenodd" d="M2 10a1 1 0 0 1 1-1h17.5a1 1 0 1 1 0 2H3a1 1 0 0 1-1-1Z" clip-rule="evenodd"></path>
<path fill-rule="evenodd" d="M6 15a1 1 0 0 1 1-1h2a1 1 0 1 1 0 2H7a1 1 0 0 1-1-1Z" clip-rule="evenodd"></path>
</svg>