<svg width="48" height="48" fill="#2d0b0b" viewBox="0 0 24 24" xmlns="http://www.w3.org/2000/svg">
<path fill-rule="evenodd" d="M6 5a1 1 0 0 1 1-1h5a5 5 0 0 1 0 10h-.586l4.293 4.293a1 1 0 0 1-1.414 1.414l-6-6A1 1 0 0 1 9 12h3a3 3 0 1 0 0-6H7a1 1 0 0 1-1-1Z" clip-rule="evenodd"></path>
<path fill-rule="evenodd" d="M5 5a1 1 0 0 1 1-1h12a1 1 0 1 1 0 2H6a1 1 0 0 1-1-1Z" clip-rule="evenodd"></path>
<path fill-rule="evenodd" d="M7 9a1 1 0 0 1 1-1h10a1 1 0 1 1 0 2H8a1 1 0 0 1-1-1Z" clip-rule="evenodd"></path>
</svg>