<svg width="48" height="48" fill="#2d0b0b" viewBox="0 0 24 24" xmlns="http://www.w3.org/2000/svg">
<path fill-rule="evenodd" d="M6 12a3 3 0 0 1 3-3h6a3 3 0 0 1 3 3v6a3 3 0 0 1-3 3H9a3 3 0 0 1-3-3v-6Zm3-1a1 1 0 0 0-1 1v6a1 1 0 0 0 1 1h6a1 1 0 0 0 1-1v-6a1 1 0 0 0-1-1H9Z" clip-rule="evenodd"></path>
<path fill-rule="evenodd" d="M12 12a1 1 0 0 1 1 1v1h1a1 1 0 1 1 0 2h-1v1a1 1 0 1 1-2 0v-1h-1a1 1 0 1 1 0-2h1v-1a1 1 0 0 1 1-1Z" clip-rule="evenodd"></path>
<path fill-rule="evenodd" d="M9 7a1 1 0 0 1 1-1h4a1 1 0 0 1 1 1v3a1 1 0 0 1-1 1h-4a1 1 0 0 1-1-1V7Zm2 1v1h2V8h-2Z" clip-rule="evenodd"></path>
<path fill-rule="evenodd" d="M12 3a1 1 0 0 1 1 1v3a1 1 0 1 1-2 0V4a1 1 0 0 1 1-1Z" clip-rule="evenodd"></path>
<path fill-rule="evenodd" d="M9 4a1 1 0 0 1 1-1h4.172a3 3 0 0 1 2.12.879l1.415 1.414a1 1 0 0 1-1.414 1.414l-1.414-1.414A1 1 0 0 0 14.172 5H10a1 1 0 0 1-1-1Z" clip-rule="evenodd"></path>
</svg>