<svg width="48" height="48" fill="#2d0b0b" viewBox="0 0 24 24" xmlns="http://www.w3.org/2000/svg">
<path d="M14.475 11.424a1.5 1.5 0 0 0-2.122-2.121l1.061 1.06 1.06 1.061Z"></path>
<path fill-rule="evenodd" d="M14.3 3.044a1 1 0 0 1 1.241-.677 9 9 0 0 1 6.11 6.153 1 1 0 0 1-1.922.551 7 7 0 0 0-4.753-4.785 1 1 0 0 1-.677-1.242Zm-6.948 2.25a1 1 0 0 1 1.414 0l9.941 9.941a1 1 0 0 1 0 1.414 8.03 8.03 0 0 1-10.4.816l-1.534 2.536H10a1 1 0 0 1 0 2H5a1 1 0 0 1-.856-1.518l2.675-4.422a8.03 8.03 0 0 1 .533-10.767Zm.766 2.18a6.03 6.03 0 0 0 8.409 8.409l-8.41-8.409Zm5.985-1.451a1 1 0 0 1 1.318-.512 6 6 0 0 1 3.102 3.146 1 1 0 1 1-1.841.781 4 4 0 0 0-2.068-2.097 1 1 0 0 1-.511-1.318Z" clip-rule="evenodd"></path>
</svg>