<svg width="48" height="48" fill="#2d0b0b" viewBox="0 0 24 24" xmlns="http://www.w3.org/2000/svg">
<path fill-rule="evenodd" d="M6.5 5a1.5 1.5 0 1 0 0 3 1.5 1.5 0 0 0 0-3ZM3 6.5a3.5 3.5 0 1 1 7 0 3.5 3.5 0 0 1-7 0Z" clip-rule="evenodd"></path>
<path fill-rule="evenodd" d="M6.5 16a1.5 1.5 0 1 0 0 3 1.5 1.5 0 0 0 0-3ZM3 17.5a3.5 3.5 0 1 1 7 0 3.5 3.5 0 0 1-7 0Z" clip-rule="evenodd"></path>
<path fill-rule="evenodd" d="M20.849 5.738a1 1 0 0 1-.32 1.378l-14 8.733a1 1 0 0 1-1.058-1.697l14-8.733a1 1 0 0 1 1.378.32Z" clip-rule="evenodd"></path>
<path fill-rule="evenodd" d="M12.698 12 6.53 8.152a1 1 0 1 0-1.058 1.697l5.338 3.33 1.89-1.18Zm1.89 1.178-1.89 1.179 6.773 4.224a1 1 0 0 0 1.058-1.697l-5.94-3.706Z" clip-rule="evenodd"></path>
</svg>