<svg width="48" height="48" fill="#2d0b0b" viewBox="0 0 24 24" xmlns="http://www.w3.org/2000/svg">
<path fill-rule="evenodd" d="M12 8a4 4 0 1 0 0 8 4 4 0 0 0 0-8Zm-2 4a2 2 0 1 1 4 0 2 2 0 0 1-4 0Z" clip-rule="evenodd"></path>
<path fill-rule="evenodd" d="M9 4a2 2 0 0 1 2-2h2a2 2 0 0 1 2 2v1.633a.215.215 0 0 0 .094.087c.277.136.544.29.799.461a.22.22 0 0 0 .1.039h.02l1.415-.818a2 2 0 0 1 2.732.732l1 1.732a2 2 0 0 1-.732 2.732l-1.415.817a.065.065 0 0 0-.01.017.22.22 0 0 0-.018.107 7.133 7.133 0 0 1 0 .922.22.22 0 0 0 .017.107l.01.017 1.416.817a2 2 0 0 1 .732 2.732l-1 1.732a2 2 0 0 1-2.732.732l-1.415-.817c-.003 0-.009-.002-.02 0a.22.22 0 0 0-.1.038c-.255.17-.522.325-.8.462a.223.223 0 0 0-.084.069.066.066 0 0 0-.009.017V20a2 2 0 0 1-2 2h-2a2 2 0 0 1-2-2v-1.633a.066.066 0 0 0-.01-.017.223.223 0 0 0-.084-.07 7.006 7.006 0 0 1-.799-.461.22.22 0 0 0-.1-.039h-.02l-1.415.818a2 2 0 0 1-2.732-.732l-1-1.732a2 2 0 0 1 .732-2.732l1.415-.817a.066.066 0 0 0 .01-.017.22.22 0 0 0 .018-.107 7.09 7.09 0 0 1 0-.922.22.22 0 0 0-.017-.107.064.064 0 0 0-.01-.017l-1.416-.817a2 2 0 0 1-.732-2.732l1-1.732a2 2 0 0 1 2.732-.732l1.415.817c.003 0 .009.002.02 0a.22.22 0 0 0 .1-.038c.255-.17.522-.325.8-.462a.222.222 0 0 0 .084-.069A.067.067 0 0 0 9 5.633V4Zm0 1.632v.001Zm-1.014.587h.001Zm0 11.562h.001ZM9 18.37v-.002Zm6 0v-.002Zm1.014-12.15h-.001ZM15 5.632v.001ZM11 4v1.634c0 .869-.549 1.553-1.209 1.879a4.995 4.995 0 0 0-.57.33c-.612.41-1.48.543-2.233.109l-1.416-.818-1 1.732 1.416.818c.752.434 1.07 1.25 1.023 1.985a5.095 5.095 0 0 0 0 .662c.048.735-.271 1.551-1.023 1.985l-1.416.818 1 1.732 1.416-.818c.753-.434 1.62-.301 2.233.11.182.121.372.232.57.33.66.325 1.209 1.009 1.209 1.878V20h2v-1.634c0-.869.549-1.553 1.209-1.879.197-.097.388-.208.57-.33.612-.41 1.48-.543 2.233-.109l1.416.818 1-1.732-1.416-.818c-.752-.434-1.07-1.25-1.023-1.985a5.046 5.046 0 0 0 0-.662c-.048-.735.271-1.551 1.023-1.985l1.416-.818-1-1.732-1.416.818c-.753.434-1.62.301-2.233-.11a5.005 5.005 0 0 0-.57-.33C13.549 7.188 13 6.504 13 5.635V4h-2Z" clip-rule="evenodd"></path>
</svg>