<svg width="48" height="48" fill="#2d0b0b" viewBox="0 0 24 24" xmlns="http://www.w3.org/2000/svg">
<path fill-rule="evenodd" d="M12 8a4 4 0 1 0 0 8 4 4 0 0 0 0-8Zm-2 4a2 2 0 1 1 4 0 2 2 0 0 1-4 0Z" clip-rule="evenodd"></path>
<path fill-rule="evenodd" d="M15.124 4.633A8.198 8.198 0 0 0 15 4.582V4a2 2 0 0 0-2-2h-2a2 2 0 0 0-2 2v.582a7.994 7.994 0 0 0-.124.051l-.412-.411a2 2 0 0 0-2.828 0L4.222 5.636a2 2 0 0 0 0 2.828l.411.412A7.851 7.851 0 0 0 4.582 9H4a2 2 0 0 0-2 2v2a2 2 0 0 0 2 2h.582l.051.124-.411.412a2 2 0 0 0 0 2.828l1.414 1.414a2 2 0 0 0 2.828 0l.412-.411.124.051V20a2 2 0 0 0 2 2h2a2 2 0 0 0 2-2v-.582l.124-.051.412.411a2 2 0 0 0 2.828 0l1.414-1.414a2 2 0 0 0 0-2.828l-.411-.412.051-.124H20a2 2 0 0 0 2-2v-2a2 2 0 0 0-2-2h-.582a7.671 7.671 0 0 0-.051-.124l.411-.412a2 2 0 0 0 0-2.828l-1.414-1.414a2 2 0 0 0-2.829 0l-.41.411Zm-1.41 1.615A1 1 0 0 1 13 5.29V4h-2v1.29a1 1 0 0 1-.715.958 5.97 5.97 0 0 0-1.139.473 1 1 0 0 1-1.183-.173l-.913-.912L5.636 7.05l.912.913a1 1 0 0 1 .173 1.183c-.195.36-.354.74-.473 1.14A1 1 0 0 1 5.29 11H4v2h1.29a1 1 0 0 1 .958.715c.119.398.278.78.473 1.139a1 1 0 0 1-.173 1.183l-.912.913 1.414 1.414.913-.913a1 1 0 0 1 1.183-.172c.36.195.74.354 1.14.473a1 1 0 0 1 .714.958V20h2v-1.29a1 1 0 0 1 .715-.958 5.97 5.97 0 0 0 1.139-.473 1 1 0 0 1 1.183.172l.913.913 1.414-1.414-.913-.913a1 1 0 0 1-.172-1.183c.195-.36.354-.74.473-1.14A1 1 0 0 1 18.71 13H20v-2h-1.29a1 1 0 0 1-.958-.715 5.958 5.958 0 0 0-.473-1.139 1 1 0 0 1 .172-1.183l.913-.913-1.414-1.414-.913.912a1 1 0 0 1-1.183.173 5.96 5.96 0 0 0-1.14-.473Z" clip-rule="evenodd"></path>
</svg>