<svg width="48" height="48" fill="#2d0b0b" viewBox="0 0 24 24" xmlns="http://www.w3.org/2000/svg">
<path fill-rule="evenodd" d="M2.293 2.293a1 1 0 0 1 1.414 0l16 16a1 1 0 0 1-1.414 1.414l-16-16a1 1 0 0 1 0-1.414Z" clip-rule="evenodd"></path>
<path fill-rule="evenodd" d="M5.07 3.983A2 2 0 0 0 4 5.753v5.1a11 11 0 0 0 4.606 8.95l2.232 1.595a2 2 0 0 0 2.325 0l2.23-1.594a10.991 10.991 0 0 0 2.715-2.783l-1.446-1.446a8.994 8.994 0 0 1-2.43 2.602L12 19.77l-2.231-1.593A9 9 0 0 1 6 10.853v-5.1l.653-.186L5.07 3.983Zm12.487 9.659a9 9 0 0 0 .443-2.79V5.754L12 4.04l-3.147.9-1.618-1.62 4.216-1.204a2 2 0 0 1 1.098 0l6 1.714A2 2 0 0 1 20 5.753v5.1c0 1.513-.311 2.987-.892 4.34l-1.551-1.551Z" clip-rule="evenodd"></path>
</svg>