<svg width="48" height="48" fill="#2d0b0b" viewBox="0 0 24 24" xmlns="http://www.w3.org/2000/svg">
<path fill-rule="evenodd" d="M9.45 2.116a2 2 0 0 1 1.1 0l6 1.714A2 2 0 0 1 18 5.753V7.5a1 1 0 1 1-2 0V5.753L10 4.04 4 5.753v5.1a9 9 0 0 0 3.769 7.324l2.812 2.008a1 1 0 1 1-1.162 1.628l-2.813-2.01A11 11 0 0 1 2 10.854v-5.1A2 2 0 0 1 3.45 3.83l6-1.714ZM14 12.999a3 3 0 0 1 6 0v1.17c1.165.413 2 1.524 2 2.83v2a3 3 0 0 1-3 3h-4a3 3 0 0 1-3-3v-2c0-1.306.835-2.417 2-2.83V13Zm2 1h2v-1a1 1 0 0 0-2 0v1Zm-1 2a1 1 0 0 0-1 1v2a1 1 0 0 0 1 1h4a1 1 0 0 0 1-1v-2a1 1 0 0 0-1-1h-4Z" clip-rule="evenodd"></path>
</svg>