<svg width="48" height="48" fill="#2d0b0b" viewBox="0 0 24 24" xmlns="http://www.w3.org/2000/svg">
<path fill-rule="evenodd" d="M4 7a1 1 0 0 1 1-1h14a1 1 0 0 1 1 1v10a4 4 0 0 1-4 4H8a4 4 0 0 1-4-4V7Zm2 1v9a2 2 0 0 0 2 2h8a2 2 0 0 0 2-2V8H6Z" clip-rule="evenodd"></path>
<path fill-rule="evenodd" d="M16 11a4 4 0 0 1-8 0v-1a1 1 0 1 1 2 0v1a2 2 0 1 0 4 0v-1a1 1 0 1 1 2 0v1Z" clip-rule="evenodd"></path>
<path fill-rule="evenodd" d="M6.168 3.445A1 1 0 0 1 7 3h10a1 1 0 0 1 .832.445l2 3A1 1 0 0 1 19 8H5a1 1 0 0 1-.832-1.555l2-3ZM7.535 5 6.87 6h10.26l-.666-1h-8.93Z" clip-rule="evenodd"></path>
</svg>