<svg width="48" height="48" fill="#2d0b0b" viewBox="0 0 24 24" xmlns="http://www.w3.org/2000/svg">
<path fill-rule="evenodd" d="M2 3a1 1 0 0 1 1-1h1.371A3 3 0 0 1 7.31 4.392l2.34 11.31a1 1 0 0 0 .98.798h6.87a1 1 0 1 1 0 2h-6.871a3 3 0 0 1-2.938-2.392L5.35 4.798A1 1 0 0 0 4.37 4H3a1 1 0 0 1-1-1Z" clip-rule="evenodd"></path>
<path fill-rule="evenodd" d="M5.824 7a1 1 0 0 1 1-1h12.85a2 2 0 0 1 1.923 2.55l-1.014 3.549A4 4 0 0 1 16.737 15h-8.46a1 1 0 1 1 0-2h8.46a2 2 0 0 0 1.923-1.45L19.674 8H6.824a1 1 0 0 1-1-1Z" clip-rule="evenodd"></path>
<path d="M17 20.5a.5.5 0 1 1-1 0 .5.5 0 0 1 1 0Z"></path>
<path fill-rule="evenodd" d="M16.5 21a.5.5 0 1 0 0-1 .5.5 0 0 0 0 1Zm-1.5-.5a1.5 1.5 0 1 1 3 0 1.5 1.5 0 0 1-3 0Z" clip-rule="evenodd"></path>
<path d="M11 20.5a.5.5 0 1 0-1 0 .5.5 0 0 0 1 0Z"></path>
<path fill-rule="evenodd" d="M10.5 20a.5.5 0 1 1 0 1 .5.5 0 0 1 0-1Zm-1.5.5a1.5 1.5 0 1 0 3 0 1.5 1.5 0 0 0-3 0Z" clip-rule="evenodd"></path>
</svg>