<svg width="48" height="48" fill="#2d0b0b" viewBox="0 0 24 24" xmlns="http://www.w3.org/2000/svg">
<path fill-rule="evenodd" d="M2 8a2 2 0 0 1 2-2h10a2 2 0 0 1 2 2v2.5a1 1 0 1 1-2 0V8H4v11a1 1 0 0 0 1 1h10a1 1 0 1 1 0 2H5a3 3 0 0 1-3-3V8Z" clip-rule="evenodd"></path>
<path fill-rule="evenodd" d="M8 12a2 2 0 0 1 2-2h10a2 2 0 0 1 2 2v7a3 3 0 0 1-3 3h-8a3 3 0 0 1-3-3v-7Zm12 0H10v7a1 1 0 0 0 1 1h8a1 1 0 0 0 1-1v-7Z" clip-rule="evenodd"></path>
<path fill-rule="evenodd" d="M5 6a4 4 0 1 1 8 0v1a1 1 0 1 1-2 0V6a2 2 0 1 0-4 0v1a1 1 0 0 1-2 0V6Z" clip-rule="evenodd"></path>
<path fill-rule="evenodd" d="M18 15a3 3 0 1 1-6 0v-1a1 1 0 1 1 2 0v1a1 1 0 1 0 2 0v-1a1 1 0 1 1 2 0v1Z" clip-rule="evenodd"></path>
</svg>