<svg width="48" height="48" fill="#2d0b0b" viewBox="0 0 24 24" xmlns="http://www.w3.org/2000/svg">
<path fill-rule="evenodd" d="M16.793 4.793a1 1 0 0 1 1.414 0l2.5 2.5a1 1 0 0 1 0 1.414l-2.5 2.5a1 1 0 0 1-1.414-1.414L17.586 9H14a1 1 0 1 1 0-2h3.586l-.793-.793a1 1 0 0 1 0-1.414ZM3 8a1 1 0 0 1 1-1h2.891a3 3 0 0 1 2.544 1.41l3.825 6.12a1 1 0 0 0 .848.47h3.478l-.793-.793a1 1 0 0 1 1.414-1.414l2.5 2.5a1 1 0 0 1 0 1.414l-2.5 2.5a1 1 0 0 1-1.414-1.414l.793-.793h-3.477a3 3 0 0 1-2.544-1.41L7.74 9.47A1 1 0 0 0 6.89 9H4a1 1 0 0 1-1-1Zm0 8a1 1 0 0 1 1-1h4a1 1 0 1 1 0 2H4a1 1 0 0 1-1-1Z" clip-rule="evenodd"></path>
</svg>