<svg width="48" height="48" fill="#2d0b0b" viewBox="0 0 24 24" xmlns="http://www.w3.org/2000/svg">
<path fill-rule="evenodd" d="M3 8a1 1 0 0 1 1-1h1V4a1 1 0 0 1 2 0v3h1a1 1 0 1 1 0 2H4a1 1 0 0 1-1-1Zm3 13a1 1 0 0 1-1-1h2a1 1 0 0 1-1 1Zm0-1h1v-9a1 1 0 1 0-2 0v8.999L6 20Z" clip-rule="evenodd"></path>
<path fill-rule="evenodd" d="M15 11a1 1 0 0 1 1-1h1V4a1 1 0 1 1 2 0v6h1a1 1 0 1 1 0 2h-4a1 1 0 0 1-1-1Zm3 10a1 1 0 0 1-1-1h2a1 1 0 0 1-1 1Zm0-1h1v-6a1 1 0 1 0-2 0v6h1Z" clip-rule="evenodd"></path>
<path fill-rule="evenodd" d="M15 16a1 1 0 0 1-1 1h-1v3a1 1 0 1 1-2 0v-3h-1a1 1 0 1 1 0-2h4a1 1 0 0 1 1 1ZM12 3a1 1 0 0 1 1 1h-2a1 1 0 0 1 1-1Zm0 1h-1v9a1 1 0 1 0 2 0V4.001L12 4Z" clip-rule="evenodd"></path>
</svg>