<svg width="48" height="48" fill="#2d0b0b" viewBox="0 0 24 24" xmlns="http://www.w3.org/2000/svg">
<path fill-rule="evenodd" d="M16 3a1 1 0 0 1 1 1v1h3a1 1 0 1 1 0 2h-3v1a1 1 0 1 1-2 0V4a1 1 0 0 1 1-1ZM3 6a1 1 0 0 1 1-1v2a1 1 0 0 1-1-1Zm1 0v1h9a1 1 0 1 0 0-2H4.001L4 6Z" clip-rule="evenodd"></path>
<path fill-rule="evenodd" d="M13 15a1 1 0 0 1 1 1v1h6a1 1 0 1 1 0 2h-6v1a1 1 0 1 1-2 0v-4a1 1 0 0 1 1-1ZM3 18a1 1 0 0 1 1-1v2a1 1 0 0 1-1-1Zm1 0v1h6a1 1 0 1 0 0-2H4v1Z" clip-rule="evenodd"></path>
<path fill-rule="evenodd" d="M8 15a1 1 0 0 1-1-1v-1H4a1 1 0 1 1 0-2h3v-1a1 1 0 1 1 2 0v4a1 1 0 0 1-1 1Zm13-3a1 1 0 0 1-1 1v-2a1 1 0 0 1 1 1Zm-1 0v-1h-9a1 1 0 1 0 0 2h8.999L20 12Z" clip-rule="evenodd"></path>
</svg>