<svg width="48" height="48" fill="#2d0b0b" viewBox="0 0 24 24" xmlns="http://www.w3.org/2000/svg">
<path fill-rule="evenodd" d="M21.022 7.955a1 1 0 0 1-.2 1.4L16.4 12.67a4 4 0 0 1-4.8 0L7.177 9.355a1 1 0 1 1 1.2-1.6L12.8 11.07a2 2 0 0 0 2.4 0l4.422-3.316a1 1 0 0 1 1.4.2Z" clip-rule="evenodd"></path>
<path fill-rule="evenodd" d="M6 9a3 3 0 0 1 3-3h10a3 3 0 0 1 3 3v6.889a3 3 0 0 1-3 3h-8a1 1 0 1 1 0-2h8a1 1 0 0 0 1-1V9a1 1 0 0 0-1-1H9a1 1 0 0 0-1 1v.5a1 1 0 1 1-2 0V9Z" clip-rule="evenodd"></path>
<path fill-rule="evenodd" d="M5 13a1 1 0 0 1 1-1h2a1 1 0 1 1 0 2H6a1 1 0 0 1-1-1Z" clip-rule="evenodd"></path>
<path fill-rule="evenodd" d="M2 16a1 1 0 0 1 1-1h5a1 1 0 1 1 0 2H3a1 1 0 0 1-1-1Z" clip-rule="evenodd"></path>
</svg>