<svg width="48" height="48" fill="#2d0b0b" viewBox="0 0 24 24" xmlns="http://www.w3.org/2000/svg">
<path fill-rule="evenodd" d="M7.18 3h9.64c.535 0 .998 0 1.378.032.402.033.802.107 1.185.306a3 3 0 0 1 1.28 1.28c.198.382.272.782.305 1.184.032.38.032.843.032 1.379v9.638c0 .536 0 .999-.032 1.38-.033.401-.107.8-.306 1.184a2.999 2.999 0 0 1-1.28 1.28c-.382.198-.782.272-1.184.305-.38.032-.843.032-1.379.032H7.181c-.536 0-.999 0-1.38-.032-.401-.033-.8-.107-1.184-.306a3 3 0 0 1-1.28-1.28c-.198-.382-.272-.782-.305-1.184C3 17.818 3 17.355 3 16.82V7.181c0-.536 0-.999.032-1.38.033-.401.107-.8.306-1.184a3 3 0 0 1 1.28-1.28C5 3.14 5.4 3.066 5.801 3.033 6.182 3 6.645 3 7.18 3ZM5.968 5.025c-.276.023-.378.062-.428.088a1 1 0 0 0-.426.426c-.026.05-.065.152-.088.428C5 6.255 5 6.634 5 7.22v9.56c0 .586 0 .965.025 1.253.023.276.062.378.088.428a1 1 0 0 0 .426.426c.05.026.152.065.428.088.288.024.667.025 1.253.025h9.56c.586 0 .965 0 1.253-.025.276-.023.378-.062.428-.088a1 1 0 0 0 .426-.426c.026-.05.065-.152.088-.428.024-.288.025-.667.025-1.253V7.22c0-.586 0-.965-.025-1.253-.023-.276-.062-.378-.088-.428a1 1 0 0 0-.426-.426c-.05-.026-.152-.065-.428-.088C17.745 5 17.366 5 16.78 5H7.22c-.586 0-.965 0-1.253.025Z" clip-rule="evenodd"></path>
<path fill-rule="evenodd" d="M7 12a1 1 0 0 1 1-1h5.586l-1.293-1.293a1 1 0 0 1 1.414-1.414l3 3a1 1 0 0 1 0 1.414l-3 3a1 1 0 0 1-1.414-1.414L13.586 13H8a1 1 0 0 1-1-1Z" clip-rule="evenodd"></path>
</svg>