<svg width="48" height="48" fill="#2d0b0b" viewBox="0 0 24 24" xmlns="http://www.w3.org/2000/svg">
<path fill-rule="evenodd" d="M10.098 4.618c.599-1.842 3.205-1.842 3.804 0l1.294 3.983h4.188c1.938 0 2.743 2.48 1.176 3.618l-3.388 2.462 1.294 3.982c.598 1.843-1.51 3.375-3.078 2.236L12 18.438 8.612 20.9c-1.567 1.138-3.676-.394-3.078-2.237l1.295-3.982-3.388-2.462c-1.568-1.139-.762-3.618 1.175-3.618h4.188l1.294-3.983ZM12 5.236 10.706 9.22a2 2 0 0 1-1.902 1.382H4.616l3.388 2.462a2 2 0 0 1 .727 2.236l-1.294 3.98 3.388-2.461a2 2 0 0 1 2.35 0l3.389 2.461-1.294-3.98a2 2 0 0 1 .726-2.236l3.388-2.462h-4.188a2 2 0 0 1-1.902-1.382L12 5.236Z" clip-rule="evenodd"></path>
</svg>