<svg width="48" height="48" fill="#2d0b0b" viewBox="0 0 24 24" xmlns="http://www.w3.org/2000/svg">
<path fill-rule="evenodd" d="M2 5a2 2 0 0 1 2-2h1a1 1 0 0 1 0 2H4v4a4 4 0 0 0 8 0V5h-1a1 1 0 1 1 0-2h1a2 2 0 0 1 2 2v4A6 6 0 0 1 2 9V5Z" clip-rule="evenodd"></path>
<path fill-rule="evenodd" d="M8 13a1 1 0 0 1 1 1v1.5a4.5 4.5 0 1 0 9 0V14a1 1 0 1 1 2 0v1.5a6.5 6.5 0 1 1-13 0V14a1 1 0 0 1 1-1Z" clip-rule="evenodd"></path>
<path fill-rule="evenodd" d="M10 2a1 1 0 0 1 1 1v2a1 1 0 1 1-2 0V3a1 1 0 0 1 1-1Z" clip-rule="evenodd"></path>
<path fill-rule="evenodd" d="M6 2a1 1 0 0 1 1 1v2a1 1 0 0 1-2 0V3a1 1 0 0 1 1-1Z" clip-rule="evenodd"></path>
<path fill-rule="evenodd" d="M19 11a1 1 0 1 0 0 2 1 1 0 0 0 0-2Zm-3 1a3 3 0 1 1 6 0 3 3 0 0 1-6 0Z" clip-rule="evenodd"></path>
</svg>