<svg width="48" height="48" fill="#2d0b0b" viewBox="0 0 24 24" xmlns="http://www.w3.org/2000/svg">
<path fill-rule="evenodd" d="M3.293 3.293a1 1 0 0 1 1.414 0l17 17a1 1 0 0 1-1.414 1.414l-17-17a1 1 0 0 1 0-1.414Z" clip-rule="evenodd"></path>
<path fill-rule="evenodd" d="M8 6.914V7H6a3 3 0 0 0-3 3v7a3 3 0 0 0 3 3h12c.85 0 1.618-.354 2.164-.922l-1.415-1.415A.997.997 0 0 1 18 18H6a1 1 0 0 1-1-1v-7a1 1 0 0 1 1-1h4.086L8 6.914Zm11 8.172V10a1 1 0 0 0-1-1h-5.086l-2-2H14V6a1 1 0 0 0-1-1h-2a1 1 0 0 0-1 1v.086L8.406 4.492A2.999 2.999 0 0 1 11 3h2a3 3 0 0 1 3 3v1h2a3 3 0 0 1 3 3v7l-.001.085-1.999-2Z" clip-rule="evenodd"></path>
</svg>