<svg width="48" height="48" fill="#2d0b0b" viewBox="0 0 24 24" xmlns="http://www.w3.org/2000/svg">
<path fill-rule="evenodd" d="M2 10a3 3 0 0 1 3-3h14a3 3 0 0 1 3 3v2a2 2 0 0 1-2 2H4a2 2 0 0 1-2-2v-2Zm3-1a1 1 0 0 0-1 1v2h16v-2a1 1 0 0 0-1-1H5Z" clip-rule="evenodd"></path>
<path fill-rule="evenodd" d="M8 6a3 3 0 0 1 3-3h2a3 3 0 0 1 3 3v2a1 1 0 0 1-1 1H9a1 1 0 0 1-1-1V6Zm3-1a1 1 0 0 0-1 1v1h4V6a1 1 0 0 0-1-1h-2Z" clip-rule="evenodd"></path>
<path fill-rule="evenodd" d="M3 13a1 1 0 0 1 1-1h16a1 1 0 0 1 1 1v5a3 3 0 0 1-3 3H6a3 3 0 0 1-3-3v-5Zm2 1v4a1 1 0 0 0 1 1h12a1 1 0 0 0 1-1v-4H5Z" clip-rule="evenodd"></path>
<path fill-rule="evenodd" d="M12 11a1 1 0 0 1 1 1v2a1 1 0 1 1-2 0v-2a1 1 0 0 1 1-1Z" clip-rule="evenodd"></path>
</svg>