<svg width="48" height="48" fill="#2d0b0b" viewBox="0 0 24 24" xmlns="http://www.w3.org/2000/svg">
<path fill-rule="evenodd" d="M5.68 7.094A7.965 7.965 0 0 0 4 12c0 1.849.627 3.551 1.68 4.906l2.149-2.149A4.98 4.98 0 0 1 7 12a4.98 4.98 0 0 1 .829-2.757L5.68 7.094ZM7.094 5.68l2.149 2.15A4.98 4.98 0 0 1 12 7a4.98 4.98 0 0 1 2.757.829l2.149-2.149A7.965 7.965 0 0 0 12 4a7.965 7.965 0 0 0-4.906 1.68ZM18.32 7.094l-2.148 2.149A4.98 4.98 0 0 1 17 12a4.98 4.98 0 0 1-.828 2.757l2.148 2.149A7.965 7.965 0 0 0 20 12a7.966 7.966 0 0 0-1.68-4.906ZM16.906 18.32l-2.149-2.148A4.98 4.98 0 0 1 12 17a4.98 4.98 0 0 1-2.757-.828L7.094 18.32A7.966 7.966 0 0 0 12 20a7.965 7.965 0 0 0 4.906-1.68ZM2 12C2 6.477 6.477 2 12 2s10 4.477 10 10-4.477 10-10 10S2 17.523 2 12Zm10-3c-.829 0-1.577.335-2.121.879A2.988 2.988 0 0 0 9 12c0 .829.335 1.577.879 2.121A2.988 2.988 0 0 0 12 15c.829 0 1.577-.335 2.121-.879A2.987 2.987 0 0 0 15 12c0-.829-.335-1.577-.879-2.121A2.987 2.987 0 0 0 12 9Z" clip-rule="evenodd"></path>
</svg>