<svg width="48" height="48" fill="#2d0b0b" viewBox="0 0 24 24" xmlns="http://www.w3.org/2000/svg">
<path fill-rule="evenodd" d="M12.707 7.05a3 3 0 1 1 4.242 4.242l-7.07 7.07a1 1 0 0 1-1.415 0l-2.828-2.828a1 1 0 0 1 0-1.414l7.07-7.07Zm2.828 1.413a1 1 0 0 0-1.414 0l-6.364 6.364 1.414 1.414 6.364-6.364a1 1 0 0 0 0-1.414Z" clip-rule="evenodd"></path>
<path fill-rule="evenodd" d="M4.222 12.707a1 1 0 0 1 1.414 0l5.657 5.657a1 1 0 0 1-1.415 1.414l-5.656-5.657a1 1 0 0 1 0-1.414Z" clip-rule="evenodd"></path>
<path fill-rule="evenodd" d="M8.464 11.293a1 1 0 0 1 1.414 0l2.828 2.829a1 1 0 1 1-1.414 1.414l-2.828-2.829a1 1 0 0 1 0-1.414Z" clip-rule="evenodd"></path>
<path fill-rule="evenodd" d="M19.07 4.928a1 1 0 0 1 0 1.414l-2.12 2.121a1 1 0 1 1-1.414-1.414l2.121-2.121a1 1 0 0 1 1.414 0Z" clip-rule="evenodd"></path>
<path fill-rule="evenodd" d="M8.464 15.535a1 1 0 0 1 0 1.414l-2.122 2.122a1 1 0 0 1-1.414-1.415l2.122-2.12a1 1 0 0 1 1.414 0Z" clip-rule="evenodd"></path>
<path fill-rule="evenodd" d="M7.757 20.484a1 1 0 0 1-1.414 0l-2.829-2.828a1 1 0 1 1 1.414-1.414l2.829 2.828a1 1 0 0 1 0 1.414Z" clip-rule="evenodd"></path>
</svg>