<svg width="48" height="48" fill="#2d0b0b" viewBox="0 0 24 24" xmlns="http://www.w3.org/2000/svg">
<path fill-rule="evenodd" d="M2 5a3 3 0 0 1 3-3h6.172a3 3 0 0 1 2.12.879l7.294 7.293a4 4 0 0 1 0 5.656l-4.758 4.758a4 4 0 0 1-5.656 0l-7.293-7.293A3 3 0 0 1 2 11.172V5Zm3-1a1 1 0 0 0-1 1v6.172a1 1 0 0 0 .293.707l7.293 7.293a2 2 0 0 0 2.828 0l4.758-4.758a2 2 0 0 0 0-2.828l-7.293-7.293A1 1 0 0 0 11.172 4H5Z" clip-rule="evenodd"></path>
<path d="M9 7.5a1.5 1.5 0 1 1-3 0 1.5 1.5 0 0 1 3 0Z"></path>
</svg>