<svg width="48" height="48" fill="#2d0b0b" viewBox="0 0 24 24" xmlns="http://www.w3.org/2000/svg">
<path fill-rule="evenodd" d="M22 14a2 2 0 0 1-2 2h-3a1 1 0 0 1-1-1V3a1 1 0 0 1 1-1h3a2 2 0 0 1 2 2v10Zm-4 0h2V4h-2v10Z" clip-rule="evenodd"></path>
<path fill-rule="evenodd" d="M11 15a1 1 0 0 1-1 1H5.36a3 3 0 0 1-2.958-3.493l1.194-7.165A4 4 0 0 1 7.54 2h5.248a5 5 0 0 1 2.773.84l1.993 1.328A1 1 0 0 1 18 5v8a1 1 0 1 1-2 0V5.535l-1.547-1.031A3 3 0 0 0 12.789 4H7.54a2 2 0 0 0-1.97 1.671l-1.194 7.165A1 1 0 0 0 5.36 14H10a1 1 0 0 1 1 1Z" clip-rule="evenodd"></path>
<path fill-rule="evenodd" d="M13.595 20.046a2.807 2.807 0 0 1-5.263-1.806l.687-3.436a1 1 0 1 1 1.962.392l-.688 3.436a.807.807 0 0 0 1.513.52l3.3-6.6A1 1 0 0 1 16 12h1a1 1 0 1 1 0 2h-.382l-3.023 6.046Z" clip-rule="evenodd"></path>
</svg>