<svg width="48" height="48" fill="#2d0b0b" viewBox="0 0 24 24" xmlns="http://www.w3.org/2000/svg">
<path fill-rule="evenodd" d="M2 10a2 2 0 0 1 2-2h3a1 1 0 0 1 1 1v12a1 1 0 0 1-1 1H4a2 2 0 0 1-2-2V10Zm4 0H4v10h2V10Z" clip-rule="evenodd"></path>
<path fill-rule="evenodd" d="M13 9a1 1 0 0 1 1-1h4.64a3 3 0 0 1 2.958 3.493l-1.194 7.165A4 4 0 0 1 16.46 22h-5.25a5 5 0 0 1-2.773-.84l-1.993-1.328A1 1 0 0 1 6 19v-8a1 1 0 1 1 2 0v7.465l1.547 1.031a3 3 0 0 0 1.664.504h5.248a2 2 0 0 0 1.972-1.671l1.194-7.165A1 1 0 0 0 18.64 10H14a1 1 0 0 1-1-1Z" clip-rule="evenodd"></path>
<path fill-rule="evenodd" d="M10.405 3.954a2.807 2.807 0 0 1 5.263 1.806l-.687 3.436a1 1 0 0 1-1.962-.392l.688-3.436a.807.807 0 0 0-1.513-.52l-3.3 6.6A1 1 0 0 1 8 12H7a1 1 0 1 1 0-2h.382l3.023-6.046Z" clip-rule="evenodd"></path>
</svg>