<svg width="48" height="48" fill="#2d0b0b" viewBox="0 0 24 24" xmlns="http://www.w3.org/2000/svg">
<path fill-rule="evenodd" d="M3.293 3.293a1 1 0 0 1 1.414 0l17 17a1 1 0 0 1-1.414 1.414l-17-17a1 1 0 0 1 0-1.414Z" clip-rule="evenodd"></path>
<path fill-rule="evenodd" d="M7.192 6.606a8 8 0 1 0 11.203 11.203l-1.434-1.434a6 6 0 1 1-8.337-8.337L7.193 6.607Zm10.64 7.811a6 6 0 0 0-7.249-7.249L8.997 5.583A7.977 7.977 0 0 1 12 5c1.591 0 3.074.465 4.32 1.266l.973-.973a1 1 0 1 1 1.414 1.414l-.847.847A7.972 7.972 0 0 1 20 13a7.979 7.979 0 0 1-.583 3.003l-1.585-1.586ZM10 2a1 1 0 0 0 0 2h4a1 1 0 1 0 0-2h-4Z" clip-rule="evenodd"></path>
</svg>