<svg width="48" height="48" fill="#2d0b0b" viewBox="0 0 24 24" xmlns="http://www.w3.org/2000/svg">
<path fill-rule="evenodd" d="M18.5 21a1 1 0 0 1-1-1v-3.586l-.793.793a1 1 0 0 1-1.414-1.414l2.5-2.5a1 1 0 0 1 1.414 0l2.5 2.5a1 1 0 0 1-1.414 1.414l-.793-.793V20a1 1 0 0 1-1 1Z" clip-rule="evenodd"></path>
<path fill-rule="evenodd" d="M5 6a1 1 0 0 0-1 1v10a1 1 0 0 0 1 1h7a1 1 0 1 1 0 2H5a3 3 0 0 1-3-3V7a3 3 0 0 1 3-3h4.586A2 2 0 0 1 11 4.586L12.414 6H19a3 3 0 0 1 3 3v2a1 1 0 1 1-2 0V9a1 1 0 0 0-1-1h-7a1 1 0 0 1-.707-.293L9.586 6H5Z" clip-rule="evenodd"></path>
</svg>