<svg width="48" height="48" fill="#2d0b0b" viewBox="0 0 24 24" xmlns="http://www.w3.org/2000/svg">
<path fill-rule="evenodd" d="M12 20a1 1 0 0 1-1-1v-7.586l-.793.793a1 1 0 0 1-1.414-1.414l2.5-2.5a1 1 0 0 1 1.414 0l2.5 2.5a1 1 0 0 1-1.414 1.414L13 11.414V19a1 1 0 0 1-1 1Z" clip-rule="evenodd"></path>
<path fill-rule="evenodd" d="M6.322 7.057a6.002 6.002 0 0 1 11.356 0A4.001 4.001 0 0 1 17 15h-1a1 1 0 1 1 0-2h1a2 2 0 1 0-.067-3.999 1 1 0 0 1-1.013-.8 4.002 4.002 0 0 0-7.84 0 1 1 0 0 1-1.013.8A2 2 0 1 0 7 13h1a1 1 0 1 1 0 2H7a4 4 0 0 1-.678-7.943Z" clip-rule="evenodd"></path>
</svg>