<svg width="48" height="48" fill="#2d0b0b" viewBox="0 0 24 24" xmlns="http://www.w3.org/2000/svg">
<path fill-rule="evenodd" d="M7 4a1 1 0 0 0-1 1v14a1 1 0 0 0 1 1h.5a1 1 0 1 1 0 2H7a3 3 0 0 1-3-3V5a3 3 0 0 1 3-3h6.5a1 1 0 0 1 .715.3l5.5 5.626a1 1 0 0 1 .285.699V19a3 3 0 0 1-3 3h-.5a1 1 0 1 1 0-2h.5a1 1 0 0 0 1-1V9.625h-3.5a2 2 0 0 1-2-2V4H7Zm7.5 1.453 2.124 2.172H14.5V5.453Z" clip-rule="evenodd"></path>
<path fill-rule="evenodd" d="M12 22a1 1 0 0 1-1-1v-5.586l-.793.793a1 1 0 0 1-1.414-1.414l2.5-2.5a1 1 0 0 1 1.414 0l2.5 2.5a1 1 0 0 1-1.414 1.414L13 15.414V21a1 1 0 0 1-1 1Z" clip-rule="evenodd"></path>
</svg>