<svg width="48" height="48" fill="#2d0b0b" viewBox="0 0 24 24" xmlns="http://www.w3.org/2000/svg">
<path fill-rule="evenodd" d="M8 4a2 2 0 0 0-2 2v12a2 2 0 0 0 2 2h4a1 1 0 1 1 0 2H8a4 4 0 0 1-4-4V6a4 4 0 0 1 4-4h5.5a1 1 0 0 1 .715.3l5.5 5.626a1 1 0 0 1 .285.699v3.188a1 1 0 1 1-2 0V9.624h-3.5a2 2 0 0 1-2-2V4H8Zm6.5 1.453 2.124 2.172H14.5V5.453Z" clip-rule="evenodd"></path>
<path fill-rule="evenodd" d="M17.5 22a1 1 0 0 1-1-1v-3.586l-.793.793a1 1 0 0 1-1.414-1.414l2.5-2.5a1 1 0 0 1 1.414 0l2.5 2.5a1 1 0 0 1-1.414 1.414l-.793-.793V21a1 1 0 0 1-1 1Z" clip-rule="evenodd"></path>
</svg>