<svg width="48" height="48" fill="#2d0b0b" viewBox="0 0 24 24" xmlns="http://www.w3.org/2000/svg">
<path fill-rule="evenodd" d="M5.043 9.748a6.501 6.501 0 0 1 12.945.35A5.002 5.002 0 0 1 17 20a1 1 0 1 1 0-2 3 3 0 0 0 0-6h-.023a1 1 0 0 1-.995-1.09A4.5 4.5 0 1 0 7 10.5v.012a1 1 0 0 1-.801.982A3.287 3.287 0 0 0 6.857 18a1 1 0 1 1 0 2A5.286 5.286 0 0 1 5.043 9.748Z" clip-rule="evenodd"></path>
<path fill-rule="evenodd" d="M12 20a1 1 0 0 1-1-1v-2.586l-.293.293a1 1 0 0 1-1.414-1.414l2-2a1 1 0 0 1 1.414 0l2 2a1 1 0 0 1-1.414 1.414L13 16.414V19a1 1 0 0 1-1 1Z" clip-rule="evenodd"></path>
</svg>