<svg width="48" height="48" fill="#2d0b0b" viewBox="0 0 24 24" xmlns="http://www.w3.org/2000/svg">
<path fill-rule="evenodd" d="M12 4a8 8 0 0 0-5.497 13.812A5 5 0 0 1 11 15h2a5 5 0 0 1 4.497 2.812A8 8 0 0 0 12 4Zm3.837 15.022A3.002 3.002 0 0 0 13 17h-2a3.002 3.002 0 0 0-2.837 2.022A7.96 7.96 0 0 0 12 20a7.96 7.96 0 0 0 3.837-.978ZM2 12C2 6.477 6.477 2 12 2s10 4.477 10 10a9.992 9.992 0 0 1-4.477 8.338A9.958 9.958 0 0 1 12 22c-2.04 0-3.94-.612-5.523-1.662A9.992 9.992 0 0 1 2 12Zm10-4a2 2 0 1 0 0 4 2 2 0 0 0 0-4Zm-4 2a4 4 0 1 1 8 0 4 4 0 0 1-8 0Z" clip-rule="evenodd"></path>
</svg>