<svg width="48" height="48" fill="#2d0b0b" viewBox="0 0 24 24" xmlns="http://www.w3.org/2000/svg">
<path fill-rule="evenodd" d="M11 4a3 3 0 1 0 0 6 3 3 0 0 0 0-6ZM6 7a5 5 0 1 1 10 0A5 5 0 0 1 6 7Zm3 8a4 4 0 0 0-4 4v1a1 1 0 1 1-2 0v-1a6 6 0 0 1 6-6h3.75a1 1 0 1 1 0 2H9Zm11.293-.707a1 1 0 0 1 1.414 1.414L19.914 17.5l1.793 1.793a1 1 0 0 1-1.414 1.414L18.5 18.914l-1.793 1.793a1 1 0 0 1-1.414-1.414l1.793-1.793-1.793-1.793a1 1 0 0 1 1.414-1.414l1.793 1.793 1.793-1.793Z" clip-rule="evenodd"></path>
</svg>