<svg width="48" height="48" fill="#2d0b0b" viewBox="0 0 24 24" xmlns="http://www.w3.org/2000/svg">
<path fill-rule="evenodd" d="M3.293 3.293a1 1 0 0 1 1.414 0l16 16a1 1 0 0 1-1.414 1.414l-16-16a1 1 0 0 1 0-1.414Z" clip-rule="evenodd"></path>
<path fill-rule="evenodd" d="M7.286 6H6a3 3 0 0 0-3 3v6a3 3 0 0 0 3 3h7a3 3 0 0 0 2.999-2.92l1.752 1.401.07.054L14 12.715V15a1 1 0 0 1-1 1H6a1 1 0 0 1-1-1V9a1 1 0 0 1 1-1h3.286l-2-2ZM14 9.886V9a1 1 0 0 0-1-1h-.886l-2-2H13a3 3 0 0 1 2.999 2.92l1.752-1.401C19.06 6.47 21 7.404 21 9.08v5.838c0 .568-.222 1.05-.567 1.4L19 14.886V9.08l-3 2.4v.405l-2-2Z" clip-rule="evenodd"></path>
</svg>