<svg width="48" height="48" fill="#2d0b0b" viewBox="0 0 24 24" xmlns="http://www.w3.org/2000/svg">
<path fill-rule="evenodd" d="M2 6a4 4 0 0 1 4-4h8a4 4 0 0 1 4 4v8a4 4 0 0 1-4 4H6a4 4 0 0 1-4-4V6Zm4-2a2 2 0 0 0-2 2v8a2 2 0 0 0 2 2h8a2 2 0 0 0 2-2V6a2 2 0 0 0-2-2H6Z" clip-rule="evenodd"></path>
<path fill-rule="evenodd" d="M21 6a1 1 0 0 1 1 1v11a4 4 0 0 1-4 4H7a1 1 0 1 1 0-2h11a2 2 0 0 0 2-2V7a1 1 0 0 1 1-1Z" clip-rule="evenodd"></path>
<path d="M9 12V8l3.143 2L9 12Z"></path>
<path fill-rule="evenodd" d="M8.519 7.123a1 1 0 0 1 1.018.033l3.143 2a1 1 0 0 1 0 1.688l-3.143 2A1 1 0 0 1 8 12V8a1 1 0 0 1 .519-.877ZM10 9.822v.356l.28-.178-.28-.178Z" clip-rule="evenodd"></path>
</svg>