<svg width="48" height="48" fill="#2d0b0b" viewBox="0 0 24 24" xmlns="http://www.w3.org/2000/svg">
<path fill-rule="evenodd" d="M6 8a1 1 0 0 0-1 1v6a1 1 0 0 0 1 1h7a1 1 0 0 0 1-1V9a1 1 0 0 0-1-1H6ZM3 9a3 3 0 0 1 3-3h7a3 3 0 0 1 3 3v6a3 3 0 0 1-3 3H6a3 3 0 0 1-3-3V9Z" clip-rule="evenodd"></path>
<path fill-rule="evenodd" d="M17.75 7.52C19.06 6.471 21 7.403 21 9.08v5.84c0 1.677-1.94 2.609-3.25 1.561l-3-2.4A2 2 0 0 1 14 12.52v-1.04a2 2 0 0 1 .75-1.56l3-2.4ZM19 9.08l-3 2.4v1.04l3 2.4V9.08Z" clip-rule="evenodd"></path>
</svg>