<svg width="48" height="48" fill="#2d0b0b" viewBox="0 0 24 24" xmlns="http://www.w3.org/2000/svg">
<path fill-rule="evenodd" d="M11.75 5.518C13.06 4.471 15 5.403 15 7.08v9.839c0 1.677-1.94 2.609-3.25 1.561L8.65 16H6a2 2 0 0 1-2-2v-4a2 2 0 0 1 2-2h2.65l3.1-2.482ZM13 7.08 9.899 9.56a2 2 0 0 1-1.25.438H6v4h2.65a2 2 0 0 1 1.249.439L13 16.918V7.08Z" clip-rule="evenodd"></path>
<path fill-rule="evenodd" d="M18.879 8.508a6 6 0 0 1-.283 7.35 1 1 0 0 1-1.532-1.286 4 4 0 0 0 .188-4.9 1 1 0 1 1 1.627-1.164Z" clip-rule="evenodd"></path>
</svg>