<svg width="48" height="48" fill="#2d0b0b" viewBox="0 0 24 24" xmlns="http://www.w3.org/2000/svg">
<path fill-rule="evenodd" d="M9.75 5.518C11.06 4.471 13 5.403 13 7.08v9.839c0 1.677-1.94 2.609-3.25 1.561L6.65 16H4a2 2 0 0 1-2-2v-4a2 2 0 0 1 2-2h2.65l3.1-2.482ZM11 7.08 7.899 9.56a2 2 0 0 1-1.25.438H4v4h2.65a2 2 0 0 1 1.249.439L11 16.918V7.08Z" clip-rule="evenodd"></path>
<path fill-rule="evenodd" d="M18.5 8.5a1 1 0 0 1 1 1V11H21a1 1 0 1 1 0 2h-1.5v1.5a1 1 0 1 1-2 0V13H16a1 1 0 1 1 0-2h1.5V9.5a1 1 0 0 1 1-1Z" clip-rule="evenodd"></path>
</svg>