<svg width="48" height="48" fill="#2d0b0b" viewBox="0 0 24 24" xmlns="http://www.w3.org/2000/svg">
<path fill-rule="evenodd" d="M4.293 4.293a1 1 0 0 1 1.414 0l14 14a1 1 0 0 1-1.414 1.414l-14-14a1 1 0 0 1 0-1.414Z" clip-rule="evenodd"></path>
<path fill-rule="evenodd" d="M8.003 6.916 6.649 8H4a2 2 0 0 0-2 2v4a2 2 0 0 0 2 2h2.65l3.1 2.481c1.31 1.048 3.25.116 3.25-1.561v-5.005l-2-2v7.005l-3.101-2.481A2 2 0 0 0 6.649 14H4v-4h2.65a2 2 0 0 0 1.249-.438L9.426 8.34 8.003 6.917Zm2.997.17V7.08l-.003.002L9.574 5.66l.177-.14C11.06 4.47 13 5.402 13 7.078v2.006l-2-2Zm4.319 7.146c-.079.117-.164.23-.255.338a1 1 0 1 0 1.532 1.286c.053-.063.105-.127.155-.192l-1.432-1.432Zm2.402-.425L16 12.083a4 4 0 0 0-.747-2.413 1 1 0 1 1 1.627-1.164 6 6 0 0 1 .842 5.3Zm.453 3.28-.046.055a1 1 0 0 0 1.462 1.361l-1.416-1.416Zm2.578-.25-1.487-1.487A7.999 7.999 0 0 0 18.2 6.943a1 1 0 1 1 1.55-1.264 10 10 0 0 1 1.002 11.158Z" clip-rule="evenodd"></path>
</svg>