<svg width="48" height="48" fill="#2d0b0b" viewBox="0 0 24 24" xmlns="http://www.w3.org/2000/svg">
<path fill-rule="evenodd" d="M3 6a3 3 0 0 1 3-3h11a3 3 0 0 1 3 3v2a1 1 0 1 1-2 0V6a1 1 0 0 0-1-1H6a1 1 0 0 0-1 1v12a1 1 0 0 0 1 1h11a1 1 0 0 0 1-1v-2a1 1 0 1 1 2 0v2a3 3 0 0 1-3 3H6a3 3 0 0 1-3-3V6Z" clip-rule="evenodd"></path>
<path fill-rule="evenodd" d="M12 9a2 2 0 0 1 2-2h6a2 2 0 0 1 2 2v6a2 2 0 0 1-2 2h-6a2 2 0 0 1-2-2V9Zm8 0h-6v6h6V9Z" clip-rule="evenodd"></path>
<path d="M18.5 12a1.5 1.5 0 1 1-3 0 1.5 1.5 0 0 1 3 0Z"></path>
</svg>