<svg width="48" height="48" fill="#2d0b0b" viewBox="0 0 24 24" xmlns="http://www.w3.org/2000/svg">
<path fill-rule="evenodd" d="M12 8.5a1 1 0 0 1 1 1v2.086l1.207 1.207a1 1 0 0 1-1.414 1.414l-1.5-1.5A1 1 0 0 1 11 12V9.5a1 1 0 0 1 1-1Z" clip-rule="evenodd"></path>
<path fill-rule="evenodd" d="M12 7a5 5 0 1 0 0 10 5 5 0 0 0 0-10Zm-7 5a7 7 0 1 1 14 0 7 7 0 0 1-14 0Z" clip-rule="evenodd"></path>
<path fill-rule="evenodd" d="M8.376 16.008a1 1 0 0 1 1.116.868l.281 2.248a1 1 0 0 0 .993.876h2.469a1 1 0 0 0 .992-.876l.28-2.248a1 1 0 0 1 1.985.248l-.28 2.248A3 3 0 0 1 13.234 22h-2.47a3 3 0 0 1-2.976-2.628l-.281-2.248a1 1 0 0 1 .868-1.116Z" clip-rule="evenodd"></path>
<path fill-rule="evenodd" d="M15.624 7.992a1 1 0 0 1-1.116-.868l-.281-2.248A1 1 0 0 0 13.234 4h-2.469a1 1 0 0 0-.992.876l-.28 2.248a1 1 0 1 1-1.985-.248l.28-2.248A3 3 0 0 1 10.766 2h2.47a3 3 0 0 1 2.976 2.628l.281 2.248a1 1 0 0 1-.868 1.116Z" clip-rule="evenodd"></path>
</svg>