<svg width="48" height="48" fill="#2d0b0b" viewBox="0 0 24 24" xmlns="http://www.w3.org/2000/svg">
<path fill-rule="evenodd" d="M4.293 4.293a1 1 0 0 1 1.414 0l14 14a1 1 0 0 1-1.414 1.414l-14-14a1 1 0 0 1 0-1.414Z" clip-rule="evenodd"></path>
<path fill-rule="evenodd" d="m7.192 6.106-.014.007A11 11 0 0 0 3.215 9.38a1 1 0 0 0 1.597 1.204 9 9 0 0 1 3.897-2.96L7.192 6.105Zm3.082 3.082a8 8 0 0 0-4.663 2.997 1 1 0 1 0 1.597 1.204 6 6 0 0 1 4.878-2.388l-1.812-1.813Zm7.614 4.785L12.974 9.06a8 8 0 0 1 5.58 3.352 1 1 0 0 1-.666 1.562ZM10.973 7.06 9.261 5.347A11 11 0 0 1 21.01 9.69a1 1 0 0 1-1.639 1.147 9 9 0 0 0-8.399-3.78ZM13 18a1 1 0 1 0-2 0 1 1 0 0 0 2 0Zm-2.753-4.595a4 4 0 0 1 5.03 1.3 1 1 0 1 1-1.639 1.148 2 2 0 0 0-3.235-.057 1 1 0 0 1-1.597-1.203 4 4 0 0 1 1.44-1.188Z" clip-rule="evenodd"></path>
</svg>