<svg width="48" height="48" fill="#2d0b0b" viewBox="0 0 24 24" xmlns="http://www.w3.org/2000/svg">
<path d="M13 18a1 1 0 1 0-2 0 1 1 0 0 0 2 0Z"></path>
<path fill-rule="evenodd" d="M7.178 6.113a11 11 0 0 1 13.833 3.578 1 1 0 0 1-1.639 1.147 9 9 0 0 0-14.56-.254A1 1 0 0 1 3.215 9.38a11 11 0 0 1 3.963-3.267ZM8.493 9.81a8 8 0 0 1 10.06 2.601 1 1 0 1 1-1.638 1.148 6 6 0 0 0-9.707-.17 1 1 0 1 1-1.597-1.204A8 8 0 0 1 8.493 9.81Zm1.754 3.595a4 4 0 0 1 5.03 1.3 1 1 0 1 1-1.639 1.148 2 2 0 0 0-3.235-.057 1 1 0 0 1-1.597-1.203 4 4 0 0 1 1.44-1.188Z" clip-rule="evenodd"></path>
</svg>