<?xml version="1.0"?>
<svg xmlns="http://www.w3.org/2000/svg" xmlns:xlink="http://www.w3.org/1999/xlink" xmlns:svgjs="http://svgjs.com/svgjs" version="1.1" width="512" height="512" x="0" y="0" viewBox="0 0 436.38 436.38" style="enable-background:new 0 0 512 512" xml:space="preserve" class=""><g>
<g xmlns="http://www.w3.org/2000/svg">
	<g>
		<path d="M340.38,23.224H206.396c-8.48,0-16.624,3.376-22.624,9.376L9.372,206.968c-12.496,12.496-12.496,32.752,0,45.264    l133.984,133.984c12.496,12.496,32.752,12.496,45.248,0l174.4-174.368c6-6.016,9.376-14.16,9.376-22.656V55.224    C372.38,37.544,358.06,23.224,340.38,23.224z M284.38,135.224c-13.248,0-24-10.752-24-24s10.752-24,24-24s24,10.752,24,24    S297.628,135.224,284.38,135.224z" fill="#606060" data-original="#000000" style="" class=""/>
	</g>
</g>
<g xmlns="http://www.w3.org/2000/svg">
	<g>
		<path d="M404.38,55.224l-0.016,148.944c0,7.376-2.928,14.464-8.16,19.68L218.988,401.064l2.72,2.72    c12.496,12.496,32.752,12.496,45.248,0l160.032-160c6.016-6,9.392-14.144,9.392-22.624V87.224    C436.38,69.544,422.06,55.224,404.38,55.224z" fill="#606060" data-original="#000000" style="" class=""/>
	</g>
</g>
<g xmlns="http://www.w3.org/2000/svg">
</g>
<g xmlns="http://www.w3.org/2000/svg">
</g>
<g xmlns="http://www.w3.org/2000/svg">
</g>
<g xmlns="http://www.w3.org/2000/svg">
</g>
<g xmlns="http://www.w3.org/2000/svg">
</g>
<g xmlns="http://www.w3.org/2000/svg">
</g>
<g xmlns="http://www.w3.org/2000/svg">
</g>
<g xmlns="http://www.w3.org/2000/svg">
</g>
<g xmlns="http://www.w3.org/2000/svg">
</g>
<g xmlns="http://www.w3.org/2000/svg">
</g>
<g xmlns="http://www.w3.org/2000/svg">
</g>
<g xmlns="http://www.w3.org/2000/svg">
</g>
<g xmlns="http://www.w3.org/2000/svg">
</g>
<g xmlns="http://www.w3.org/2000/svg">
</g>
<g xmlns="http://www.w3.org/2000/svg">
</g>
</g></svg>
