<svg xmlns="http://www.w3.org/2000/svg" width="9.935" height="11.591" viewBox="0 0 9.935 11.591">
  <g id="align-left" transform="translate(-4 -2)">
    <path id="Path_16" data-name="Path 16" d="M9,9.691V7.207A.207.207,0,0,1,9.207,7h3.726a.207.207,0,0,1,.207.207V9.691a.207.207,0,0,1-.207.207H9.207A.207.207,0,0,1,9,9.691Z" transform="translate(-2.93 -2.93)" fill="#fff"/>
    <path id="Path_17" data-name="Path 17" d="M16.865,18.207v2.484a.207.207,0,0,1-.207.207H9.207A.207.207,0,0,1,9,20.691V18.207A.207.207,0,0,1,9.207,18h7.451A.207.207,0,0,1,16.865,18.207Z" transform="translate(-2.93 -9.377)" fill="#fff"/>
    <path id="Path_18" data-name="Path 18" d="M5.242,2.207V13.384a.207.207,0,0,1-.207.207H4.207A.207.207,0,0,1,4,13.384V2.207A.207.207,0,0,1,4.207,2h.828A.207.207,0,0,1,5.242,2.207Z" fill="#fff"/>
  </g>
</svg>
