<svg xmlns="http://www.w3.org/2000/svg" width="8.313" height="12.246" viewBox="0 0 8.313 12.246">
  <g id="align-center" transform="translate(-6.5 -2)">
    <path id="Path_19" data-name="Path 19" d="M11,7.03V4.406a.219.219,0,0,1,.219-.219h1.312V2.219A.219.219,0,0,1,12.75,2h.875a.219.219,0,0,1,.219.219V4.187h1.313a.219.219,0,0,1,.219.219V7.03a.219.219,0,0,1-.219.219H11.219A.219.219,0,0,1,11,7.03Z" transform="translate(-2.531)" fill="#fff"/>
    <path id="Path_20" data-name="Path 20" d="M14.5,26.5h1.313v1.312a.219.219,0,0,1-.219.219h-.875a.219.219,0,0,1-.219-.219Z" transform="translate(-4.5 -13.784)" fill="#fff"/>
    <path id="Path_21" data-name="Path 21" d="M14.813,16.812v2.624a.219.219,0,0,1-.219.219H6.719a.219.219,0,0,1-.219-.219V16.812a.219.219,0,0,1,.219-.219H10V15.5h1.312v1.093h3.281A.219.219,0,0,1,14.813,16.812Z" transform="translate(0 -7.596)" fill="#fff"/>
  </g>
</svg>
