<svg xmlns="http://www.w3.org/2000/svg" width="10.19" height="11.591" viewBox="0 0 10.19 11.591">
  <g id="align-left" transform="translate(-4 -2)">
    <path id="Path_16" data-name="Path 16" d="M13.14,9.691V7.207A.207.207,0,0,0,12.933,7H9.207A.207.207,0,0,0,9,7.207V9.691a.207.207,0,0,0,.207.207h3.726A.207.207,0,0,0,13.14,9.691Z" transform="translate(-1.11 -2.93)" fill="#fff"/>
    <path id="Path_17" data-name="Path 17" d="M9,18.207v2.484a.207.207,0,0,0,.207.207h7.451a.207.207,0,0,0,.207-.207V18.207A.207.207,0,0,0,16.658,18H9.207A.207.207,0,0,0,9,18.207Z" transform="translate(-5 -9.377)" fill="#fff"/>
    <path id="Path_18" data-name="Path 18" d="M4,2.207V13.384a.207.207,0,0,0,.207.207h.828a.207.207,0,0,0,.207-.207V2.207A.207.207,0,0,0,5.035,2H4.207A.207.207,0,0,0,4,2.207Z" transform="translate(8.948)" fill="#fff"/>
  </g>
</svg>
