<svg xmlns="http://www.w3.org/2000/svg" width="30.711" height="30.711" viewBox="0 0 30.711 30.711">
  <g id="help" transform="translate(-1.25 -1.25)" opacity="0.65">
    <path id="Path_24" data-name="Path 24" d="M5.748,5.748a15.356,15.356,0,0,1,21.716,0l-.757.758.757-.758A15.356,15.356,0,0,1,5.748,27.463l.758-.757-.758.757a15.356,15.356,0,0,1,0-21.716ZM16.606,3.393a13.213,13.213,0,1,0,9.343,3.87,13.168,13.168,0,0,0-9.343-3.87Z" fill-rule="evenodd"/>
    <path id="Path_25" data-name="Path 25" d="M8.25,10.919a5.357,5.357,0,1,1,6.428,5.249v1.893a1.071,1.071,0,1,1-2.143,0V15.2a1.071,1.071,0,0,1,1.071-1.071,3.214,3.214,0,1,0-3.214-3.214,1.071,1.071,0,0,1-2.143,0Z" transform="translate(2.999 1.848)" fill-rule="evenodd"/>
    <path id="Path_26" data-name="Path 26" d="M12.536,19.883A1.786,1.786,0,1,0,10.75,18.1,1.785,1.785,0,0,0,12.536,19.883Z" transform="translate(4.07 6.453)" fill-rule="evenodd"/>
  </g>
</svg>
