<svg xmlns="http://www.w3.org/2000/svg" width="12.064" height="11.926" viewBox="0 0 12.064 11.926">
  <g id="Group_18" data-name="Group 18" transform="translate(0 0)">
    <path id="Path_22" data-name="Path 22" d="M187.748.819,185.3,3.243s-.008.01-.012.015a3.582,3.582,0,0,1,1.8.194l1.664-1.645a1.427,1.427,0,0,1,2,0,1.388,1.388,0,0,1,0,1.976L188.3,6.207a1.441,1.441,0,0,1-2,0,.714.714,0,0,0-1,0l-.429.424a2.775,2.775,0,0,0,.429.564,2.872,2.872,0,0,0,3.983.012l.015-.012,2.452-2.424a2.773,2.773,0,0,0,0-3.953,2.851,2.851,0,0,0-4,0Z" transform="translate(-180.511)" fill="#fff"/>
    <path id="Path_23" data-name="Path 23" d="M5.5,172.64l-1.67,1.65a1.427,1.427,0,0,1-2,0,1.388,1.388,0,0,1,0-1.976l2.457-2.429a1.441,1.441,0,0,1,2,0,.714.714,0,0,0,1,0l.429-.424a2.773,2.773,0,0,0-.429-.564,2.87,2.87,0,0,0-3.983-.012l-.015.012L.829,171.325a2.773,2.773,0,0,0,0,3.953,2.851,2.851,0,0,0,4,0l2.457-2.429s.008-.01.012-.015a3.582,3.582,0,0,1-1.8-.194Z" transform="translate(-0.001 -164.171)" fill="#fff"/>
  </g>
</svg>
