<svg xmlns="http://www.w3.org/2000/svg" viewBox="0 0 24 24" id="microsoft-onedrive"><path fill="#0948AC" d="M16.54 10.649c-1.27-1.605-2.806-2.155-4.612-1.665-1.804.476-2.845 1.724-3.12 3.744-2.106.179-3.176 1.218-3.21 3.105-.036 1.88.998 2.958 3.102 3.232h12.738c1.612-.182 2.463-.999 2.555-2.448.093-1.447-.649-2.368-2.225-2.755l-.006-.02c0-.697-.166-1.338-.479-1.901a3.312 3.312 0 0 0-1.396-1.323c-.463-.253-1.029-.387-1.697-.432-.664-.043-1.214.107-1.65.463z"></path><path fill="#0948AC" d="M3.24 18.028a3.18 3.18 0 0 0 1.68-.453l.062.09c-.21-.505-.301-1.056-.301-1.65 0-.534.091-1.039.256-1.53a3.72 3.72 0 0 1 .75-1.293 3.514 3.514 0 0 1 1.289-.996 5.42 5.42 0 0 1 1.021-.311c.105-.52.3-1.011.585-1.471.285-.459.63-.862 1.05-1.218a5.217 5.217 0 0 1 1.62-.95c.6-.224 1.23-.327 1.89-.327.721 0 1.396.118 2.011.386a4.941 4.941 0 0 1 1.664 1.158c.361-.133.765-.192 1.23-.192h.285c-.24-1.233-.826-2.229-1.756-3.002-.929-.772-2.023-1.174-3.314-1.204-.959.016-1.83.254-2.609.714a5.624 5.624 0 0 0-1.861 1.843c-.57-.342-1.215-.505-1.934-.505-1.142.03-2.088.416-2.842 1.144-.75.728-1.14 1.663-1.17 2.792 0 .197.012.384.042.561-.833.101-1.518.445-2.058 1.04-.539.593-.814 1.318-.83 2.172.031.906.346 1.665.953 2.26.607.6 1.367.914 2.287.942z"></path></svg>