<svg xmlns="http://www.w3.org/2000/svg" height="40" viewBox="0 96 960 960" width="40"><path d="M166.667 912.667v-79h95.667L258.001 829Q197 774.334 168 712.667q-29-61.667-29-134 0-121 77-214t196.333-120.333v107.332q-75 21-121.5 84.834-46.5 63.833-46.5 142.167 0 52.333 19.833 93.667 19.834 41.333 55.834 74l16.667 10.667v-94.334h79v250h-249Zm381.667-4.334V800.334q75.666-21 121.5-84.834 45.833-63.833 45.833-142.167 0-42.333-20.167-85.667Q675.334 444.333 642 409l-16-14.001v94.334h-79.666v-250H796v79h-97.001l5 6q58.667 56.333 87.834 121.5T821 573.333q0 121-76.667 214.333Q667.667 881 548.334 908.333Z"/></svg>