<svg width="24" height="24" viewBox="0 0 24 24" fill="none" xmlns="http://www.w3.org/2000/svg">
<path d="M13.0281 2.00049C14.1535 2.00235 14.7238 2.00831 15.2166 2.02298L15.4107 2.02932C15.6349 2.03729 15.8561 2.04729 16.1228 2.05979C17.1869 2.10896 17.9128 2.27729 18.5503 2.52479C19.2094 2.77896 19.7661 3.12229 20.3219 3.67813C20.8769 4.23396 21.2203 4.79229 21.4753 5.44979C21.7219 6.08646 21.8903 6.81313 21.9403 7.87729C21.9522 8.14396 21.9618 8.36516 21.9697 8.5894L21.976 8.78349C21.9906 9.27623 21.9973 9.84662 21.9994 10.9721L22.0002 11.7177C22.0003 11.8088 22.0003 11.9028 22.0003 11.9998L22.0002 12.2819L21.9996 13.0276C21.9977 14.153 21.9918 14.7234 21.9771 15.2161L21.9707 15.4102C21.9628 15.6345 21.9528 15.8557 21.9403 16.1223C21.8911 17.1865 21.7219 17.9123 21.4753 18.5498C21.2211 19.209 20.8769 19.7657 20.3219 20.3215C19.7661 20.8765 19.2069 21.2198 18.5503 21.4748C17.9128 21.7215 17.1869 21.8898 16.1228 21.9398C15.8561 21.9517 15.6349 21.9614 15.4107 21.9692L15.2166 21.9755C14.7238 21.9902 14.1535 21.9968 13.0281 21.999L12.2824 21.9998C12.1913 21.9998 12.0973 21.9998 12.0003 21.9998H11.7182L10.9725 21.9991C9.8471 21.9973 9.27672 21.9913 8.78397 21.9766L8.58989 21.9703C8.36564 21.9623 8.14444 21.9523 7.87778 21.9398C6.81361 21.8907 6.08861 21.7215 5.45028 21.4748C4.79194 21.2207 4.23444 20.8765 3.67861 20.3215C3.12278 19.7657 2.78028 19.2065 2.52528 18.5498C2.27778 17.9123 2.11028 17.1865 2.06028 16.1223C2.0484 15.8557 2.03871 15.6345 2.03086 15.4102L2.02457 15.2161C2.00994 14.7234 2.00327 14.153 2.00111 13.0276L2.00098 10.9721C2.00284 9.84662 2.00879 9.27623 2.02346 8.78349L2.02981 8.5894C2.03778 8.36516 2.04778 8.14396 2.06028 7.87729C2.10944 6.81229 2.27778 6.08729 2.52528 5.44979C2.77944 4.79146 3.12278 4.23396 3.67861 3.67813C4.23444 3.12229 4.79278 2.77979 5.45028 2.52479C6.08778 2.27729 6.81278 2.10979 7.87778 2.05979C8.14444 2.04792 8.36564 2.03823 8.58989 2.03038L8.78397 2.02409C9.27672 2.00945 9.8471 2.00278 10.9725 2.00062L13.0281 2.00049ZM12.0003 6.99979C9.23738 6.99979 7.00028 9.23932 7.00028 11.9998C7.00028 14.7627 9.23981 16.9998 12.0003 16.9998C14.7632 16.9998 17.0003 14.7603 17.0003 11.9998C17.0003 9.23689 14.7607 6.99979 12.0003 6.99979ZM12.0003 8.99979C13.6572 8.99979 15.0003 10.3425 15.0003 11.9998C15.0003 13.6567 13.6576 14.9998 12.0003 14.9998C10.3434 14.9998 9.00028 13.6572 9.00028 11.9998C9.00028 10.3429 10.3429 8.99979 12.0003 8.99979ZM17.2503 5.49979C16.561 5.49979 16.0003 6.0597 16.0003 6.74894C16.0003 7.43819 16.5602 7.99896 17.2503 7.99896C17.9395 7.99896 18.5003 7.43906 18.5003 6.74894C18.5003 6.0597 17.9386 5.49893 17.2503 5.49979Z" fill="black"/>
</svg>
