<svg width="16" height="16" viewBox="0 0 16 16" fill="none" xmlns="http://www.w3.org/2000/svg">
<path d="M3.24233 10.6357C4.82643 12.5222 6.73334 14.0075 8.90981 15.0584C9.73847 15.4496 10.8467 15.9138 12.0813 15.9934C12.1579 15.9967 12.2311 16 12.3076 16C13.1363 16 13.8019 15.7149 14.3443 15.1281C14.3477 15.1247 14.3543 15.1181 14.3577 15.1115C14.5507 14.8794 14.7703 14.6705 14.9999 14.4484C15.1564 14.2992 15.3161 14.1434 15.4692 13.9843C16.178 13.2482 16.178 12.3133 15.4625 11.6005L13.4624 9.60796C13.123 9.25653 12.717 9.07087 12.291 9.07087C11.865 9.07087 11.4557 9.25653 11.1063 9.60464L9.91485 10.7915C9.80503 10.7286 9.69188 10.6722 9.58539 10.6191C9.45227 10.5528 9.32913 10.4898 9.21931 10.4202C8.1344 9.73394 7.14933 8.83879 6.20752 7.68835C5.73163 7.08827 5.41215 6.58433 5.18917 6.07045C5.502 5.78864 5.79486 5.49358 6.07773 5.20514C6.17757 5.10236 6.28074 4.99959 6.38391 4.89681C6.74332 4.53875 6.93634 4.12433 6.93634 3.70327C6.93634 3.28222 6.74665 2.8678 6.38391 2.50974L5.39218 1.52176C5.2757 1.40572 5.16588 1.293 5.05273 1.17696C4.83308 0.951513 4.60346 0.719436 4.37716 0.510568C4.03438 0.175715 3.6317 0 3.20572 0C2.78307 0 2.37706 0.175715 2.02097 0.513883L0.776322 1.75383C0.323722 2.20472 0.0674704 2.75176 0.0142233 3.385C-0.0490076 4.17737 0.0974219 5.01948 0.476807 6.0373C1.0592 7.6121 1.93777 9.07418 3.24233 10.6357ZM0.826241 3.45462C0.866177 3.01368 1.0359 2.64567 1.35538 2.32739L2.59338 1.09407C2.7864 0.908413 2.99939 0.812267 3.20572 0.812267C3.40872 0.812267 3.61506 0.908413 3.80475 1.1007C4.02772 1.30626 4.23738 1.52176 4.46368 1.75052C4.57683 1.86656 4.69331 1.98259 4.80979 2.10195L5.80152 3.08993C6.00785 3.29548 6.11434 3.50435 6.11434 3.7099C6.11434 3.91546 6.00785 4.12433 5.80152 4.32988C5.69835 4.43266 5.59518 4.53875 5.49202 4.64152C5.18252 4.95317 4.89299 5.24824 4.5735 5.53005C4.56685 5.53668 4.56352 5.53999 4.55687 5.54662C4.28065 5.8218 4.32391 6.08371 4.39047 6.28264C4.3938 6.29258 4.39712 6.29921 4.40045 6.30916C4.6567 6.9225 5.01279 7.50601 5.56856 8.20224C6.56694 9.42893 7.61857 10.3804 8.7767 11.1131C8.9198 11.206 9.07288 11.2789 9.21598 11.3518C9.3491 11.4182 9.47224 11.4811 9.58206 11.5508C9.59537 11.5574 9.60535 11.564 9.61867 11.5707C9.72849 11.627 9.83498 11.6535 9.94148 11.6535C10.2077 11.6535 10.3808 11.4845 10.4373 11.4281L11.682 10.1881C11.875 9.99586 12.0847 9.89308 12.291 9.89308C12.5439 9.89308 12.7503 10.0489 12.88 10.1881L14.8868 12.184C15.2862 12.5818 15.2828 13.0128 14.8768 13.4339C14.737 13.5831 14.5906 13.7257 14.4342 13.8748C14.2012 14.1003 13.9583 14.3324 13.7387 14.5943C13.3559 15.0054 12.9 15.1977 12.311 15.1977C12.2544 15.1977 12.1945 15.1944 12.1379 15.191C11.0464 15.1214 10.0313 14.6971 9.26923 14.3357C7.19925 13.3378 5.38219 11.9221 3.87464 10.1252C2.63331 8.63655 1.798 7.25072 1.24556 5.76544C0.902784 4.85371 0.772994 4.12101 0.826241 3.45462Z" fill="#606060"/>
</svg>
