<svg width="13" height="16" viewBox="0 0 13 16" fill="none" xmlns="http://www.w3.org/2000/svg">
<path d="M6.6084 0C3.50677 0 0.983398 2.52338 0.983398 5.625C0.983398 6.67294 1.27368 7.69563 1.82305 8.58288L6.28821 15.7784C6.37374 15.9163 6.52443 16 6.68649 16C6.68774 16 6.68896 16 6.69021 16C6.85368 15.9987 7.00468 15.9124 7.08865 15.7721L11.44 8.50688C11.9591 7.63838 12.2334 6.64184 12.2334 5.625C12.2334 2.52338 9.71002 0 6.6084 0ZM10.6355 8.02556L6.6794 14.6308L2.61987 8.08894C2.16259 7.35044 1.91465 6.49844 1.91465 5.625C1.91465 3.04031 4.02371 0.93125 6.6084 0.93125C9.19309 0.93125 11.299 3.04031 11.299 5.625C11.299 6.47253 11.0674 7.30275 10.6355 8.02556Z" fill="#606060"/>
<path d="M6.6084 2.81249C5.05759 2.81249 3.7959 4.07418 3.7959 5.62499C3.7959 7.1659 5.03705 8.43749 6.6084 8.43749C8.19912 8.43749 9.4209 7.14896 9.4209 5.62499C9.4209 4.07418 8.15921 2.81249 6.6084 2.81249ZM6.6084 7.50624C5.56912 7.50624 4.72715 6.66146 4.72715 5.62499C4.72715 4.59112 5.57452 3.74374 6.6084 3.74374C7.64227 3.74374 8.48652 4.59112 8.48652 5.62499C8.48652 6.64634 7.66415 7.50624 6.6084 7.50624Z" fill="#606060"/>
</svg>
