<svg width="21" height="21" viewBox="0 0 21 21" fill="none" xmlns="http://www.w3.org/2000/svg">
<path d="M19.8386 19.2521L14.1512 13.5646C15.2528 12.2038 15.9162 10.4746 15.9162 8.5913C15.9162 4.2263 12.3645 0.674622 7.99956 0.674622C3.63461 0.674622 0.0830078 4.22626 0.0830078 8.59126C0.0830078 12.9563 3.63465 16.5079 7.9996 16.5079C9.8829 16.5079 11.6121 15.8446 12.9729 14.7429L18.6603 20.4304C18.8228 20.5929 19.0361 20.6746 19.2495 20.6746C19.4628 20.6746 19.6762 20.5929 19.8386 20.4304C20.1645 20.1046 20.1645 19.5779 19.8386 19.2521ZM7.9996 14.8413C4.55296 14.8413 1.74967 12.0379 1.74967 8.59126C1.74967 5.14458 4.55296 2.34126 7.9996 2.34126C11.4462 2.34126 14.2495 5.14458 14.2495 8.59126C14.2495 12.0379 11.4462 14.8413 7.9996 14.8413Z" fill="#4649FF"/>
</svg>
