<?xml version="1.0"?>
<svg xmlns="http://www.w3.org/2000/svg" xmlns:xlink="http://www.w3.org/1999/xlink" xmlns:svgjs="http://svgjs.com/svgjs" version="1.1" width="512" height="512" x="0" y="0" viewBox="0 0 324.399 324.399" style="enable-background:new 0 0 512 512" xml:space="preserve" class=""><g>
<g xmlns="http://www.w3.org/2000/svg">
	<path d="M223.654,305.923c25.414,0,46.018-22.545,46.018-50.352V68.833c0-27.812-20.604-50.357-46.018-50.357H99.337   c-25.415,0-46.016,22.545-46.016,50.357v186.739c0,27.807,20.601,50.352,46.016,50.352H223.654z M113.458,36.325h98.839   c11.89,0,21.525,9.634,21.525,21.522c0,11.887-9.636,21.523-21.525,21.523h-98.839c-11.889,0-21.523-9.637-21.523-21.523   C91.935,45.958,101.569,36.325,113.458,36.325z M70.135,191.244c0-51.214,41.523-92.737,92.74-92.737   c51.219,0,92.737,41.518,92.737,92.737c0,51.222-41.519,92.74-92.737,92.74C111.653,283.984,70.135,242.465,70.135,191.244z" fill="#ffc107" data-original="#000000" style="" class=""/>
	<path d="M113.458,74.073h98.839c8.943,0,16.224-7.275,16.224-16.22c0-8.945-7.28-16.221-16.224-16.221h-98.839   c-8.945,0-16.221,7.275-16.221,16.221C97.237,66.798,104.513,74.073,113.458,74.073z" fill="#ffc107" data-original="#000000" style="" class=""/>
	<path d="M250.31,191.244c0-48.213-39.219-87.435-87.435-87.435c-48.216,0-87.438,39.222-87.438,87.435   c0,48.214,39.222,87.438,87.438,87.438C211.091,278.681,250.31,239.458,250.31,191.244z M91.93,191.244   c0-39.178,31.76-70.945,70.946-70.945s70.947,31.763,70.947,70.945s-31.762,70.945-70.947,70.945S91.93,230.426,91.93,191.244z" fill="#ffc107" data-original="#000000" style="" class=""/>
	<path d="M162.875,147.235c24.304,0,44.012,19.702,44.012,44.009s-19.708,44.009-44.012,44.009   c-24.306,0-44.009-19.702-44.009-44.009S138.569,147.235,162.875,147.235z" fill="#ffc107" data-original="#000000" style="" class=""/>
	<path d="M296.68,128.586c-2.931,0-5.302,2.372-5.302,5.302c0,2.934,2.371,5.303,5.302,5.303c6.976,0,17.114,21.771,17.114,55.9   c0,34.123-10.129,55.902-17.114,55.902c-2.931,0-5.302,2.372-5.302,5.303s2.371,5.303,5.302,5.303   c18.201,0,27.719-33.461,27.719-66.508S314.881,128.586,296.68,128.586z" fill="#ffc107" data-original="#000000" style="" class=""/>
	<path d="M301.574,195.091c0-17.906-5.312-37.182-16.974-37.182c-2.937,0-5.438,2.348-5.438,5.279c0,2.936,2.242,5.281,5.173,5.281   c1.891,0.812,6.644,9.922,6.644,26.621c0,16.694-4.753,25.808-6.379,26.579c-2.931,0-5.303,2.366-5.303,5.303   c0,2.931,2.372,5.302,5.303,5.302C296.261,232.275,301.574,212.997,301.574,195.091z" fill="#ffc107" data-original="#000000" style="" class=""/>
	<path d="M27.721,261.599c2.934,0,5.302-2.372,5.302-5.303s-2.369-5.303-5.302-5.303c-6.978,0-17.116-21.779-17.116-55.902   c0-34.129,10.133-55.9,17.116-55.9c2.934,0,5.302-2.369,5.302-5.303c0-2.931-2.369-5.302-5.302-5.302   C9.525,128.586,0,162.044,0,195.091C0,228.143,9.525,261.599,27.721,261.599z" fill="#ffc107" data-original="#000000" style="" class=""/>
	<path d="M39.993,168.517c2.84-0.099,5.116-2.434,5.116-5.303c0-2.931-2.372-5.3-5.302-5.3c-11.667,0-16.979,19.271-16.979,37.177   c0,17.916,5.313,37.189,16.979,37.189c2.931,0,5.434-2.352,5.434-5.282s-2.242-5.281-5.175-5.281   c-1.888-0.808-6.639-9.922-6.639-26.626C33.433,178.63,38.051,169.542,39.993,168.517z" fill="#ffc107" data-original="#000000" style="" class=""/>
</g>
<g xmlns="http://www.w3.org/2000/svg">
</g>
<g xmlns="http://www.w3.org/2000/svg">
</g>
<g xmlns="http://www.w3.org/2000/svg">
</g>
<g xmlns="http://www.w3.org/2000/svg">
</g>
<g xmlns="http://www.w3.org/2000/svg">
</g>
<g xmlns="http://www.w3.org/2000/svg">
</g>
<g xmlns="http://www.w3.org/2000/svg">
</g>
<g xmlns="http://www.w3.org/2000/svg">
</g>
<g xmlns="http://www.w3.org/2000/svg">
</g>
<g xmlns="http://www.w3.org/2000/svg">
</g>
<g xmlns="http://www.w3.org/2000/svg">
</g>
<g xmlns="http://www.w3.org/2000/svg">
</g>
<g xmlns="http://www.w3.org/2000/svg">
</g>
<g xmlns="http://www.w3.org/2000/svg">
</g>
<g xmlns="http://www.w3.org/2000/svg">
</g>
</g></svg>
