<?xml version="1.0"?>
<svg xmlns="http://www.w3.org/2000/svg" xmlns:xlink="http://www.w3.org/1999/xlink" xmlns:svgjs="http://svgjs.com/svgjs" version="1.1" width="512" height="512" x="0" y="0" viewBox="0 0 426.667 426.667" style="enable-background:new 0 0 512 512" xml:space="preserve" class=""><g>
<path xmlns="http://www.w3.org/2000/svg" d="M261.12,213.547l49.493,49.493c5.973-15.467,9.387-32.213,9.387-49.707c0-17.387-3.307-34.027-9.173-49.387L261.12,213.547  L261.12,213.547z M373.973,100.587l-26.987,26.987C360.32,153.28,368,182.4,368,213.44s-7.68,60.053-21.013,85.867l25.6,25.6  c20.587-33.067,32.747-71.787,32.747-113.387C405.333,170.773,393.707,132.907,373.973,100.587L373.973,100.587z M292.373,121.707  L170.667,0h-21.333v161.813L51.52,64L21.333,94.187L140.48,213.333L21.333,332.48l30.187,30.187l97.813-97.813v161.813h21.333  L292.373,304.96l-91.52-91.627L292.373,121.707L292.373,121.707z M192,81.707l40.107,40.107l-40.107,40V81.707z M232.107,304.96  l-40.107,40v-80.213L232.107,304.96z" fill="#ffc107" data-original="#000000" style="" class=""/>
<g xmlns="http://www.w3.org/2000/svg">
</g>
<g xmlns="http://www.w3.org/2000/svg">
</g>
<g xmlns="http://www.w3.org/2000/svg">
</g>
<g xmlns="http://www.w3.org/2000/svg">
</g>
<g xmlns="http://www.w3.org/2000/svg">
</g>
<g xmlns="http://www.w3.org/2000/svg">
</g>
<g xmlns="http://www.w3.org/2000/svg">
</g>
<g xmlns="http://www.w3.org/2000/svg">
</g>
<g xmlns="http://www.w3.org/2000/svg">
</g>
<g xmlns="http://www.w3.org/2000/svg">
</g>
<g xmlns="http://www.w3.org/2000/svg">
</g>
<g xmlns="http://www.w3.org/2000/svg">
</g>
<g xmlns="http://www.w3.org/2000/svg">
</g>
<g xmlns="http://www.w3.org/2000/svg">
</g>
<g xmlns="http://www.w3.org/2000/svg">
</g>
</g></svg>
