<?xml version="1.0"?>
<svg xmlns="http://www.w3.org/2000/svg" xmlns:xlink="http://www.w3.org/1999/xlink" xmlns:svgjs="http://svgjs.com/svgjs" version="1.1" width="512" height="512" x="0" y="0" viewBox="0 0 512 512" style="enable-background:new 0 0 512 512" xml:space="preserve" class=""><g><g xmlns="http://www.w3.org/2000/svg"><path d="m479.666 297.732c-.96-1.042-1.877-1.989-2.769-2.851v-107.617c0-85.613-69.694-155.264-155.36-155.264h-130.167c-85.65 0-155.332 69.651-155.332 155.264v106.745c-1.186 1.086-2.405 2.312-3.706 3.723-21.232 23.054-32.708 53.509-32.324 85.767-.385 32.258 11.092 62.713 32.325 85.768 7.762 8.426 12.786 10.733 23.372 10.733h38.579c17.972 0 32.592-14.616 32.592-32.582v-127.838c0-17.965-14.621-32.582-32.592-32.582h-38.245v-62.595c7.045 4.67 15.485 7.399 24.554 7.399 24.567 0 44.554-19.979 44.554-44.538 0-36.496 29.708-66.188 66.223-66.188h130.167c36.531 0 66.252 29.691 66.252 66.188 0 24.559 19.987 44.538 44.554 44.538 9.069 0 17.509-2.729 24.554-7.399v62.604c-.203-.002-.394-.009-.602-.009h-38.579c-17.972 0-32.592 14.616-32.592 32.582v127.839c0 17.965 14.621 32.582 32.592 32.582h38.579c10.586 0 15.609-2.307 23.372-10.734 21.232-23.054 32.709-53.509 32.324-85.767.385-32.259-11.092-62.714-32.325-85.768zm-416.28 50.831c5.523 0 10-4.477 10-10v-31.564h20.897c6.943 0 12.592 5.644 12.592 12.582v127.839c0 6.938-5.649 12.582-12.592 12.582h-20.897v-31.65c0-5.523-4.477-10-10-10s-10 4.477-10 10v31.615c-2.548-.136-3.182-.817-6.341-4.247-17.785-19.312-27.387-44.913-27.036-72.089.001-.086.001-.172 0-.259-.351-27.176 9.25-52.777 27.035-72.088 3.16-3.431 3.794-4.112 6.342-4.248v31.529c0 5.521 4.477 9.998 10 9.998zm375.228 111.437h-20.897c-6.943 0-12.592-5.644-12.592-12.582v-127.838c0-6.938 5.649-12.582 12.592-12.582h20.897zm-237.244-408h110.167v49.076h-110.167zm-96.223 135.264c0 13.53-11.015 24.538-24.554 24.538s-24.554-11.008-24.554-24.538c0-71.223 55.361-129.761 125.332-134.894v49.305c-42.848 4.972-76.224 41.447-76.224 85.589zm327.196 24.538c-13.539 0-24.554-11.008-24.554-24.538 0-44.142-33.389-80.619-76.252-85.59v-49.304c69.986 5.132 125.36 63.67 125.36 134.894 0 13.53-11.015 24.538-24.554 24.538zm32.613 243.915c-3.16 3.431-3.794 4.112-6.342 4.248v-152.931c2.548.136 3.182.817 6.341 4.247 17.785 19.312 27.387 44.913 27.036 72.089-.001.086-.001.172 0 .259.351 27.175-9.251 52.777-27.035 72.088z" fill="#ffc107" data-original="#000000" style="" class=""/><path d="m350.876 367.379h-33.477c-3.373 0-6.519 1.7-8.366 4.522l-17.338 26.48-26.306-52.325c-1.698-3.377-5.155-5.508-8.935-5.508s-7.237 2.131-8.935 5.508l-26.306 52.325-17.338-26.48c-1.848-2.822-4.993-4.522-8.366-4.522h-33.449c-5.523 0-10 4.477-10 10s4.477 10 10 10h28.043l23.883 36.476c1.959 2.991 5.366 4.712 8.936 4.506 3.569-.204 6.759-2.297 8.365-5.492l25.166-50.058 25.166 50.058c1.606 3.195 4.795 5.289 8.365 5.492.191.011.381.016.571.016 3.359 0 6.511-1.69 8.365-4.522l23.883-36.476h28.072c5.523 0 10-4.477 10-10s-4.476-10-9.999-10z" fill="#ffc107" data-original="#000000" style="" class=""/><path d="m53.386 383.499c0 5.523 4.477 9.972 10 9.972s10-4.505 10-10.028-4.477-10-10-10-10 4.477-10 10z" fill="#ffc107" data-original="#000000" style="" class=""/></g></g></svg>
