<svg id="Layer_1" enable-background="new 0 0 256 256" height="512" viewBox="0 0 256 256" width="512" xmlns="http://www.w3.org/2000/svg"><path d="m132.767 174.323c-2.681 2.558-6.853 2.558-9.533 0-14.3-13.645-56.488-56.643-66.926-98.244-1.763 4.989-2.575 10.382-2.229 15.887 2.86 45.485 53.253 96.96 69.155 112.134 2.681 2.558 6.853 2.558 9.533 0 15.902-15.174 66.295-66.649 69.155-112.134.346-5.505-.466-10.899-2.229-15.887-10.438 41.601-52.627 84.599-66.926 98.244z" fill="#ebe7f2"/><path d="m197.365 115.46c-.053 0-.106-.002-.159-.005-1.378-.087-2.425-1.274-2.338-2.652.587-9.333-2.668-18.716-8.932-25.745-5.896-6.615-13.825-10.504-22.329-10.947-14.895-.78-28.549 8.547-33.234 22.676-.339 1.022-1.295 1.713-2.373 1.713s-2.034-.69-2.373-1.713c-4.685-14.128-18.345-23.468-33.234-22.676-8.502.443-16.432 4.331-22.328 10.946-6.264 7.028-9.52 16.413-8.933 25.746.086 1.378-.96 2.565-2.338 2.652-1.374.062-2.565-.961-2.652-2.338-.67-10.657 3.044-21.368 10.191-29.388 6.791-7.619 15.953-12.099 25.799-12.613 15.089-.762 29.054 7.429 35.868 20.49 6.814-13.061 20.799-21.27 35.868-20.49 9.847.515 19.01 4.995 25.801 12.615 7.146 8.019 10.86 18.729 10.189 29.386-.084 1.324-1.184 2.343-2.493 2.343z" fill="#65c1d6"/><path d="m128 208.516c-2.336 0-4.672-.869-6.493-2.606-15.665-14.947-67.003-67.327-69.924-113.785-.711-11.314 3.232-22.686 10.819-31.199 7.208-8.088 16.932-12.842 27.382-13.388 16.107-.821 31.039 8.002 38.216 22.03 7.178-14.027 22.123-22.852 38.216-22.03 10.45.546 20.174 5.3 27.382 13.388 7.587 8.514 11.53 19.885 10.819 31.199-.97 15.419-7.329 32.897-18.901 51.948-.716 1.181-2.254 1.556-3.435.839-1.18-.717-1.556-2.255-.839-3.435 11.147-18.353 17.266-35.062 18.184-49.667.628-9.99-2.857-20.035-9.562-27.558-6.312-7.083-14.804-11.246-23.91-11.721-15.942-.856-30.566 9.15-35.583 24.278-.339 1.022-1.295 1.713-2.373 1.713s-2.034-.69-2.373-1.713c-5.016-15.127-19.64-25.123-35.583-24.278-9.106.475-17.597 4.638-23.91 11.721-6.705 7.522-10.19 17.567-9.562 27.558 2.808 44.646 53.053 95.852 68.386 110.482 1.705 1.626 4.376 1.626 6.081 0 9.489-9.054 27.718-27.592 43.197-50.026.783-1.137 2.339-1.422 3.478-.638 1.136.784 1.422 2.341.638 3.478-15.732 22.803-34.232 41.618-43.86 50.804-1.818 1.737-4.154 2.606-6.49 2.606z" fill="#000000"/></svg>