<?xml version="1.0" encoding="iso-8859-1"?>
<!-- Generator: Adobe Illustrator 19.0.0, SVG Export Plug-In . SVG Version: 6.00 Build 0)  -->
<svg version="1.1" id="Capa_1" xmlns="http://www.w3.org/2000/svg" xmlns:xlink="http://www.w3.org/1999/xlink" x="0px" y="0px"
	 viewBox="0 0 477.899 477.899" style="enable-background:new 0 0 477.899 477.899;" xml:space="preserve" fill="red" >
	 
<g>
	<g>
		<path d="M469.11,170.122c-5.462-6.13-12.926-10.117-21.058-11.249v-0.017l-127.01-17.545L270.781,21.213
			c-7.339-17.579-27.539-25.88-45.117-18.541c-8.38,3.499-15.043,10.161-18.541,18.541l-50.261,120.098l-127.01,17.545
			c-18.923,2.634-32.128,20.111-29.494,39.034c1.132,8.132,5.119,15.596,11.249,21.058l95.693,85.333L87.638,438.185
			c-2.13,13.597,4.115,27.144,15.838,34.355c11.558,7.391,26.425,7.115,37.7-0.7l97.775-66.492l97.775,66.56
			c15.777,10.708,37.248,6.599,47.957-9.178c4.866-7.17,6.859-15.907,5.582-24.477l-19.661-133.956l95.693-85.333
			C480.561,206.254,481.821,184.386,469.11,170.122z M341.01,285.012c-4.281,3.825-6.352,9.545-5.513,15.224l20.48,143.36
			l-107.383-73.011c-5.789-3.934-13.394-3.934-19.183,0l-108.015,72.567l21.009-142.984c0.816-5.656-1.254-11.345-5.513-15.155
			l-102.4-92.297l136.67-18.859c5.984-0.825,11.085-4.752,13.414-10.325l54.579-129.399c0.062,0.076,0.108,0.163,0.137,0.256
			l54.016,129.075c2.329,5.573,7.431,9.5,13.414,10.325l136.841,19.695L341.01,285.012z"/>
	</g>
</g>
<g>
</g>
<g>
</g>
<g>
</g>
<g>
</g>
<g>
</g>
<g>
</g>
<g>
</g>
<g>
</g>
<g>
</g>
<g>
</g>
<g>
</g>
<g>
</g>
<g>
</g>
<g>
</g>
<g>
</g>
</svg>
