<svg id="_x31__px" height="512" viewBox="0 0 24 24" width="512" xmlns="http://www.w3.org/2000/svg"><path d="m17.5 12c-.105 0-.21-.033-.299-.099-.254-.189-6.201-4.67-6.201-8.271 0-2.002 1.629-3.63 3.631-3.63 1.141 0 2.193.531 2.869 1.404.677-.873 1.729-1.404 2.869-1.404 2.002 0 3.631 1.628 3.631 3.63 0 3.601-5.947 8.082-6.201 8.271-.089.066-.194.099-.299.099zm-2.869-11c-1.45 0-2.631 1.18-2.631 2.63 0 2.427 3.724 5.848 5.5 7.24 1.776-1.392 5.5-4.812 5.5-7.24 0-1.45-1.181-2.63-2.631-2.63-1.048 0-1.994.619-2.41 1.578-.08.183-.26.301-.459.301-.199 0-.38-.118-.459-.301-.415-.959-1.361-1.578-2.41-1.578z"/><path d="m19.5 17h-13c-.238 0-.443-.168-.49-.402l-2-10c-.03-.147.009-.299.103-.415s.238-.183.387-.183h5c.276 0 .5.224.5.5s-.224.5-.5.5h-4.39l1.8 9h12.18l.82-4.098c.055-.272.329-.449.588-.392.271.054.447.317.393.588l-.9 4.5c-.048.234-.253.402-.491.402z"/><path d="m6.499 17c-.233 0-.441-.164-.489-.402l-2.479-12.394c-.139-.699-.759-1.206-1.471-1.206h-.001l-1.558.002c-.001 0-.001 0-.001 0-.276 0-.5-.224-.5-.5s.224-.5.499-.5l1.558-.002h.003c1.188 0 2.219.845 2.452 2.01l2.478 12.394c.055.271-.121.534-.393.588-.032.007-.065.01-.098.01z"/><path d="m21.5 19h-17c-.827 0-1.5-.673-1.5-1.5s.673-1.5 1.5-1.5h2c.276 0 .5.224.5.5s-.224.5-.5.5h-2c-.275 0-.5.224-.5.5s.225.5.5.5h17c.276 0 .5.224.5.5s-.224.5-.5.5z"/><path d="m8 24c-1.103 0-2-.897-2-2s.897-2 2-2 2 .897 2 2-.897 2-2 2zm0-3c-.552 0-1 .449-1 1s.448 1 1 1 1-.449 1-1-.448-1-1-1z"/><path d="m17 24c-1.103 0-2-.897-2-2s.897-2 2-2 2 .897 2 2-.897 2-2 2zm0-3c-.552 0-1 .449-1 1s.448 1 1 1 1-.449 1-1-.448-1-1-1z"/></svg>