<svg xmlns="http://www.w3.org/2000/svg" viewBox="0 0 100 44" fill="none">
  <!-- Apple silhouette (original design) -->
  <g transform="translate(4,2)">
    <!-- Leaf -->
    <path d="M18 6 C18 6 22 2 26 4 C24 8 20 8 18 6Z" fill="#1a1a2e"/>
    <!-- Apple body -->
    <path d="M12 12 C8 12 4 16 4 22 C4 30 9 38 14 38 C16 38 18 37 20 37 C22 37 24 38 26 38 C31 38 36 30 36 22 C36 16 32 12 28 12 C26 12 24 13 22 13 C20 13 18 12 16 12 Z" fill="#1a1a2e"/>
    <!-- Bite -->
    <circle cx="32" cy="14" r="6" fill="white"/>
  </g>
  <!-- Text -->
  <text x="46" y="28" font-family="'Helvetica Neue','Arial',sans-serif" font-size="17" font-weight="500" letter-spacing="0.5" fill="#1a1a2e">Apple</text>
</svg>
