<svg xmlns="http://www.w3.org/2000/svg" xmlns:xlink="http://www.w3.org/1999/xlink" width="59.97" height="82.03" viewBox="0 0 59.97 82.03">
  <metadata><?xpacket begin="﻿" id="W5M0MpCehiHzreSzNTczkc9d"?>
<x:xmpmeta xmlns:x="adobe:ns:meta/" x:xmptk="Adobe XMP Core 5.6-c138 79.159824, 2016/09/14-01:09:01        ">
   <rdf:RDF xmlns:rdf="http://www.w3.org/1999/02/22-rdf-syntax-ns#">
      <rdf:Description rdf:about=""/>
   </rdf:RDF>
</x:xmpmeta>
                                                                                                    
                                                                                                    
                                                                                                    
                                                                                                    
                                                                                                    
                                                                                                    
                                                                                                    
                                                                                                    
                                                                                                    
                                                                                                    
                                                                                                    
                                                                                                    
                                                                                                    
                                                                                                    
                                                                                                    
                                                                                                    
                                                                                                    
                                                                                                    
                                                                                                    
                                                                                                    
                           
<?xpacket end="w"?></metadata>
<defs>
    <style>
      .cls-1 {
        fill-rule: evenodd;
        fill: url(#linear-gradient);
      }
    </style>
    <linearGradient id="linear-gradient" x1="1076.03" y1="2969.985" x2="1136" y2="2969.985" gradientUnits="userSpaceOnUse">
      <stop offset="0" stop-color="#e72415"/>
      <stop offset="1" stop-color="#ff6716"/>
    </linearGradient>
  </defs>
  <path id="Icon" class="cls-1" d="M1105.94,3011.01c18.04,0,24.93-16.12,24.93-33.51v-11.53c4.89-4.9,6.33-11.93,4.13-20.4-1.55-5.97-4.15-10.56-6.83-15.14a2.46,2.46,0,0,0-1.45-1.32,2.556,2.556,0,0,0-2.6.57c-1.17,1.49-9.46,6.91-10.59,18.84h-15.02c-1.12-11.93-9.39-17.32-10.58-18.84a2.561,2.561,0,0,0-2.6-.57,2.45,2.45,0,0,0-1.46,1.32c-2.79,4.78-5.28,9.16-6.83,15.14-2.17,8.38-.79,15.34,3.97,20.24v11.69c0,17.41,6.9,33.51,24.93,33.51h0Zm0-4.81c-14.98,0-19.94-14.25-19.94-28.7v-11.46l11.28-12.71h17.48l8.53,9.61h-7.38a12.018,12.018,0,1,0,0,24.02h9.17c-1.96,10.83-7.59,19.24-19.14,19.24h0Zm19.76-24.03h-9.79a7.215,7.215,0,1,1,0-14.42h9.97v9.75c0,1.6-.06,3.16-0.18,4.67h0Zm-0.98-46.28,0.6-.58a49.068,49.068,0,0,1,4.85,11.43c1.57,6.08.99,10.98-1.75,14.59l-10-11.27a21.269,21.269,0,0,1,6.3-14.17h0Zm-42.84,10.85a49.528,49.528,0,0,1,4.84-11.43,21.124,21.124,0,0,1,6.9,14.75l-10,11.27c-2.73-3.61-3.32-8.51-1.74-14.59h0Zm0,0,26.13,58.39,4.81-6.95c3.31-4.78-.26-11.21-6.22-11.21h-1.32c-5.96,0-9.53,6.43-6.22,11.21l4.81,6.95a2.537,2.537,0,0,0,4.14,0h0Zm-4.8-9.61a2.4,2.4,0,0,1,2.07-3.74h1.32a2.4,2.4,0,0,1,2.07,3.74l-2.73,3.95Zm0,0,15.19-20.56a2.491,2.491,0,1,1-2.49-2.41,2.44,2.44,0,0,1,2.49,2.41h0Zm0,0-19.94,0a2.491,2.491,0,1,1-2.49-2.41,2.44,2.44,0,0,1,2.49,2.41h0Zm0,0" transform="translate(-1076.03 -2928.97)"/>
</svg>
