<svg enable-background="new 0 0 58 51" height="512" viewBox="0 0 58 51" width="512" xmlns="http://www.w3.org/2000/svg"><path d="m58 16.108c0-8.896-7.164-16.108-16-16.108-4.405 0-8.386 1.798-11.276 4.7-.96.964-2.487.964-3.447 0-2.891-2.902-6.872-4.7-11.277-4.7-8.836 0-16 7.212-16 16.108 0 4.455 1.797 8.487 4.701 11.404l22.629 22.782c.934.94 2.456.94 3.389-.001l5.413-5.455 14.628-14.743 2.578-2.598-.012-.013c2.888-2.913 4.674-6.934 4.674-11.376z" fill="#dd352e"/><circle cx="46" cy="40" fill="#61b872" r="11"/><g fill="#fff"><path d="m46 47c-.552 0-1-.448-1-1v-12c0-.552.448-1 1-1s1 .448 1 1v12c0 .552-.448 1-1 1z"/><path d="m52 41h-12c-.552 0-1-.448-1-1s.448-1 1-1h12c.552 0 1 .448 1 1s-.448 1-1 1z"/></g></svg>