<svg width="46" height="46" fill="#ffffff" viewBox="0 0 24 24" xmlns="http://www.w3.org/2000/svg">
 <path d="M12.559 2.352a.624.624 0 0 0-1.118 0l-.454.905H5.126A1.875 1.875 0 0 0 3.25 5.132v9.375h17.5V5.132a1.875 1.875 0 0 0-1.875-1.875h-5.864l-.452-.905Z"></path>
 <path fill-rule="evenodd" d="M2.625 15.757a.625.625 0 0 0 0 1.25H6.2L5.144 21.23a.625.625 0 0 0 1.212.302l.506-2.026h10.275l.507 2.026a.625.625 0 0 0 1.212-.302L17.8 17.007h3.575a.625.625 0 1 0 0-1.25H2.625Zm4.55 2.5.313-1.25h9.024l.313 1.25h-9.65Z" clip-rule="evenodd"></path>
</svg>