<?xml version="1.0"?>
<svg xmlns="http://www.w3.org/2000/svg" xmlns:xlink="http://www.w3.org/1999/xlink" xmlns:svgjs="http://svgjs.com/svgjs" version="1.1" width="512" height="512" x="0" y="0" viewBox="0 0 512.005 512.005" style="enable-background:new 0 0 512 512" xml:space="preserve" class=""><g>
<g xmlns="http://www.w3.org/2000/svg">
	<g>
		<path d="M394.667,384.002c-29.397,0-53.333,23.936-53.333,53.333s23.936,53.333,53.333,53.333S448,466.733,448,437.336    S424.064,384.002,394.667,384.002z M394.667,469.336c-17.643,0-32-14.357-32-32c0-17.643,14.357-32,32-32s32,14.357,32,32    C426.667,454.978,412.309,469.336,394.667,469.336z" fill="#000" data-original="#000000" style="" class=""/>
	</g>
</g>
<g xmlns="http://www.w3.org/2000/svg">
	<g>
		<path d="M181.333,384.002c-29.397,0-53.333,23.936-53.333,53.333s23.936,53.333,53.333,53.333    c29.397,0,53.333-23.936,53.333-53.333S210.731,384.002,181.333,384.002z M181.333,469.336c-17.643,0-32-14.357-32-32    c0-17.643,14.357-32,32-32c17.643,0,32,14.357,32,32C213.333,454.978,198.976,469.336,181.333,469.336z" fill="#000" data-original="#000000" style="" class=""/>
	</g>
</g>
<g xmlns="http://www.w3.org/2000/svg">
	<g>
		<path d="M458.667,341.336H191.125c-25.323,0-47.317-18.027-52.288-42.88L85.12,29.912c-1.003-4.992-5.376-8.576-10.453-8.576h-64    C4.779,21.336,0,26.114,0,32.002s4.779,10.667,10.667,10.667H65.92l51.989,259.989c6.955,34.773,37.76,60.011,73.216,60.011    h267.541c5.888,0,10.667-4.779,10.667-10.667C469.333,346.114,464.555,341.336,458.667,341.336z" fill="#000" data-original="#000000" style="" class=""/>
	</g>
</g>
<g xmlns="http://www.w3.org/2000/svg">
	<g>
		<path d="M509.397,89.005c-2.027-2.325-4.971-3.669-8.064-3.669H96c-5.888,0-10.667,4.779-10.667,10.667S90.112,106.669,96,106.669    h393.024l-17.237,120.939c-0.683,4.779-4.501,8.512-9.28,9.088L126.741,277.4c-5.867,0.725-10.027,6.037-9.323,11.883    c0.661,5.419,5.248,9.387,10.581,9.387c0.427,0,0.853-0.021,1.28-0.064l335.765-40.725c14.336-1.749,25.771-12.949,27.819-27.243    l19.029-133.141C512.341,94.445,511.424,91.33,509.397,89.005z" fill="#000" data-original="#000000" style="" class=""/>
	</g>
</g>
<g xmlns="http://www.w3.org/2000/svg">
</g>
<g xmlns="http://www.w3.org/2000/svg">
</g>
<g xmlns="http://www.w3.org/2000/svg">
</g>
<g xmlns="http://www.w3.org/2000/svg">
</g>
<g xmlns="http://www.w3.org/2000/svg">
</g>
<g xmlns="http://www.w3.org/2000/svg">
</g>
<g xmlns="http://www.w3.org/2000/svg">
</g>
<g xmlns="http://www.w3.org/2000/svg">
</g>
<g xmlns="http://www.w3.org/2000/svg">
</g>
<g xmlns="http://www.w3.org/2000/svg">
</g>
<g xmlns="http://www.w3.org/2000/svg">
</g>
<g xmlns="http://www.w3.org/2000/svg">
</g>
<g xmlns="http://www.w3.org/2000/svg">
</g>
<g xmlns="http://www.w3.org/2000/svg">
</g>
<g xmlns="http://www.w3.org/2000/svg">
</g>
</g></svg>
