<?xml version="1.0"?>
<svg xmlns="http://www.w3.org/2000/svg" xmlns:xlink="http://www.w3.org/1999/xlink" xmlns:svgjs="http://svgjs.com/svgjs" version="1.1" width="512" height="512" x="0" y="0" viewBox="0 0 512 512" style="enable-background:new 0 0 512 512" xml:space="preserve"><g><g xmlns="http://www.w3.org/2000/svg"><path d="m49.651 188.387-5.654 32.914c-.966 5.627 1.346 11.315 5.964 14.672 4.619 3.358 10.743 3.801 15.797 1.146l29.575-15.541 29.574 15.541c.213.112 8.028 4.503 15.797-1.146 4.619-3.356 6.931-9.045 5.964-14.672l-5.654-32.914 23.914-23.31c4.089-3.985 5.56-9.947 3.795-15.377-1.765-5.431-6.459-9.389-12.11-10.209l-33.076-4.802-14.748-29.943c-5.38-11.095-21.536-11.091-26.913 0l-14.747 29.944-33.077 4.802c-5.65.82-10.346 4.778-12.11 10.209-1.765 5.43-.293 11.392 3.795 15.377zm29.602-25.143c4.891-.71 9.118-3.784 11.301-8.217l4.779-9.704 4.779 9.704c2.184 4.433 6.411 7.507 11.301 8.217l10.807 1.568-7.794 7.598c-3.536 3.447-5.149 8.413-4.313 13.28l1.844 10.732-9.646-5.068c-4.369-2.296-9.587-2.296-13.955 0l-9.646 5.068 1.844-10.732c.836-4.867-.777-9.833-4.313-13.28l-7.794-7.598z" fill="#ffffff" data-original="#000000" style=""/><path d="m347.071 165.077 23.913 23.31-5.653 32.914c-.967 5.627 1.345 11.315 5.964 14.672 4.616 3.357 10.74 3.804 15.797 1.146l29.575-15.541 29.574 15.541c.189.099 8.018 4.511 15.797-1.146 4.619-3.356 6.931-9.045 5.964-14.672l-5.653-32.914 23.913-23.31c8.877-8.544 3.884-23.893-8.314-25.586l-33.077-4.802-14.747-29.942c-5.378-11.097-21.536-11.092-26.912-.001l-14.748 29.943-33.077 4.802c-12.204 1.695-17.19 17.046-8.316 25.586zm53.515-1.833c4.891-.71 9.117-3.784 11.301-8.217l4.78-9.704 4.779 9.704c2.183 4.433 6.41 7.507 11.301 8.217l10.807 1.568-7.794 7.598c-3.537 3.446-5.149 8.413-4.313 13.28l1.843 10.732-9.645-5.068c-4.369-2.295-9.586-2.295-13.955 0l-9.646 5.068 1.843-10.732c.836-4.867-.776-9.834-4.313-13.28l-7.794-7.598z" fill="#ffffff" data-original="#000000" style=""/><path d="m201.882 112.493-7.66 44.539c-.968 5.628 1.344 11.317 5.963 14.675 7.768 5.648 15.581 1.259 15.799 1.145l40.016-21.034 40.016 21.033c5.058 2.657 11.18 2.214 15.8-1.145 4.619-3.358 6.931-9.048 5.963-14.676l-7.661-44.538 32.351-31.551c4.087-3.985 5.558-9.946 3.793-15.376-1.766-5.429-6.46-9.386-12.109-10.206l-44.728-6.498-19.97-40.518c-5.38-11.091-21.533-11.088-26.91 0l-19.969 40.519-44.728 6.498c-5.65.82-10.344 4.777-12.109 10.206-1.765 5.43-.295 11.391 3.792 15.376zm32.817-35.078c4.889-.71 9.115-3.781 11.298-8.213l10.003-20.296 10.003 20.297c2.185 4.432 6.41 7.503 11.299 8.213l22.468 3.265-16.245 15.843c-3.535 3.447-5.147 8.414-4.311 13.281l3.844 22.344-20.078-10.554c-4.369-2.297-9.589-2.297-13.958 0l-20.079 10.554 3.843-22.345c.837-4.866-.774-9.833-4.31-13.28l-16.246-15.844z" fill="#ffffff" data-original="#000000" style=""/><path d="m461.547 380.754c39.233-39.078 11.101-107.778-44.881-107.646-55.979-.132-84.116 68.579-44.879 107.646-14.432 7.734-26.655 19.07-35.454 32.805-8.798-13.734-21.022-25.071-35.453-32.804 39.235-39.078 11.101-107.778-44.881-107.646-55.98-.132-84.116 68.579-44.879 107.646-14.431 7.734-26.655 19.07-35.453 32.804-8.798-13.734-21.022-25.071-35.453-32.804 39.234-39.078 11.101-107.778-44.881-107.646-55.98-.132-84.116 68.579-44.879 107.646-30.001 16.075-50.454 47.735-50.454 84.086v32.133c0 8.284 6.716 15 15 15h482c8.284 0 15-6.716 15-15v-32.133c0-36.351-20.453-68.011-50.453-84.087zm-366.214-77.647c18.306 0 33.2 14.894 33.2 33.2-1.824 44.044-64.583 44.031-66.4 0 0-18.306 14.894-33.2 33.2-33.2zm65.334 178.867h-130.667v-17.133c3.599-86.695 127.1-86.628 130.667 0zm95.333-178.867c18.307 0 33.2 14.894 33.2 33.2-1.824 44.044-64.583 44.031-66.4 0 0-18.306 14.893-33.2 33.2-33.2zm65.333 178.867h-130.666v-17.133c3.599-86.695 127.1-86.628 130.667 0v17.133zm95.334-178.867c18.306 0 33.199 14.894 33.199 33.2-1.824 44.044-64.582 44.031-66.399 0 0-18.306 14.893-33.2 33.2-33.2zm65.333 178.867h-130.667v-17.133c3.599-86.694 127.1-86.629 130.667 0z" fill="#ffffff" data-original="#000000" style=""/></g></g></svg>
