<?xml version="1.0"?>
<svg xmlns="http://www.w3.org/2000/svg" xmlns:xlink="http://www.w3.org/1999/xlink" xmlns:svgjs="http://svgjs.com/svgjs" version="1.1" width="512" height="512" x="0" y="0" viewBox="0 0 469.333 469.333" style="enable-background:new 0 0 512 512" xml:space="preserve" class=""><g>
<g xmlns="http://www.w3.org/2000/svg">
	<g>
		<g>
			<path d="M170.667,0h-128C19.135,0,0,19.135,0,42.667v128c0,23.531,19.135,42.667,42.667,42.667h128     c23.531,0,42.667-19.135,42.667-42.667v-128C213.333,19.135,194.198,0,170.667,0z M192,170.667     c0,11.76-9.573,21.333-21.333,21.333h-128c-11.76,0-21.333-9.573-21.333-21.333v-128c0-11.76,9.573-21.333,21.333-21.333h128     c11.76,0,21.333,9.573,21.333,21.333V170.667z" fill="#ffffff" data-original="#000000" style="" class=""/>
			<path d="M426.667,0h-128C275.135,0,256,19.135,256,42.667v128c0,23.531,19.135,42.667,42.667,42.667h128     c23.531,0,42.667-19.135,42.667-42.667v-128C469.333,19.135,450.198,0,426.667,0z M448,170.667     c0,11.76-9.573,21.333-21.333,21.333h-128c-11.76,0-21.333-9.573-21.333-21.333v-128c0-11.76,9.573-21.333,21.333-21.333h128     c11.76,0,21.333,9.573,21.333,21.333V170.667z" fill="#ffffff" data-original="#000000" style="" class=""/>
			<path d="M170.667,256h-128C19.135,256,0,275.135,0,298.667v128c0,23.531,19.135,42.667,42.667,42.667h128     c23.531,0,42.667-19.135,42.667-42.667v-128C213.333,275.135,194.198,256,170.667,256z M192,426.667     c0,11.76-9.573,21.333-21.333,21.333h-128c-11.76,0-21.333-9.573-21.333-21.333v-128c0-11.76,9.573-21.333,21.333-21.333h128     c11.76,0,21.333,9.573,21.333,21.333V426.667z" fill="#ffffff" data-original="#000000" style="" class=""/>
			<path d="M416,352h-42.667v-42.667c0-5.896-4.771-10.667-10.667-10.667c-5.896,0-10.667,4.771-10.667,10.667V352h-42.667     c-5.896,0-10.667,4.771-10.667,10.667c0,5.896,4.771,10.667,10.667,10.667H352V416c0,5.896,4.771,10.667,10.667,10.667     c5.896,0,10.667-4.771,10.667-10.667v-42.667H416c5.896,0,10.667-4.771,10.667-10.667C426.667,356.771,421.896,352,416,352z" fill="#ffffff" data-original="#000000" style="" class=""/>
		</g>
	</g>
</g>
<g xmlns="http://www.w3.org/2000/svg">
</g>
<g xmlns="http://www.w3.org/2000/svg">
</g>
<g xmlns="http://www.w3.org/2000/svg">
</g>
<g xmlns="http://www.w3.org/2000/svg">
</g>
<g xmlns="http://www.w3.org/2000/svg">
</g>
<g xmlns="http://www.w3.org/2000/svg">
</g>
<g xmlns="http://www.w3.org/2000/svg">
</g>
<g xmlns="http://www.w3.org/2000/svg">
</g>
<g xmlns="http://www.w3.org/2000/svg">
</g>
<g xmlns="http://www.w3.org/2000/svg">
</g>
<g xmlns="http://www.w3.org/2000/svg">
</g>
<g xmlns="http://www.w3.org/2000/svg">
</g>
<g xmlns="http://www.w3.org/2000/svg">
</g>
<g xmlns="http://www.w3.org/2000/svg">
</g>
<g xmlns="http://www.w3.org/2000/svg">
</g>
</g></svg>
