<?xml version="1.0"?>
<svg xmlns="http://www.w3.org/2000/svg" xmlns:xlink="http://www.w3.org/1999/xlink" xmlns:svgjs="http://svgjs.com/svgjs" version="1.1" width="512" height="512" x="0" y="0" viewBox="0 0 512.107 512.107" style="enable-background:new 0 0 512 512" xml:space="preserve"><g><path xmlns="http://www.w3.org/2000/svg" d="m507.606 330.924c5.858-5.857 5.858-15.355 0-21.213-5.857-5.857-15.355-5.857-21.213 0l-9.679 9.679c-25.491-24.736-66.558-36.266-102.452-26.985-25.803-34.521-61.213-59.743-101.172-72.964 98.103-64.618 53.78-218.37-65.292-219.39-119.076 1.024-163.385 154.788-65.294 219.386-82.69 27.439-142.504 105.501-142.504 197.281v80.333c0 8.284 6.716 15 15 15h385.6c86.029.839 140.483-96.828 95.154-169.274zm-389.24-211.44c0-49.313 40.12-89.434 89.434-89.434 118.645 4.913 118.612 173.972-.001 178.866-49.313.001-89.433-40.118-89.433-89.432zm-88.366 362.567v-65.333c.11-166.112 210.366-240.914 315.25-112.748-64.749 36.23-75.152 128.593-20.627 178.081zm452-81.401c-4.47 107.987-158.344 107.96-162.8-.001-.233-70.503 85.163-107.528 136.297-60.043l-54.898 54.898-21.526-21.527c-5.857-5.859-15.355-5.857-21.213 0s-5.858 15.354 0 21.213l32.133 32.134c5.856 5.858 15.361 5.854 21.213 0l62.476-62.476c5.318 10.812 8.318 22.962 8.318 35.802z" fill="#ffffff" data-original="#000000" style=""/></g></svg>
