<?xml version="1.0"?>
<svg xmlns="http://www.w3.org/2000/svg" xmlns:xlink="http://www.w3.org/1999/xlink" xmlns:svgjs="http://svgjs.com/svgjs" version="1.1" width="512" height="512" x="0" y="0" viewBox="0 0 512 512" style="enable-background:new 0 0 512 512" xml:space="preserve"><g><path xmlns="http://www.w3.org/2000/svg" d="m95 61h-60c-19.299 0-35 15.701-35 35v60c0 8.284 6.716 15 15 15s15-6.716 15-15v-60c0-2.757 2.243-5 5-5h60c8.284 0 15-6.716 15-15s-6.716-15-15-15z" fill="#ffffff" data-original="#000000" style=""/><path xmlns="http://www.w3.org/2000/svg" d="m95 421h-60c-2.757 0-5-2.243-5-5v-60c0-8.284-6.716-15-15-15s-15 6.716-15 15v60c0 19.299 15.701 35 35 35h60c8.284 0 15-6.716 15-15s-6.716-15-15-15z" fill="#ffffff" data-original="#000000" style=""/><path xmlns="http://www.w3.org/2000/svg" d="m497 341c-8.284 0-15 6.716-15 15v60c0 2.757-2.243 5-5 5h-60c-8.284 0-15 6.716-15 15s6.716 15 15 15h60c19.299 0 35-15.701 35-35v-60c0-8.284-6.716-15-15-15z" fill="#ffffff" data-original="#000000" style=""/><path xmlns="http://www.w3.org/2000/svg" d="m477 61h-60c-8.284 0-15 6.716-15 15s6.716 15 15 15h60c2.757 0 5 2.243 5 5v60c0 8.284 6.716 15 15 15s15-6.716 15-15v-60c0-19.299-15.701-35-35-35z" fill="#ffffff" data-original="#000000" style=""/><path xmlns="http://www.w3.org/2000/svg" d="m90 375v-238c0-8.284-6.716-15-15-15s-15 6.716-15 15v238c0 8.284 6.716 15 15 15s15-6.716 15-15z" fill="#ffffff" data-original="#000000" style=""/><path xmlns="http://www.w3.org/2000/svg" d="m135 122c-8.284 0-15 6.716-15 15v158c0 8.284 6.716 15 15 15s15-6.716 15-15v-158c0-8.284-6.716-15-15-15z" fill="#ffffff" data-original="#000000" style=""/><path xmlns="http://www.w3.org/2000/svg" d="m195 122c-8.284 0-15 6.716-15 15v238c0 8.284 6.716 15 15 15s15-6.716 15-15v-238c0-8.284-6.716-15-15-15z" fill="#ffffff" data-original="#000000" style=""/><path xmlns="http://www.w3.org/2000/svg" d="m255 122c-8.284 0-15 6.716-15 15v158c0 8.284 6.716 15 15 15s15-6.716 15-15v-158c0-8.284-6.716-15-15-15z" fill="#ffffff" data-original="#000000" style=""/><path xmlns="http://www.w3.org/2000/svg" d="m315 122c-8.284 0-15 6.716-15 15v158c0 8.284 6.716 15 15 15s15-6.716 15-15v-158c0-8.284-6.716-15-15-15z" fill="#ffffff" data-original="#000000" style=""/><path xmlns="http://www.w3.org/2000/svg" d="m375 122c-8.284 0-15 6.716-15 15v158c0 8.284 6.716 15 15 15s15-6.716 15-15v-158c0-8.284-6.716-15-15-15z" fill="#ffffff" data-original="#000000" style=""/><path xmlns="http://www.w3.org/2000/svg" d="m450 375v-238c0-8.284-6.716-15-15-15s-15 6.716-15 15v238c0 8.284 6.716 15 15 15s15-6.716 15-15z" fill="#ffffff" data-original="#000000" style=""/><path xmlns="http://www.w3.org/2000/svg" d="m135 343c-8.284 0-15 6.716-15 15v17c0 8.284 6.716 15 15 15s15-6.716 15-15v-17c0-8.284-6.716-15-15-15z" fill="#ffffff" data-original="#000000" style=""/><path xmlns="http://www.w3.org/2000/svg" d="m255 343c-8.284 0-15 6.716-15 15v17c0 8.284 6.716 15 15 15s15-6.716 15-15v-17c0-8.284-6.716-15-15-15z" fill="#ffffff" data-original="#000000" style=""/><path xmlns="http://www.w3.org/2000/svg" d="m315 343c-8.284 0-15 6.716-15 15v17c0 8.284 6.716 15 15 15s15-6.716 15-15v-17c0-8.284-6.716-15-15-15z" fill="#ffffff" data-original="#000000" style=""/><path xmlns="http://www.w3.org/2000/svg" d="m375 343c-8.284 0-15 6.716-15 15v17c0 8.284 6.716 15 15 15s15-6.716 15-15v-17c0-8.284-6.716-15-15-15z" fill="#ffffff" data-original="#000000" style=""/></g></svg>
