<?xml version="1.0"?>
<svg xmlns="http://www.w3.org/2000/svg" xmlns:xlink="http://www.w3.org/1999/xlink" xmlns:svgjs="http://svgjs.com/svgjs" version="1.1" width="512" height="512" x="0" y="0" viewBox="0 0 512.002 512.002" style="enable-background:new 0 0 512 512" xml:space="preserve"><g>
<g xmlns="http://www.w3.org/2000/svg">
	<g>
		<path d="M471.833,215.834c-3.98,0-7.865,0.573-11.566,1.681v-58.623c0-5.545-4.496-10.039-10.039-10.039h-58.635    c1.109-3.704,1.684-7.593,1.684-11.575c0-22.143-18.018-40.157-40.167-40.157c-22.142,0-40.157,18.014-40.157,40.157    c0,3.983,0.573,7.872,1.682,11.575H256h-58.634c1.108-3.703,1.682-7.593,1.682-11.575c0-22.143-18.014-40.157-40.157-40.157    c-22.148,0-40.167,18.014-40.167,40.157c0,3.982,0.574,7.87,1.684,11.575H61.771c-5.545,0-10.039,4.495-10.039,10.039v58.623    c-3.701-1.107-7.586-1.68-11.565-1.68C18.018,215.834,0,233.852,0,256.001c0,22.143,18.018,40.157,40.167,40.157    c3.981,0,7.866-0.572,11.565-1.678v58.63c0,5.545,4.495,10.039,10.039,10.039h58.636c-1.109,3.704-1.684,7.593-1.684,11.575    c0,22.142,18.019,40.157,40.167,40.157c22.142,0,40.157-18.014,40.157-40.157c0-3.983-0.573-7.872-1.682-11.575H256h76.137    c4.088,0,7.768-2.48,9.304-6.268c1.536-3.789,0.62-8.132-2.315-10.978c-3.93-3.812-6.095-8.925-6.095-14.397    c0-11.076,9.007-20.089,20.078-20.089c11.076,0,20.089,9.012,20.089,20.089c0,5.465-2.167,10.581-6.102,14.403    c-2.931,2.848-3.844,7.189-2.308,10.976c1.537,3.787,5.215,6.264,9.303,6.264h76.137c5.544,0,10.039-4.495,10.039-10.039v-58.63    c3.7,1.106,7.586,1.678,11.566,1.678c22.149,0,40.167-18.014,40.167-40.157C512,233.852,493.982,215.834,471.833,215.834z     M245.961,343.071h-66.098c-4.087,0-7.765,2.478-9.302,6.264c-1.537,3.787-0.624,8.128,2.307,10.976    c3.934,3.823,6.102,8.942,6.102,14.413c0,11.071-9.007,20.078-20.078,20.078c-11.077,0-20.089-9.007-20.089-20.078    c0-5.465,2.169-10.586,6.109-14.419c2.927-2.849,3.837-7.189,2.299-10.974c-1.538-3.785-5.215-6.26-9.301-6.26H71.81v-66.098    c0-4.089-2.48-7.768-6.268-9.304c-3.79-1.537-8.132-0.619-10.978,2.315c-3.812,3.931-8.925,6.096-14.397,6.096    c-11.077,0-20.089-9.007-20.089-20.078c0-11.076,9.011-20.088,20.089-20.088c5.465,0,10.581,2.167,14.403,6.102    c2.847,2.931,7.187,3.845,10.976,2.307c3.787-1.536,6.264-5.215,6.264-9.302v-66.088h66.098c4.085,0,7.763-2.476,9.301-6.26    c1.538-3.785,0.628-8.124-2.299-10.974c-3.939-3.833-6.109-8.954-6.109-14.419c0-11.071,9.012-20.078,20.089-20.078    c11.071,0,20.078,9.007,20.078,20.078c0,5.471-2.167,10.59-6.102,14.413c-2.931,2.848-3.844,7.189-2.307,10.976    s5.215,6.264,9.302,6.264h66.098v48.585c-3.703-1.108-7.593-1.682-11.575-1.682c-22.142,0-40.157,18.018-40.157,40.167    c0,22.142,18.014,40.157,40.157,40.157c3.985,0,7.873-0.572,11.575-1.68V343.071z M471.833,276.079    c-5.472,0-10.586-2.164-14.398-6.096c-2.847-2.935-7.188-3.85-10.978-2.315s-6.268,5.215-6.268,9.304v66.098h-48.593    c1.108-3.701,1.681-7.586,1.681-11.565c0-22.149-18.018-40.167-40.167-40.167c-22.142,0-40.157,18.018-40.157,40.167    c0,3.981,0.572,7.866,1.678,11.565h-48.591v-66.098c0-4.088-2.48-7.768-6.268-9.304c-3.787-1.538-8.13-0.621-10.977,2.315    c-3.813,3.931-8.93,6.096-14.408,6.096c-11.071,0-20.078-9.007-20.078-20.078c0-11.076,9.007-20.088,20.078-20.088    c5.472,0,10.59,2.167,14.413,6.102c2.848,2.931,7.189,3.845,10.975,2.307c3.787-1.537,6.264-5.215,6.264-9.302v-66.088h66.098    c4.087,0,7.765-2.478,9.303-6.264c1.536-3.787,0.623-8.128-2.308-10.975c-3.934-3.823-6.101-8.941-6.101-14.413    c0-11.071,9.007-20.078,20.078-20.078c11.076,0,20.089,9.007,20.089,20.078c0,5.465-2.169,10.586-6.109,14.419    c-2.927,2.849-3.836,7.188-2.299,10.974c1.538,3.785,5.215,6.26,9.301,6.26h66.098v66.088c0,4.087,2.478,7.765,6.264,9.302    c3.786,1.538,8.128,0.625,10.976-2.307c3.823-3.934,8.938-6.102,14.404-6.102c11.076,0,20.089,9.012,20.089,20.089    C491.922,267.072,482.909,276.079,471.833,276.079z" fill="#ffffff" data-original="#000000" style=""/>
	</g>
</g>
<g xmlns="http://www.w3.org/2000/svg">
	<g>
		<path d="M361.106,183.384h-54.529c-5.544,0-10.039,4.495-10.039,10.039c0,5.545,4.496,10.039,10.039,10.039h54.529    c5.544,0,10.039-4.495,10.039-10.039C371.145,187.879,366.65,183.384,361.106,183.384z" fill="#ffffff" data-original="#000000" style=""/>
	</g>
</g>
<g xmlns="http://www.w3.org/2000/svg">
	<g>
		<path d="M399.652,183.384c-12.919,0-12.941,20.078,0,20.078C412.572,203.463,412.593,183.384,399.652,183.384z" fill="#ffffff" data-original="#000000" style=""/>
	</g>
</g>
<g xmlns="http://www.w3.org/2000/svg">
</g>
<g xmlns="http://www.w3.org/2000/svg">
</g>
<g xmlns="http://www.w3.org/2000/svg">
</g>
<g xmlns="http://www.w3.org/2000/svg">
</g>
<g xmlns="http://www.w3.org/2000/svg">
</g>
<g xmlns="http://www.w3.org/2000/svg">
</g>
<g xmlns="http://www.w3.org/2000/svg">
</g>
<g xmlns="http://www.w3.org/2000/svg">
</g>
<g xmlns="http://www.w3.org/2000/svg">
</g>
<g xmlns="http://www.w3.org/2000/svg">
</g>
<g xmlns="http://www.w3.org/2000/svg">
</g>
<g xmlns="http://www.w3.org/2000/svg">
</g>
<g xmlns="http://www.w3.org/2000/svg">
</g>
<g xmlns="http://www.w3.org/2000/svg">
</g>
<g xmlns="http://www.w3.org/2000/svg">
</g>
</g></svg>
