<?xml version="1.0"?>
<svg xmlns="http://www.w3.org/2000/svg" xmlns:xlink="http://www.w3.org/1999/xlink" xmlns:svgjs="http://svgjs.com/svgjs" version="1.1" width="512" height="512" x="0" y="0" viewBox="0 0 480.08177 480" style="enable-background:new 0 0 512 512" xml:space="preserve"><g><path xmlns="http://www.w3.org/2000/svg" d="m479.199219 113.800781c-1.652344-6.144531-5.683594-11.382812-11.199219-14.558593-5.519531-3.191407-12.082031-4.054688-18.238281-2.402344-6.148438 1.65625-11.386719 5.683594-14.5625 11.199218l-4 6.960938c-3.800781-2.183594-8.65625-.898438-10.878907 2.882812l-20.320312 34.636719-6.960938-4c-1.84375-1.066406-4.039062-1.355469-6.09375-.800781-2.058593.558594-3.808593 1.910156-4.867187 3.761719-2.167969 3.824219-.847656 8.683593 2.960937 10.878906l6.960938 4-68 117.839844-16.800781 44.882812-8 14.957031c-4.683594 8.148438-4.183594 18.277344 1.28125 25.921876l-18 22.078124-5.039063-12.636718c-2.273437-5.632813-7.535156-9.492188-13.585937-9.964844-6.054688-.476562-11.855469 2.515625-14.976563 7.722656l-2.878906 4.878906-2.71875-32c-.625-7.570312-6.488281-13.65625-14.027344-14.570312-7.542968-.910156-14.683594 3.609375-17.09375 10.8125l-19.679687 59.039062c-1.375 4.175782.875 8.675782 5.039062 10.082032.78125.363281 1.621094.582031 2.480469.636718 3.4375.011719 6.5-2.179687 7.601562-5.4375l19.597657-59.039062 2.800781 32.476562c.578125 6.929688 5.558594 12.691407 12.332031 14.261719 6.773438 1.570313 13.78125-1.414062 17.347657-7.378906l2.960937-4.882813 4.960937 12.5625c2.105469 5.292969 6.867188 9.070313 12.503907 9.910157 5.636719.839843 11.292969-1.382813 14.855469-5.832031l18.640624-23.597657c2.0625.539063 4.1875.808594 6.320313.800781 8.574219.066407 16.535156-4.449218 20.878906-11.84375l8-13.359374 30.480469-37.039063 68.71875-119.28125 6.960938 4c1.855468 1.0625 3.207031 2.816406 3.757812 4.882813.554688 2.050781.265625 4.238281-.796875 6.078124l-32 55.441407c-1.207031 1.820312-1.617187 4.054687-1.132813 6.1875.484376 2.128906 1.816407 3.96875 3.691407 5.089843 1.84375 1.070313 4.039062 1.359376 6.09375.804688 2.058593-.558594 3.808593-1.910156 4.867187-3.761719l32-55.441406c3.191406-5.519531 4.054688-12.082031 2.398438-18.238281-1.65625-6.148438-5.683594-11.386719-11.199219-14.5625l-6.960937-4 20-34.640625c2.183593-3.800781.898437-8.652344-2.878907-10.878907l4-6.960937c3.277344-5.605469 4.144531-12.300781 2.398438-18.558594zm-30.160157 2.238281c1.058594-1.851562 2.816407-3.207031 4.882813-3.757812 2.054687-.507812 4.226563-.222656 6.078125.800781 1.855469 1.058594 3.207031 2.816407 3.761719 4.878907.507812 2.054687.222656 4.226562-.800781 6.078124l-4 6.960938-13.921876-8zm-109.039062 223.363282-4-2.320313-11.839844-6.882812 11.359375-30.398438 25.199219 14.558594zm-24 23.117187c-3.378906-2.355469-4.417969-6.886719-2.398438-10.480469l4-6.957031 13.917969 8-4 6.878907c-1.121093 1.945312-3.003906 3.328124-5.195312 3.816406-2.191407.484375-4.484375.03125-6.324219-1.257813zm53.839844-61.277343-27.679688-16 64-110.882813 27.679688 16zm72-124.722657-27.679688-16 16-27.679687 27.679688 16zm0 0" fill="#ffffff" data-original="#000000" style=""/><path xmlns="http://www.w3.org/2000/svg" d="m126.238281 358.519531-28.316406 28.242188-16.960937-16.960938c-3.121094-3.101562-8.160157-3.101562-11.28125 0-1.515626 1.503907-2.367188 3.546875-2.367188 5.679688 0 2.132812.851562 4.179687 2.367188 5.679687l16.960937 16.960938c3 2.976562 7.054687 4.644531 11.28125 4.640625 4.25.023437 8.339844-1.644531 11.359375-4.640625l28.238281-28.320313c2.71875-3.175781 2.535157-7.90625-.417969-10.859375-2.957031-2.957031-7.6875-3.140625-10.863281-.421875zm0 0" fill="#ffffff" data-original="#000000" style=""/><path xmlns="http://www.w3.org/2000/svg" d="m32 380.039062c0 37.558594 30.445312 68 68 68s68-30.441406 68-68c0-4.417968-3.582031-8-8-8s-8 3.582032-8 8c0 28.71875-23.28125 52-52 52s-52-23.28125-52-52 23.28125-52 52-52c11.257812-.03125 22.214844 3.621094 31.199219 10.402344 3.535156 2.652344 8.550781 1.933594 11.199219-1.601562 2.652343-3.535156 1.9375-8.546875-1.597657-11.199219-20.605469-15.453125-48.175781-17.9375-71.210937-6.421875-23.039063 11.519531-37.589844 35.066406-37.589844 60.820312zm0 0" fill="#ffffff" data-original="#000000" style=""/><path xmlns="http://www.w3.org/2000/svg" d="m288 64.039062c4.417969 0 8-3.578124 8-8 0-4.417968-3.582031-8-8-8h-208c-4.417969 0-8 3.582032-8 8v32c0 4.421876 3.582031 8 8 8h208c4.417969 0 8-3.578124 8-8 0-4.417968-3.582031-8-8-8h-200v-16zm0 0" fill="#ffffff" data-original="#000000" style=""/><path xmlns="http://www.w3.org/2000/svg" d="m104 112.039062c-4.417969 0-8 3.582032-8 8 0 4.421876 3.582031 8 8 8h160c4.417969 0 8-3.578124 8-8 0-4.417968-3.582031-8-8-8zm0 0" fill="#ffffff" data-original="#000000" style=""/><path xmlns="http://www.w3.org/2000/svg" d="m312 168.039062h-176c-4.417969 0-8 3.582032-8 8 0 4.421876 3.582031 8 8 8h176c4.417969 0 8-3.578124 8-8 0-4.417968-3.582031-8-8-8zm0 0" fill="#ffffff" data-original="#000000" style=""/><path xmlns="http://www.w3.org/2000/svg" d="m232 224.039062c0-4.417968-3.582031-8-8-8h-160c-4.417969 0-8 3.582032-8 8 0 4.421876 3.582031 8 8 8h160c4.417969 0 8-3.578124 8-8zm0 0" fill="#ffffff" data-original="#000000" style=""/><path xmlns="http://www.w3.org/2000/svg" d="m312 216.039062h-56c-4.417969 0-8 3.582032-8 8 0 4.421876 3.582031 8 8 8h56c4.417969 0 8-3.578124 8-8 0-4.417968-3.582031-8-8-8zm0 0" fill="#ffffff" data-original="#000000" style=""/><path xmlns="http://www.w3.org/2000/svg" d="m144 272.039062c4.417969 0 8-3.578124 8-8 0-4.417968-3.582031-8-8-8h-80c-4.417969 0-8 3.582032-8 8 0 4.421876 3.582031 8 8 8zm0 0" fill="#ffffff" data-original="#000000" style=""/><path xmlns="http://www.w3.org/2000/svg" d="m176 272.039062h56c4.417969 0 8-3.578124 8-8 0-4.417968-3.582031-8-8-8h-56c-4.417969 0-8 3.582032-8 8 0 4.421876 3.582031 8 8 8zm0 0" fill="#ffffff" data-original="#000000" style=""/><path xmlns="http://www.w3.org/2000/svg" d="m360 368.039062c-4.417969 0-8 3.582032-8 8v80c0 4.421876-3.582031 8-8 8h-320c-4.417969 0-8-3.578124-8-8v-432c0-4.417968 3.582031-8 8-8h320c4.417969 0 8 3.582032 8 8v150.242188c0 4.417969 3.582031 8 8 8s8-3.582031 8-8v-150.242188c0-13.253906-10.746094-23.9999995-24-23.9999995h-320c-13.253906 0-24 10.7460935-24 23.9999995v432c0 13.257813 10.746094 24 24 24h320c13.253906 0 24-10.742187 24-24v-80c0-4.417968-3.582031-8-8-8zm0 0" fill="#ffffff" data-original="#000000" style=""/></g></svg>
