<?xml version="1.0"?>
<svg xmlns="http://www.w3.org/2000/svg" xmlns:xlink="http://www.w3.org/1999/xlink" xmlns:svgjs="http://svgjs.com/svgjs" version="1.1" width="512" height="512" x="0" y="0" viewBox="0 0 511.99914 511" style="enable-background:new 0 0 512 512" xml:space="preserve"><g><path xmlns="http://www.w3.org/2000/svg" d="m378.007812 4.929688c-2.8125-2.835938-6.648437-4.429688-10.644531-4.429688-3.996093 0-7.828125 1.597656-10.644531 4.433594l-44.3125 44.65625c-2.933594 2.953125-6.828125 4.582031-10.960938 4.582031-3.148437 0-78.464843 0-91.664062 0-4.136719 0-8.027344-1.628906-10.988281-4.605469l-43.535157-43.65625c-2.8125-2.824218-6.636718-4.410156-10.621093-4.410156-.003907 0-.011719 0-.015625 0-3.992188.003906-7.816406 1.601562-10.628906 4.433594l-129.636719 130.59375c-5.816407 5.859375-5.804688 15.316406.027343 21.164062l37.179688 37.25c7.042969 7.097656 10.921875 16.539063 10.921875 26.589844 0 13.003906 3.648437 25.441406 10.429687 36.15625-14.757812 17.945312-13.804687 44.671875 2.875 61.472656 8.074219 8.136719 18.648438 12.839844 29.988282 13.394532.519531 10.96875 4.925781 21.78125 13.222656 30.136718 8.074219 8.136719 18.648438 12.839844 29.992188 13.394532.515624 10.96875 4.925781 21.78125 13.21875 30.136718 13.058593 13.15625 31.796874 16.472656 47.621093 10.789063 2.179688 6.296875 5.757813 12.203125 10.742188 17.222656 17.808593 17.945313 46.6875 17.949219 64.5 0l6.332031-6.375c3.957031-3.988281 7.023438-8.539063 9.210938-13.394531 17.714843 15.652344 45.019531 15.304687 62.28125-2.085938 8.296874-8.355468 12.703124-19.167968 13.21875-30.136718 11.339843-.550782 21.917968-5.257813 29.992187-13.394532 8.296875-8.355468 12.703125-19.167968 13.222656-30.136718 11.335938-.550782 21.914063-5.257813 29.988281-13.390626 16.585938-16.707031 17.628907-43.234374 3.128907-61.179687 10.566406-14.886719 16.289062-32.65625 16.289062-51.316406 0-4.371094 1.753907-8.644531 4.8125-11.726563l44.09375-44.4375c5.804688-5.847656 5.804688-15.285156 0-21.132812zm-290.925781 270.699218 21.605469-21.765625c6.066406-6.113281 15.847656-6.117187 21.917969 0 6.132812 6.175781 6.132812 16.222657 0 22.394531l-21.605469 21.769532c-6.070312 6.113281-15.847656 6.113281-21.917969 0-6.128906-6.175782-6.128906-16.222656 0-22.398438zm43.210938 43.53125 43.210937-43.53125c6.070313-6.113281 15.851563-6.117187 21.921875 0 6.128907 6.175782 6.128907 16.222656 0 22.398438-15.402343 15.515625-16.222656 16.339844-43.214843 43.53125-6.070313 6.109375-15.847657 6.113281-21.917969-.003906-6.128907-6.171876-6.128907-16.21875 0-22.394532zm43.210937 65.925782c-6.128906-6.171876-6.128906-16.21875 0-22.394532l21.605469-21.765625c6.070313-6.113281 15.851563-6.113281 21.921875 0 5.660156 5.703125 6.082031 14.699219 1.285156 20.910157-1.320312 1.21875.644532-.742188-22.890625 23.25-6.070312 6.117187-15.847656 6.121093-21.921875 0zm86.613282 21.636718-6.332032 6.375c-6.070312 6.117188-15.847656 6.117188-21.917968 0-5.585938-5.625-6.066407-14.457031-1.472657-20.652344 8.234375-8.324218 7.832031-7.832031 9.265625-9.402343 6.125-4.816407 14.871094-4.339844 20.457032 1.285156 6.128906 6.175781 6.125 16.222656 0 22.394531zm157.914062-102.539062c-6.070312 6.113281-15.851562 6.113281-21.921875 0l-27.933594-28.140625c-5.835937-5.878907-15.335937-5.914063-21.214843-.078125-5.878907 5.835937-5.914063 15.332031-.078126 21.210937l27.9375 28.140625c6.128907 6.175782 6.128907 16.222656 0 22.394532-6.070312 6.117187-15.851562 6.117187-21.921874 0l-27.933594-28.140626c-5.839844-5.878906-15.335938-5.914062-21.214844-.078124-5.878906 5.835937-5.914062 15.335937-.078125 21.214843l27.933594 28.140625c6.132812 6.175782 6.132812 16.222656 0 22.394532-6.066407 6.117187-15.847657 6.117187-21.921875 0-29.40625-29.382813-27.996094-28.738282-30.957032-30.527344-7.640624-6.578125-17.105468-10.390625-27.191406-10.90625-.542968-10.925782-4.949218-21.691406-13.210937-30.019532-4.238281-4.265624-9.167969-7.585937-14.53125-9.859374 10.171875-17.511719 7.816406-40.433594-7.078125-55.433594-15.265625-15.378906-38.101563-17.242188-55.128906-7.269532-2.207032-5.269531-5.429688-10.210937-9.6875-14.496093-17.8125-17.945313-46.6875-17.945313-64.503907 0l-2.390625 2.410156c-1.648437-4.28125-2.519531-8.878906-2.519531-13.609375 0-18.023438-6.972656-34.96875-19.660156-47.753906l-26.660157-26.710938 108.496094-109.300781 32.867188 32.957031c7.34375 7.398438 16.761718 11.949219 26.9375 13.128906l-67.03125 80.433594c-5.300782 6.367188-4.441406 15.824219 1.921875 21.125 15.386719 12.824219 34.847656 18.890625 54.796875 17.078125 19.945312-1.8125 37.996094-11.285156 50.835937-26.695312 5.371094-6.445313 14.40625-8.386719 21.980469-4.730469 15.457031 7.46875 32.445312 10.195312 49.15625 8.0625l101.90625 102.660156c6.128906 6.175782 6.128906 16.222656 0 22.398438zm24.230469-124.222656c-8.722657 8.785156-13.523438 20.457031-13.523438 32.863281 0 10.46875-2.714843 20.507812-7.785156 29.320312l-72.957031-73.492187c14.914062-8.296875 27.144531-20.769532 35.257812-36.230469 3.847656-7.335937 1.019532-16.402344-6.316406-20.25-7.335938-3.851563-16.402344-1.023437-20.25 6.3125-8.140625 15.515625-22.113281 25.871094-37.765625 29.707031-.6875.105469-1.371094.253906-2.039063.457032-12.027343 2.488281-24.921874 1.171874-36.863281-4.597657-19.996093-9.660156-43.875-4.503906-58.09375 12.558594-7.695312 9.230469-18.523437 14.914063-30.488281 16.003906-6.800781.617188-13.503906-.292969-19.722656-2.601562l69.441406-83.339844c5.441406-1.660156 11.082031-2.628906 16.769531-2.628906h43.519531c12.1875 0 23.640626-4.648438 32.253907-13.320313l33.667969-33.929687 108.5 109.300781zm0 0" fill="#ffffff" data-original="#000000" style=""/></g></svg>
