<?xml version="1.0"?>
<svg xmlns="http://www.w3.org/2000/svg" xmlns:xlink="http://www.w3.org/1999/xlink" xmlns:svgjs="http://svgjs.com/svgjs" version="1.1" width="512" height="512" x="0" y="0" viewBox="0 0 512 512" style="enable-background:new 0 0 512 512" xml:space="preserve"><g><g xmlns="http://www.w3.org/2000/svg"><path d="m419.688 30.839c-15.91-19.887-37.361-30.839-60.402-30.839-23.042 0-44.493 10.952-60.402 30.839-15.125 18.906-23.455 43.849-23.455 70.232s8.33 51.326 23.455 70.232c12.393 15.492 28.15 25.56 45.402 29.254v74.871h-26.929l-6.325 186.654c-.447 13.199 4.361 25.697 13.54 35.192s21.507 14.726 34.714 14.726c13.206 0 25.534-5.229 34.713-14.725s13.987-21.993 13.54-35.192l-6.325-186.654h-26.928v-74.871c17.251-3.694 33.008-13.762 45.402-29.254 15.124-18.906 23.454-43.849 23.454-70.232s-8.329-51.327-23.454-70.233zm-47.258 445.586c-3.476 3.596-8.144 5.575-13.144 5.575-5.001 0-9.669-1.98-13.145-5.575-3.476-3.596-5.296-8.328-5.127-13.326l5.343-157.67h25.856l5.343 157.67c.17 4.998-1.651 9.73-5.126 13.326zm-13.144-304.282c-29.697 0-53.857-31.883-53.857-71.071s24.16-71.072 53.857-71.072c29.696 0 53.856 31.883 53.856 71.071s-24.16 71.072-53.856 71.072z" fill="#ffffff" data-original="#000000" style=""/><path d="m206.571 86.071h-38.857v-86.071h-30v86.071h-38.857v-86.071h-30v101.071c0 26.384 8.33 51.326 23.454 70.232 12.394 15.492 28.151 25.56 45.402 29.254v74.871h-26.928l-6.325 186.654c-.447 13.198 4.361 25.697 13.54 35.192s21.509 14.726 34.716 14.726c13.206 0 25.534-5.229 34.713-14.724s13.986-21.993 13.539-35.191l-6.325-186.656h-26.929v-74.871c17.252-3.694 33.009-13.762 45.402-29.254 15.125-18.906 23.455-43.849 23.455-70.232v-101.072h-30zm-40.712 390.354c-3.476 3.596-8.144 5.575-13.146 5.575-5 0-9.668-1.979-13.144-5.575s-5.296-8.328-5.127-13.326l5.343-157.67h25.856l5.343 157.672c.17 4.998-1.65 9.729-5.125 13.324zm-13.145-304.282c-25.798 0-47.418-24.062-52.649-56.071h105.3c-5.233 32.009-26.853 56.071-52.651 56.071z" fill="#ffffff" data-original="#000000" style=""/></g></g></svg>
