<?xml version="1.0"?>
<svg xmlns="http://www.w3.org/2000/svg" xmlns:xlink="http://www.w3.org/1999/xlink" xmlns:svgjs="http://svgjs.com/svgjs" version="1.1" width="512" height="512" x="0" y="0" viewBox="0 0 512 512" style="enable-background:new 0 0 512 512" xml:space="preserve"><g><path xmlns="http://www.w3.org/2000/svg" d="m477 119.517h-66.5v-55c0-19.299-15.701-35-35-35h-239c-19.299 0-35 15.701-35 35v134h-66.5c-19.299 0-35 15.701-35 35v159c0 19.299 15.701 35 35 35h38v29.943c0 9.543 5.305 18.116 13.846 22.374 3.562 1.775 7.382 2.65 11.181 2.649 5.31 0 10.576-1.71 15.018-5.058l66.235-49.909h94.72c19.299 0 35-15.701 35-35v-44h23.72l66.234 49.909c4.444 3.349 9.708 5.059 15.019 5.058 3.798 0 7.621-.875 11.181-2.649 8.541-4.258 13.846-12.831 13.846-22.374v-29.943h38c19.299 0 35-15.701 35-35v-159c0-19.299-15.701-35-35-35zm5 194c0 2.757-2.243 5-5 5h-53c-8.284 0-15 6.716-15 15v34.915l-62.234-46.895c-2.601-1.96-5.77-3.021-9.027-3.021h-99.739c-2.757 0-5-2.243-5-5v-159c0-2.757 2.243-5 5-5h239c2.757 0 5 2.243 5 5zm-208 84h-99.739c-3.257 0-6.426 1.061-9.027 3.021l-62.234 46.894v-34.915c0-8.284-6.716-15-15-15h-53c-2.757 0-5-2.243-5-5v-159c0-2.757 2.243-5 5-5h168v85c0 19.299 15.701 35 35 35h41v44c0 2.756-2.243 5-5 5zm-137.5-338h239c2.757 0 5 2.243 5 5v55h-142.5c-19.299 0-35 15.701-35 35v44h-71.5v-134c0-2.757 2.243-5 5-5z" fill="#ffffff" data-original="#000000" style=""/></g></svg>
