<?xml version="1.0"?>
<svg xmlns="http://www.w3.org/2000/svg" xmlns:xlink="http://www.w3.org/1999/xlink" xmlns:svgjs="http://svgjs.com/svgjs" version="1.1" width="512" height="512" x="0" y="0" viewBox="0 0 512.013 512.013" style="enable-background:new 0 0 512 512" xml:space="preserve"><g><g xmlns="http://www.w3.org/2000/svg"><g><path d="m508.437 296.851c-1.071-4.506-5.097-7.686-9.729-7.686-13.617 0-38.048-6.781-58.708-15.76v-43.395c0-16.542-13.458-30-30-30h-20v-180.005c0-11.028-8.972-20-20-20h-300c-11.028 0-20 8.972-20 20v120.005h-30c-11.028 0-20 8.972-20 20v290.001c0 16.542 13.458 30 30 30h324.815c11.763 10.871 25.703 21.246 42.23 30.681 1.536.877 3.247 1.315 4.958 1.315s3.421-.439 4.958-1.315c69.205-39.506 93.157-95.484 101.064-135.487 8.547-43.242.748-76.94.412-78.354zm-438.437-276.846h300v180.005h-173.229l-16.762-41.904c-4.397-10.993-14.557-18.097-25.883-18.097h-84.126zm-50 430.006v-10.001h51.996c5.523 0 10-4.477 10-10s-4.477-10-10-10h-51.996v-260h134.126c3.526 0 6.214 2.774 7.314 5.524l19.277 48.19c1.519 3.797 5.196 6.286 9.285 6.286h220c5.514 0 10 4.486 10 10v33.151c-4.433-2.744-8.201-5.53-10.967-8.266-3.896-3.853-10.166-3.853-14.063 0-16.401 16.218-67.452 34.269-89.675 34.269-4.631 0-8.657 3.18-9.729 7.686-.336 1.414-8.135 35.112.413 78.354 4.886 24.721 15.907 55.542 39.941 84.807h-305.922c-5.514 0-10-4.486-10-10zm468.404-78.685c-9.983 50.501-39.038 90.54-86.402 119.088-47.102-28.392-76.104-68.164-86.243-118.294-5.673-28.053-3.625-52.039-1.985-63.479 25.801-2.903 66.551-17.472 88.229-33.571 21.682 16.103 62.445 30.674 88.246 33.573 1.634 11.289 3.662 34.821-1.845 62.683z" fill="#ffffff" data-original="#000000" style=""/><path d="m106.501 60.006h226.999c5.523 0 10-4.477 10-10s-4.477-10-10-10h-226.999c-5.523 0-10 4.477-10 10s4.477 10 10 10z" fill="#ffffff" data-original="#000000" style=""/><path d="m343.5 90.006c0-5.523-4.477-10-10-10h-226.999c-5.523 0-10 4.477-10 10s4.477 10 10 10h226.999c5.522 0 10-4.477 10-10z" fill="#ffffff" data-original="#000000" style=""/><path d="m333.5 120.006h-113.5c-5.523 0-10 4.477-10 10s4.477 10 10 10h113.5c5.523 0 10-4.477 10-10s-4.478-10-10-10z" fill="#ffffff" data-original="#000000" style=""/><path d="m333.5 160.006h-59c-5.523 0-10 4.477-10 10s4.477 10 10 10h59c5.523 0 10-4.477 10-10s-4.478-10-10-10z" fill="#ffffff" data-original="#000000" style=""/><path d="m439.358 327.603c-8.013 0-15.546 3.121-21.212 8.787l-27.6 27.6-4.69-4.69c-5.666-5.666-13.199-8.786-21.212-8.786s-15.546 3.121-21.211 8.786c-5.666 5.666-8.787 13.199-8.787 21.212s3.121 15.546 8.786 21.212l25.902 25.902c5.848 5.848 13.53 8.771 21.211 8.771s15.364-2.924 21.212-8.771l48.812-48.812c11.696-11.696 11.696-30.728 0-42.423-5.664-5.667-13.197-8.788-21.211-8.788zm7.07 37.067-48.811 48.812c-3.898 3.898-10.241 3.897-14.139 0l-25.902-25.902c-1.889-1.888-2.928-4.399-2.928-7.069 0-2.671 1.04-5.181 2.928-7.069 1.888-1.889 4.399-2.928 7.069-2.928s5.181 1.04 7.069 2.928l11.761 11.761c1.875 1.875 4.419 2.929 7.071 2.929s5.196-1.054 7.071-2.929l34.671-34.671c1.888-1.889 4.399-2.928 7.069-2.928 2.671 0 5.181 1.04 7.069 2.928 3.9 3.898 3.9 10.24.002 14.138z" fill="#ffffff" data-original="#000000" style=""/><path d="m116.993 420.01c-5.523 0-10 4.477-10 10s4.477 10 10 10h.007c5.523 0 9.997-4.477 9.997-10s-4.481-10-10.004-10z" fill="#ffffff" data-original="#000000" style=""/></g></g></g></svg>
