<?xml version="1.0"?>
<svg xmlns="http://www.w3.org/2000/svg" xmlns:xlink="http://www.w3.org/1999/xlink" xmlns:svgjs="http://svgjs.com/svgjs" version="1.1" width="512" height="512" x="0" y="0" viewBox="0 0 512 512" style="enable-background:new 0 0 512 512" xml:space="preserve"><g>
<g xmlns="http://www.w3.org/2000/svg">
	<g>
		<path d="M467,0H45C20.187,0,0,20.187,0,45v302c0,24.813,20.187,45,45,45h136v30h-15c-24.813,0-45,20.187-45,45v30    c0,8.284,6.716,15,15,15h240c8.284,0,15-6.716,15-15v-30c0-24.813-20.187-45-45-45h-15v-30h136c24.813,0,45-20.187,45-45V45    C512,20.187,491.813,0,467,0z M346,452c8.271,0,15,6.729,15,15v15H151v-15c0-8.271,6.729-15,15-15    C173.146,452,338.849,452,346,452z M211,422v-30h90v30H211z M482,347c0,8.271-6.729,15-15,15H316H196H45c-8.271,0-15-6.729-15-15    V45c0-8.271,6.729-15,15-15h422c8.271,0,15,6.729,15,15V347z" fill="#ffffff" data-original="#000000" style=""/>
	</g>
</g>
<g xmlns="http://www.w3.org/2000/svg">
	<g>
		<path d="M411.57,70.901C362.769,51.38,304.579,56.756,256,95.62c-48.383-38.707-106.548-44.325-155.571-24.718    C94.734,73.179,91,78.695,91,84.829V285c0,4.978,2.469,9.63,6.591,12.421c4.121,2.791,9.357,3.354,13.98,1.506    c41.252-16.501,88.437-9.511,123.135,18.248c12.765,10.211,13.222,10.901,16.372,11.995c0,0,0,0,0.001,0    c1.408,0.49,3.275,0.828,4.907,0.83c0.004,0,0.008,0,0.012,0c0.001,0,0.001,0,0.002,0s0.001,0,0.002,0c0.004,0,0.008,0,0.012,0    c6.953-0.007,10.451-4.162,21.28-12.825c34.697-27.758,81.882-34.749,123.135-18.247c4.622,1.848,9.858,1.284,13.98-1.506    c4.122-2.79,6.591-7.444,6.591-12.422V84.828C421,78.694,417.266,73.179,411.57,70.901z M241,284.775    c-25.109-16.251-54.237-24.657-83.62-24.657c-12.171,0-24.39,1.443-36.38,4.368V95.421c38.77-11.962,79.446-5.829,120,26.617    V284.775z M391,264.485c-40.934-9.983-84.488-2.694-120,20.291V122.038c40.82-32.659,81.559-38.479,120-26.617V264.485z" fill="#ffffff" data-original="#000000" style=""/>
	</g>
</g>
<g xmlns="http://www.w3.org/2000/svg">
</g>
<g xmlns="http://www.w3.org/2000/svg">
</g>
<g xmlns="http://www.w3.org/2000/svg">
</g>
<g xmlns="http://www.w3.org/2000/svg">
</g>
<g xmlns="http://www.w3.org/2000/svg">
</g>
<g xmlns="http://www.w3.org/2000/svg">
</g>
<g xmlns="http://www.w3.org/2000/svg">
</g>
<g xmlns="http://www.w3.org/2000/svg">
</g>
<g xmlns="http://www.w3.org/2000/svg">
</g>
<g xmlns="http://www.w3.org/2000/svg">
</g>
<g xmlns="http://www.w3.org/2000/svg">
</g>
<g xmlns="http://www.w3.org/2000/svg">
</g>
<g xmlns="http://www.w3.org/2000/svg">
</g>
<g xmlns="http://www.w3.org/2000/svg">
</g>
<g xmlns="http://www.w3.org/2000/svg">
</g>
</g></svg>
