<?xml version="1.0"?>
<svg xmlns="http://www.w3.org/2000/svg" xmlns:xlink="http://www.w3.org/1999/xlink" xmlns:svgjs="http://svgjs.com/svgjs" version="1.1" width="512" height="512" x="0" y="0" viewBox="0 0 24 24" style="enable-background:new 0 0 512 512" xml:space="preserve"><g><path xmlns="http://www.w3.org/2000/svg" d="m20.5 20c-.082 0-.164-.014-.242-.04l-19.75-6.75c-.284-.098-.482-.354-.506-.653-.022-.299.135-.583.4-.722l22.5-11.75c.251-.129.554-.109.782.054.23.164.349.442.308.722l-2.75 18.5c-.033.22-.162.414-.353.53-.118.072-.253.109-.389.109zm-17.854-7.645 17.244 5.894 2.401-16.152z" fill="#ffffff" data-original="#000000" style=""/><path xmlns="http://www.w3.org/2000/svg" d="m9.5 23c-.078 0-.157-.012-.233-.037-.309-.102-.517-.389-.517-.713v-6.75c0-.189.072-.373.201-.512l13.75-14.75c.282-.304.759-.319 1.061-.037.303.282.319.757.037 1.061l-13.549 14.533v4.168l2.503-3.407c.245-.332.715-.406 1.049-.16.334.245.405.715.16 1.049l-3.857 5.25c-.145.195-.371.305-.605.305z" fill="#ffffff" data-original="#000000" style=""/></g></svg>
