<?xml version="1.0"?>
<svg xmlns="http://www.w3.org/2000/svg" xmlns:xlink="http://www.w3.org/1999/xlink" xmlns:svgjs="http://svgjs.com/svgjs" version="1.1" width="512" height="512" x="0" y="0" viewBox="0 0 512 512.001" style="enable-background:new 0 0 512 512" xml:space="preserve" class=""><g><path xmlns="http://www.w3.org/2000/svg" d="m471.734375 511.714844h39.980469c0-68.34375-26.617188-132.59375-74.9375-180.917969-27.867188-27.867187-61.039063-48.496094-97.226563-60.984375 38.757813-26.695312 64.222657-71.375 64.222657-121.894531 0-81.5625-66.355469-147.917969-147.917969-147.917969-81.558594 0-147.914063 66.355469-147.914063 147.917969 0 50.519531 25.464844 95.195312 64.222656 121.894531-36.1875 12.484375-69.359374 33.117188-97.226562 60.984375-48.324219 48.324219-74.9375 112.574219-74.9375 180.917969h39.976562c0-67.402344 31.058594-127.683594 79.609376-167.300782 6.070312 8.535157 13.515624 19.035157 20.34375 28.679688l-63.617188 80.035156 57.398438 58.585938h55.96875l-60.105469-61.347656 60.308593-75.875-8.652343-12.238282c-13.066407-18.488281-22.128907-31.277344-28.457031-40.175781 23.933593-13.0625 50.605468-21.710937 78.90625-24.882813l-37.925782 152.695313 62.101563 62.109375 62.101562-62.109375-37.925781-152.695313c28.304688 3.171876 54.972656 11.820313 78.910156 24.882813-6.332031 8.898437-15.390625 21.6875-28.457031 40.175781l-8.652344 12.238282 60.308594 75.875-60.109375 61.347656h55.96875l57.402344-58.585938-63.617188-80.035156c6.828125-9.644531 14.269532-20.144531 20.34375-28.679688 48.546875 39.617188 79.605469 99.898438 79.605469 167.300782zm-323.816406-363.796875c0-59.515625 48.421875-107.9375 107.9375-107.9375 59.519531 0 107.941406 48.421875 107.941406 107.9375 0 59.519531-48.421875 107.941406-107.941406 107.941406-59.515625 0-107.9375-48.421875-107.9375-107.941406zm107.9375 307.539062-17.855469-17.855469 17.855469-71.890624 17.855469 71.890624zm0 0" fill="#ffffff" data-original="#000000" style=""/></g></svg>
