<?xml version="1.0"?>
<svg xmlns="http://www.w3.org/2000/svg" xmlns:xlink="http://www.w3.org/1999/xlink" xmlns:svgjs="http://svgjs.com/svgjs" version="1.1" width="512" height="512" x="0" y="0" viewBox="0 0 512 512" style="enable-background:new 0 0 512 512" xml:space="preserve"><g>
<g xmlns="http://www.w3.org/2000/svg">
	<path d="M347,302c8.271,0,15,6.639,15,14.8h30c0-19.468-12.541-36.067-30-42.231V242h-30v32.58c-17.459,6.192-30,22.865-30,42.42   c0,24.813,20.187,45,45,45c8.271,0,15,6.729,15,15s-6.729,15-15,15s-15-6.729-15-15h-30c0,19.555,12.541,36.228,30,42.42v32.38h30   v-32.38c17.459-6.192,30-22.865,30-42.42c0-24.813-20.187-45-45-45c-8.271,0-15-6.729-15-15S338.729,302,347,302z" fill="#ffffff" data-original="#000000" style=""/>
	<path d="M347,182c-5.057,0-10.058,0.242-15,0.689V90c0-26.011-18.548-49.61-52.226-66.449C249.4,8.364,209.35,0,167,0   C124.564,0,84.193,8.347,53.323,23.502C18.938,40.385,0,64,0,90v272c0,26,18.938,49.616,53.323,66.498   C84.193,443.653,124.564,452,167,452c17.009,0,33.647-1.358,49.615-4.004C246.826,486.909,294.035,512,347,512   c90.981,0,165-74.019,165-165S437.981,182,347,182z M66.545,50.432C92.992,37.447,129.606,30,167,30c79.558,0,135,31.621,135,60   s-55.442,60-135,60c-37.394,0-74.008-7.447-100.455-20.432C43.32,118.166,30,103.744,30,90S43.32,61.834,66.545,50.432z    M30,142.265c6.724,5.137,14.512,9.907,23.323,14.233C84.193,171.653,124.564,180,167,180c42.35,0,82.4-8.364,112.774-23.551   c8.359-4.18,15.783-8.776,22.226-13.722v45.51c-29.896,8.485-56.359,25.209-76.778,47.548C206.946,239.908,187.386,242,167,242   c-37.394,0-74.008-7.447-100.455-20.432C43.32,210.166,30,195.744,30,182V142.265z M30,234.265   c6.724,5.137,14.512,9.907,23.323,14.233C84.193,263.653,124.564,272,167,272c11.581,0,22.942-0.621,34.021-1.839   c-9.856,18.65-16.242,39.401-18.293,61.395C177.517,331.842,172.263,332,167,332c-37.394,0-74.008-7.447-100.455-20.432   C43.32,300.166,30,285.744,30,272V234.265z M167,422c-37.394,0-74.008-7.447-100.455-20.432C43.32,390.166,30,375.744,30,362   v-37.736c6.724,5.137,14.512,9.907,23.323,14.233C84.193,353.653,124.564,362,167,362c5.23,0,10.459-0.132,15.654-0.388   c1.84,20.868,7.579,40.63,16.486,58.557C188.68,421.376,177.937,422,167,422z M347,482c-74.439,0-135-60.561-135-135   s60.561-135,135-135s135,60.561,135,135S421.439,482,347,482z" fill="#ffffff" data-original="#000000" style=""/>
</g>















</g></svg>
