<?xml version="1.0"?>
<svg xmlns="http://www.w3.org/2000/svg" xmlns:xlink="http://www.w3.org/1999/xlink" xmlns:svgjs="http://svgjs.com/svgjs" version="1.1" width="512" height="512" x="0" y="0" viewBox="0 0 512 512" style="enable-background:new 0 0 512 512" xml:space="preserve"><g><path xmlns="http://www.w3.org/2000/svg" d="m472 392v-20.882812c0-25.429688-20.691406-46.117188-46.125-46.117188h-191.875c-11.027344 0-20 8.972656-20 20 0 4.738281 1.664062 9.09375 4.433594 12.527344l4.058594 3.707031c.121093.113281.226562.238281.347656.355469 3.191406 2.152344 7.03125 3.410156 11.160156 3.410156h100c11.046875 0 20 8.953125 20 20s-8.953125 20-20 20h-100c-17.386719 0-33.0625-7.441406-44.03125-19.296875l-115.441406-105.488281c-.175782-.160156-.351563-.324219-.519532-.488282-3.8125-3.742187-8.867187-5.769531-14.195312-5.726562-5.34375.050781-10.347656 2.179688-14.085938 5.992188-3.742187 3.8125-5.777343 8.855468-5.726562 14.195312.046875 5.261719 2.113281 10.191406 5.816406 13.914062l101.769532 94.226563c.109374.101563.21875.203125.324218.308594 46.203125 44.730469 107.0625 69.363281 171.367188 69.363281h172.722656c11.046875 0 20 8.953125 20 20s-8.953125 20-20 20h-172.722656c-37 0-73.148438-7.039062-107.445313-20.921875-34.222656-13.851563-65.035156-33.886719-91.582031-59.546875l-101.855469-94.304688c-.140625-.132812-.28125-.265624-.421875-.402343-11.4375-11.226563-17.820312-26.234375-17.96874975-42.261719-.15234425-16.023438 5.94921875-31.148438 17.17187475-42.585938 11.226563-11.441406 26.234375-17.824218 42.261719-17.972656 15.871094-.148437 30.902344 5.847656 42.308594 16.898438l77.113281 70.464844c9.191406-21.367188 30.445313-36.367188 55.140625-36.367188h191.875c47.488281 0 86.125 38.632812 86.125 86.117188v20.882812c0 11.046875-8.953125 20-20 20s-20-8.953125-20-20zm-306.539062-317.59375 10.003906-18.253906c4.523437-8.253906 14.195312-12.238282 23.21875-9.5625l25.800781 7.640625c5.789063-4.6875 12.148437-8.570313 18.945313-11.570313l3.558593-25.429687c1.382813-9.878907 9.832031-17.230469 19.804688-17.230469h20.414062c9.679688 0 17.96875 6.933594 19.683594 16.460938l4.710937 26.191406c6.074219 2.683594 11.816407 6.082031 17.109376 10.121094l23.957031-9.15625c8.929687-3.414063 19.027343-.027344 24.097656 8.074218l11.191406 17.894532c5.4375 8.695312 3.417969 20.097656-4.679687 26.394531l-21.59375 16.789062c.050781.585938.074218 1.171875.113281 1.757813.03125.492187.074219.988281.097656 1.484375.0625 1.328125.097657 2.660156.097657 3.988281 0 1.367188-.03125 2.734375-.097657 4.101562l20.9375 15.367188c7.714844 5.660156 10.335938 15.996094 6.257813 24.648438l-8.152344 17.292968c-4.207031 8.933594-14.304688 13.453125-23.769531 10.652344l-25.179688-7.460938c-6.324219 5.359376-13.363281 9.726563-20.949219 13l-4.085937 25.558594c-1.550781 9.703125-9.921875 16.84375-19.75 16.84375h-19.335937c-9.679688 0-17.972657-6.933594-19.683594-16.460937l-4.710938-26.191407c-6.289062-2.777343-12.21875-6.316406-17.660156-10.542968l-24.359375 8.769531c-9.1875 3.308594-19.421875-.503906-24.207031-9.015625l-9.53125-16.949219c-4.789063-8.511719-2.730469-19.230469 4.867187-25.367187l20.824219-16.808594c-.054688-.609375-.082031-1.21875-.121094-1.832031-.035156-.523438-.082031-1.046875-.105468-1.578125-.0625-1.339844-.101563-2.683594-.101563-4.023438 0-1.273437.039063-2.546875.097656-3.820312.011719-.28125.019531-.5625.035157-.84375.007812-.105469.007812-.207032.015624-.3125l-21.402343-14.417969c-8.574219-5.78125-11.332031-17.136719-6.363281-26.203125zm100.183593 88.480469c3.789063 1.054687 7.773438 1.628906 11.890625 1.628906 3.792969 0 7.46875-.480469 10.984375-1.375.140625-.035156.277344-.078125.414063-.113281.550781-.144532 1.097656-.300782 1.640625-.46875.113281-.035156.222656-.070313.335937-.105469 7.539063-2.382813 14.210938-6.730469 19.425782-12.4375.089843-.101563.179687-.199219.269531-.300781 5.148437-5.742188 8.839843-12.824219 10.460937-20.660156.09375-.457032.171875-.921876.253906-1.382813.046876-.269531.101563-.539063.144532-.8125.101562-.660156.183594-1.324219.257812-1.988281.011719-.085938.023438-.175782.03125-.261719.160156-1.53125.238282-3.070313.238282-4.609375 0-.855469-.027344-1.707031-.078126-2.558594-.011718-.242187-.039062-.480468-.054687-.722656-.042969-.617188-.101563-1.234375-.167969-1.847656-.03125-.269532-.070312-.542969-.105468-.8125-.078126-.585938-.171876-1.171875-.269532-1.757813-.046875-.269531-.09375-.539062-.148437-.808593-.117188-.609376-.25-1.214844-.394531-1.816407-1.875-7.867187-5.835938-14.929687-11.273438-20.566406-.449219-.46875-.910156-.921875-1.378906-1.371094-.207032-.199219-.414063-.402343-.625-.597656-.613282-.5625-1.246094-1.101563-1.886719-1.625-.285156-.234375-.574219-.457031-.867187-.683594-.421876-.328125-.847657-.648437-1.28125-.960937-.320313-.230469-.636719-.464844-.960938-.683594-.644531-.441406-1.300781-.867188-1.96875-1.273438-.351562-.214843-.714844-.414062-1.074219-.617187-.414062-.238281-.835937-.472656-1.257812-.695313-.382813-.199218-.761719-.398437-1.152344-.589843-.53125-.261719-1.074219-.507813-1.621094-.75-.476562-.210938-.960937-.414063-1.449219-.609375-.535156-.210938-1.070312-.421875-1.613281-.613282-.355469-.125-.707031-.242187-1.0625-.359374-.617187-.199219-1.242187-.390626-1.867187-.5625-3.789063-1.054688-7.777344-1.632813-11.898438-1.632813-21.089844 0-38.785156 14.789063-43.320312 34.546875-.175782.769531-.332032 1.542969-.464844 2.320312-.007812.042969-.015625.085938-.023438.128907-.132812.777343-.242187 1.554687-.335937 2.335937-.007813.066406-.015625.128906-.023437.191406-.085938.738282-.144532 1.476563-.191407 2.214844-.007812.105469-.019531.210938-.023437.3125-.046875.824219-.074219 1.648438-.074219 2.46875 0 .851563.03125 1.703125.078125 2.554688.015625.234375.039062.464844.054688.699218.046874.625.101562 1.25.171874 1.875.03125.257813.066407.515626.101563.773438.078125.605469.171875 1.207031.277344 1.808594.042969.25.085937.503906.136719.753906.121093.632812.257812 1.257812.40625 1.882812 1.871093 7.828126 5.808593 14.855469 11.207031 20.476563.390625.40625.785156.804687 1.1875 1.195313.277343.265624.550781.535156.832031.792968.585938.535156 1.183594 1.058594 1.792969 1.5625.324219.265625.664062.523438.996093.78125.367188.289063.738282.570313 1.117188.84375.367188.269532.734375.535156 1.113281.792969.453125.308594.914063.605469 1.378907.898437.554687.347657 1.117187.683594 1.6875 1.007813.382812.222656.769531.4375 1.160156.644531.40625.214844.8125.425782 1.226562.628906.476563.238282.964844.457032 1.453125.675782.519531.234375 1.046875.457031 1.578125.671875.546875.21875 1.097656.433593 1.65625.628906.351563.125.707032.246094 1.0625.363281.625.203125 1.253906.394532 1.890625.570313zm0 0" fill="#ffffff" data-original="#000000" style=""/></g></svg>
