<?xml version="1.0"?>
<svg xmlns="http://www.w3.org/2000/svg" xmlns:xlink="http://www.w3.org/1999/xlink" xmlns:svgjs="http://svgjs.com/svgjs" version="1.1" width="512" height="512" x="0" y="0" viewBox="0 0 512 512" style="enable-background:new 0 0 512 512" xml:space="preserve"><g><g xmlns="http://www.w3.org/2000/svg"><path d="m478.979 330.552c7.906-23.72 12.021-48.819 12.021-74.552s-4.115-50.832-12.021-74.552c21.108-19.789 33.021-47.079 33.021-76.448 0-57.897-47.103-105-105-105-29.369 0-56.659 11.914-76.447 33.021-23.721-7.906-48.82-12.021-74.553-12.021s-50.832 4.115-74.553 12.021c-19.788-21.107-47.078-33.021-76.447-33.021-57.897 0-105 47.103-105 105 0 29.369 11.913 56.659 33.021 76.448-7.906 23.72-12.021 48.819-12.021 74.552s4.115 50.832 12.021 74.552c-21.108 19.789-33.021 47.079-33.021 76.448 0 57.897 47.103 105 105 105 29.369 0 56.659-11.914 76.447-33.021 23.721 7.906 48.82 12.021 74.553 12.021s50.832-4.115 74.553-12.021c19.788 21.107 47.078 33.021 76.447 33.021 57.897 0 105-47.103 105-105 0-29.369-11.913-56.659-33.021-76.448zm-67.871 59.344-49.679-49.68c18.493-23.104 29.571-52.389 29.571-84.216s-11.078-61.112-29.571-84.216l49.679-49.68c31.073 35.947 49.892 82.764 49.892 133.896s-18.819 97.949-49.892 133.896zm-310.216 0c-31.073-35.947-49.892-82.764-49.892-133.896s18.819-97.949 49.892-133.896l49.679 49.68c-18.493 23.104-29.571 52.389-29.571 84.216s11.078 61.112 29.571 84.216zm50.108-133.896c0-57.897 47.103-105 105-105s105 47.103 105 105-47.103 105-105 105-105-47.103-105-105zm256-226c41.355 0 75 33.645 75 75 0 16.961-5.565 32.956-15.668 45.935-11.177-22.321-25.996-42.939-44.162-61.104s-38.784-32.985-61.104-44.162c12.977-10.104 28.972-15.669 45.934-15.669zm-17.104 70.892-49.679 49.68c-23.105-18.494-52.39-29.572-84.217-29.572s-61.112 11.078-84.216 29.571l-49.679-49.68c35.946-31.072 82.763-49.891 133.895-49.891s97.949 18.819 133.896 49.892zm-359.896 4.108c0-41.355 33.645-75 75-75 16.962 0 32.957 5.565 45.934 15.668-22.32 11.177-42.938 25.997-61.104 44.162s-32.985 38.784-44.162 61.104c-10.103-12.978-15.668-28.973-15.668-45.934zm75 377c-41.355 0-75-33.645-75-75 0-16.961 5.565-32.956 15.668-45.935 11.177 22.321 25.996 42.939 44.162 61.104s38.784 32.985 61.104 44.162c-12.977 10.104-28.972 15.669-45.934 15.669zm17.104-70.892 49.679-49.68c23.105 18.494 52.39 29.572 84.217 29.572s61.112-11.078 84.216-29.571l49.679 49.68c-35.946 31.072-82.763 49.891-133.895 49.891s-97.949-18.819-133.896-49.892zm284.896 70.892c-16.962 0-32.957-5.565-45.934-15.668 22.321-11.177 42.939-25.996 61.104-44.162s32.985-38.784 44.162-61.104c10.103 12.978 15.668 28.973 15.668 45.934 0 41.355-33.645 75-75 75z" fill="#ffffff" data-original="#000000" style=""/></g></g></svg>
