<?xml version="1.0"?>
<svg xmlns="http://www.w3.org/2000/svg" xmlns:xlink="http://www.w3.org/1999/xlink" xmlns:svgjs="http://svgjs.com/svgjs" version="1.1" width="512" height="512" x="0" y="0" viewBox="0 0 511.414 511.414" style="enable-background:new 0 0 512 512" xml:space="preserve"><g><path xmlns="http://www.w3.org/2000/svg" d="m497.695 108.838c0-6.488-3.919-12.334-9.92-14.8l-225.988-92.838c-3.896-1.6-8.264-1.6-12.16 0l-225.988 92.838c-6.001 2.465-9.92 8.312-9.92 14.8v293.738c0 6.488 3.918 12.334 9.92 14.8l225.988 92.838c3.854 1.583 8.186 1.617 12.14-.001.193-.064-8.363 3.445 226.008-92.837 6.002-2.465 9.92-8.312 9.92-14.8zm-241.988 76.886-83.268-34.207 179.951-78.501 88.837 36.495zm-209.988-51.67 71.841 29.513v83.264c0 8.836 7.164 16 16 16s16-7.164 16-16v-70.118l90.147 37.033v257.797l-193.988-79.692zm209.988-100.757 55.466 22.786-179.951 78.501-61.035-25.074zm16 180.449 193.988-79.692v257.797l-193.988 79.692z" fill="#ffffff" data-original="#000000" style=""/></g></svg>
