<?xml version="1.0"?>
<svg xmlns="http://www.w3.org/2000/svg" xmlns:xlink="http://www.w3.org/1999/xlink" xmlns:svgjs="http://svgjs.com/svgjs" version="1.1" width="512" height="512" x="0" y="0" viewBox="0 0 512 511" style="enable-background:new 0 0 512 512" xml:space="preserve"><g><path xmlns="http://www.w3.org/2000/svg" d="m313.945312 105.378906c-2.558593 0-5.121093-.976562-7.074218-2.929687-44.691406-44.695313-117.421875-44.695313-162.113282 0-3.90625 3.90625-10.238281 3.90625-14.144531 0-3.90625-3.902344-3.90625-10.234375 0-14.140625 52.492188-52.496094 137.90625-52.496094 190.402344 0 3.90625 3.902344 3.90625 10.234375 0 14.140625-1.953125 1.953125-4.511719 2.929687-7.070313 2.929687zm0 0" fill="#ffffff" data-original="#000000" style=""/><path xmlns="http://www.w3.org/2000/svg" d="m348.160156 71.164062c-2.574218 0-5.144531-.984374-7.101562-2.957031l-.121094-.121093c-3.921875-3.890626-3.949219-10.222657-.058594-14.144532 3.890625-3.917968 10.222656-3.945312 14.140625-.054687l.238281.234375c3.890626 3.921875 3.863282 10.253906-.058593 14.144531-1.949219 1.933594-4.496094 2.898437-7.039063 2.898437zm0 0" fill="#ffffff" data-original="#000000" style=""/><path xmlns="http://www.w3.org/2000/svg" d="m103.46875 71.164062c-2.558594 0-5.117188-.976562-7.070312-2.929687-3.90625-3.902344-3.90625-10.234375 0-14.140625 29.648437-29.648438 67.296874-47.785156 108.875-52.457031 40.351562-4.53125 81.539062 4.582031 115.980468 25.65625 4.707032 2.882812 6.191406 9.039062 3.308594 13.75-2.882812 4.710937-9.039062 6.191406-13.75 3.308593-64.425781-39.425781-146.78125-29.609374-200.273438 23.882813-1.949218 1.953125-4.511718 2.929687-7.070312 2.929687zm0 0" fill="#ffffff" data-original="#000000" style=""/><path xmlns="http://www.w3.org/2000/svg" d="m225.8125 317.578125c-34.476562 0-68.953125-13.121094-95.199219-39.371094-3.90625-3.902343-3.90625-10.234375 0-14.140625s10.238281-3.90625 14.144531 0c44.691407 44.695313 117.421876 44.695313 162.113282 0 3.90625-3.90625 10.238281-3.90625 14.144531 0s3.90625 10.238282 0 14.140625c-26.246094 26.25-60.726563 39.371094-95.203125 39.371094zm0 0" fill="#ffffff" data-original="#000000" style=""/><path xmlns="http://www.w3.org/2000/svg" d="m225.933594 366.023438c-35.753906 0-71.007813-10.460938-100.84375-30.160157-4.605469-3.042969-5.875-9.25-2.832032-13.855469 3.042969-4.609374 9.246094-5.875 13.855469-2.835937 64.242188 42.425781 150.445313 33.636719 204.976563-20.890625 3.902344-3.90625 10.234375-3.90625 14.140625 0s3.90625 10.238281 0 14.140625c-29.996094 29.996094-69.726563 48.738281-111.882813 52.773437-5.800781.550782-11.617187.828126-17.414062.828126zm0 0" fill="#ffffff" data-original="#000000" style=""/><path xmlns="http://www.w3.org/2000/svg" d="m103.816406 315.699219c-2.539062 0-5.078125-.960938-7.027344-2.886719l-.421874-.417969c-3.886719-3.921875-3.859376-10.253906.0625-14.144531 3.921874-3.886719 10.25-3.859375 14.140624.0625l.269532.269531c3.929687 3.878907 3.972656 10.210938.089844 14.144531-1.953126 1.976563-4.535157 2.972657-7.113282 2.972657zm0 0" fill="#ffffff" data-original="#000000" style=""/><path xmlns="http://www.w3.org/2000/svg" d="m225.671875 220.21875c-20.378906 0-36.960937-16.582031-36.960937-36.960938 0-20.378906 16.582031-36.957031 36.960937-36.957031s36.957031 16.578125 36.957031 36.957031c0 20.378907-16.578125 36.960938-36.957031 36.960938zm0-53.917969c-9.351563 0-16.960937 7.605469-16.960937 16.957031 0 9.351563 7.609374 16.960938 16.960937 16.960938s16.957031-7.609375 16.957031-16.960938c0-9.351562-7.605468-16.957031-16.957031-16.957031zm0 0" fill="#ffffff" data-original="#000000" style=""/><path xmlns="http://www.w3.org/2000/svg" d="m36.960938 281.136719c-20.382813 0-36.960938-16.578125-36.960938-36.957031v-121.839844c0-20.378906 16.578125-36.960938 36.960938-36.960938 20.378906 0 36.957031 16.582032 36.957031 36.960938v121.839844c0 20.378906-16.578125 36.957031-36.957031 36.957031zm0-175.757813c-9.351563 0-16.960938 7.609375-16.960938 16.960938v121.839844c0 9.351562 7.609375 16.957031 16.960938 16.957031 9.347656 0 16.957031-7.605469 16.957031-16.957031v-121.839844c0-9.351563-7.609375-16.960938-16.957031-16.960938zm0 0" fill="#ffffff" data-original="#000000" style=""/><path xmlns="http://www.w3.org/2000/svg" d="m436.289062 281.136719c-17.902343 0-32.46875-14.5625-32.46875-32.464844v-97.644531h-10.78125c-17.898437 0-32.464843-14.566406-32.464843-32.464844 0-17.902344 14.566406-32.464844 32.464843-32.464844h86.496094c17.902344 0 32.464844 14.5625 32.464844 32.464844 0 17.898438-14.5625 32.464844-32.464844 32.464844h-10.78125v97.644531c0 17.902344-14.566406 32.464844-32.464844 32.464844zm-43.25-175.039063c-6.871093 0-12.464843 5.589844-12.464843 12.464844s5.59375 12.464844 12.464843 12.464844h20.78125c5.523438 0 10 4.476562 10 10v107.644531c0 6.875 5.59375 12.464844 12.46875 12.464844 6.871094 0 12.464844-5.589844 12.464844-12.464844v-107.644531c0-5.523438 4.476563-10 10-10h20.78125c6.875 0 12.464844-5.59375 12.464844-12.464844 0-6.875-5.589844-12.464844-12.464844-12.464844zm0 0" fill="#ffffff" data-original="#000000" style=""/><path xmlns="http://www.w3.org/2000/svg" d="m225.671875 268.742188c-47.136719 0-85.484375-38.347657-85.484375-85.484376 0-47.132812 38.347656-85.484374 85.484375-85.484374s85.484375 38.351562 85.484375 85.484374c0 47.136719-38.347656 85.484376-85.484375 85.484376zm0-150.96875c-36.109375 0-65.484375 29.375-65.484375 65.484374 0 36.109376 29.375 65.484376 65.484375 65.484376 36.105469 0 65.484375-29.375 65.484375-65.484376 0-36.109374-29.378906-65.484374-65.484375-65.484374zm0 0" fill="#ffffff" data-original="#000000" style=""/></g></svg>
