<?xml version="1.0"?>
<svg xmlns="http://www.w3.org/2000/svg" xmlns:xlink="http://www.w3.org/1999/xlink" xmlns:svgjs="http://svgjs.com/svgjs" version="1.1" width="512" height="512" x="0" y="0" viewBox="0 0 512 512" style="enable-background:new 0 0 512 512" xml:space="preserve"><g><g xmlns="http://www.w3.org/2000/svg"><path d="m498.99 417.218-228.653-281.83c3.258-5.551 2.567-12.293-1.271-17.029l-18.665-23.022c34.142-25.443 57.552-32.169 108.838-34.008 14.943-.535 19.955-20.349 7.058-27.922-78.172-45.904-151.412-44.478-211.802 4.126l-63.725 51.291c-6.473 5.209-7.476 14.7-2.232 21.147 5.128 6.306 4.307 15.647-2.281 20.949-6.453 5.194-15.937 4.189-21.14-2.242-5.2-6.427-14.618-7.434-21.059-2.257l-27.292 21.936c-19.372 15.59-22.413 43.868-6.737 63.206l37.74 46.55c15.605 19.248 43.997 22.238 63.279 6.719l27.284-21.931c6.47-5.201 7.485-14.682 2.254-21.134-5.202-6.416-4.188-15.771 2.243-20.948 6.461-5.2 15.957-4.197 21.173 2.235 4.096 5.052 10.796 6.73 16.604 4.698l227.98 282.601c20.217 25.067 56.856 28.891 81.814 8.711 25.019-20.231 28.866-56.863 8.59-81.846zm-294.464-227.593 43.065-34.661 32.668 40.265-43.202 34.72zm-97.009 18.048c-.719 6.759.082 13.447 2.286 19.673l-17.557 14.113c-6.46 5.199-15.958 4.196-21.173-2.236l-37.74-46.55c-5.196-6.409-4.193-15.768 2.235-20.942l17.625-14.166c15.783 9.686 36.649 8.977 51.872-3.277 15.536-12.503 20.343-32.77 14.248-49.931l53.991-43.454c38.173-30.723 81.643-38.555 129.683-23.488-30.093 6.676-53.237 19.611-83.284 43.794-6.466 5.203-7.474 14.68-2.247 21.129l18.827 23.221-60.383 48.599c-28.27-17.315-64.9.766-68.383 33.515zm364.021 268.065c-12.081 9.767-29.804 7.929-39.603-4.218l-176.044-218.223 43.267-34.773 176.537 217.593c9.815 12.093 7.956 29.827-4.157 39.621z" fill="#ffffff" data-original="#000000" style=""/></g></g></svg>
