<?xml version="1.0"?>
<svg xmlns="http://www.w3.org/2000/svg" xmlns:xlink="http://www.w3.org/1999/xlink" xmlns:svgjs="http://svgjs.com/svgjs" version="1.1" width="512" height="512" x="0" y="0" viewBox="0 0 512.001 512.001" style="enable-background:new 0 0 512 512" xml:space="preserve"><g><g xmlns="http://www.w3.org/2000/svg"><path d="m72.016 512.001c-19.232 0-37.246-7.456-50.903-21.113-14.097-14.097-21.587-32.838-21.089-52.769.498-19.93 8.914-38.273 23.698-51.649l226.634-205.05c-17.914-48.908-5.975-104.733 31.298-142.005 33.893-33.892 83.826-47.258 130.312-34.871 5.182 1.38 9.234 5.422 10.626 10.602 1.392 5.179-.087 10.708-3.88 14.5l-53.593 53.593 10.607 53.037 53.037 10.607 53.593-53.593c3.792-3.793 9.318-5.273 14.5-3.88 5.18 1.392 9.222 5.443 10.603 10.626 12.384 46.485-.979 96.418-34.872 130.311-37.273 37.275-93.097 49.211-142.005 31.298l-205.05 226.634c-13.376 14.784-31.718 23.201-51.649 23.699-.623.015-1.246.023-1.867.023zm303.909-481.998c-27.102.324-53.513 11.084-73.056 30.627-31.061 31.062-39.505 78.686-21.009 118.508 2.769 5.962 1.334 13.032-3.541 17.443l-234.468 212.137c-8.63 7.808-13.543 18.516-13.834 30.151s4.081 22.575 12.311 30.805 19.168 12.63 30.805 12.31c11.635-.291 22.343-5.203 30.151-13.834l212.137-234.468c4.411-4.874 11.48-6.309 17.443-3.541 39.82 18.497 87.444 10.052 118.507-21.009 19.541-19.541 30.301-45.956 30.627-73.057l-37.698 37.7c-3.547 3.547-8.631 5.086-13.549 4.103l-70.716-14.143c-5.938-1.188-10.58-5.829-11.767-11.768l-14.143-70.716c-.984-4.918.556-10.003 4.102-13.549z" fill="#ffffff" data-original="#000000" style=""/><circle cx="74.162" cy="437.84" r="15" fill="#ffffff" data-original="#000000" style=""/></g></g></svg>
