<?xml version="1.0"?>
<svg xmlns="http://www.w3.org/2000/svg" xmlns:xlink="http://www.w3.org/1999/xlink" xmlns:svgjs="http://svgjs.com/svgjs" version="1.1" width="512" height="512" x="0" y="0" viewBox="0 0 512 512" style="enable-background:new 0 0 512 512" xml:space="preserve"><g><path xmlns="http://www.w3.org/2000/svg" d="m475.921875 204.488281c-5.601563-24.042969-14.984375-46.695312-27.988281-67.574219l19.132812-31.886718-60.09375-60.09375-31.886718 19.132812c-20.878907-13.003906-43.53125-22.386718-67.574219-27.988281l-9.019531-36.078125h-84.984376l-9.019531 36.082031c-24.042969 5.597657-46.695312 14.980469-67.574219 27.984375l-31.886718-19.132812-60.09375 60.09375 19.132812 31.886718c-13.003906 20.878907-22.386718 43.535157-27.988281 67.574219l-36.078125 9.019531v84.984376l36.078125 9.019531c5.601563 24.042969 14.984375 46.699219 27.988281 67.574219l-19.132812 31.886718 60.09375 60.09375 31.886718-19.132812c20.878907 13.003906 43.53125 22.386718 67.574219 27.984375l9.019531 36.082031h84.984376l9.019531-36.082031c24.042969-5.601563 46.695312-14.980469 67.574219-27.984375l31.886718 19.132812 60.09375-60.09375-19.132812-31.886718c13.003906-20.878907 22.386718-43.535157 27.988281-67.574219l36.078125-9.019531v-84.984376zm6.078125 70.582031-31.773438 7.941407-1.785156 9.4375c-5.042968 26.6875-15.332031 51.53125-30.582031 73.835937l-5.429687 7.9375 16.859374 28.101563-26.964843 26.964843-28.101563-16.855468-7.9375 5.425781c-22.304687 15.25-47.148437 25.539063-73.835937 30.582031l-9.4375 1.785156-7.941407 31.773438h-38.140624l-7.941407-31.773438-9.4375-1.785156c-26.691406-5.042968-51.53125-15.332031-73.835937-30.582031l-7.941406-5.425781-28.097657 16.855468-26.964843-26.964843 16.859374-28.101563-5.429687-7.9375c-15.25-22.304687-25.539063-47.144531-30.582031-73.835937l-1.785156-9.4375-31.773438-7.941407v-38.140624l31.773438-7.941407 1.785156-9.4375c5.042968-26.691406 15.332031-51.53125 30.582031-73.835937l5.429687-7.9375-16.859374-28.101563 26.964843-26.964843 28.101563 16.859374 7.9375-5.429687c22.304687-15.25 47.144531-25.539063 73.835937-30.582031l9.4375-1.78125 7.941407-31.777344h38.140624l7.941407 31.773438 9.4375 1.785156c26.691406 5.042968 51.53125 15.332031 73.835937 30.582031l7.9375 5.429687 28.101563-16.859374 26.964843 26.964843-16.859374 28.101563 5.429687 7.9375c15.25 22.304687 25.539063 47.148437 30.582031 73.835937l1.785156 9.4375 31.773438 7.941407zm0 0" fill="#ffffff" data-original="#000000" style=""/><path xmlns="http://www.w3.org/2000/svg" d="m256 90c-91.53125 0-166 74.46875-166 166s74.46875 166 166 166 166-74.46875 166-166-74.46875-166-166-166zm0 302c-74.988281 0-136-61.007812-136-136s61.011719-136 136-136 136 61.007812 136 136-61.011719 136-136 136zm0 0" fill="#ffffff" data-original="#000000" style=""/><path xmlns="http://www.w3.org/2000/svg" d="m151 331h210v-150h-210zm30-30v-68.621094l75 54.683594 75-54.683594v68.621094zm21.601562-90h106.796876l-53.398438 38.9375zm0 0" fill="#ffffff" data-original="#000000" style=""/></g></svg>
