<?xml version="1.0"?>
<svg xmlns="http://www.w3.org/2000/svg" xmlns:xlink="http://www.w3.org/1999/xlink" xmlns:svgjs="http://svgjs.com/svgjs" version="1.1" width="512" height="512" x="0" y="0" viewBox="0 0 512 512" style="enable-background:new 0 0 512 512" xml:space="preserve" class=""><g>
<g xmlns="http://www.w3.org/2000/svg">
	<g>
		<path d="M482,332.596V45c0-24.813-20.187-45-45-45H106C81.187,0,61,20.187,61,45v16H45C20.187,61,0,81.187,0,106s20.187,45,45,45    h16v60H45c-24.813,0-45,20.187-45,45s20.187,45,45,45h16v60H45c-24.813,0-45,20.187-45,45s20.187,45,45,45h16v15    c0,11.955,4.597,23.347,12.944,32.079C82.526,507.056,93.911,512,106,512h301c57.897,0,105-47.551,105-106    C512,377.457,500.546,351.542,482,332.596z M45,121c-8.271,0-15-6.729-15-15s6.729-15,15-15h31c8.271,0,15,6.729,15,15    s-6.729,15-15,15H45z M45,271c-8.271,0-15-6.729-15-15s6.729-15,15-15h31c8.271,0,15,6.729,15,15s-6.729,15-15,15H45z M76,421H45    c-8.271,0-15-6.729-15-15s6.729-15,15-15h31c8.271,0,15,6.729,15,15S84.271,421,76,421z M106,482c-7.99,0-15-7.477-15-16v-17.58    c17.459-6.192,30-22.865,30-42.42c0-19.555-12.541-36.228-30-42.42v-65.16c17.459-6.192,30-22.865,30-42.42    c0-19.555-12.541-36.228-30-42.42v-65.16c17.459-6.192,30-22.865,30-42.42s-12.541-36.228-30-42.42V45c0-8.271,6.729-15,15-15h331    c8.271,0,15,6.729,15,15v266.145c-13.646-6.5-28.905-10.145-45-10.145c-57.897,0-105,47.103-105,105    c0,29.78,12.233,56.726,31.886,76H106z M407,482c-41.355,0-75-34.093-75-76c0-41.355,33.645-75,75-75c41.355,0,75,33.645,75,75    C482,447.907,448.355,482,407,482z" fill="#ffffff" data-original="#000000" style="" class=""/>
	</g>
</g>
<g xmlns="http://www.w3.org/2000/svg">
	<g>
		<path d="M407,121h-90c-8.284,0-15,6.716-15,15s6.716,15,15,15h90c8.284,0,15-6.716,15-15S415.284,121,407,121z" fill="#ffffff" data-original="#000000" style="" class=""/>
	</g>
</g>
<g xmlns="http://www.w3.org/2000/svg">
	<g>
		<path d="M407,241h-90c-8.284,0-15,6.716-15,15s6.716,15,15,15h90c8.284,0,15-6.716,15-15S415.284,241,407,241z" fill="#ffffff" data-original="#000000" style="" class=""/>
	</g>
</g>
<g xmlns="http://www.w3.org/2000/svg">
	<g>
		<path d="M437,391h-15v-15c0-8.284-6.716-15-15-15s-15,6.716-15,15v30c0,8.284,6.716,15,15,15h30c8.284,0,15-6.716,15-15    S445.284,391,437,391z" fill="#ffffff" data-original="#000000" style="" class=""/>
	</g>
</g>
<g xmlns="http://www.w3.org/2000/svg">
	<g>
		<path d="M266.606,95.393c-5.857-5.858-15.355-5.858-21.212,0.001L196,144.787l-23.611-23.611c-5.857-5.858-15.355-5.858-21.213,0    c-5.858,5.858-5.858,15.355,0,21.213l34.218,34.218C188.322,179.536,192.161,181,196,181s7.678-1.464,10.606-4.394l60-60    C272.464,110.748,272.464,101.251,266.606,95.393z" fill="#ffffff" data-original="#000000" style="" class=""/>
	</g>
</g>
<g xmlns="http://www.w3.org/2000/svg">
	<g>
		<path d="M266.606,215.393c-5.857-5.858-15.355-5.858-21.212,0.001L196,264.787l-23.611-23.611c-5.857-5.858-15.355-5.858-21.213,0    c-5.858,5.858-5.858,15.355,0,21.213l34.218,34.218C188.322,299.536,192.161,301,196,301s7.678-1.464,10.606-4.394l60-60    C272.464,230.748,272.464,221.251,266.606,215.393z" fill="#ffffff" data-original="#000000" style="" class=""/>
	</g>
</g>
<g xmlns="http://www.w3.org/2000/svg">
	<g>
		<path d="M266.606,335.393c-5.857-5.858-15.355-5.858-21.212,0.001L196,384.787l-23.611-23.611c-5.857-5.858-15.355-5.858-21.213,0    c-5.858,5.858-5.858,15.355,0,21.213l34.218,34.218C188.322,419.536,192.161,421,196,421s7.678-1.464,10.606-4.394l60-60    C272.464,350.748,272.464,341.251,266.606,335.393z" fill="#ffffff" data-original="#000000" style="" class=""/>
	</g>
</g>
<g xmlns="http://www.w3.org/2000/svg">
</g>
<g xmlns="http://www.w3.org/2000/svg">
</g>
<g xmlns="http://www.w3.org/2000/svg">
</g>
<g xmlns="http://www.w3.org/2000/svg">
</g>
<g xmlns="http://www.w3.org/2000/svg">
</g>
<g xmlns="http://www.w3.org/2000/svg">
</g>
<g xmlns="http://www.w3.org/2000/svg">
</g>
<g xmlns="http://www.w3.org/2000/svg">
</g>
<g xmlns="http://www.w3.org/2000/svg">
</g>
<g xmlns="http://www.w3.org/2000/svg">
</g>
<g xmlns="http://www.w3.org/2000/svg">
</g>
<g xmlns="http://www.w3.org/2000/svg">
</g>
<g xmlns="http://www.w3.org/2000/svg">
</g>
<g xmlns="http://www.w3.org/2000/svg">
</g>
<g xmlns="http://www.w3.org/2000/svg">
</g>
</g></svg>
