<?xml version="1.0"?>
<svg xmlns="http://www.w3.org/2000/svg" xmlns:xlink="http://www.w3.org/1999/xlink" xmlns:svgjs="http://svgjs.com/svgjs" version="1.1" width="512" height="512" x="0" y="0" viewBox="0 0 509.469 509.469" style="enable-background:new 0 0 512 512" xml:space="preserve" class=""><g>
<g xmlns="http://www.w3.org/2000/svg">
	<path d="M139.59,189.995v127.173l114.999,66.994l114.999-66.994V189.995l-114.999-63.637L139.59,189.995z M323.818,198.954   l-69.229,38.995l-69.229-38.995l69.229-38.309L323.818,198.954z M169.59,224.503l69.999,39.429v76.773l-69.999-40.779V224.503z    M269.589,340.705v-76.773l69.999-39.429v75.423L269.589,340.705z" fill="#ffffff" data-original="#000000" style=""/>
	<path d="M509.469,144.688l-76.695-22.436l-22.435,76.696l28.793,8.422l8.515-29.106c9.714,24.329,14.771,50.429,14.771,76.888   c0,114.15-92.868,207.019-207.019,207.019c-37.634,0-74.475-10.194-106.539-29.48l-15.463,25.709   c36.733,22.094,78.921,33.771,122.002,33.771c63.31,0,122.83-24.654,167.598-69.421c44.767-44.768,69.421-104.288,69.421-167.598   c0-30.744-5.964-61.073-17.421-89.291l26.051,7.62L509.469,144.688z" fill="#ffffff" data-original="#000000" style=""/>
	<path d="M108.884,107.251c39.048-38.685,90.745-59.953,145.672-59.953c0.33,0,0.662,0.001,0.993,0.003   c37.635,0.176,74.428,10.542,106.399,29.977l15.584-25.635c-36.628-22.266-78.761-34.141-121.843-34.342   c-0.383-0.002-0.756-0.003-1.138-0.003c-62.882,0-122.078,24.354-166.782,68.642c-44.975,44.558-69.906,103.963-70.202,167.271   c-0.144,30.736,5.684,61.094,17.022,89.377l-26.032-7.747L0,363.595l76.59,22.792l22.793-76.59l-28.754-8.557l-8.644,29.045   c-9.605-24.377-14.541-50.493-14.418-76.933C47.825,198.055,69.602,146.169,108.884,107.251z" fill="#ffffff" data-original="#000000" style=""/>
</g>















</g></svg>
