<?xml version="1.0"?>
<svg xmlns="http://www.w3.org/2000/svg" xmlns:xlink="http://www.w3.org/1999/xlink" xmlns:svgjs="http://svgjs.com/svgjs" version="1.1" width="512" height="512" x="0" y="0" viewBox="0 0 512.12 512.12" style="enable-background:new 0 0 512 512" xml:space="preserve"><g><g xmlns="http://www.w3.org/2000/svg"><path d="m256.038 91.06c-90.981 0-165 74.019-165 165s74.019 165 165 165 165-74.019 165-165-74.018-165-165-165zm0 300c-74.439 0-135-60.561-135-135s60.561-135 135-135 135 60.561 135 135-60.56 135-135 135z" fill="#ffffff" data-original="#000000" style=""/><path d="m320.432 200.453-79.394 79.393-49.394-49.393c-5.857-5.858-15.355-5.858-21.213 0s-5.858 15.355 0 21.213l60 60c2.929 2.929 6.768 4.394 10.606 4.394s7.678-1.464 10.606-4.394l90-90c5.858-5.858 5.858-15.355 0-21.213-5.856-5.858-15.354-5.858-21.211 0z" fill="#ffffff" data-original="#000000" style=""/><path d="m490.641 150.89c-.05-.031-52.39-31.361-52.39-31.361l-11.749-48.658c-5.213-21.591-25.066-36.022-47.215-34.304l-59.644 4.616s-34.357-30.322-34.425-30.379c-16.908-14.402-41.453-14.402-58.361 0-.067.057-34.425 30.379-34.425 30.379l-59.644-4.616c-21.971-1.706-41.672 12.473-47.082 33.766l-16.356 52.116s-47.807 28.402-47.87 28.441c-18.923 11.63-26.508 34.973-18.034 55.505l20.408 49.455-20.408 49.454c-8.474 20.532-.889 43.875 18.035 55.505.058.036 52.296 31.162 52.296 31.162l11.798 48.857c4.932 20.429 22.97 34.444 43.656 34.442 3.164 0-.39.12 62.582-4.706 0 0 34.989 30.704 35.045 30.751 8.454 7.201 18.817 10.802 29.181 10.802 10.363 0 20.727-3.601 29.181-10.802.056-.048 35.045-30.751 35.045-30.751l59.023 4.568c22.142 1.711 42.003-12.713 47.215-34.304l11.749-48.659c64.047-38.338 50.467-30.174 52.39-31.361 18.922-11.63 26.507-34.973 18.033-55.505l-20.408-49.455 20.408-49.455c8.473-20.53.889-43.872-18.034-55.503zm-32.468 110.682 22.77 55.177c2.816 6.822.313 14.576-5.95 18.465l-57.549 34.449c-3.454 2.067-5.932 5.436-6.877 9.349l-13.227 54.777c-1.737 7.196-8.345 12.003-15.738 11.434l-65.324-5.056c-4.023-.311-8.014 1.015-11.051 3.681l-39.532 34.691c-5.611 4.722-13.703 4.722-19.314-.002l-39.53-34.689c-3.038-2.666-7.03-3.995-11.051-3.681l-65.324 5.056c-7.387.57-14.001-4.238-15.738-11.435l-13.279-54.993c-.947-3.923-3.436-7.299-6.903-9.365l-57.439-34.225c-6.254-3.892-8.752-11.639-5.938-18.457l22.77-55.177c1.513-3.665 1.513-7.779 0-11.444l-22.773-55.177c-2.812-6.814-.317-14.557 5.93-18.451l52.5-31.189c3.176-1.887 5.544-4.879 6.65-8.404 19.348-61.687 18.256-58.066 18.48-58.995 1.737-7.196 8.333-12.01 15.738-11.434l65.97 5.106c4.048.312 8.042-1.026 11.083-3.709l38.868-34.304c5.603-4.706 13.679-4.706 19.283-.002l38.87 34.306c3.041 2.685 7.045 4.021 11.083 3.709l65.97-5.106c7.379-.57 14.001 4.237 15.738 11.435l13.227 54.776c.945 3.913 3.423 7.282 6.877 9.35l57.549 34.448c6.263 3.889 8.767 11.642 5.95 18.464l-22.77 55.177c-1.512 3.666-1.512 7.78.001 11.445z" fill="#ffffff" data-original="#000000" style=""/></g></g></svg>
