<?xml version="1.0"?>
<svg xmlns="http://www.w3.org/2000/svg" xmlns:xlink="http://www.w3.org/1999/xlink" xmlns:svgjs="http://svgjs.com/svgjs" version="1.1" width="512" height="512" x="0" y="0" viewBox="0 0 512 512" style="enable-background:new 0 0 512 512" xml:space="preserve"><g><g xmlns="http://www.w3.org/2000/svg"><path d="m319.573 0c-106.105 0-192.427 86.558-192.427 192.952 0 47.432 17.157 90.922 45.574 124.557l-32.27 32.268-23.355-23.424-103.043 103.35c-18.736 18.791-18.736 49.367 0 68.158 9.09 9.118 21.18 14.139 34.042 14.139s24.951-5.021 34.042-14.138l102.981-103.287-23.484-23.553 32.16-32.158c33.754 29.296 77.74 47.041 125.78 47.041 106.104-.001 192.427-86.559 192.427-192.953s-86.323-192.952-192.427-192.952zm-258.683 476.68c-3.42 3.431-7.965 5.32-12.796 5.32s-9.375-1.889-12.796-5.32c-7.091-7.112-7.091-18.683 0-25.795l81.798-82.041 25.656 25.732zm258.683-120.776c-89.562 0-162.425-73.1-162.425-162.952s72.863-162.952 162.425-162.952c89.561 0 162.425 73.1 162.425 162.952s-72.864 162.952-162.425 162.952z" fill="#ffffff" data-original="#000000" style=""/><path d="m361.618 188.777c11.948-11.024 19.432-26.741 19.432-44.157 0-33.272-27.315-60.341-60.89-60.341-33.574 0-60.889 27.069-60.889 60.341 0 17.416 7.484 33.132 19.432 44.157-16.856 12.64-27.781 32.778-27.781 55.419v49.235h138.477v-49.235c0-22.641-10.925-42.779-27.781-55.419zm-41.458-74.498c17.032 0 30.888 13.611 30.888 30.341s-13.856 30.341-30.888 30.341c-17.031 0-30.887-13.611-30.887-30.341s13.856-30.341 30.887-30.341zm39.237 149.153h-78.474v-19.235c0-21.634 17.602-39.235 39.237-39.235s39.237 17.601 39.237 39.235z" fill="#ffffff" data-original="#000000" style=""/></g></g></svg>
