<?xml version="1.0"?>
<svg xmlns="http://www.w3.org/2000/svg" xmlns:xlink="http://www.w3.org/1999/xlink" xmlns:svgjs="http://svgjs.com/svgjs" version="1.1" width="512" height="512" x="0" y="0" viewBox="0 0 512 512" style="enable-background:new 0 0 512 512" xml:space="preserve"><g><g xmlns="http://www.w3.org/2000/svg"><path d="m152.633 199.767c0 21.56 17.54 39.1 39.1 39.1h128.533c21.56 0 39.1-17.54 39.1-39.1 0-40.809-23.566-76.009-57.813-92.826 38.331-39.331 9.942-107.092-45.554-106.941-55.492-.152-83.885 67.618-45.554 106.939-34.273 16.831-57.812 52.069-57.812 92.828zm103.367-169.767c18.307 0 33.2 14.894 33.2 33.2-1.669 43.983-64.738 43.971-66.4 0 0-18.306 14.893-33.2 33.2-33.2zm0 96.4c40.589 0 73.366 32.84 73.366 73.367 0 5.018-4.082 9.1-9.1 9.1h-128.533c-5.018 0-9.1-4.083-9.1-9.1 0-40.59 32.845-73.367 73.367-73.367z" fill="#ffffff" data-original="#000000" style=""/><path d="m148.919 380.074c38.331-39.331 9.943-107.092-45.554-106.941-55.492-.152-83.885 67.618-45.554 106.939-34.272 16.831-57.811 52.07-57.811 92.828 0 21.56 17.54 39.1 39.1 39.1h128.533c21.56 0 39.1-17.54 39.1-39.1 0-40.809-23.566-76.009-57.814-92.826zm-45.552-76.941c18.307 0 33.2 14.894 33.2 33.2-1.669 43.983-64.738 43.971-66.4 0 0-18.306 14.893-33.2 33.2-33.2zm64.266 178.867h-128.533c-5.018 0-9.1-4.083-9.1-9.1 3.565-97.267 143.224-97.157 146.733.001 0 5.016-4.082 9.099-9.1 9.099z" fill="#ffffff" data-original="#000000" style=""/><path d="m454.187 380.074c38.331-39.331 9.943-107.092-45.554-106.941-55.492-.152-83.885 67.618-45.554 106.939-34.273 16.831-57.812 52.07-57.812 92.828 0 21.56 17.54 39.1 39.1 39.1h128.533c21.56 0 39.1-17.54 39.1-39.1 0-40.809-23.566-76.009-57.813-92.826zm-45.553-76.941c18.307 0 33.2 14.894 33.2 33.2-1.669 43.983-64.738 43.971-66.4 0 0-18.306 14.893-33.2 33.2-33.2zm64.266 178.867h-128.533c-5.018 0-9.1-4.083-9.1-9.1 3.565-97.267 143.224-97.157 146.733.001 0 5.016-4.082 9.099-9.1 9.099z" fill="#ffffff" data-original="#000000" style=""/><path d="m316.681 328.013-16.066-24.1c-12.082-16.545-36.086.544-24.441 17.42h-40.345c11.643-16.867-12.357-33.971-24.443-17.421 0 0-16.066 24.1-16.066 24.1-3.359 5.039-3.359 11.603 0 16.642l16.067 24.1c2.785 4.177 11.619 10.282 20.801 4.16 7.213-4.774 8.804-14.689 3.64-21.58h40.345c-5.163 6.891-3.574 16.807 3.641 21.581 8.891 5.926 17.704.485 20.801-4.161l16.066-24.1c3.359-5.038 3.359-11.602 0-16.641z" fill="#ffffff" data-original="#000000" style=""/><path d="m355.205 108.462c42.348 28.551 70.438 73.797 77.069 124.136.862 6.547 7.031 14.202 16.83 12.913 8.213-1.082 13.994-8.617 12.912-16.831-7.752-58.855-40.57-111.739-90.04-145.093-6.87-4.63-16.191-2.816-20.823 4.052-4.631 6.869-2.816 16.192 4.052 20.823z" fill="#ffffff" data-original="#000000" style=""/><path d="m62.896 245.51c9.8 1.289 15.976-6.43 16.83-12.913 6.63-50.339 34.72-95.584 77.068-124.135 6.869-4.631 8.683-13.954 4.052-20.823s-13.955-8.683-20.823-4.052c-49.471 33.353-82.29 86.237-90.041 145.093-1.08 8.214 4.701 15.749 12.914 16.83z" fill="#ffffff" data-original="#000000" style=""/></g></g></svg>
