<?xml version="1.0"?>
<svg xmlns="http://www.w3.org/2000/svg" xmlns:xlink="http://www.w3.org/1999/xlink" xmlns:svgjs="http://svgjs.com/svgjs" version="1.1" width="512" height="512" x="0" y="0" viewBox="0 0 512 512" style="enable-background:new 0 0 512 512" xml:space="preserve"><g><g xmlns="http://www.w3.org/2000/svg"><path d="m487.084 279.939c-15.367-6.366-32.223-3.013-43.985 8.75l-71.271 71.271c.115-1.305.173-2.625.173-3.959 0-24.813-20.187-45-45-45h-66.458l-36.256-18.128c-15.536-7.768-32.926-11.873-50.293-11.873-20.378 0-40.385 5.542-57.858 16.026l-7.328 4.397c-5.54-12.039-17.71-20.423-31.808-20.423h-62c-8.284 0-15 6.716-15 15v170c0 8.284 6.716 15 15 15h62c15.918 0 29.378-10.685 33.61-25.257l82.08 24.624c1.398.42 2.85.633 4.31.633h151.117c29.344 0 56.571-13.233 74.7-36.307l80.559-102.529c5.561-7.079 8.624-15.935 8.624-24.936 0-16.635-9.547-30.923-24.916-37.289zm-410.084 31.061c2.757 0 5 2.243 5 5v25h-52v-30zm5 135c0 2.757-2.243 5-5 5h-47v-80h52zm397.786-122.37-80.558 102.529c-12.404 15.787-31.033 24.841-51.111 24.841h-148.916l-87.201-26.161v-90.347l19.571-11.742c12.812-7.687 27.481-11.75 42.423-11.75 12.734 0 25.486 3.01 36.875 8.705l39.423 19.711c2.083 1.042 4.379 1.583 6.708 1.583h70c8.271 0 15 6.729 15 15s-6.729 15-15 15h-90c-8.284 0-15 6.716-15 15s6.716 15 15 15h130c3.979 0 7.793-1.581 10.606-4.394l86.705-86.705c4.417-4.418 9.368-3.043 11.292-2.246 1.923.797 6.396 3.324 6.396 9.573.001 2.312-.786 4.586-2.213 6.403z" fill="#ffffff" data-original="#000000" style=""/><path d="m78.306 214.642c8.028 6.268 17.693 9.551 27.593 9.551 3.663 0 7.358-.449 11.015-1.363l67.575-16.894c13.76-3.44 23.857-14.699 26.057-28.34h205.454c4.714 0 9.154-2.216 11.988-5.984l20-26.591c1.955-2.599 3.012-5.764 3.012-9.016v-43.409c0-8.284-6.716-15-15-15h-50c-6.007 0-11.435 3.583-13.794 9.107l-6.109 14.301h-20.193l-6.109-14.301c-2.359-5.524-7.787-9.107-13.794-9.107h-115.455c-2.201-13.641-12.298-24.9-26.057-28.339l-67.575-16.894c-13.537-3.384-27.609-.4-38.607 8.187-10.999 8.588-17.307 21.515-17.307 35.47v103.153c0 13.954 6.308 26.882 17.306 35.469zm243.9-92.745c2.359 5.524 7.787 9.107 13.794 9.107h40c6.007 0 11.435-3.583 13.794-9.107l6.109-14.301h25.097v23.397l-12.487 16.603h-197.513v-40h50v8.409c0 8.284 6.716 15 15 15s15-6.716 15-15v-8.409h25.097zm-225.437-57.701c2.676-2.089 5.897-3.183 9.197-3.183 1.221 0 2.453.15 3.672.455l67.575 16.894c2.23.558 3.787 2.552 3.787 4.851v9.384 70 9.385c0 2.298-1.558 4.293-3.788 4.851l-67.574 16.894c-4.513 1.128-9.203.134-12.87-2.729-3.665-2.864-5.768-7.174-5.768-11.825v-36.577h15c8.284 0 15-6.716 15-15s-6.716-15-15-15h-15v-36.576c0-4.652 2.103-8.961 5.769-11.824z" fill="#ffffff" data-original="#000000" style=""/></g></g></svg>
