<?xml version="1.0"?>
<svg xmlns="http://www.w3.org/2000/svg" xmlns:xlink="http://www.w3.org/1999/xlink" xmlns:svgjs="http://svgjs.com/svgjs" version="1.1" width="512" height="512" x="0" y="0" viewBox="0 0 512.002 512.002" style="enable-background:new 0 0 512 512" xml:space="preserve" class=""><g>
<g xmlns="http://www.w3.org/2000/svg">
	<g>
		<path d="M500.534,211.419l-25.471-6.184c-5.606-24.328-15.098-47.232-28.306-68.313l13.021-21.701    c3.541-5.902,2.611-13.457-2.256-18.324l-42.425-42.424c-4.866-4.868-12.423-5.798-18.323-2.256l-21.702,13.021    c-21.08-13.209-43.983-22.7-68.312-28.305l-6.185-25.471C298.943,4.735,292.92,0,286,0h-59.999    c-6.921,0-12.943,4.735-14.577,11.461l-6.184,25.471c-24.328,5.606-47.232,15.097-68.312,28.305l-21.703-13.021    c-5.902-3.54-13.457-2.611-18.323,2.256L54.479,96.898c-4.867,4.867-5.797,12.421-2.256,18.324l13.02,21.701    c-13.209,21.079-22.7,43.983-28.305,68.313l-25.471,6.184c-6.725,1.634-11.461,7.656-11.461,14.577v59.999    c0,6.921,4.735,12.943,11.461,14.577l25.481,6.187c6.041,26.031,16.779,50.971,31.468,73.19l-55.227,55.228    c-17.544,17.544-17.544,46.09,0,63.634c17.589,17.59,46.043,17.592,63.634,0l55.228-55.228    c22.219,14.69,47.158,25.427,73.19,31.468l6.187,25.48c1.633,6.726,7.656,11.461,14.577,11.461h59.999    c6.921,0,12.943-4.735,14.576-11.461l6.185-25.471c24.329-5.606,47.233-15.097,68.313-28.305l21.701,13.02    c5.901,3.541,13.456,2.611,18.323-2.256l42.425-42.424c4.867-4.867,5.797-12.422,2.256-18.324l-13.021-21.701    c13.209-21.081,22.7-43.984,28.306-68.313l25.472-6.184c6.726-1.633,11.461-7.656,11.461-14.577v-59.999    C511.995,219.075,507.26,213.053,500.534,211.419z M55.609,477.595c-5.866,5.865-15.342,5.866-21.209,0    c-5.847-5.847-5.847-15.361,0-21.209l107.045-107.045c0.029-0.028,0.057-0.057,0.085-0.085l43.85-43.85    c4.498-4.498,5.67-11.344,2.924-17.082c-6.859-14.332-8.936-30.425-6.006-46.541c5.388-29.639,29.851-54.103,59.491-59.491    c4.747-0.863,9.491-1.292,14.19-1.292c3.579,0,7.131,0.249,10.637,0.744l-21.223,21.223c-17.544,17.544-17.544,46.09,0,63.634    c17.543,17.543,46.089,17.544,63.634,0l21.223-21.223c1.146,8.108,0.973,16.464-0.547,24.826    c-5.389,29.64-29.853,54.103-59.492,59.491c-16.115,2.931-32.208,0.853-46.541-6.006c-5.738-2.746-12.583-1.575-17.082,2.924    l-43.848,43.848c-0.03,0.03-0.06,0.06-0.09,0.09L55.609,477.595z M350.755,210.715c-2.102-4.391-6.202-7.488-11-8.31    c-4.794-0.816-9.695,0.736-13.137,4.179l-38.805,38.804c-5.848,5.848-15.362,5.846-21.209,0c-5.847-5.847-5.847-15.362,0-21.209    l38.805-38.805c3.441-3.441,5-8.339,4.179-13.137s-3.919-8.899-8.31-11c-20.063-9.602-42.489-12.527-64.857-8.462    c-20.563,3.738-39.471,13.753-54.68,28.961c-15.209,15.209-25.224,34.117-28.961,54.68c-3.403,18.719-1.909,37.479,4.298,54.862    l-22.91,22.911c-11.641-24.409-15.729-52.053-11.532-79.558c8.587-56.273,55.656-103.371,111.92-111.987    c43.54-6.665,86.149,7.143,116.899,37.893c30.75,30.749,44.562,73.358,37.894,116.9c-8.617,56.264-55.714,103.333-111.987,111.92    c-27.505,4.198-55.15,0.109-79.56-11.532l22.911-22.911c17.382,6.207,36.144,7.702,54.862,4.298    c20.564-3.738,39.471-13.753,54.68-28.961c15.209-15.209,25.224-34.116,28.961-54.68    C363.283,253.204,360.357,230.776,350.755,210.715z M481.996,274.201l-23.223,5.638c-5.741,1.394-10.129,6.027-11.208,11.835    c-5.014,26.972-15.401,52.049-30.872,74.532c-3.332,4.841-3.529,11.182-0.506,16.221l11.841,19.734l-25.862,25.862l-19.734-11.84    c-5.039-3.024-11.379-2.826-16.221,0.505c-22.482,15.472-47.559,25.858-74.531,30.871c-5.808,1.08-10.441,5.468-11.835,11.208    l-5.639,23.225h-36.411l-5.638-23.223c-1.394-5.741-6.027-10.129-11.835-11.208c-23.536-4.375-46.243-13.175-66.557-25.695    l21.791-21.791c24.605,13.743,52.337,20.893,80.68,20.892c8.518,0,17.096-0.646,25.654-1.952    c33.702-5.143,65.909-21.613,90.686-46.375c24.779-24.763,41.268-56.961,46.429-90.66c8.129-53.083-8.76-105.079-46.334-142.653    c-37.575-37.575-89.573-54.465-142.653-46.333c-33.699,5.161-65.897,21.649-90.66,46.428    c-24.763,24.778-41.232,56.985-46.375,90.687c-5.651,37.037,1.07,74.332,18.943,106.331l-21.794,21.794    c-12.52-20.314-21.321-43.02-25.694-66.558c-1.08-5.808-5.468-10.441-11.208-11.835l-23.223-5.638v-36.411l23.223-5.638    c5.741-1.394,10.129-6.027,11.208-11.836c5.013-26.974,15.4-52.05,30.871-74.531c3.332-4.841,3.53-11.182,0.506-16.221    l-11.84-19.734l25.862-25.862l19.736,11.841c5.039,3.022,11.38,2.825,16.221-0.506c22.482-15.472,47.557-25.858,74.529-30.871    c5.809-1.08,10.442-5.468,11.836-11.208l5.637-23.227h36.411l5.639,23.223c1.394,5.741,6.027,10.129,11.835,11.208    c26.972,5.013,52.048,15.4,74.53,30.871c4.841,3.332,11.181,3.53,16.221,0.506l19.736-11.841l25.862,25.862l-11.841,19.734    c-3.023,5.039-2.826,11.379,0.505,16.221c15.473,22.484,25.859,47.56,30.873,74.532c1.079,5.808,5.467,10.441,11.208,11.835    l23.223,5.638V274.201z" fill="#ffffff" data-original="#000000" style="" class=""/>
	</g>
</g>
<g xmlns="http://www.w3.org/2000/svg">
</g>
<g xmlns="http://www.w3.org/2000/svg">
</g>
<g xmlns="http://www.w3.org/2000/svg">
</g>
<g xmlns="http://www.w3.org/2000/svg">
</g>
<g xmlns="http://www.w3.org/2000/svg">
</g>
<g xmlns="http://www.w3.org/2000/svg">
</g>
<g xmlns="http://www.w3.org/2000/svg">
</g>
<g xmlns="http://www.w3.org/2000/svg">
</g>
<g xmlns="http://www.w3.org/2000/svg">
</g>
<g xmlns="http://www.w3.org/2000/svg">
</g>
<g xmlns="http://www.w3.org/2000/svg">
</g>
<g xmlns="http://www.w3.org/2000/svg">
</g>
<g xmlns="http://www.w3.org/2000/svg">
</g>
<g xmlns="http://www.w3.org/2000/svg">
</g>
<g xmlns="http://www.w3.org/2000/svg">
</g>
</g></svg>
