<?xml version="1.0"?>
<svg xmlns="http://www.w3.org/2000/svg" xmlns:xlink="http://www.w3.org/1999/xlink" xmlns:svgjs="http://svgjs.com/svgjs" version="1.1" width="512" height="512" x="0" y="0" viewBox="0 0 512 512" style="enable-background:new 0 0 512 512" xml:space="preserve"><g><path xmlns="http://www.w3.org/2000/svg" d="m489.514 296.695-21.3-17.534c-14.59-12.011-14.564-34.335.001-46.322l21.299-17.534c15.157-12.479 19.034-33.877 9.218-50.882l-42.058-72.846c-9.818-17.004-30.292-24.344-48.674-17.458l-25.835 9.679c-17.696 6.628-37.016-4.551-40.117-23.161l-4.535-27.214c-3.228-19.366-19.821-33.423-39.455-33.423h-84.115c-19.635 0-36.229 14.057-39.456 33.424l-4.536 27.213c-3.107 18.643-22.453 29.778-40.116 23.162l-25.835-9.68c-18.383-6.886-38.855.455-48.674 17.458l-42.057 72.845c-9.817 17.003-5.941 38.402 9.218 50.882l21.299 17.534c14.592 12.012 14.563 34.334 0 46.322l-21.3 17.534c-15.158 12.48-19.035 33.879-9.218 50.882l42.058 72.846c9.818 17.003 30.286 24.344 48.674 17.458l25.834-9.679c17.699-6.631 37.015 4.556 40.116 23.161l4.536 27.212c3.228 19.369 19.822 33.426 39.456 33.426h84.115c19.634 0 36.228-14.057 39.455-33.424l4.535-27.212c3.106-18.638 22.451-29.781 40.117-23.161l25.836 9.678c18.387 6.887 38.856-.454 48.674-17.458l42.059-72.847c9.815-17.003 5.938-38.402-9.219-50.881zm-67.481 103.728-25.835-9.679c-41.299-15.471-86.37 10.63-93.605 54.043l-4.535 27.213h-84.115l-4.536-27.213c-7.249-43.497-52.386-69.484-93.605-54.043l-25.835 9.679-42.057-72.846 21.299-17.534c34.049-28.03 33.978-80.114 0-108.086l-21.299-17.534 42.058-72.846 25.834 9.679c41.3 15.47 86.37-10.63 93.605-54.043l4.535-27.213h84.115l4.535 27.213c7.25 43.502 52.389 69.481 93.605 54.043l25.835-9.679 42.067 72.836s-.003.003-.011.009l-21.298 17.534c-34.048 28.028-33.98 80.113-.001 108.086l21.3 17.534zm-166.033-243.09c-54.405 0-98.667 44.262-98.667 98.667s44.262 98.667 98.667 98.667 98.667-44.262 98.667-98.667-44.262-98.667-98.667-98.667zm0 157.334c-32.349 0-58.667-26.318-58.667-58.667s26.318-58.667 58.667-58.667 58.667 26.318 58.667 58.667-26.318 58.667-58.667 58.667z" fill="#ffffff" data-original="#000000" style=""/></g></svg>
