<?xml version="1.0"?>
<svg xmlns="http://www.w3.org/2000/svg" xmlns:xlink="http://www.w3.org/1999/xlink" xmlns:svgjs="http://svgjs.com/svgjs" version="1.1" width="512" height="512" x="0" y="0" viewBox="0 0 510.383 510.383" style="enable-background:new 0 0 512 512" xml:space="preserve"><g><path xmlns="http://www.w3.org/2000/svg" d="m116.717 437.637-8.155-57.625c-1.161-8.202-8.759-13.927-16.953-12.75-8.203 1.16-13.911 8.751-12.75 16.953l1.826 12.905c-15.573-19.219-27.973-41.012-36.563-64.5-60.806-166.249 86.042-333.918 257.253-297.396 8.1 1.724 16.07-3.438 17.8-11.54 1.729-8.102-3.438-16.071-11.54-17.8-193.332-41.248-361.023 147.475-291.687 337.042 9.714 26.561 23.73 51.219 41.338 72.975l-14.494-2.784c-8.138-1.561-15.998 3.765-17.561 11.9-1.563 8.136 3.765 15.998 11.9 17.561l60.624 11.646c10.918 3.081 20.41-6.373 18.962-16.587z" fill="#ffffff" data-original="#000000" style=""/><path xmlns="http://www.w3.org/2000/svg" d="m494.757 167.618c-9.714-26.561-23.73-51.219-41.338-72.975l14.495 2.784c8.131 1.56 15.998-3.765 17.561-11.9 1.563-8.136-3.765-15.998-11.9-17.561l-60.636-11.649c-10.779-3.034-20.42 6.215-18.95 16.588l8.155 57.626c1.06 7.49 7.479 12.9 14.833 12.9 9.169 0 16.144-8.103 14.87-17.104l-1.826-12.905c15.573 19.219 27.973 41.012 36.563 64.499 42.585 116.433-17.31 245.865-133.515 288.525-39.755 14.595-82.543 17.661-123.738 8.872-8.099-1.728-16.071 3.438-17.8 11.54s3.438 16.071 11.54 17.8c46.737 9.972 95.264 6.496 140.336-10.05 132.036-48.47 199.727-194.723 151.35-326.99z" fill="#ffffff" data-original="#000000" style=""/><path xmlns="http://www.w3.org/2000/svg" d="m410.845 256.059c0-85.883-69.754-155.754-155.493-155.754s-155.493 69.871-155.493 155.754 69.754 155.754 155.493 155.754 155.493-69.871 155.493-155.754zm-280.986 0c0-69.341 56.296-125.754 125.493-125.754s125.493 56.413 125.493 125.754-56.296 125.754-125.493 125.754-125.493-56.413-125.493-125.754z" fill="#ffffff" data-original="#000000" style=""/><path xmlns="http://www.w3.org/2000/svg" d="m270.352 340.313v-12.521c25.993 0 44.079-20.4 44.079-43.366 0-23.913-19.431-43.367-43.314-43.367h-31.529c-7.342 0-13.314-5.996-13.314-13.367 0-7.114 5.599-13.366 13.523-13.366h30.187c5.297.053 10.539 2.44 14.388 6.555 5.658 6.05 15.15 6.366 21.201.707 6.05-5.659 6.366-15.151.707-21.201-9.408-10.058-22.494-15.899-35.928-16.054v-12.527c0-8.284-6.716-15-15-15s-15 6.716-15 15v12.521c-25.993 0-44.079 20.4-44.079 43.366 0 23.913 19.431 43.367 43.314 43.367h31.529c7.342 0 13.314 5.996 13.314 13.367 0 7.421-5.989 13.367-13.312 13.367-.07 0-.142-.001-.212-.001h-32.938c-3.737-.038-7.712-1.393-11.198-3.815-6.804-4.728-16.151-3.045-20.878 3.757-4.728 6.803-3.046 16.149 3.757 20.878 10.27 7.138 19.829 9.181 30.702 9.181v12.521c0 8.284 6.716 15 15 15 8.285-.002 15.001-6.718 15.001-15.002z" fill="#ffffff" data-original="#000000" style=""/></g></svg>
