<?xml version="1.0"?>
<svg xmlns="http://www.w3.org/2000/svg" xmlns:xlink="http://www.w3.org/1999/xlink" xmlns:svgjs="http://svgjs.com/svgjs" version="1.1" width="512" height="512" x="0" y="0" viewBox="0 0 512 512" style="enable-background:new 0 0 512 512" xml:space="preserve"><g><g xmlns="http://www.w3.org/2000/svg"><path d="m467 0h-422c-24.813 0-45 20.187-45 45v330c0 24.813 20.187 45 45 45h130.603l68.612 86.333c2.846 3.58 7.17 5.667 11.743 5.667s8.897-2.087 11.743-5.667l68.613-86.333h130.686c24.813 0 45-20.187 45-45v-330c0-24.813-20.187-45-45-45zm15 375c0 8.271-6.729 15-15 15h-137.925c-4.573 0-8.897 2.087-11.743 5.667l-61.374 77.225-61.373-77.225c-2.846-3.58-7.17-5.667-11.743-5.667h-137.842c-8.271 0-15-6.729-15-15v-330c0-8.271 6.729-15 15-15h422c8.271 0 15 6.729 15 15z" fill="#ffffff" data-original="#000000" style=""/><path d="m158 77.915h-83c-8.284 0-15 6.716-15 15v83c0 8.284 6.716 15 15 15h83c8.284 0 15-6.716 15-15v-83c0-8.284-6.716-15-15-15zm-15 83h-53v-53h53z" fill="#ffffff" data-original="#000000" style=""/><path d="m437 151.085h-219c-8.284 0-15 6.716-15 15s6.716 15 15 15h219c8.284 0 15-6.716 15-15s-6.716-15-15-15z" fill="#ffffff" data-original="#000000" style=""/><path d="m218 117.745h102.298c8.284 0 15-6.716 15-15s-6.716-15-15-15h-102.298c-8.284 0-15 6.716-15 15s6.716 15 15 15z" fill="#ffffff" data-original="#000000" style=""/><path d="m437 302.256h-219c-8.284 0-15 6.716-15 15s6.716 15 15 15h219c8.284 0 15-6.716 15-15s-6.716-15-15-15z" fill="#ffffff" data-original="#000000" style=""/><path d="m218 268.915h102.298c8.284 0 15-6.716 15-15s-6.716-15-15-15h-102.298c-8.284 0-15 6.716-15 15s6.716 15 15 15z" fill="#ffffff" data-original="#000000" style=""/><path d="m146.914 246.363-46.624 46.624-14.684-14.683c-5.857-5.857-15.355-5.857-21.213 0-5.858 5.858-5.857 15.355 0 21.213l25.29 25.289c2.929 2.929 6.768 4.394 10.606 4.394s7.678-1.465 10.606-4.394l57.23-57.23c5.858-5.857 5.858-15.355 0-21.213-5.855-5.857-15.354-5.857-21.211 0z" fill="#ffffff" data-original="#000000" style=""/></g></g></svg>
