<?xml version="1.0"?>
<svg xmlns="http://www.w3.org/2000/svg" xmlns:xlink="http://www.w3.org/1999/xlink" xmlns:svgjs="http://svgjs.com/svgjs" version="1.1" width="512" height="512" x="0" y="0" viewBox="0 0 512 512" style="enable-background:new 0 0 512 512" xml:space="preserve"><g><g xmlns="http://www.w3.org/2000/svg"><path d="m512 413.6h-18.938c-44.27 0-80.285-36.016-80.285-80.286v-146.354c0-81.387-62.34-148.479-141.776-156.055v-30.905h-30v30.906c-79.437 7.576-141.777 74.668-141.777 156.054v146.354c0 44.27-36.016 80.286-80.286 80.286h-18.938v30h150.383c18.488 41.318 59.644 68.4 105.617 68.4s87.129-27.082 105.617-68.4h150.383zm-256-353.415c69.904 0 126.776 56.872 126.776 126.776v131.354h-253.552v-131.355c0-69.904 56.872-126.775 126.776-126.775zm0 421.815c-29.267 0-55.895-14.815-71.501-38.4h143.003c-15.607 23.585-42.235 38.4-71.502 38.4zm-161.524-68.4c17.94-16.888 30.234-39.705 33.728-65.286h255.594c3.494 25.581 15.787 48.397 33.727 65.286z" fill="#ffffff" data-original="#000000" style=""/><path d="m256 286.244c53.567 0 97.147-43.58 97.147-97.147s-43.58-97.147-97.147-97.147-97.147 43.58-97.147 97.147 43.58 97.147 97.147 97.147zm0-164.294c37.025 0 67.147 30.122 67.147 67.147s-30.122 67.147-67.147 67.147-67.147-30.122-67.147-67.147 30.122-67.147 67.147-67.147z" fill="#ffffff" data-original="#000000" style=""/><path d="m240.632 226.22 15.368-15.367 15.367 15.367 21.213-21.213-15.367-15.367 15.367-15.368-21.213-21.212-15.367 15.367-15.368-15.367-21.213 21.212 15.368 15.368-15.368 15.367z" fill="#ffffff" data-original="#000000" style=""/></g></g></svg>
