<?xml version="1.0"?>
<svg xmlns="http://www.w3.org/2000/svg" xmlns:xlink="http://www.w3.org/1999/xlink" xmlns:svgjs="http://svgjs.com/svgjs" version="1.1" width="512" height="512" x="0" y="0" viewBox="0 0 512.004 512.004" style="enable-background:new 0 0 512 512" xml:space="preserve"><g><path xmlns="http://www.w3.org/2000/svg" d="m207.025 479.406c-1.016 0-2.042-.077-3.077-.237-56.263-8.688-107.862-37.305-145.292-80.581-37.825-43.732-58.656-99.698-58.656-157.586 0-64.374 25.068-124.894 70.587-170.413s106.039-70.587 170.413-70.587c58.657 0 115.185 21.322 159.17 60.038 43.579 38.358 71.859 91.016 79.629 148.272 1.485 10.945-6.183 21.022-17.128 22.508-10.953 1.485-21.022-6.184-22.508-17.128-13.438-99.02-99.06-173.69-199.163-173.69-110.832 0-201 90.168-201 201 0 98.271 73.106 183.666 170.052 198.635 10.916 1.686 18.399 11.901 16.713 22.818-1.525 9.881-10.042 16.951-19.74 16.951zm-25.788-149.357 74-75c3.693-3.743 5.763-8.789 5.763-14.047v-149c0-11.046-8.954-20-20-20s-20 8.954-20 20v140.794l-68.237 69.159c-7.758 7.863-7.673 20.526.19 28.284 3.897 3.845 8.973 5.763 14.046 5.763 5.164 0 10.325-1.988 14.238-5.953zm330.431 71.582c2.004-10.862-5.176-21.293-16.039-23.297-10.862-2.003-21.293 5.176-23.297 16.039-8.3 44.981-47.588 77.629-93.419 77.629-52.383 0-95-42.617-95-95s42.617-95 95-95c8.708 0 17.329 1.174 25.621 3.49 10.64 2.971 21.671-3.246 24.642-13.884s-3.246-21.671-13.884-24.642c-11.795-3.293-24.034-4.963-36.379-4.963-74.439 0-135 60.561-135 135s60.561 135 135 135c65.123-.001 120.954-46.419 132.755-110.372zm-108.08 10.087 87.394-86.502c7.851-7.77 7.916-20.433.145-28.284-7.77-7.851-20.433-7.916-28.284-.145l-83.858 83.002-25.93-25.93c-7.811-7.811-20.474-7.811-28.284 0s-7.811 20.474 0 28.284l29.448 29.448c6.812 6.812 15.78 10.22 24.75 10.22 8.908 0 17.82-3.362 24.619-10.093z" fill="#ffffff" data-original="#000000" style=""/></g></svg>
