<?xml version="1.0"?>
<svg xmlns="http://www.w3.org/2000/svg" xmlns:xlink="http://www.w3.org/1999/xlink" xmlns:svgjs="http://svgjs.com/svgjs" version="1.1" width="512" height="512" x="0" y="0" viewBox="0 0 512 512" style="enable-background:new 0 0 512 512" xml:space="preserve"><g>
<g xmlns="http://www.w3.org/2000/svg">
	<g>
		<g>
			<path d="M501.541,176.678l-20.515-35.803c-5.467-9.542-17.615-12.883-27.194-7.469c-3.022,1.707-6.321,2.573-9.808,2.573     c-11.029,0-20.001-8.972-20.001-20.001c0-7.082,3.814-13.708,9.956-17.29c9.488-5.536,12.737-17.689,7.274-27.22l-18.127-31.637     C412.614,21.489,395.59,8.337,375.19,2.8c-20.4-5.538-41.736-2.797-60.076,7.718L39.789,168.374     C15.302,182.413,0.056,208.688,0,236.983v76.004c0,11.047,8.954,20.001,20.001,20.001c11.029,0,20.001,8.972,20.001,20.001     S31.03,372.99,20.001,372.99C8.954,372.99,0,381.945,0,392.991v39.002c0,44.114,35.89,80.004,80.004,80.004H402.02     c44.114,0,80.004-35.89,80.004-80.004v-39.002c0-11.047-8.954-20.001-20.001-20.001c-11.029,0-20.001-8.972-20.001-20.001     s8.972-20.001,20.001-20.001c11.047,0,20.001-8.954,20.001-20.001v-34.912C512.206,254.189,521.243,211.064,501.541,176.678z      M469.658,229.336c-14.19-22.423-39.195-37.355-67.637-37.355h-49.705c3.442-5.966,3.724-13.544,0.052-19.95     c-5.493-9.583-17.716-12.9-27.299-7.406s-12.9,17.715-7.406,27.298c0.011,0.02,0.025,0.038,0.037,0.058H211.011     c-11.047,0-20.001,8.954-20.001,20.001s8.954,20.001,20.001,20.001h191.01c22.057,0,40.002,17.945,40.002,40.002v24.428     c-23.282,8.255-40.002,30.5-40.002,56.576c0,26.076,16.72,48.32,40.002,56.576v22.428c0,22.057-17.945,40.002-40.002,40.002     H80.004c-22.057,0-40.002-17.945-40.002-40.002v-22.428c23.282-8.255,40.002-30.5,40.002-56.576     c0-26.076-16.72-48.32-40.002-56.576v-24.428c0-22.057,17.945-40.002,40.002-40.002h31.002c11.047,0,20.001-8.954,20.001-20.001     s-8.954-20.001-20.001-20.001H80.004c-0.339,0-0.673,0.022-1.011,0.026L335.011,45.22c9.067-5.198,19.615-6.555,29.702-3.816     c10.088,2.739,18.506,9.242,23.704,18.314l9.953,17.37c-9.104,10.716-14.351,24.483-14.351,38.889     c0,33.086,26.917,60.003,60.003,60.003c3.523,0,7.032-0.313,10.483-0.926l12.326,21.51     C472.769,206.929,473.423,218.893,469.658,229.336z" fill="#ffffff" data-original="#000000" style=""/>
			<circle cx="332.017" cy="281.986" r="20.001" fill="#ffffff" data-original="#000000" style=""/>
			<circle cx="332.017" cy="351.989" r="20.001" fill="#ffffff" data-original="#000000" style=""/>
			<circle cx="332.017" cy="421.993" r="20.001" fill="#ffffff" data-original="#000000" style=""/>
			<circle cx="300.011" cy="120.975" r="20.001" fill="#ffffff" data-original="#000000" style=""/>
		</g>
	</g>
</g>
<g xmlns="http://www.w3.org/2000/svg">
</g>
<g xmlns="http://www.w3.org/2000/svg">
</g>
<g xmlns="http://www.w3.org/2000/svg">
</g>
<g xmlns="http://www.w3.org/2000/svg">
</g>
<g xmlns="http://www.w3.org/2000/svg">
</g>
<g xmlns="http://www.w3.org/2000/svg">
</g>
<g xmlns="http://www.w3.org/2000/svg">
</g>
<g xmlns="http://www.w3.org/2000/svg">
</g>
<g xmlns="http://www.w3.org/2000/svg">
</g>
<g xmlns="http://www.w3.org/2000/svg">
</g>
<g xmlns="http://www.w3.org/2000/svg">
</g>
<g xmlns="http://www.w3.org/2000/svg">
</g>
<g xmlns="http://www.w3.org/2000/svg">
</g>
<g xmlns="http://www.w3.org/2000/svg">
</g>
<g xmlns="http://www.w3.org/2000/svg">
</g>
</g></svg>
