<?xml version="1.0"?>
<svg xmlns="http://www.w3.org/2000/svg" xmlns:xlink="http://www.w3.org/1999/xlink" xmlns:svgjs="http://svgjs.com/svgjs" version="1.1" width="512" height="512" x="0" y="0" viewBox="0 0 512 512" style="enable-background:new 0 0 512 512" xml:space="preserve"><g><circle xmlns="http://www.w3.org/2000/svg" cx="75" cy="241" r="15" fill="#ffffff" data-original="#000000" style=""/><path xmlns="http://www.w3.org/2000/svg" d="m479.973 261.047-22.74-90.962c-5.018-20.068-22.969-34.085-43.656-34.085h-94.366l-13.979-55.915c-5.017-20.068-22.968-34.085-43.655-34.085h-163.154c-20.687 0-38.638 14.017-43.655 34.086l-22.74 90.961c-18.885 8.719-32.028 27.824-32.028 49.953v40c0 21.327 12.21 39.845 30 48.965v31.035c0 19.299 15.701 35 35 35h20c19.299 0 35-15.701 35-35v-25h30v35c0 21.327 12.21 39.845 30 48.965v31.035c0 19.299 15.701 35 35 35h20c19.299 0 35-15.701 35-35v-25h122v25c0 19.299 15.701 35 35 35h20c19.299 0 35-15.701 35-35v-31.035c17.79-9.12 30-27.637 30-48.965v-40c0-22.129-13.143-41.234-32.027-49.953zm-51.844-83.686 19.66 78.639h-233.578l19.66-78.638c1.673-6.69 7.656-11.362 14.552-11.362h165.154c6.896 0 12.879 4.672 14.552 11.361zm-344.258-89.999c1.673-6.69 7.656-11.362 14.552-11.362h163.154c6.896 0 12.879 4.672 14.552 11.361l12.16 48.639h-39.866c-19.25 0-36.126 12.142-42.421 30h-141.791zm-53.871 133.638c0-13.785 11.215-25 25-25h143.289l-7.5 30h-55.789c-8.284 0-15 6.716-15 15s6.716 15 15 15h48.289l-1.262 5.047c-11.204 5.173-20.378 14.002-25.992 24.953h-101.035c-13.785 0-25-11.215-25-25zm60 120c0 2.757-2.243 5-5 5h-20c-2.757 0-5-2.243-5-5v-25h30zm150 90c0 2.757-2.243 5-5 5h-20c-2.757 0-5-2.243-5-5v-25h30zm207 5h-20c-2.757 0-5-2.243-5-5v-25h30v25c0 2.757-2.243 5-5 5zm35-85c0 13.785-11.215 25-25 25h-252c-13.785 0-25-11.215-25-25v-40c0-13.785 11.215-25 25-25h252c13.785 0 25 11.215 25 25z" fill="#ffffff" data-original="#000000" style=""/><circle xmlns="http://www.w3.org/2000/svg" cx="225" cy="331" r="15" fill="#ffffff" data-original="#000000" style=""/><circle xmlns="http://www.w3.org/2000/svg" cx="437" cy="331" r="15" fill="#ffffff" data-original="#000000" style=""/><path xmlns="http://www.w3.org/2000/svg" d="m377 316h-92c-8.284 0-15 6.716-15 15s6.716 15 15 15h92c8.284 0 15-6.716 15-15s-6.716-15-15-15z" fill="#ffffff" data-original="#000000" style=""/></g></svg>
